<mxfile host="app.diagrams.net" modified="2024-01-15T03:02:28.692Z" agent="Mozilla/5.0 (Windows NT 10.0; Win64; x64) AppleWebKit/537.36 (KHTML, like Gecko) Chrome/120.0.0.0 Safari/537.36" etag="IAFOVggo118HYwxQxZ_3" version="22.1.18" type="github">
  <diagram name="第 1 页" id="9NlgPFvQ4lZjxvtHbO5Q">
    <mxGraphModel dx="1434" dy="738" grid="1" gridSize="10" guides="1" tooltips="1" connect="1" arrows="1" fold="1" page="1" pageScale="1" pageWidth="827" pageHeight="1169" math="0" shadow="0">
      <root>
        <mxCell id="0" />
        <mxCell id="1" parent="0" />
        <mxCell id="WDatNG11xKEBm6-NoSf6-1" value="" style="shape=image;verticalLabelPosition=bottom;labelBackgroundColor=default;verticalAlign=top;aspect=fixed;imageAspect=0;image=data:image/png,iVBORw0KGgoAAAANSUhEUgAAADwAAAA8CAYAAAA6/NlyAAAeQUlEQVRoBW1aCZBc1XX9gzBekoqdxWFfjBGSjAx4xcQCGwIYsBHSzMgsWmbvmd67R2JxOeXEOLgSHMBISGgZzT697z37aLTMvvWMhLULnGBXTBEnjp0iGCPQSZ173+8ZXFFVV0///v3/O/eee+6578sqjZ9CeegEvht5FY/F57ExfhzfjZzAhuhxlCZOoyzO1xmUx0+iPH5KPq9LnkFZ/JR8X2q+L02exfr4WZQmzkCO8bcxnn8KpbFTKJfzTqHc/K3XPgXen+eU8/zEaZTH9HdyL54r559CWey0Xjd2Cht4Pl+xk8V76Dq5Vj1X3hN6ba7DXrvFE0tjJ1GdP4oXD5/GTyd/ga2j57Ax8jM8nHituBCCJpj1snBdFIGUJc7IqzR2BuuTZ02A7BsoWAEkizwpALgADZQJqB0EXpvXJGhZuPm9CZx9TM8x97DPNcmwv5NzzbHivRKnYT2SPAN37l8x92+/wdu/fwd/eP89vPfeu/jFb/8Hr5x8C1uyJyQgzMj6xDl5lcWZTQI9i9LkaZTzPXoapYmzWJ84q8fl3c6yArCzyd/yXP5WAm6CqCw4gzJhkLKorJhFExw5lywi6xgcZd0iQJMESaQJHFlm7mHV9L+Bk2/9Nz54/318+N8FnH//PA6d+g9s7ubNmb1zH6atXMjc2F4IgXIxhqICKGHoyAXK3waMZP20LJwLKiVtpSQYzA8HQ5jEc8x5pDPLjICL1C4GR5kkxw1QDewZWM0Lb+L98+c/jLX46QLeO/97vDD1q2INlSZf0+wwQ8xUlNEm9U5jfeysLprZj5/GeskAF34G6wnEpr+pc406tUC/Y9aldCS4RgsE5NK/P5xR1ridXbkeQUt92/W7hBmxU7De/M07AC4UIf7xHxcufIC9079EefLnAnB98jVdlCySoPmi2BD0SREom2YiTMwoa59gBfhZFTB7obZYyfc8V8WLwWTQJNNSp8wmM6cvqXNeQ172MT1nQ/REMQg27e3fWe+e/8MfY/zQ5w8uXMC+42+iNHlOaE3AFCcCWB/nsXMos9VQ6KP1wprWOj+Ddaa2i7VLZshCFaBm2tBVtEIzqvSmDiwCEhoXa1fpLIrNY0XltgOjKs/jvAdf1n/+7t0PAfzjD++cP48fjpzE+vgJySZbD+tJFNmmtV1bzLSpUVFtsiDJVmXEzrBiaT1SqGQxJsN2rYmoxagPJuMxssgGbtOVSq3tUjOpGS7jMZ4rQTDCZdhgHfnXt3Dhwv9fw6TzxNlfYUsPb3BCbq5Ka4sLF6OtSCi4ZNHlzCLBkBnJc1gnrDAlwH5rgApt5W9VbgZDfmtKoFzeeX/9jbxHDWARPf5NgKQ369cWQf2NfX39/jSs58bO4Xfv/g648OE6JtiT//lrNAyy0R/XSBdVmTQzizYgCYARtVuP3IAZtVsQ2WBqeYNkShfNoMiizLn2Avlui5l+r+fJ9SV7ugZ+V6R01GTYDoiU2hLRip+EVZ44jhdmXsfkm2/h9d+8jbd/+7/49dvvoPf0v6MqfRwb+IqfQFnihKozhSdmtxWjnnZ0JQhqHKQtGZGisBUBmPpVumlAlOLmb1uoJBAmYCYodnA0uEuBaJYXa1jXwGBL4A21y2MnYJVFXkVZ6Bg2R4+hKnEaVd2vozL3S6yLnRBhejRxUqip1FKApQmTSdvlELBR1aLQ2AtemmXJNgXLXuzSVmXanCkFyaqhPfXAzrYInx0UXkcs5xL6ylpY2/zOVnEVLQbWosJ+10RwQ+QE1sZOY13iFB6NHhdxKhdanJWsykKludviYShkAEhWpT3ZgPRdFV2B2llSA2KftyS7RlG1H+uiBbBQ94+uYYMS16dtTClvwIpqnzDGhGs9BcuOnKip/JAWUvsmraTUoC0wRilt6lAJ17NulrQJiWqUrFgSXcmC9uFFahOsnW3DHBM4vaeezyBLtiQphuJG0GxWyfdGS+zyIAYpG6PsXA8/W6wvu9XIxMMhQACzx9qLWhwCBJABUx5V6hQvbIuGoZUEQupHBYrX47nClKJSqw21AyTXMqqtWTbfs4wYOPslXtoYFQko25t9n8USYw3r+tiTWcNsK0ltCTT+pfFzi9aRUZOsLjZ4gtDFaSvgOMcL2i8GxL6xHBNFPQnb/fCYGpDF1mafT7rze6H9Ei+uA4RqiVx/qc8WViibxKWZupWgmgDINeU3NqVJLY52xhjQQYmvLRa9aeKMlsmqLsKOpD2hmAgbatoOqWgYCEbuYQdSRYdZ4ALXCzNs6ttDiQm2GQxEeXkNyTTvdxpldhsSgEYXhEH2b3VoYb+WGpasmRoo0lnUVbNVTqpGF4VK52DT7EUYzI2ZIckwAalIbODATo9tL0aua6YhCShpamhul5C0MQ2etKBiqSgYKUOTsXK6MdtwCNuYPNY6165CxtKgmWFwLLFwdruQd46Apl2YhUgdyGBgQC4Rl6UmXqgoWTqlARI2LAZDBwO7FZG+iwtSbVCayzXN6KeqzmuQZbSuygB2hA1cB61scX7mZwWr/t6+FzOtttdiRgU0L2Q8r27VqAholBYXTTbYvVAsIOlkMmWDl4gX6WkoJs7J3gLShci12faoI0Z4CEBKIHEKG6j2MRoevYbcV8DxOua6cm9S3Gw+JM+CrOI6NyTOYh17OK9NfKmzsBytvWho70FdRzcaOnrR0NGDhrZeNHTycw+c7XzPw9nZDVdHD9xtPXB19MEV7oe7s0dfHd1wd3XD29UNV2c33J15uLv64erqga+jG75QHzyd/Wjo6oc71AdXqB++8AA8kQH4wv3wR/rgD/XAF+5DgJ+jA2gM9yIY7oM/3ItAtAeNPCfah23hQQTCQ2iMDCAQH8LWxAAa44PYFu1HY7wfW6MD2BodxNPhHjyd6sW22CC2xfvwdOIQvp8egNX03CY0/2QT9v/zRrT8y0a0/GQzmp/fjNYXNqP9xS1oe2ELOn+6GZ0vbkH7i5vQ+VIlwjuqEH25BrEdlejaUYHQ9i167KUKhHZUIbyzEqHt1Qi9XIUIXztqkNhVjfiuaiRfqUJydx0yu+uR3uNAdk89sk21yO2vR8++BuRbnOhrc6C7tR69rU70dbgx0FGPwU4XhiL1OBj2YzjsxEDIg6GQHwdDPhyKODES92Ei6cFYvBGTST8Ox/wYT/kwkd6G8aQXE6mnMJ7ZCqvzxcfQRSAvPo6uFzah84WNCL+wCeGfbkL0p5sQeWkTots3Ib59C6I7NiO2YwuSL1cgvasKqZ2VSO6sQOJlvm9B+uUKOZbaWYHkK5VI76xE+uVq5HdWIbO7Cpm91cjztb8Kvftq0dtch96mWvQ11WGgpR6DLQ4MttdjqL0OB9ocONBej4NtDhzscuBIVwNGIk4cDntwJOrCRMSNibAXoxEnxuJuTEX8mEm4MZnyYTobwGy6EXNpP6YzHhSSAcykA1jIBmFFdmxC7KXNiG7fgoQA2ozY9grEd1UgsaMC8Z0VSO2oQHJXJdKvVCL1ShUyuyqR212D7N4q5PYRTDVyeyuR3VOD7K5KZPZVontfFbK7q5HfU4XMnir0NFWgjwCba9G/vwaDLXUYbHOgv62u+PdQmwPDHQ0Y7iDIBhzqqsdIhxOHQw0YDTXgSNiFsYgXYzEnJqMejMXcmIx5MJZ0YyLulczOEFzKh9m0D9OZIGZTAczkCdaPo7kArNTLW5DcVYHUy5UChFkjIGYkR3C7ufBKZHfXILenBrl91cjvq0YPM7S3Bj1N1ejeX41sUxUyTTXItT+OydwjOF54FAuvrsPAr76Gg6/fiszRryMfqUJ/awMGO+pxsL0eBzrqcaCT7w0Y6qrHIYLsdOJQyIkjnS4BOBJy40jIhdGQGyNhDyaibozFvAJ4IuHBTNyDKX6O+zCdCGAuFUQh6cdcxo+5vA+F7DYUco04mg1iNvMkrPTezcjs3YL8nkrk99YgR8rtqUE3Qe2tQXdzDXr49/4a9O4nDWvRt78WfS116OffrQ4MtFSjv9WBA63VOPuzUrzx7pcweX4VDr5/DZ49/0k89d4n8IP//hSen/oSsvlHcZDZ6iRF63G4SwEe6nLiCIEKMJeAG436MBbxYCTuwmiUYD2YjHkxQeomvZhJEiQz68VkwodpZjcTwHTKh7lsUDJayAWwkGvUV+9TsJi1nn2V6NtfI1Trb7KB1KK/pQYD+2sxYOg3yM/NtRjoqMGBVlKyFgda6nCgxYGBNgfmhzbg17+/CwVchp0XPomdH1wC3zsXo+E/lsHxxjJU/PyjeOa1y5HNPorRsBujEQ/GuupxJMIMOjHCY1EPRiM+jMW9mIh7MBl1YzzmwTgBxxTwJIGm/ZhK+oS+MxkfZpME6sdsRsEW0kHME2g2gPluP451b8XR7u/BYsYIZLClCv0ti+AOtNViqL0egx0OoeBwe4OICI8d7KzHwZADw50NQk2CHU9W44237sIbH6xGz4Wr8PwHf44f/PZjqP1FCTb/rARre0uwNr0MdSc+hn8srMJAvgpjYSfGY6w/1qYLoxE3xiKsywCmhaYerc0YaevBRMKLKVKXgFN+EaLZdBBzaR8KGT9m0wHMZv2SzUImgPncNhzNB/GqgG3EQvc2WIOtNRhoVdBcOEWkn9lrcQjgobZ6DLY7MNjagAMt9RhgvZG+VNNWJ4bbXRiOOFAYfhTH37kJyQuX4ZXzH8czv/sT1J5Yhi0nLsLG4RKUZS/G2sRFqOj9OOpG/wxNB+7DaMiLkbATIyFmVWv0SNiLEQoSMysU5ndejMUJ2IPphGZVAKf8KGRIaxWpmRRFyo9COoBCzo9CLoj5fADH8kEcyz+Bhe6nYA211mCotRb9zQ70Cz3rMdhKgATkAAGzRfAYAzJI0PvrMMBzWhwYpghF6jHQU4qx967FDy58FK7XP4L60Y9g/aES3Ndt4aGeEpTnL8Z3c5fgobaLsS50MZ7O3IQDXW6MdLkk04dCLhEqoXWYNezESNSl1I+6MRrzYiyq4jSVcGMi5sNkwouZhFfrOOHHRDwo2Z/LeES0mPX5rA/zuQAKmUYczTPDsnjWqwO9zfUYaq4XMDbIwbZ6DLE/8p0gmx1S10PNdZL5w6FaHB16BOfevB1j56/Hc29fhMfmS/Dw0EX4Vk8Jvtlq4VthC/fHP4IH4pfg3v0X4f7mEjha/hpDoUoByxbE1nOYIMMueR81oMcIOuISsONhAmU9k/psSy5MxH2YSnowHvPKayIWwFSaLAhiJuvFbJY1bSjPtsQsCaUpRs316N2vmRMxal00AwcpXK0O9LXUYrCtBsNttTjUWYuxVBV+/ubfYO6969H1hxuw7b9K8OBRCw/nLKwJleBvQxa+FSrBmn0luGNnCe7aZeHruy18e8fHEG5dJ7QdC1MXtM8e6XDhSMQpIsa6Zk0TsIqcW6kec2M84pEXAzBFcaMOhD0Y5eeEW2g+HQ9gNuOXHryQC2Iu3whrsI0up7ZI0b7WelFeihQFaqiDfbMOQ6Q4s09z0NaAQ6zl9gYcSVTiwP+sQMcHl+OJ965Dwy9LUDFjYe2QhUfSFr4TK8G9HRbub7Jw304L33ipBGt+bOHb/3gJmlvLMJfwYDzeIDU8GnViNKoCJlmMuzCRdGEy6hJxE7VmLRu1niBwmo+Igp6K+jBFYUt6MJP2Yjbp15rO+jEn7ivAGq7DQBuzxndj59odONTlwCGqcYcTw10NOEiTQBdEY8CeSZsXcuJA2IEXT9+CJ/9wCb7/64/jodcsPEjAo8uwtv8i3BMuwb37SnDnLgt377Rw5/MluO3ZZfjOM59Cb2cFplJeVdyEH9NJ1qMPUzE3ppk1KjNtY8yLqYQqNh0VM8r+K+D4vYBkfXukJ0/HvZim00p5hdYzpHjSh7mkF9bhjgYc6HBguMuB4XYnDrHV0BhEHGoMOt0C7GCoHofofrpoApRaYgBCLsQn78fT859C2dRHsGHuoyibtnD72EV4sPsi3LPvYtzdfDHufuljWLvzE6hquRKBnddh+567RHgoLNPMRsYH9tO5lBeT4oHdmEn6MZVgv/VrYIxAzaT9mJFAeSVI7MeTtJYEKopNU+LFVMqtNjPlxxxfGT8s2jnpq+0OHGyntXPJazTslLphyzjc5cGI1BJbhEadhmAq6pbamcjVIdJzB76Xvw6u8WUoGy/BY/0Wvh1bhodf/FM8uf0mvNR0D/rbHsVwkuaiAXNZ1pkHhawHs2mPGP25jIrLDP0v/XCGQ4BaRrab2UxQLaM5Pse+y+BIYBQ8MzubJmAPplMezLBNJb2YTSnVLTqcw2E16oc769W3ilhQGd0YDXvU3rEXRt1i78bjTp1WhHZaQyPJevT1l+OJ/GewOfVRfCe+DPc2LUNt8+Vo37sBk0k3Chk3ZjNuzMQIUhdG00CzMJdl1hTAXFJ7KVuKAEowQ/TFAcynfTiaZruhZQyikNbscUjg75hFBkuuK5n1YZbBYxDjPlhjUSdGImrUadJpzikGYtINdSkWbAPjIh5q4ItWL+7FeNwNtgy2kN7Q43g+djuqOz+Ne5/8UwSfvQ3D4TpMkGJUz7guQGpKFqJZ5cJ5jJngAgtpH+YzXgHKz3MZDgYB6atHu/2Yp7kwmSa9SX9mk8AYJHFdqQAKPEYmJGhSvASsC6WH5bg1zt5mAE/EXAKE1o++VlQxorOoWEJ+T0cUcWGc82nEicmYC5NxJ9r3rsPXbl+OXT8oxVTShbm4V244mQqIPZxIqyuaznildidTfswnt4I0nU97MZ9jIAKSQSoueykB00UJ1QWIF3Osf9ZzUqlN0PTZPJclQCdW4DtFK+ODJUA5Z4Y4vailozJyMuGQLe1BgNebv90YZwA4tUjWvaKmzLKYAqpoyotXnqvGylU340d19yO5rxJNz5bjR089hO/77sUP/Q9g9w/LsP/ZcrT8Uxk6t29Bb2cVjrS5MJFyYTbuRiHrxtGcD0fzrGWCUUsptS1UDWI+Q/voRYGgRZWZTZYDXwQbQCHrkwGC31PsLA7UVF15MYsEytpMsJlrz5tIuMTH0spJMJLqcOhyxkUdaev8GGcfjPjBsa63yYXnnliLnT8uwz8EH8A937gBn/v8lfji6qvwxZs/izu+uhoP3rUSD35zJe6980ZsePALeGztrXBVfA3PbXsAke2Pgdmfp6iJP1bKc+eCC5dpiKaCcy+dVN6LuRwzrrVcoC4wIATMWs8G5DuLAFmPrNMJetWEOhX2QLFrDECCjd8r37OOJ+JOjEe94mqE0hIkPyZifswk/JhMbsPhuBfPPbkWjso7sfG+lVjzlevw+VXX4JZVV+Ebt92E6ke+gsqNX8U9d6zEF275LL78heux+pYrcPOKK3Dnl1bg8YdW47m/fxg9ezZJ9ihWVN/ZlCr1PIWLAwJBiWfW7JIN8pnZ5cSUXTxvIR2ARWoSDKcRChN7mYAnRUlZZplNP+HDODOcNLXMINnfmffxCGvJh8lUEN0tNdha/218/cvX45YVl2L58quw/NprcON1V2LVdZ/Gihs/jVU3XIPVy6/AjZ+5HKtuvAw333Q1blh+KVbccAVWf+5qPHD3zfgH7/3INdXJ7DubadRJiCCo2HmfiJiApqKTCVk/Cnk/5iloBCwBoJoHMJcJwpribkGU2VGgUosEyM8RZlydzZQ4HLcwgE6Gc6mywQd+5qzK8/k+m/NjpMuHph9vQF35V3HfnTfgS7fegC9+/hqsuP46fObyT+PKyz6J66/9FK699i/wmSv+Esuv/iusvvEyfPaGS7H82ktx6+euxm2rV+DBO7+MJ2rvQuylchxsp2UMyG7Ggg2G4ClqZIC0LnpnVX7SW7IsRiUgBsaiMxlj/RGg0NuNMY5fUpseTHMSIc2Txq/KZ9o5X3EY59/qdHyYjPmEEVOJAI50OBHf8Qi2f+8+POP9Jlybv4a68ttx/5rV+Pqtl+LWmy/H6lVXYcXKK/C5VVdg5aqrsPrGq7F61dW49fNXY+XyK/Hl1Vfjm2tW4u989yC5sxLjiSBmsxQkZo0vUp3i5BUV1oxSzJhRzbC0tGyjbP1YXCzBUXwmksygDUa3UKbjfPeI8qp39Yll4x7SVDwgwOW3DBBnVL5zn4nAZZJRVWcADod9Moy0/NPjeP57D+CZ4P1o2LQGNY/eAf/GO/B37rvQuHENvBvvQF35GlQ/chsqy2+Dp/Ju/OTvyzHQRnFsFGC0ilRk3aFk1ilSCpJCJb2YrU5ETRnA45bUbNwjm9XjKRcmU07dQuGmmGyMsS49YsYFTIqixKmE2edeEkWOQKns+s565yAwESYrfOKs2Be5yTadCur2Da+ToxAGMMyNunYXxmIeHO7wYiTilaHlSKIBw10e2d3kxsB0vBFTzDBVmkAybEdGjXms6Jk5KGhA1K7SedGv+2Exa2IojFJzB5BmnMdl6mBTF0ovTinTaaX8dJx+WM+bjHMvSl1akQncQqX55yQU9wkgGd3obZNBMfjz7LvpRjEJDBxVnj1YmUcv7MY83RetZ4Ie2/hpGhQRJBoSOixtX6LSkm3t01Tyo3lSXkdEi/u5jOwEt0hSNlDNHm9KsELRFOuYWyqkt1v/TvtQSPFcNRsTSb9kmpPKNIHKXrH+hmyQqYaPP8TYMwPG8Mv2Kp2Xquk8t2iK9tArtGUgdKholL1nESRxVLSfqs4EJxlN0ZYGZV+LfpwbeQt5bVEWqSiilNZtUWaHkwY3uKdjqsCi5Kx1fuajjLR6Yg0IHYxL95UYMAmGy2yOc26lsnrUJ4uf9om5ITPkPiyLrFfMhNKQnpk2VP20qi/9caOA4C7lvHxnRj5zLp8ssOfyfGZ+PhuUFzPLPS2+juVIabYlPqpIcg/Yg5kIacUaJB05nBOgSvoUjUWcC9Vs8becVbmRJh466SzOoPIdf0tWcNYl6JS+8wkBZ2AZ0NP0uMw2zw2o+SdFM07M0jnldCBQu6hthuczk/yOKr2Q59asTlNkBhWagAsCWp8pyf40AcucKLsGTjH5M2mtH9l94GJlt8CvOxFUbJkxFTT3jqdIvYRHtlOYTQKRyYVm3uwhzyZNrbMW0ywBYxN5fdIv5cVcwg3em5OPjIKclMRZ+VCIs+bdmEvpbiSzKMC4I5n3YCHjxoKddXpraUesW27GB3Asw2wz+15YXCwfX3CYZ1Znkm7JmNCNuweyK6jmXSYSUWdmh7TnQjhoEyT/JjvUh4uym1FwKkNGaEal5hkUGhTOr8y6+T0FajbtEqGaS7tR4AxtAsjFSiCM2kpmMx4c4+ZBjn7Zi6PchGfmZV5WtyUP0cSVkR0+WKQnFy9KLFsopuYoUmbTW7dTfPJ0bjrlBl9TKX5WBsxyoaQ5dxWkDHiOoXua7UifFPB6MoxzJJStGEadwwBB80mC7n7IDojQllSn6deBXgYDzsa0j9mgPP6khWR/1TbFdqUDB4/z8SifGLLmbV2wZP9WaiuAWaEYb8wFM4MEojSWDEk/plrq/MnNND7T0XlUs0wWzNKUCPU9oqDyHIiAzIjHDMjcmvRiTp4T+WQvmdsznIRk41z2k5WeAjip1JeNAWYstxULKS8WZO7VgJANMiHl6LGDujvCc6WeaUZ8sPjIQh5Cya5AQBfFiJKCBGjPoUk36KdpLmx1lR7MrROKDhcuYsbdBaU2B3cpAwFr/01qugWoiJgouwZA2CbA2Ht1S4jZn2XWWKOsWVFjZpdbPGZYyOnecyHFc/mkwYsFeWrI7w1grjHhgSUKaWzaXIKtIGCib4RKapPHNOPseZodWk7zxI6LYmCEurqzMJOgsVhCVy5GTD5Vl2IVxBTpLqbB0JYgZWA3Qzxr0tQlVXghrz11ns+MMlt1xjWzMufi+ZRHAiK/MYLFWXgh24gFTlopHyzxmhJB41S4eKOmEgxuisnCqaAqMqwHios8xiiCoC0NCJXFocXdmDEjm4gTxUiGcFsIKXYaEGatkHFJbbIV6V4W3VVAdj2O5QJ4lWC7GzGfp+KyLr1Y6FZDIQDTLnVT8nudoGg+eK7UN7tBOsi2xD2gACa5IOOsJlJat9N8MpfiyOfHZJoujK3Gj3E6qpQbkxmquv5XA7Yx7kvNcl8syp0Q/ocSbqpz7NTnufLAOubDGMdRmca8mGVfl804t260kVHceuVv+f8z0h4jPrpzcYwAsluNmQiCY6LsZuT4OzKN70EdIZP8fx5bMZMNml2Sp0hp3eWTR4zJoACUhTGbySCmGBBSV37cKF53KmamkTTPD5qdRb4HMSnqzHptlN/zf9Sw9mfS21BINxrTQmPBHUXSnvTkM96A/FcFtg7WJ8c/OW7+b8bR/FYcyzaiwP+vIcrLh92NArx4PgU0TcVmcLbiWH6rXEOcFnHmgvg/EbyGTAdQ/VEAAAAASUVORK5CYII=;" vertex="1" parent="1">
          <mxGeometry x="40" y="160" width="60" height="60" as="geometry" />
        </mxCell>
        <mxCell id="WDatNG11xKEBm6-NoSf6-2" value="" style="shape=image;verticalLabelPosition=bottom;labelBackgroundColor=default;verticalAlign=top;aspect=fixed;imageAspect=0;image=data:image/png,iVBORw0KGgoAAAANSUhEUgAAADwAAAA8CAYAAAA6/NlyAAAa2UlEQVRoBW1YCXBc1ZVtC8ikUpUhmSqgwEAcY2wIYRnASWAMhMWEJUywLYNtWZIla2upu9UtmUxIZrJMMhPAxsZgvGqXWksvknqVLNmSZVteJWux8JJMkmLIkGWKhEklgdjGZ+rc+97vNomqfv3/+7//3j33nHvu+3ItC58Bj6XZ55D+Zp8t4738dhrLwuYIncay0Cnk8mx/C59GLq9Dp7DM/G7ndeayY533ODfn4Jp8N/swz5yx5hnH2nH22rzP9ZdmP8t6nhs+AxcXWZq9EMFHDODshcyECs4m5DRyBRyBZw4nGOf9zPhLgIf4fiaBMpdNiAXgBG/H2uTbRGXel0TL+9nPNJGce2n4LAFrMALaMJ1hxWReguK4s0YNFmiGGWHWCdYEYRm3CXSUZJVg5rHjnHVswBacnc8kjonKJsneGywZUjLxWfU4gO0gBUtZmMmpgMjZLNkpaJWtSpdSIVO54VOONC9JAAEb0DK/ZTU7QQ6TWWAtW5eoS2V9yfx8/rH3HeU4SVA8IukMy6xlBbQkfNZcm3NEz5KILl30ufBJLDfZZRmoJG2iMr5gk+mcDZM2ucvCp6TuFIS+r2VlknsJcAWn7+pzvifjzbzEIyRlKUoSwhomQH05I5/Mwqxv+zInP4sloVPwDJ7Fq0ffxtYT/4NNh95BSeoslodPIbfrrSwlMHCVnta3NZzMmetIkiRQla2slx3o3wBrCXJYZdItwxa0nZMek8WySFpAk8HIWZBZyZBzNhkPn8ZzoVP45v53cPrXv8MHfzmH8x9dwLnzH+In772P/9z7CywPncLykILOJFGBCDgxyI9J1gbmSN4oiWViJG8JcOZ0AHxM3hFLjhKlirJ1rDiMpC/90UrPYT9yBs+GT2Nt+jTO/Pb/cPHiRWT/8f5Xf/oA6/b9AssjhmWb6aygJXC6uflN1jGABYzjG6oOlaEmTFjiWJsgzmFa5V+xGz4tybeA7XOqyZVd3E47kgxapjUzz0Zm8IPRt/HhufPZWJ1rgg6ffR+5XTPIdcrElATnC5Exy27md+sZmlwtLytrW3cOSAJ0AJ/RfitlkUWY8zwrOSYxnNclE4jOTxsntXJQoJJZunTkDLaMvYMLFy44IC+5uHgRx3/5B6zsNpuOUPY8ppYJuCuzKVGGLQgjx0tYts8UkKrAMG5AaPwGMMsiWwXOdUYxBrCdWEHKxFnGweznht/C90bfxl/On7sEp725iIsYfef3yIuazMpiWUmzTJggqCxVV9YY2wmc+jXPTH3rPoAtUuPNlAbHGdCcXxRqEmN/N2WkNcyW4jww7cR5kT30rPTlkthZ/PS9v65h4CL+cuEC6qZ+hdzwjGwtZXsnC2sw2rI0GXZnJxJ31tVAVeJWjgrYthgFYtud2XyY9zPxG6BO/Ba4zpXZeFCCziA7qXU907oiZ7D+wNv4/R8/xMWLH4FAeZw7fw7H330P3tTPsNxI0hqFk23Tr+XeWUdBWiA8q7rYV01yWE72d5nbMPwxFehOMauMZA3dQImazKbIZeXrTOpknG0qs0PSoE7j+fApvLj/Xex9+3cYe/c9TPzmfbSffRee9H8hN/RWllKyM5u5Vhnb+0uZpJIcaUoclyZEmc7+LftaGczgsPd2DJPBvbQpfgJfIrWiA3ivzmleYMbFZU9hWfSs7LDyw6eQn/gJVkbY3I3EbGaNnC1jFohKm8alHxvZrqvbT02Cyp0xcF3DtqxvksR1sg8+c+I3sVryZJy2QyNpDdZKOpt1Bakm8fFaUhAmIBuYXcSc7Vx27gzAzIdD5jcL0LBjzcokUVWmzzhvJimWTcaZuXbarAHMeM3n4aU9UjNqX9Q6cAKXLPNZJvM2EDEOJ7hMPdkPEcesJADDpDPezCm1rorJJPhja8k7Nr7M2c6v8ZstpVnLekrGtBwgOoEN0mYs44J/qyVkFlXwVlL2dyrISNjun5mwj4O16jBBOpI17zj17xisrmPJIFC5tu87a+jXHJ+ZvTQD06K2bPGc+QIxGZaF9WUGo0nIgMswYutf59WMZ+aw9zbrmSRlTEtBMCnmE9T8dyXzjpnPbnAkeUqGJUnmNeAtYVl7aZWRzbpsNmQSY0jWZGjvEgQnN+84rBmAEoQGb03H6cOGRQVk3zeBUmXmyO7HDFbet/vwrPl1/NmsT1OOte00M5+dV9qSgtOHKhsbeObM37MX1XGZOrUT8uywYyUqIDKKcMrFPneMhoyaIK0sL2GOZWHmked0XuPO1uBkLaMUGXOpezs1zCCZmcyCZmFp2FZqlJFp/E4LsOOyzn/rmQlcmbNJ4by6i7OMMg47RpJoVJQpH1sadnfIpPM7wH546JyiCiojckY+eS1BrrLmJMoaUyhriqO0KY6ypiQqmuOoaEqitJn3vI6jnEdzAu7GBMqbEqhoTqC8hWeOT6Kc77TE5feKlgTcLUlUtKRQ3ppEVUsS7tYU3C0puFvNdWsKla1p53C3pVDFsW198pu7NY2qtiQqW+3vCXiDKVQF++Dhe21p+NrT8AX74G1PwdfRB18wDU/7bniDfaju6EdtZwr+zjSqO3ajurMPvo4BuOpeWoWdL63ELp5/vNK53sH7l1dh1yt52PnSKtS9nIddL+tv9vf69XmofyUPda/wvBr161ej/tU8NG5YjcYN+WjYUIDGjflofjUfzRvWoPnVArRsLEDzxgK0bFqDtk1FaHttDdo2F6H99TVof6MYXW8UoWNLETrf5FGMrjeLEdq6FqGtxYhuK0F42xo5R7cXIbqjFD07S9C7oxSxHSWI7SpHvK4U8fpypBtKkWgoR7KhDKmGSqSbSpBsdMPV/MoqtKxfgZYNq9C8YQWa169EkznzunX9SrSsz0PzqyvQup5jV6L51ZVo27gKbRvzEFy/Wq5bX9Vz+8ZVaN+0Ch2bVqPjtdXo3Lwa7a/lo/O1QnS+lo+uzfnoej0f4dcLEH6jUI7IlkJE31yD7q08CtGzbQ16txWiZ+sa9O5Yg9i2IsR2FCO+vQTxXUWI71iL+I4ipHauRd+utUjtKka6vgT99aXobyiRY6CxFAONZRhoLsNgcykGm8qxu7kMruCmlWh7jQHmIbjRnDfloWNjPto3r0bHpnwEN69G56bVct+5OR8dm/PQ9VqBBM/7zjdWo2NzAbreIJhCBfRGASJbViO8hcAKEN1ahOiWInQbYATTs7VIwHVvX4PY9mLECWpHMRJ1xUjsXItEXRGSu4qR3FmMpABbK8D6GkqQrl+LvvpS9NWXgOD6m8rkPNBQhsGWUuxpKZNjb2sFhuTajb0tpXCF3ihA+PV8CTYkWc+XACOvFyC0pQCRzQXgGN5HGDhZedNcbylEz5uFwkrkzUIIU1vWoHd7IeI785GoK0B0RzF6GvPR31KAnoZ8dO8oQnxnEZLbCMIAqlurgOpLkK5bi1R9iYCxbF16LsXuphLsJntNZcLanuZyDLZUYE9rOYZayzDUWo7hlgrsa6vAcJBnt56DbriiWwsR3ZqPqJFQ99YikVYPmdheiF7KjAxsKxQglFqv3FNmlJeeY9uL0Ltd62mgoRCH9yzHkfGvo+/nD2PPe/dg5I93YmDmUSRa85EkoDoyVIx+wxTPBLbbSFEAUYqN5RhsLsNASykGWihPMleuDLaWY28LDzeESQJsc2NfsBLDQTdG2t3Y316J/R2VGGmvkmtXnIFuK9Ja2VmMxPYixLcXgwDilNWOIiS3W1kVI8V7MlRfJLWTrFsjsiMzsV1l2NNYgJkTSzH94V2IfDQbP7xwJWo/ugLfvvgZfPuDz6J54gEMRPLR10wZlmB3k4IYtGcCElAVGGwjMEqyAnt5UJ7CYgWG2yuwz7A3IiDd2B8ksAoF2VmF/Z2V2N9ZhQOdlTjQ6cHBzkq4knVFSOwqRqqO9bFGaidJiZEByquuRCSWbiQjlFoJ+hpLwDrqa1iLvoZS7DbngZYSTB7+BqY/uB2Ri7Px44tXovr8FSg4PwtVf85B4Z8ug+f3V6L+zJ1Id+aJoexpKRGWFAjlqKAow5G2cgy1KbDhtkqMUKrtZK4CIx0V2GfBkb3OShxsd+NARxUOdFVhNFQlAA92eTEarsKhkBcHuyrh6ieAhrUgoH4GbgCljduJzBrodmoOAwRIiTWWYKCpVGupuUyMYV+0FKd++Rj6P5qDTRf/AT+88BlUvn853L/OwfM/cWHJ4cvx7H9fhm+9/2m0Td+DPW2UZ6nWXVsFhtrKMNxWgb3Bcgx1VGCYbAYrMBJ0i1SHW93YR1CdbhwIEZxH2DsYomwJ0I3RriocClfiMAHzusuLI+EqHA7zXA3X7sYSDDaZ4BtKhTkB1Uhz0NoZbC3RujH3DHJPU6laflMZ9tLyGUzXWhz+8x1ou/hZ/MeHn8YLv/0UVpzKwfPjLjxzYhZyj81CwVQOVpzOge9nn0EsuUpYJEjKk2wOtbnNQabdGApWYl97JYbbK7U2WZNBgi4XwCOdHmF1pMOD/V1VGAl5hMnRUCUOdnow2uXB4ZAHhyMeHIl44RIzkH6lAKWmGsvECQdayzDQWoLBYCn2tpZjT1s59raWYS9tvrkcQ82srXLsC5ZhJFSAtya+hpFzt2DTucux4n9zUHDkMjwSc+GJoVlYdsiFZw5fhqeGL8fS/hysPvYJdA4txb52D0bay7Gvw0iVtdnuFukSKBMx0unWo6NKwIopdZViuMMtUmZ9CtguStuN/V0eHAxT1pSxB6NhAvYqYGnKzeXigHtoHI3l6OMOhY1c6pjNXPvcUGOpGMpga5nIkbY/EizDgXAJpieewsE/3IHW83Pxr3/KwbOnZmHFbhf+KTQLD8ZdeLp/Fh4bmoUn9uTgweQsPL37cvxwcCH2kamuKhzsqMBIO82FoCox1FEp7YRS3d9eJezuNw7M+t7D+g1WyjOCsqbEsSOsY5G3B6OdHhwiwyFK2gPXUItbpMOexmZNeQ60VKB/lwLtqy9Hf1OFtIs9TeXY26Sys4ZB6z8cLcHwe3chfOFqfOvCdSj/TQ6+MenCUwMuPNbtwmNJFx5JuvBMeha+GnNhUWQWFgdzUNs3G4MhN46QkVAVRju9ajZkp8ODQ50eHA6TIS9Gg26976gSExoJVmK0k2bkwSgPju304ZCw68GBEGu5CociHO8VWR/t9sI1JE7olqa9N1ghzEkLaCnDcJA9jm2hEkNtrJ1K7GNPE8s3hhGuwv5QBdp+fg++f+ET+M4fP4n8X7iweMSFxwdz8GT3LDwec+HZlAtPJVx4tNeFR5tceLDjcnyn5xYciXpwOOrF0YgPRyPVOBbR62NhH8a6PTjWzXs9jvd4cDTqw5GITxmz74V5z9+9OBShK3twiCbV7cXhsP7O9471+OAiUyNtBFQhNTHEmmx1Y7ijHCNd5VITtHo6Ht2QRsAsUiLM7iHWR9SD2Ngz+Je3P4slP70CS4/+HR4dcuH+wVl4MjoLy7suw9fjOXg4fhme6LoCS6N/j+L2a9HZtgTjPT4cj3pxrKcaY73VOM4zf+v1YzzuwXh3NcZ7qzGeqMZ4vBpj3V59p6cax2U8E1MtYI4RVNSL490+HIt5cdwkh78d6/HKMxctn7Uj/Y29L1glrrefDkdwYudesXctfJ9mOerHUWZYsuzFwd4q1A0tQs3uBVg5eBme3j0Lz/W5sLgjB880fwol3dfjxa5b0BpailRoDYbCZRiLeYTh8V6fA2KMQGN+jHX7MRarxolELaaSNZhM1GAiETCHH+O9fknMeG9Ax/f4BegYExbz41hvNcaiPhknY7sZtxeug52sl0rtWWQsVCUPVFpeHO324DilFuULzKRmixMzg8zyWLcPY9FqHIx4sCe2Fi/EFmB5zyewuDcHjwVzsKLjaoSiz2G0u0rZ6gkIq2RmPEZW/SDQE70BnIgFcCLhx0TMj4m4H1OpAKaTAZxM1gjwqVQtJuMBTHJcr46b5Fi+G6/GRA8TVoOpnlpMpf2YTtVgIs6xAVGPiwxKow5XSQ2QRZEAQXR7cYxy6SYw3vtwnHLr8Ul2GbAAF2kxqwEcjfmQCufjR9F7saTtSjz075/EizvuxmivB0d7KE+fSJfsjTE4w+gJAcigCTSAyUQ1pgg86cdUMoDptN5PkeV4AFNJPwRoQsEzORPxak1YjM8DmE4FMJWgOvw4Eed7friORJRRAdLtV9aiWk/jUWZepcHsnYixjvxGKgStgOVMWcYIhocfR1OVaNi1FIseuRHNm5aLOo73ejHB5z1k04fj3RawAp2M+yU4MjiR8IPgCIpsTqb1fjoRwFSvAiLwiUS1MD6RqFGwvdWGeZ5VMZx3IlaLyUQtXCxwK0s1DwZBJlgjAZWaYUMMgwmIU4qsO78cyhSTRCCarBPdPmx/qQw3L7gJ/pLH5B8BiZ2FGA5Witkdi3qE7XHKLVaNSQJJ+BwpK1t+kHkyJAxyDBlP+SHJEaaVycneGpU6GU0GMGWVIvXvx1S8FiwHFw2CgTNYyva4gOF9QNhkLRE8s8VM854BnkiQcQ2ExiG1J4tozRzvDaC30YtA6UPIW3Y/HrhvAZ64/2Y8+/jdKFv1FQRKFuMHlY/g5W8+icYNqzDYWIrDYZXtJBPMtchwguA4Pxn2i7RZ05Os6RTvCbQGBExFsOatMihrguc808lanEwFDGAbsIBT11PTUFPh9VSS0tFsS/3FfBIETUeckgZC04j5caTbh/76Amz67jIUPbcQX1t0C+78wvW467Yb8OW75mLRP87Dw/fdhgcWzsHdd92Ie+6Yg28svhv/HlgMtsWJ2DqcTHI+L6YSnFMlPk12pYYZh5qZBSjJYEJSJklMFuNlLdP0+mpwMknAPQE1jriySHkK2KQGL5KSF5VNyyprTGRGt+Qh7NbK9e6WQny/6nF89b55+OJtN+L2+ddj/txrcNu82bjnjrn4yl3zsPCuz+FLd9yIO269BnNuvApz51yFhbfPgbfoy4jsWoEjMT9OpvyYEJfVWISxuGEyrYbElkVA030BsL4FIJnmc7p1kkBrMNOvZ9e4BKuFro7J4APijgRHixdpSeEze5rBKTqpMZcJSioeEBnSqfc2VuDfAo9i0b1zcctN12DenKvw+RuuwudnX4UFN12HBTdfh5vnXIdbb7lRmJ8/71rMm3sVbp13Ne754uewNnchwlufx1jEh8l4NaYluWpOZE0c2LYpAk4raBoXjWkqRaCqAgGcrsFbTECqBi4BF6M5ae1JvcTV8SblJTKpPY/1xMVkA0DDsE7KWmFCbGkkatCzvQTfLn4AD31pAe697QYBOe/mq7HgptlyzJ93NW6dPxt3zrset37+OizgMfca3DLvaiy+fwF+5H8Yw81uUZuYlkiUa1dLnXIjMp1WZmekbmsF+BRrmsDj5nmqRmTOfjxN06I0lUkFxskpUe2FWeAIyrArBmbupaZMb5R3KH+y3VsrH/ItG1fhu/4n8dySr+DrD9+JRQtvwhfnX48vzLsWt867HrfNn43bF9yA2xdci/lzr8a8m67FfffejO+98LD890NkLA7OpKoDcx2ypSDIprkXI6Pk+UzrWYxMejJVUAOXbs3M7iZZI27M2pQ2Ia5MizeNnhLu1SSI9TMBsRqtHcqI0pO+Sba1dTChR6J+DDWVom19Hl558RlUrVyE55++B88/czf++au342sP3oaHvnwrHlh4Ex67bwFyn7wbL7/4NPYFPZjs8cr64taGOYI4mWZN1mKa4GhgfVy/VsBOkV0mJKE1zGut9XVwWeedZOuhccVqMMntHM1CMmtkzHZEwKb3sSWcYG9jdk09nYibshAlcGyt9OupOGVYg2P82gnzPxIVSNfx37T8124emjY8j10/zMW27+Vix4+eQ/t6/r+rFMe6GQfbicak62czW+uwbMEJMCaD7zAhQgQNjQyLpI35sIbZCqRp14BZIouTpskL0LRfkiEycYCrYUjdCHgqgnWkdS31J0bDZKiz0zVZRifMZoEt7zi/grjhYW+PeTGdegEzbCV93GgY5mR+ujfZM2DFsDReYZXP6Mwia72eICECuMYwLHtXU6/yRWKafEwdkhsBu6clEHFtY2CcSGo3xXfUMOjadEyVEWufLNXiZLpWZKjSUxXNmOClj5qPBBoTQc301WImzQ0GA9bxuuHQnsrEUdpsS1SatCcL2H50mHuZgzVMmQgbZJcZ76nGyV4/TtIBhaWMKXB7xpqVvaz0Q365UG5m0QTvazEl20FtDwQrQUpA3M+SDfZLloMmQVqJlI8C4bpMjsiZSeK1lI0yzQ0ENxL8TVi158Q6+W0mrpKeZiymxiX53EtLnZovD27U5QvDyoTbOgaYCuCkANRFNFu6NxUpczxBSk3bulFABMWgTsZ1e8e2IcEn1mEqzU+4dcqS7JzYSsw9n6XYavR+xrRAJmG6jwlgIjVx7MOcX1Wg7YnPxVs4XiSuXuSivNjYWU/cus2kNEsiO/Y3cUJOtk5lw/Fxv6kh3e0Q9AQXELPj+5xznUpRdkL6pSK1mFqn0o+rw1qn5XqU8UmuLx/9ClTc2BiQbCPFxJhErsMkqiqoEklsWuenGqVPS/0yTk2gi0AkYO5oKE1OTnlJ7zIOTIbNxzQzLKbFmiVAAWs28gLatgLtjZrlzHNhV7KvNc+EZkue6pGWx/WpBtawkbRcE4Cp72mRu8bMnZWYWdokwnQaJpRYRA2JAFyUsYLmwsyuBWmcMOZTx+sjAMsas8VarMW0POcilAzPDEBlJLUZ8ynjDDz5gihGpMrPNoKN8QuJ7Kg8pYTImiR/HaZJBOe1uykhQk1wMs54faoIo0Z9z6iNz6lGAa2JcVEWkmGzByXDKk1KnCBtAmqlJYkDi5T0GXc0kiianLilMqCLcG4+JyCtKa7FQ8eazIshqTlKLFSUrEFPoZI4JwkxXz/iwEwKlcc4VK4Su5QDHV3j4zy2JcnnodLNxTQgBqIy4AKGSS4ubUY/rEXupu3wPWlBCQ1AmeZ8rCXOydpnGWiN2aRoQvjcJMMkWtqTrVP5hjVsi5SZVCaBCaMH6JwWkKhLFEEMVAVZ1XbGmp9JcqdlXmYWmQEtbgbJ3ucTNpQRLlKtSXA+zXRxvksGTyarBeAE2Wb98d8vxizkXt5nTTIhfCf7fc7PrkAl8VrXk2SxROQ3Mqxsa+kY35H2VoOZpE9amP3n3ck0+znbmnoBy/X/AQ0EkdIXYFEyAAAAAElFTkSuQmCC;" vertex="1" parent="1">
          <mxGeometry x="100" y="160" width="60" height="60" as="geometry" />
        </mxCell>
        <mxCell id="WDatNG11xKEBm6-NoSf6-3" value="" style="shape=image;verticalLabelPosition=bottom;labelBackgroundColor=default;verticalAlign=top;aspect=fixed;imageAspect=0;image=data:image/png,iVBORw0KGgoAAAANSUhEUgAAADsAAAA7CAYAAADFJfKzAAAYhklEQVRoBXVYCXSdZZn+0yKix5nhzAi2BQp0SQulckQURFREtqKATReaPU2b5Ga9N0lxZpxz8OgwSveVljRJszXpzX7XNF3TLWmapdmGbgjq6GF0EKyMA4htnznP+37ff29b7Tl//v/b3vd5nnf5/1snqfUcFsl11tx1vLiVY3O12Gddi505h9izOc+9LWexuOWM3F0btGXWrD/xIfvOyH4dGzvWt4vP4rT3OHvWn5w5F+fXcGk5g6TW83BiYK8nsqglznCc06Q2Ox9/P+8Sd4USEAZ82/mYqIZ0khFRhGk9I+LqnLHr+qeotG9tGELm/FWCtp7D4rjgEYsVUcgmGUVc4uJEQSoxPpvLdaBRja3HR5lgVXnXphXL2CZB9WvAtDK6cdGyUaKwRlwhSwEtFrvHjK0vsSMk44NxDg5TipsI2iqXJFFQFWXNAjWqcV32CoizbkTtXq6JYxsZ2hObJENfZ7Go+Q0BrcAZDRWTUVEc1n/M/iI3svFRPivYNRhKzuIXDLQrATJkrcPrIhxH0taZ3m06KXg36lftV/BWQJJc2nIGL7adxbKWs1jSdhZLBci1tR2fhrRhCFC4uKyy5JSQiaCsn4/tYz+Iw+RohKj8BSy0ypn60kipsvpMkholN1XiANiIugQllc5gof8csjrOY23/Ozjw5rsY++0f0Pff76Fy7FfICV/AwjY2NI2A+rHpF0tZGwjtI1ZsI4SbnReEXEwAGwzd54hCbRcgoZf01JQWozadzXy8SjwnRoXsOResVZyiWKfJ7edQMf4bfPDxn3HlyhXwH+8fX7qMrl//Cfnht91UE7JxAopP4nD7iOkdhqD6i6Uq92sgYoLZPUJWImKJEqRLzjy7YlglqaxJ0+saBudjyhN8yf638Yv3/o8MhWj8n08uXUL92ffw/Y63sKRVXxFC2IpJom2MmE1PrWndQzya6te/IXTeBoj7HVu83Cwtm0TFgTYudkIxLFGONxBLPevQ1lQ8kCUtZ/HK0K/x0Ud/iefoPjPCR95+D0sCP8cSKyDrzL7exO95JLUrWdq2BGLRtnPEZzBelR2K1UmSwudmVZBEF7rdWZ3KHvOe03q0tWSUNalMEAKGHbfFpvYZ/Kz3TXz0l79F9i/o+q93sajZAI23ReFJ0s028/xXXisigHs2jnScOPLqkY1GQTYpfSlr9yM5jThr2USdRsXw1XVrFVf1CYyd9gwKDv0Sb3/w19P44z//GWv7fo0l/v9UgWz6GpDiX15XsfRl9BabGlZxTTTt2b9B2iXLQ1qr9h0Wu6tquq61YyJqAMmrq4XEtVZtdAkoqeUMlna+idqJ/8GfPvqYrcmk8BVcvnwJw+/8EZ7uCwJeOq4RkYSknOijRe3qu9r6jr1W7MeJ9a+in41ll0ltQ9ZEzBDWtGEKGyeuEDFCtpZtNK0DOWtTxzQvdseswHm81vcrnH//f/GHjz7Cby5+gAO/fB//cvzneLH5DSQ1m/etGxWSspcR/qq1v56qbq1LSdmIa1Zc9QUlaoqSdKKvDn6r2u9V+26Vses49n6U1JYIq3EXbPMZJDWfw9K2N5AReQsF+95CYfgsUkJvClFpNCKMfh/bJqN+FbB0WxN1i0PS2TYk8zVnz7J8SFyz7ozcr0pjgovVgFHF/XJRlWVdFD8b65gE4ZK3X0C2LHguXmG7zrn4y+6ztuLOmBJh04u9YjRN3Y8NN0hsnor1WvvmV49G0V000YkH6UbJEr3qbhWkI60l6QFGPPscs2FIih9LKp64aXxxImmm2do1ZFyc1wTJfia6QVDb+rnoKmEVueYeFzUKYD/arRjXf7Fo9K7Kgqs6ZTwx+lLCsf3X+jfj697115SL++Gh9mKZyo+Vc/w9azpoXDPSBhX7YtFDZh+FEfIWsIJl54yJYJS2aWrFkteFJRd//mrQsUyIFyHWLO2rkCJpx45rnK6P6/2YNFbmNv+T5PPMgjFfSm70FYA0AENGf3wbEZhaFM5NUdZg/C8bm3Jx3demnbGnAbjGvyuwfQWSoKa7iky7tt4pjBXK4JXIXhVRky4SPauMztmoUdVYNyTBuDPGQXyz0jpVwew5bSAxEK4NmwFx/jXKMeJu3Ru/8anvvjXcwJhmaIRymLILryVMQ/wm5o9sk+YL3ZTRdIoBp5o2qpZ4XKc2URal5dnu0U/KGHhL3jZLW0b8Bjinn7At+r6NRT5my0ZyseC1tmx6q1hOXl0X8uojyK0LI68uCk9dGJ66KHLreY8gvzaM3NqQrHtqIsitjcAj4xDyakPw1IbhqQ0irzYIT00IeXVhOZNXF9Fn2q3lPG2FkCPjIHLkDH3Svu5RW2Hk0787T59h5NTRbwR5tVG913NM3yF46umLHLrkXlAXRV5DEJ76IPIbupBbTz7dcKrXpmPXunRUr0lF9dpU7JJ7mjxzXLUmBVVrUlG5JhU7V9srBZWr465XU1HJtbXJqHo1DZWvpqJqtdqrWp2MSplLMfdk7OR+2l2dLucqV6eJbdqoot019Ks+Zc6MiaV6TZrYrlqdhmraWJuCmjXpqFlHHmnYtTYVNWvT5LmGz1xbn4raDZlwGjekonFDGho2pmD3hlQ0bEjB7vWxq2F9Kuo3JKNhXSrq1yWjbl0K6tcny/PuNWZubQoa1ieDe+W+LhW71ydj9/plZpyM+vXLsHstz76o9rifNmmL5zdwf7KubViGhnUp2L2Oe9Rfw3r1Ub8hRebc9fXL0LghBU0bU9C4KQUNG5PRuJGcUvW+MQ1Nm1PRtDEdjn9rGpo3Z8C/OR0tW9Lh35KO5k0Z2LMlDf5N6WjakoZm3jenYc/mdOzZlAr/xgzs4disN21K1/HmdLEjNrakokXOpMC/kXvT0LQpVRz7N9C22lc/tJ0qZ3VM/zqmf/9Gte/fkgG/4FH/xOXfTHxpMt9K7FvT0bI5A818NlfL1nTh6HS8loH21zLRvi0LfG6TZ3Pfmok2zm3lxT2ZaN2egdYtGWjblmmuDLRu43oW2rZkoGNbFjppc0c6gjsy0L6V40y0vp6Gtu1paOe1jT7VBn3TB23TJnHI82u0lYG27brWvpV34lIssnd7Jtpfy1L88pyOju2Z6CAH3rdnybh9O/dkwQlWZCJQsRzB15cjsGM5Aq8vR5D3iiy97+Q4C4HXY5euc38WOri2g3uy5d7J511ZiO5ZhnDw+zh48hn0v/E4eqILEa5OQWdFOkI7MhGqyEJIztIPn9VviP63q3/OdVZYXHH+t2cpZvrkfl7kULEcPC82xH42wjuzEeJ8RTacyM5shCuXI1K5AtGd2YjsXIFIZTYiVXrvqjBjdz0b4aps2c9zoZ3ZiFZyLgfR6uXo7nwRp37zCPZ/OA+bP74Nmy/9PfZcvhV1FxMRaFmKcEU29lZmI7pzBaJVvPS8+OOz+F2BSLX6jVbG8PAMcQq+asUrNmivaqXaq1wJnpGx7FU/POPsrV6Jrl0r0b0rG11VK7F310rsreHYPO9aia6aFdhbzUvXZA/nq3PQvWsFurhWtQLhjqXw/24+1l/+R7x05XMouXQjcq5MwktXJsN76TOo+v18HOx+Dt21tJ+DfTU5xmaO+Nxbnav3Gq7RP+3TP/ep/+6aHPErGMR/DrpqcgVHtznPM/uEU8wO9zv763Kxry4HB2pzYJ/31+XgYA3HOThQk4sD9RznmudcHOB8XQ721/Jsruzrrs9B1/Fn8Oonn8e/Xfksfnj5ZpT+8QYUXZyEjHcTkHvxRhR9chMqLt6B7iML0V2/EgfrcuXaX5+Hg3UrBQPtHWjIxcFa+s3Fodo8HOBcTZ7g21/P+ZWyzvPcIxhriclg5Z3n62g3Dwdov8ED53BDHg7Ve3CoziOTh2XBzNnnBg8O13twcLcHuj8PB+u5J8+dP9iUg53v3oeXL38OP/rks/jxxX9A+i8nY8l5B8+PT0Ly2wnI++Nk/PDDT6P6F/dgn385ehrzcKjBo/7Fdr6MD9Ofmedd/XoEcA/x7jZ+LS7ubfDgQB1t0abaJWax05CHnt35cPinp5GXRyaONHjk+Qjnd+fpcxPn8nGk0QOd51o+DjcUoKehEPvqc9ETWYRtH0xH+cc3YNnvE5B55lN4oj8Bzwwl4MURB4vOTsbCwU8j83c34CfvT0NPOBMndheq3aZ8HGnKx1HBQT+KSfzRd1O+XEfpnzj2GDxNOu5p8uCwwU9yPU3EXWDw5+Mo7Td64BzfU4CjvBrprBBH9uTj6J5CHOO4qRDHOPbn43hTAY41FuCon/u5h2cKBMSRaCrqf/UV/ODDm7H8twlYMJSA5444+Nb+SXj6oIPnT03C8yOTsXjwJix7ZzJeef/z2N/3HA7783DMX4Rj9EP7TUU4Rrt++ucc/dOfrhOf+PUX4LicKcQJf4HukWAQvwfHmvKNPWNXzufD6W0uwvHmApzYw4OFON5ciN7mQpzg5S9AL9daCtC7pxC9fs6bMc8RlD8fobe+jp98eDNWfvApPDvg4MljDp476uCJkwl44kgCHjvs4MneyVgwMAkLL0xG0cWb0PzzR3G0pRAnWgtx1F8k/iyWPvFdhBNcbykSXCf8RcY/54jNnlGsvVwnh+YCwWVxkofgbi2E09tShL7WQvQ103iREO3jnFw6z+eTzUXobVVH7lpbCY61eVBz4UGUfngj0n8xCQuOOnjqkIMFBxPweE8CFvQ4eOqIg6XHHXyvJwHP9TlY/s6n0fDGYzjRWoC+tkKcbOGlPntbi9DfWqTjVoujSPDRb29LsWJrJR4z31wM8tCLwVKswi3OrnOytRgneahVjdDpybZi9HO+rQj9LbzzKoTu1TWuE2hfeyHCvUkoOnMznh2ahGf2T8Y3uh08HXXw+IEELNk3Cc/uS8CT+ydjYdcNSD/2GZSfn4quQKb6aClEf2sh+sWX+utvK8ap9iKcai/GKeJoJ6YiwUmsgkMwKVbBJxxUqD6uEZ/hJestRXBomMBFTd7pqFUvAjjVXoIBjulYQPDuxUA795agv70EPZ0F2Nb9dRQGp+HZ0CR8O5yA7+118J3OSfhe6Ca8uPefUNQ5HVtavwt/MAn7wmnqhzbFbomO20rUX1sxBsR3MQY6OEefJFKMUx0GH3Gb/aeIw2AnHhLVMe0q/pNM4wEeMCQGOmicjkr03lGEofYSDHKOpNt1fbCjBIPtxeCd83zu7SjCvlAGSlvnYEHnp/BUcBKeDiZgSdvn0RZYhKMdhZIhpzoZRbU1GDBExLZX7A12lmCooxiD7RzTRzEGO9WX+O1UAQYoSHsxhgwGijLYXoJTFIdr3GfwDrR7RURHDMmCbuShATrsLMFgp1eMEQBJUVWu0ekQ17gvQHBc86E/UIKO5mS83PElLG7/O3xt4414eff96O8slL2nA14Mdpa6Z0WsTh9of7CDa14M8B4gCa/xxXkSVjxcH6Idrts7MUugzHnZawIhazrv8NBQsATDnT5xMNTuw1DQi2HeA14Mteu6JU/FSY5khw0AWRNnTLMSHA8VYnv19/H1Z29H3ZZ0ScHTJBAwAtKXXGqHZOj/NLF0eDEcMHhEUPqnsF4Mc82QHegojYkhIrK0KJoPzBi5y176UC6OEOr0SgoMdPgwTIJymIr7MCyOSkVJiWaAJHXfcMCA5pxcJRgIFONUsw//8dILuOv2O7B+1Qvo6yjEMAkxCwIlIPHhzlIMB0pxmjZEbNr1ir/THAe47sPpUAkGiYf2g6UYChKXFcWH4ZAPQ+2lcnZQbBGbEpQACh/i9MJRhTWa4jREskpSyPC5k6BKMRL0ycXnoc5SAcAzI8FSAdDX6kPXrhxseHkxFj71ZTwwfzqK0x9FxU+TsGvtMjSuS8H+mlxphgQtESOhoF4jIS9GQ+r7dMgLXlZQ7hkJ6TUcJEmvjEUU4jM2uF+yxIzpR0QN+uCIevEbg16wtniYpIVgmGBKMRKi0VKIM4kqG0wp+poK0LgxDT/yLsCy7z6Abz00B/fPuxP33fcFPPLlu/Cdb8zBIw/cjW8+NBOe5G8iUrEcp4NejIV9GAyW4nTIh1FDRsARg2CiL/rlOvdRYBVJ8AkRFWeEZ0Lc78VwWM8z6mLH3B2mEZ0xWlREnHKzia5VkySFMO9hFeJUmw/+11LgW/EtfPvhRHz1/jvx4L134YF50/HQ/Xfha1+djvmJt2Ne4u2YNXMKZt99C7447054Ux9HeMcKDLQXmVT1YTTMKBpBGUGSDJZiNMRLMdqIjYQ12yRQDEjEq2KYzBvu0h7AdcWvfJyRsNekJg0aZ2GtJUaQQtApyY+EVWWeoaHexkJsffkFLHj8Psy+eypmz/gCZt95KxJnTEHirClInD0Vc2ffjnlzb0Pi7GmYccctuHfOFDz35BdR+7NF6O9QEMwYyaCQT6I9JmPjy2DSVDTkic+Kz6jbCJoskGia8tCsYPR9cLRGSjEaprpKWBTm2Do1CgsopjJJh8ukK9dvWoTnn/gS5iTeipnTb5Fr1oxbMGP6FMybNQ0zZ0zB7BlTMXfGbZgz41Y8cO/teP7x+/H6T5fhZFsJRiJMzzKJjGLQiI5FSoU4wUq/IJYwyZaZDFC8LAUSH42UGlvMUO5lVFWw08Ey2eMwmlIzNBRXmxr+mGNJJ6PoSKBMhCBI1l9O5mN49OFZmH/vNMybdRsSZ07BPXOn4r650zBv9jTcM2sqZs6agrmzpuDhL9+NwuSHpcbZISWbgmw29K/+KMBohGTMWDLKrBvSFh+Jam2arGR0LVFb72YsZEWxSJnWiVGDDYGpxZQSpzKvgqjCpRgNlOJ4ixd1m1JRkPIIHn4gEffMvgPz5kzDPXNZr3fgnsSpmD93Or40/y58+2uJWJn8CLb/+Hn5HctGqOmrkVFByySiEuVgKcbDPjDKIyHFx8gSjzQswagRHzHRYwpLuQXLVEA5yywtg2ONUlmbDmOMoGkMonjcQTqy60x3flgc8hdj648WY9kLX8FjDyXioQdn4sH778ajD87EM4/NQ/bSr+Jf855A5StL5P+G+K3Ls/Q9HrFZwuZYJsRon4AllSMkr8BFZMlAjaJmgykB9haei7DudV3LUMuRuKVm6URyXmpC60JIMZ0kza1jAlRwmkZ8x/rAj5H9DR7UrUvG1pcX4pWyZ/DPngX4d+/TqFm7GOEdaTjSmIvhYAlGg8WYiJRjIuLDeNgrZMdC5ZK2JDdOsMwoYhGipRgLlWEsajBwXoSKw2JEIgeJvF23/SWo9e9I6kR9QlbSwyg6HqLqtma0fkhU1DSp5GYDUy3Ib+oy+UY+7i9Gr9+D/o4ijASLJIJjER8murwYo11GVMCblGQzkjrl2ERXiHPMNFbyKoBmlpSXkGNEY9HTaJvIcl2iXSYRj5FldFkjAQIpw3ikHKOiOJ0zlcolzcZ5WNK6DKcDJK+AOC9RIbCoIUGgvKJqg+Jx34QZi10+RzlfDkZ4PEAy5eJTiEfLVRjWbKAU48RIoYxfzUD2FuLVdYmwLT2T9lKzY1FNG9lIUkZxN42iZZhgGoUpgKpum4UQjZRhwkaDe7vKMb53FUYj5TgdXiURm5DXSCnGudZVJmIKUc53+TARLpFGOB4tx1gXy+QlSeERCkz7IRNNwce5cq1PlhRtsJsHmX2KX4LklkEZxmWtFA5Tiq+Q8agPE9FVQkqUFfXLZTwaipuXrkzyjKSJWHgVxrsYHWYHo12OUTlv5hgpihUul9IYY7S6WCaa0iMUOMqM0n1jhizPiOhCmntow2QZfZv10zYDoxpdaXS0aZqpzRRH6lBqiKqUS46rYyUyyhQjkQiBGmMSfXVuSdlIMRIj7LAmPUdJQCJL+7RZrmm7157nnanJLKB/7tMeIufoW8aMohFXxDH42FdsqYhY+hoTXyKy2idxZyy8SjssoyPNScFI/QRLMMFodLGBEIwFq+qOB73SWQl2JLxKvqxGZa/u47rY6WKjIOlyTXOSIrBQsWYHUzfyA1Orxj/9Boo1kiTLkmB2MCuYxsy2ULH2EmlEnNeASSnKOrNH65++HSXATaa1u6qZhsPU6VKiVF0izUjJfjYfgjOvI9YJo8QmxS8gfqDLXtaZeZXYVIx4MRb1So1qFLQTy34RlXj0/Gh0ldSorUliZrOTfiOZQwzaUDUredbsMb2G+x19tyl77ahWHapoBDDpw87KOb4nNSXVqKaXpqutY/ueVjG5T9d5jnsInHft/JqS0rlNdKRPSFrr64M+pMbZ4GjLdGyJtqyVSaMiKeKT+jfz45FVmAivgkNn7IDaMTW9FASVN+nIjiiRYLdk4RNkCSb2sp5Mo+CPaaaXEWg8XKLlQYe0L+/LcowKWJ5n9AlKReUHhtS7RIqvFq8RSLOOHyGynx2dNpkV8fjCxeJnbK9PO35XCSboizXfVSbv9/8HNtkcSGEbdKMAAAAASUVORK5CYII=;" vertex="1" parent="1">
          <mxGeometry x="160" y="160" width="60" height="60" as="geometry" />
        </mxCell>
        <mxCell id="WDatNG11xKEBm6-NoSf6-4" value="" style="shape=image;verticalLabelPosition=bottom;labelBackgroundColor=default;verticalAlign=top;aspect=fixed;imageAspect=0;image=data:image/png,iVBORw0KGgoAAAANSUhEUgAAADwAAAA8CAYAAAA6/NlyAAAbVElEQVRoBW1YaXCc1ZVt4ThkaiB/EkLIJOxhNUsWhyEBAiRhSdgsy8bWvqvVavUmOzOpyiSZIQkEG4wX2ZYt2dqX7pZ6b8mW5V22bMlajReW7CEppoYJUCHAgM/Uufe9Vhuiqldff9t79557zrnvk2Np6AxkhM8g1/y2x6Wh09DBZ7J/8/ysvmffD51BXpDPnMHSoM6ZJ++cgR7Pfz9P3jut94KnsNSO0GnkBU+ZWMx8H4krl2uHz2biXRrW9Rh3bljv2bzk3KyVG34JDnnITGgT51ED0on0ZV081wCTDcr8b4Jmg5w/MmGbvMwVtOensZQg8Vyu2fctENnrazKZeJmYJH5+suclzFizwODajo9WMFeqw2BNBbMqf16VbRXNhDZwOWYSPI1cW/VsIEyS581nGDRfETKFcZxWEO06too82mGSZ+VZRS3QPFj6HBlxFg5BP6iTsjpardPy4vzLtlqG9oIcJ7e01sAseMoOXcCyQ+e1QXB+Q0mT1NLgWWUVEwufwRN9Z/Bk+BRK4q+iOnIa+ZEXM4nIXHw//JIkoYnqfEJ3Jt7/klnDxqgMcWQoJhoivU4pqplk5jUpVRdwmDi1osExwX+kUwKgurYUtVTWxIXGdj2pDpPWd4qTr6Lt5Ov49Zt/w2tvvYmjf3wDaw7/HgXxl2RdkZaJMQNeltaFqZYVAq6psNKGSZ2VwUSkQnYySxsTUKaqnMzQ2laW4NlKZp7LGAaTtAwylTbVzTDCVN2ZPInpP72F//vgQwDnZJw79yHefu89bJ3+C1YGTWWlypzrLHKDyrgl4ZcNIFmVzYrdaJiBzFNQEMvWrqWwJGQnmqe5uqQCdZ45MVmLstVtli4VHENF0jN8Fk/2nkb/q/+NDz9ksh//e+vv7+MXB18VJkicJm7OJYOFCpqOYdfOKoTDtpKMHoJK19x+TUyAMMgzeKtz635LBF19R5A2tFpi3wmdwRJes1qV36bC2QBSw8HTWBl5BWf/521T2Y8nfO7cOXSffQPLBExbJJWXJm3aUlay6iPKAK2wBGN6GIOQYA1FBMEs9D7SsqgVuxDfy0xupCFtKmy1azzCrDcvBb7HcRoFkZfxuzf+/vFMzRUmnP7NW1geUdOSfizr2uSNbCThLBaaQkjCDFgCFU3Q1vVlSSDMClmDUhCEpqZ3Wt1aOglTbHXl3VNY2md6rW0xsp5eU11boM5gRfQVHP7zW2Bi/+jvgw8/xPPjr2E5YzSJ6ibEJmzZpp3DMlEBPa8PU29KB5ugmomdQO/bitLNRQ7GtecBs9VSU8v0YUtp+/zHqnwGSwhQ+DSeOvwnvPneu/8g33P4w1/fhmfvb/B4vyZs2WiZZQuQMWPT3+19h01KH7T8n0dckSF6WbQWU1BW5JkNSuZ+1jnv2SrYtiXthO7OrpCtYcui0CnkDZxB88RrePPdd0F35qCJvfbmO/j5xK+lxy7pfxl5RnrWL9Rf5mNnbnTvzNrceGRc1NBZTYq9zlDE0iaj7XnDUdT0XJA2VLZJZuuLzqnS0U1H9rs2cXkvzABPIi94Ev+x59foevHPSP72dWyffB2ekd+K3J6Q3VT2jsqAx1jZnkxxsteQa2Gz02L5megTNmCpgFI5E6QJmDRWJM3uyrSvTFvjc9KfyZaXRP82AJnLUNr+1rWN0ZgNTF7oFJb3vSiSWSbSOYMl4uL2o4IgMzmNRcHk7oprmmv0CcomY14ab8alWf4lZiNBGuhkpnpy3SRod1Vhu7syi2ehyuTF+IQ1RmvCEDOfBGMCstr+yKZEmabVkkpJ4PN01eoxJgJsjhnzZR/WtearrKBm+rBq2XyaETlWSuhsTesjCWdNyODyMn1Pn8tQXJLWTYUEZ4NikMbplUUMcL7SmfcNePZdcd3MWgpa5n3DHml3FgSzjiQePM2vJYuE3fcqOjIJJ7aTmz2vbicVUd6z1Zyfh7QyYJkKi/uf17/N+5kvKE1W58hyX5HYR6uafW7nybomHjDf8jinlQ/ByvRhu+OyR6XkS0aPBn2pqqWZbuFEP5YJNBP+ZqDytcI9r1lQgNXAbACiMVMJSVbe1QJoP9f3bdC5Id1DSxFsIQiarE922JiYsJFMdluyCWvr4VcSHzILcnJjSLxPa5dATQJKd6Wvvmfd1yTVry7K3sp51Ow0+QwINCRTZf6XQ+YxATJhTTRrXXFg68JcRytJE6XRaRzmvydklJlfd3ual1A6o1XhuwlKklUtKyD6gkwq6JoFM5UzgRgaWnAkaEvNLN1rcEpJ+gcBYfI67FqWETza34xP11amWAbxXRaMIOp8soZIaV6uDqGfVE0nVF2aSosTz1ddk81CmABlu7XQyMwjVNWEtFpntUXxq0ie47ysnmGJgGGCFoDMzo7gki2yC2Ny9tOQoJj1Db0zbDEfPgqq2RqbdRz13cNwdw/B0zOE+s406nt3wdM1CHc3j2nUd6Xh7kzB2ZmEqysFV3caro4UajvSqOtMoq4rBXdXCnUdSbg6EnJ0tifhakuhrjMNZ1cKzo40nB1J1LSn4GxLorotiZrWGKrbYqhpT8DZnkBNWwLOtjhqWpNwyu8Uqnm9NQFnaxLVO+Oo4vWd/J2Ec2cC1a18Pg5nK5/jfY4kqlsTcLWmUN0WRU17HM62lFyvahuEI7a9FrEWJ2LN1Yhtq0GCx+1ViDZXIrK9EgPbKxHaWong5gqEN5cj2FiGYGM5ejeVondjGbo3lKB7Yym615eia30ZOl8oQee6MrSvK0Unx4ZSdKwrkfO25wqxc20hdq4pRMtzhWhZW4iWZ4vMsRDNzxag+Vke89H8K/7Wsf1X+dj2TD62Pb0STU+v1OMv+TsfW59ZiaZneK0A23hu7vNcrvPeLwuw7ZkVaPpVARxDLZUY2lGBoZ2VGGzhqEC6uRLp5nIkt5cj0VyORFMF4tvKENtcjsjWYkQ3lyGypQSRxhIMbC5B/+ZihDaVoL+xGKGNJQhuKEZwQynCm4oRaixCeFMRghuK0Ls+H70vFKLnhQL0rCtAzwv56H6+EF3r8tH5XD461q1E5/M85qPj+ZVoX5uPzrUr0bE2H21rVqJdxgq0rlmBtjVPou3ZFTJa1yxH25oVaF+r13fIkb/t4PsrsHPtSjiG26qwu60Kw6012L2zCrt2VGFXWyV27azCYGsl0i0VGGyuQKqlAqlt5UhyNPFYhoQZ0aZSRLeUIsZjUxkiBGZzmVyLbuU9BSe8qQRhAaUYoQ1FCG8oQmh9CYIbi9C3vgi9GwrRt75Qjr0vFKFnQ4EA1L2hEL3ritBNoNYXouuFfPSsK0TnupXoXldgzgvQtW4lep7PR+c6BbJ7Xb7ckyOvPVcAx0hnLfZ2VGOkvQbDHdXY01EFgjC8s0oBaCUIBKASQy1VGGyuQmpHOdLbKzDUrGAkm8uR2l6OFIHZVobUtkqkmyqQlPvliDdWItpYiti2UsQ3lyDaVILIllJhycDmUkQaS4UpA40l6N9UDB4HCM7mYgxsKpZj/8Zi9G8qQv/GImXNhmL0bSpCiCzayFGEIJm0sUAYFSJIGwlgEfi77wUCWgTHgW4X9nfVYm+XE3s7ndjboceRdif2tDsx3MZjDXa3V2NXWw12t1Zlxi6C0VopchjaQWlUYZCjuQrJnVVIdRcjGVuO4d15ODDyGEZ6C5DYUYbk9lKktpUqQ5rKEW8qQ7ypFImtZYhvLUecxy1lAlBsC1lTijgZxN9bFbBYYykiW8mcUvQLYKWIbC4VsCKNxRjYSMCK0L+J91VuPDoO9tbiYHctDvS6cLDThQNdtTL2ddcqAJ1O7OusxT4eO2qwt70GI201GBFWkBEcem03wemsRCJWgN0v3YW+N27Gs29fisb3P4fhD67HyF++ieFgKQaby7B7B9lRKaygbNJkh5yTKeUQ1rRY5phrcl6B5PYKJAhUM48Eq1wAkePWMsQ4tpSp7xC4LeVyLdJUCsfhPhdGe9041OfCoZ5aHOqpwyEm31eHAwSix4WDvS6QCQe6nMKGfTxSCp01AgrPR7pqMNLpQjJWjI2/vwmu9z6NovcvRuk7F6L6wwX45blPYv0HlyB25j7s7i7CLjKGnrGzGrt3VGGotQZDZMzOajXQ1kphzyCZQ0MVU61Amsa6g6ZapQbboj6TaqlSWRGMFhpumZwnKLXt5Yhvo/mWwXEk6MbRYB2O9Lkx2leH0WAdRkMujAZdGO1x4XDQhaN9LhzpdeFwtwuHexUQgnOQIFASAkYNRnpc6Dj8AFxvX4yK9z6BincuRvlvPoHKvyxA5V8XwPveP+G5Dz6L9J++icOpcgx3VomE6B97OpwYaavCntZqkc+e9mqMtFZjT5seh9vNvbYqDInRVmDPTuM1bZUYps+IrCox1MquUyFdhx2HAKV2ELQqOI6G6sExFtbjkZAbR0N1OBKqw9EgQXArGEEeCYgCo4m7BYDDvW6MhmqxP1KDn/7+OuT9bSEKXl+A2lcuwhPTn8TjEznIHV2I3NcvwA8/WIjt730Guya+j/30jS6VzH76hxgoTZReUiMyUk8he9RfKJ+9BINg0Wj5u60aw23V2NNaIwxRbyFb9Hy4tQr0GHYhx1jYjWNhL8b663GMI1yPMYIQdgsIR0L1OMJrA24dAgiTr9fkewlQLY6EajCcLsOPXrkE3zl7AR6edWDZ+EI8dPgCfO/gAqw4lYO83y1E4RsXw//+P6P5D1/FoXAVjvS6caDHiYN9Rj49hjHdtdgvwynS2tftxL7uGhzsrMWBTt6rwb4uSqpGvIWS2tOp3WZPWw3IEBougRim73TyWAXHsX4PJiJejA94cUySr5fkj0vyHoz1e8HfY/0eAYRMODZQj2OGFZTBsZAb+/Ysw39NLsKDRy/EAzEH7kk48PCQA98NL8C9fTlYcnohSv74KZT+8RIE3r0IkTdvxehwEQ6GnDgkMlG2HOqpx6G+OpUO/USGCwd663BQDNWF/ZRTr1PO93e6xHRpsvtZ/U4XRqy3dCh79rY7MdJB5tTAcSziw4QZTJrjeMSD4/0eHI/W41jEjWMDHhwLe3A85MXxAQ/GI2SCG8cIRtiFsagX3cfvwcOHLsQd/Tm4r9eB76YcuDPhwN2hHPxgdw5+MO7AAy9ehGVnP4Un31qIn77zGQyN5mI0XIuj/W4cDNVjNOzC0ZAbR0Iu8RXK6TBlFJqX0Si9JFgr41CwVphBkz3UW4tD3XU41E2TrcVB8Zha7O9xClOEFT21cExEPZiI+jAZ9WGCCUc9JmGvVJ7XyIATES8mI15MRAlIvQxWf6zfLSCs6b8Ld4U/gW805uCOPge+3eXAt4M5eHAgBw/sc+D+/TlYfiQHjx3IwZKXHaj534sQH3tMzPH4AP1DJUQ/ORKuw1iYHlIPeor6ihtHaayhOhymsfaqn1g2WHAOkgkEgIbLbtPjEhCk2/TVwqGJ+HEiPp/gJJOM+nAiykQVjBNxH07E6yVhJq0y8KkUIm5EukvwaPuncUdLDr7ZdAG+1erA/d0OfHsgBz+IXoAnYjm4N7EAy1MLUTp9IX742pXYH63G8TAlU5dhzDiZFVIvEU/pp8fQQ2isBhR2FZpoWM2VDFBgtMtIxyErgnU4xEGggmSLC47JmA92nGCSPI/7MMXfEQ8mYh6ciPg1+ZgX8gzBiTFpH44bVhwI1ePZvnuQv/US3LV9Ab6xOQd3tDvwjZ0X4P62i5HX9xn4QleiMfYwukYfQ3I4H0dDXhyjhOgJA16McS7KhJIK14t3HB9wq7x4Tv+gt0TcGCMjaKDBehylx9BTTMfhOc2WXeYIWdLnxlgvjbYWjqmEXxJkolNxH6aTXkwlvJiK+OV8Mu4VuhMUXpNz3o+z8l6ciKnpnUh4MRrxItazDCVNN+CexoW4Y0sO7mzOQe6mLyAWelIQP9HvwVjMKZQdj9SJT0j1mCwlQ5Cj9BKPsGc8Wi+/CYJ6TD34Ho1TQAnzvoJjr4mpkg39Bhj+DnpwNOSBYyplkmCyHAkm4cOkJKVJT8f9mE76MJPwYybpxyRBies9XpsiGDIoAT/iwTL8bNtiPNp2Me7a9kn8vHMxxgacOB5xYzLmEaCYiEqGCfolKbKHUlLW8L4f42KoPBIQBZeGSuMkG47RU2iqBCjqxkTcDc5NgMbCHqk6DZbGSON1MEFJNOXDbCKAGSYX08SnYn5MxvxybSbFhHVMy3WlPo1MnouSIV5MDvhEBhMDPmzf9hDuXXIVupuLcTTowYkBv8iAiUxKMn7QNJk4pTMZ8WGaBjlg/CMaUC/p92EirnKaZNL9fIdJs8PUYzyszBiP1WM87sJxGm+UncWnSQ+w06gcHNMxkzB1a6o8w2pKFVXTpD2TYjVnEwRD2TCTDGAq1oCpKOeoB/XGfkhDOdwbwM8Cj+DGK65H01MrMB6vx3TcgynjA1NRVtqv8qEs6AtilAZIAhFh4n5h2zg9gxKK+tU/5D7l5hGZTRCUiBvHY2qs3DuoISoDyBoywyF0lUSVrqzibJJaZmKqbyZMEE4SiHhAaR/1grsffj/HWwqx5j8fwerKu7H8ka+jtuAr8Jbcje99ZxHuWnwj1v04F6N9tZiJK7ikv3iCSEdpTDrLNTIuwY6gspo0ANEgxUxZmIRXfk8m6uVZtlQCIR0lxt+UhQ/j0fkxIcbrh0OqGfdjNm2oK9VT5AUMJksQUj7MJRvkg6Hj2eX4sft+OAvuxMpli1Hw6Nex5Hu34+E7r8fXbroCt990GW674Uu49cYv4c6vX4+f1n4Xw221Ugn1CG8mYbLqREw9gXKaSlASek0SjBkfoZziWoBxK4E4wdLWySTVg/ziQTRRMob+IGDKOpJwALOkaoqJBTDFCoohqRkR7bm0H9PxAIY7a/H8j3Lx4HcWYdHNl+PWG6/AbbdfjsVfuxbf+up1uO2Wy7Homstx85c/j0U3fB633Pwv+M79X8Ev/N9HekfdfJJMIsYEGKRKRYBPaDukfAgEjZF+oWapkmM1hQnUNKtGvUdYdR+mY4HMGhMpmhqdfZ4ZfF4rLIZlFhf9GnMiqskA5pJ+jEfr0Pd8HgoeuQO33nw1Fl33BVx35aW45upLce01l8rvq66+DFddeRmuueJSfPnqz2HRDZdhyQNfQdNTeTjYXSftLaN/JpfxDe0CkiDZltShwGtcQnORgl89JGG0HtNzrb6arLTaGCvLaqv/cC7+dswmGzBHUxJDUh1zQSKm5hXAdMqHwa5aPOW/D/cuvgVfW3SVVPHaKz+Hqy7/LK694lLw9zXXfh5fvuaLuHXR1Vh869W471+vQfnjX8XWny2ThDPVysjGeAUTl0oGMCNMY4XnEyNVJ2P0Dl7Te2ydBIFym0saNqT8mGLspH4koFUXmfAaq88KpwJC5ezjdIKTkyI0Dz9GQ/Xob6zE0/6HkPfArVh8y5W47aYv4bbrv4hbbvoC7rztGjx09/V4/KHbUbvybjRU3IefeB/D2n9/DN1riuXjnE2fNCaYTICBScBy9GcSJcishk1Ojpmg9Z1J3jcdhffp9tz58bokK2BoEWV/YOaThKcSDZhNBjCTDoDVFr3QqGRDom1pLOrHwS4v+jYX4OmGR+Er+xbqiu7GT+ofwFOrHsSWny9F93OFGGop1W2cNHq/bAy0OsoYoWpaJaIAa88XD0mrj6imfQqAJKamOc3qxdkGNSkpCCspG57AfGXN3kEAjenzwgp5L0BK+8WU5lhpQwd5IEHUOLkPs2wniX/DRNwnH+yH+yqxv8eDowO6MZhNN0ggJ8gKaV1ezHCnliCApB03NJxD12Db4yZHjMb4BPu7ngcwm/ZJ15hiAUhxYcV8i6T8dAtsaR3ADPcTsiZpzTX5vMrAGiDnd7AdMdnZ5Cow8OkkH1K3Jj1m2K5EOw2YTqwWJ5xLeQXR2VQAJ/luOoBpCcqL2RSTJLLqmnxGNiiGlgSEHSEjm6R2CVlj0ItpJkvTkv1AANOMSehLfXMddhGbIJlD4HQ+gkMmiCSijJv3Ahmq87rjpCzQAAkswcUbJEDSXIZovAHTEvgqAWaGRpcKmMEKsBLmee6+4g2YTKwy85jkJElbLQ2aSXMN0al0B1ZOk6KWherCDp8Yp8iNwJoh22DLyrhWlUmxosJSSoLPstpixOLS1FRAElYNN0gbYqXknPqmptM8MolVsgGZv7cKsykOreR0fJVWJLUKsv/mPb7LqtAMOV/Mg+nEKkwnlVHWMKdjqzATC2B2YB54skNYw/m5jaXxRb0iQz5LyVipTMcbxLRmogoc15R9hWEBGeuQSg36MWcoRFrPDZpFWLl0gwSsoDAxw4AEKW4SYLVlA0Hzs7prME7MxRswG/VpMkyY1Y4Z+bCiKT/mYh6zAdI1p5Or5brqOIA5Jhc3haGEUso6AZCgUMMcSTVcJi/MkY4TwIx83PjgODnYgJPC/QDm0rp9VE03YI6OyoRJ87gmK1o3tBX0RQaauHxtsaJCS1ZYqzqTaMCkqSYrOyvVXqVmJgHRaDTxmdQqUzGVBNcgw6ZiZASdnPsGwwDDwlmhsTKM90XDcQO86d0KMBNOGzpyr8zWlOKkAcyx6kxYqMqXaSbawrSyqiuhK/UrGwYmqQzgZkUMRBLhNaN1kwD35gIYgaAx8nkBRTWnzxuZiFOzVem50pzmx/jIFLJIz7m+6Fg8gQaqrVYqT0oT7Tk6NOkr+vSLRklrTjZHzSRWm/bASpMqrIIawkzCrfoXp2bVCI6ltepVGEIWyTqktDFJsiZWj9k4gaLjrpbqTjFoSkakUK+xcT9PD2F17fu8n6jHrHgL75s9hVl/Nr5aZMKPHkt9cWmrWbYoVozI6dCtGxemYQmSVhPSU72YSVE3Gpz0cYs2Kykoe6Q1CAjy6efX1mNYoZ+iRpPWVZP8jGQBfJhJkym8v3p+ffEBZRWZIvFJp9CWSPCklwsDtD1RFmx3jtlB/TScS68SvZ40lRXnlapTn2pQ1plZXbYiVl6vKWWpXdloCH35m9c52H7MR0HCI9/bKg8jEflCU4pLkobudHw+p0CT9rZVmnktm2Qd023iXtkbkJ3KBK7L99h9VsExN6RbOprTKWp2UDcgfIhfSTYhcb04NxzGfUUKpL9uVEh1+W8IA2RFSHlpP8bQkg04mfTK5oYgSxXkW1sTEk3HPfLulGx2KCVuZDRRJst4KDvpBOIn1K1JTOb3aIsc9KkHDXrxIruOMJff+1445IRmQL1yJFdjjohJCzDX5OumQXc1TIz71TgnYhIN4rqyJxfjapAWNSnoc4Nh2lGqAdzknEw34EWCIV7AdfzSV0XXTCgRwJx88xrKUiImFpGbMIuA0lcsi/istjH6hZotgWHXoYR+iCnxGB/+Hw8Os1fh/Ez3AAAAAElFTkSuQmCC;" vertex="1" parent="1">
          <mxGeometry x="220" y="160" width="60" height="60" as="geometry" />
        </mxCell>
        <mxCell id="WDatNG11xKEBm6-NoSf6-5" value="" style="shape=image;verticalLabelPosition=bottom;labelBackgroundColor=default;verticalAlign=top;aspect=fixed;imageAspect=0;image=data:image/png,iVBORw0KGgoAAAANSUhEUgAAADwAAAA8CAYAAAA6/NlyAAAce0lEQVRoBXVYCXBdV3l+NknaoTSlDNsQCBCnEJKQhJClbEkIKZAQwPKCLdmStb9Nb5UMnWk7HZaSNHYcJ44Xydqlp+XpPb39SfIueZEla5cceSGdAIHSsiUEaCCOv873/+dISmeqmTv3vnvPPed83//93/9fOdb1XcT6vkvgeV30Itb1XZDr9dELWN93AXpelOt1vBc1zzlOxlw0Yzh+xXV0ERv6XtDx0YvYwLlinH/5KIjpXLoHPl+U9ddHzXpmL+tiF1HA91acec2Da8ozi2Fp/gvyfF2M2PSa6ztkk7IZC0Q3xIcCWBYlGG5iEetjCkwXM6TwfSHHPDcbthvfwPfkHp8rqcvr6jrclB2va+mact9sWEAK8EsQIAbw0n0LTEATpAEqQeX1JTjkpkyiEVgCysnM5pYWlQlJjGXMborRNPf7FrHBghMi+GwlWQZYTN9ZBse5bNS4F0OiEKHBKIhdUhUJAB0rxJtoF8QvoUD2bIJlAdt7sQuMsAWgC6hMeY8sclJdzEZbztyMkfwG2ZiJoJE8I2VBrosamcZUpktKkKgbUEvguN4lJdoqLG4J0r0IILsvAaTR1uDo+zZFuHfFx/t6OFRuBMWNLQpDMih2GcqoIUSidQEFPJuFuLgAMBG0SpAIW1YlQjYVdAOypsnH5feNtJlzBB29IKQVxl9EZeYiPEcuw5N6Ed/q/xHWxy9iXT/HXca6uI4XiZt83sC57X0jZ8V0CQ6VDiNEg1mWnoAlQ8KSBUZjMxHjROY55WwjaiVqWVZ5qyKUkBeWvEHWi75gUsASe1GILoj/CM7Bl5D/6W/wX3/4HX7/+ut45dU/4uzLr+DfTv8UJfHLWNv/ItbFTWBMPgswo1oNjKafNUsHF5WNROmwNBTmyQWsJ0OS/ColubbsC1jryEqSgJbIGxmZ6MvcdN8leRly5PeiEKhk6doEQNIqcj/G0Zdew5UrVwBchf27evVN/Pz3v8M/nfw5ChIvYr1Rojq1kiX7fwsBKyStEVkUa19+yQwwJqL6p3SWX7SRXDk585mbF3CS+yty1EiUCuG7qhSrlgsokEhRogS+iH8f/yle++OfLc63nN+8+iYGX/o1CvsZ3cu6LxNVYlDlaEWwJmwJd2ww5mNzgKYlwOM0jwsqL6lly64tz03EVpK0XGr43nL5Yd5boEKUgCYZBK9KkfWXVHER8fM/x9Wry5F9C2IAP3/1D6joN8SZtagmq0pNRa7BdLT+IHVYF5bBZHcpihpRBcfN6zOJqDEwyREzobwXt5PreI7lvBukBBl/YDMiQE30zRhZXwAvYmP8Ejou/Deuvvn/A/7JK39ASe6ymJMNmgLjOnbuldd6zyHyMgysZyQlh0w9MwQUMK+FCHVEZY/11jq2JWSlY5pnjKaUKy1V62x5ovzlGWVtyTQqil3C7tGX8MaVN/5vYOU383jut6+iJEFJmyAZ4pRk7ofzLqeMJcFBZoUZcVwCuySSXpbEim6Fk5v2k64uG+5dMakhRfKG87ENtfKVs9ZrXdMQZp9zw0bSbEnL0pdw+XevguDe+ncVr7/xZzTM/AIb4otYy3fMewLKmnCvja5VluKUxsPqfNmJlyex7ItkbSR6zWalHC3nh31/eQOWfe2lraHZnlxZ5/srN0fjO49N0UX84PTLWPz1K/jTn/8kwN988wpee/11tM78JzZnXgSVJ+StBGzUKr27mKNpXMwaDsuqyNmY03IxvyjlSQEY2Zr80ChZdRCYytnmPN/h3GpetuTp4kqe5pR1zyWlyYY1KptjiyhKXsYPTr2M9plfomnhZ9g+/BNsYqrF6Q8cp+voWVtPzrW8P7OOUZDptDSPKA+JEkuISJdfIuYFytPk3VJumLrLyQlUwIqMLRFMDxKh7+pcL8hmZEM2h40MV96z3Zp8cfVexEaqKfoCNso+LmHDEjEWkAWuuWvlbf1GSlXfIhyyeel9TTmKXkRB70Ws672AAk5OBtmUCHBlnq77lhw3MlqSv/zWJoCRZ9dGMKImmVPze6m7E8DLXiBjJXIkS53fKkH3QUM0qcRxElENljw3/mHHaren1WGp0yJjdFA+XNt7AWt7lmupLqpgmW/SGUn9tq56EfoRYdiWiFJ2ClYAL23QtKsmuhtWmp5xVUvOUm02ylMAFqiZxxCpgTGkCWDTwnIdMTA1TGNay5vgYpRzAaMqzm0WYK9tTWCFs3MhNb23SktA2gbegFUj4TiSZ81E37PRsDlpSSJouWdSa2kt28m9hQwbefNtwHWMopgOxLb0eahhN7VRZGKkaCVIJoUEIx3ZiEpzWXYqQf5mPZcIiXKUlOVxBrTN4RVgJN/pH8YEV8pVPllJMAlkMETKtpyxpTX9vcyrhGqfvqxOqcMaJSsBdThdUHNY84UvGVMTyZqSYJxSFrfRMID5nvwbx8rZRMOCWEoPY0gaZd2cRpa+YmVqewC7B5KoBkUfYgSVABNdMd4XtLeX7k57AilL/HZcko0YlC0nBvwK2aoxGelIy2jy2ESSG10qRUb6alpW+tZcCECjJF9a5p8GjIjUa/OuSnLluzaiujd5LoQuqo8wuiRwqfHQDxohJLoIh/0MlPZRpKTlRXIlrmbEiAj7jGxcS5WqwuS+yXUbOXkmbSc3Ydy675J0RRa8zmmdWQ1FI65kyhxGutoXWLVcNv+NMWnBUmnkrWRdwEajKJG9qTT8ByFLkyPQcxT+nkMI9Q4hGBlAoHcIga5BuRfsHoC/ewC+yAC8PHcPwNM9CG9kAO7IAHxdefh69L6vMw9vJIeaSB7u9jy87Xn4uwbg4dHJ8Xm4OvJwd+TgbM/C2ZqGsz0NV3sGLv5uz8DdloGrNQcXz205VLdn4WrLwt2aRVVrBlUc05pFdUsWzpaMzOFqScPdyvFpVLemUd2WRXVrBp7WHKrakrpGWw6VbVlUtg7AkW/1Id/hRb7dhYEWN4baXci3upBvcyLb6kS2zYV0sxuJRifSjU4kGyuRbKhCvKEC8QNViB8oR+xABfr2lSO6rxLRfRWIPl+Jnj0V6Hm+HD17y9Gzpxzde8rRtXsbOneXoGNXCdp2F6NlVzGad+q5ZSevt6J5x1Y07diCpqfMeccWND5VhIYni9DwRBHqnyhEw5OFOPDDQv39ZCHqnyzEwSe26H0+f6IQ9U9swX45F6L+37bgwBObsf+JLXAcbXPiWGcVjkWckOu2Khxud+JIezUOt1ZhqL0Kg43VGGiuxMDBKuSayjDQWIlsYzly9RXIHCxDuqEUqQNlSNeXyTm5vwyJ/WVI1pciUV+K5IFtiO/dhr7nixHbU4K+54oRfbYY0ee2oPfZYnQ/uwVdz2xBZHeROW9B5JlCdDxdhMjTRejcuQVtO4rQ/lQR2ndsRuuOzWjbsUmu23cUom3Ht9D21Ga079wkRzOfP6VH61Ob0PpUIXhu3lEIx4kuN050O3E84sbxTieOdrhwPOLU60g1jnQ4caTFiUNt1TjUUoUhHs08KjDYVImBlgrkmsqRO1iOfGM5sk3lyDZUIltfgVxDObIHy5FrKEPmQBmS+0qR3L8NiX3bEN9Xgv7nSxDfsw2xvSXoIxF7SEIxonu2IvpcCbr3kJCt6N6zFb27S9C9eyt6ni1G5NkidD+zFZ3PFKJr9xZEnt2C7me2yO/uXTwXoWuXkhbh9TNFiOwqQmRnERwjvTU42ePCcLcbw90uDPO6y4nhTheOd7pwLOLC8XYnjnWoAg63EXylgD/cUiXnwZYKDDZXYpBENJGIahxqrMJgSyWOtFYi31CNbH0Zcs1lyNWXIn1wmyghxejvL0NKFFEqhCT2khBeb0Ns/zb07y1RcvbwuhhxErNPldK7txh9e0tUNSTreZK1RZQUfXYreqig3VvR99xW9D5TLGQ5Rnv9ONXrxcmoBye79Rjp8WK4y4PhLp69GI54cLzLjWMRN050GPCiBiqiGoeN/A+3VuMQCWl1igcM9W7DUH4jjh/9Fk6f+AZOxIqRay1HvqkMuYNlmhYHK0QFTI1sfTkyDeY4UK6pQkIaSpHm+YCmR5IptLcMifptSO4tRXxfKfr3lYpy+vcqSf0kRggqRfx5VRHPjjMxL85EvTjVV4PT3T6c7qnB6R4vTvZ6MdLjwUke3V45RrrcGI64MdzpxomIC8OMfsQl18c7XDja6cLRSBXSmSLkLn4Bvb+5Dbtfew+e//N7cfzK7Rj5xQM4Gi/HYHMZDrdWYqC5Cnkqo6USg00VyDdVId9UgYEmklKOXHM5co16Lb+bKpAjQY0VyNA/miqQpWLqy5HeX4pUfRnSB9RHUvtLkW4oQ2ofU6kcyQNlSBzYBsfZeA3OxvwYjdVgNFqD0T4/RvtqcKbPh9O9XpyO8roGp3trcIoK6PEoEd1eTYMuD0a6vTjR7caJHg8yuWI8/eNbUPHH61H6P9fD89pfwn3lGuy8+hdovnIDBhe/giM9W3E4QjVUY6jNCauMIfpEK1OmCkNtlRhqZZqYs1yTFPpGFfI0UiGnEvnmCuSbq1Q1DSSCRKmKMg1loiCCz9SXwTEW82M87hPQYzEfzsZ9GCUJ8RqMRUmGF+MxvT7TW4Mz0RqcjlIVHpwiCT1UAtXhxLE+LxpPfwnO3/wVSn5/DVyv/DVcL16L6pevgfPVa1D3xjtQf+UGHPnZgziTZ2WoEoUc63DhWKcbx9urcazNiSMd1TjayetqqRZy7qjGERIiZFThcFsFjrRUgT5yuK0SR0gMKwlJaK0AfYXXuYOVQlK2mcRUwjEWD2A87se5hB/n+vWawMfiPiFCSIj5cTbuxxhVwIMKYOSjPoxGfXI+E3PjaMKJf/zRGmz41bXY8tPVcJ5/Bx6fuA5rx1Zh/clrUfTr1fj+m9eh7U/vw5EzazHSxZRgerjBdDnR5cHxiAfHjGHyPo2TVUPMkynT4cTxjmolq10JOcpSSnJanRhsqcZgCw2zGkPm+lBrFQaaK6TCOARsfxATKR8mkn5MJAI4RxL69XqMQOMBjCX8GEtYIvw4G2UaKODxfi/Gki7k02Wom3kXHppcja+MO7D+9LV46MhqPHJsNQovrULhy9ei8vd/i++8cT3a/uOzOB2rkjQa6XGrafZ4cKrHg2Frnt1ujHS7MMJ06XbheJcTJ0lOpxvDXdU4HiFwp1SRoxEnjnRW42i7S4BTDYfbXKII9hU010PtVXBMJIKYTAUxlQzgXL8P5+I+nEv6MJnwY4L3EgEhYbyf137wPE41SCooaKbF0JECfHvkVjyQuQ5f7HLg8z0OfCXpwJej1+CR3lX41kvXwvnLt6Pilx/EP//pncj+9n6MDm3DyT6XpAXTg+Z5useHU0wbSRdNGU0br6hgJOLBcK8bJ3tdOElVRDxyn1XkOCtIp0dUIGki5dSFY2ykOtw42u6E41wyhMlkCFOpICaTQUwmAphM+fU645fIE/R4zI9zfUGcSwYwkfIrMYkgJvo9GE0EcXDkc3ggfh3ualqFB9odeCjmwP1xBz7XuRoFx1aj4LwDj158JzZefjuKXrsOP/jD+zF0bBPOxN3iF6eolrgHZyVtvDhrjHLZNEmGF2d6PThDkvrcGIm6MBIleFYVN052kRQPhnuoDJMm3VpFTtAjut1wTKcJMITptEZ5Mq2AJhJKwjRJSPJZEFMkg1FP+uWQqCe9mEj48cOOz+HTB67Bp3aswj3tDny+0YGH21fhG4nVePSUAw+PrMKGsVV4LL8ajy6sQtWv/gbZk+vFD6icszF6BtOHflGDMRpnn18qxGifT8adZdXoo1l6Rfqnolo+qQAqglWFPYSkiEmPkW4qwCP+QCIcs6kgZgk4E8ZUOggC5L2pdBjT6RCmkiFMUwHZIKYyPo08SUgxuqqI8aQXsbZt+Id91+PT+1bh3qdX47N7Hfhy+yo8kl6FxxJvw1c7V+G+3rfh6/3XYMPZ67D95ZsxnHBhvI/z+DDOg4phuohhErwPY/0+iHHSQ6Sa+HCmh4DZO5AAPVg6z/CaFYTgYySBDZUXJ3tqpKKc7PXAMZcLgcdsJiygZ3IhzGRDmE2HMJPyYyodENAieaqBkaYa0hr5Cfntx3DMhx92PIBNz7wHn3n2Gty7axX+/qAD9x18G77Y+E58vfFdcHZ+CE8nv4TG048hdWgrzkSDElUFS2MMCImiIFMlxvtrdAxTigRQBQltls6yb2Dux6gGH8ZECaa0ssRKD8F+ogaj3VSAG465fAizuYCCzIShv4OYSYUxm6HUCVgjP5MgKUE55Jm5puFNZUM40x9CsmsTip+7HZ/ZeS3u27Ua9+xejQ07b0SmuxBnet2Y7A9gNO3BaJ8X5/q9OJfw4SwlTbAprsUUCy6Z5UTSh4l+P8ZZQWic/SyhXpylIkhKzCdmq6Tpb7lm7yBpwTJK8EwLPxxzAyFMZwk4KADncwqIwGYyjLzenzXPqYZpcz2TCWI+SyWQoCBmGPV0GNmeanxn7734yr7rcd/u6/DdA/fjXMKDiWQNplIBTKcCmEz71RMSNMiQSHmaxkmwBEZ1pUKggiYTYZwTuQeEMO0bWFECGEsGVPpxHyZSXkxkvGq0SfYN9AbTP9AXYj445rj5dAgEPp8LYz4bxlyaUQ9iLhPGDJ/J7xA4di4TwnyqDrNpBTiTDmA2G1ZyCDhRi8l0neR/c8PX8NDjN6GnoVTkJsCkItAQCTIkFWEq6cdkyif+MUNjpDcw0slaMdSp/hAmTBWZZpWIkySfIcGHc32maqRrcC7rFrKYFmOxoJihmGA/pV4Dh0RQIsaIKiBGkZHmMxoXI80zgS3kwpjN0sjCmE2HMSVuHsBU2otTMQ8ONWpJGI4G8N1vfxO33fQxdOwokYgyPTgPgXPjNMOZDCPux2RGS6Gkj5inTysDCcqwMgSkL5hMhsFKMkUFMJVSPn0eY7/gwTgbqBSlX4PxGDtHbaLG4+oXDuaiPQQoo0gCaFyUL5+ng5jPhLCQCWA2F8ZYzIuTLV7E9lWg6cn12PWvX4O3+gE4C+/F1x+9G9s23Ynyjffi0c/fhkcfugOdu7biXNwr61Ax06mQVgReZyhjzVsa4QzTi/dojBkCUqNkgyTPmWJmzHTWJ0oUQ2UD1R9cGj/O7jHJDpK9A5WnRDs0kmEsDFDONrKMpoKeywWxMBDC+YFajEbdaNu5Gd/zPIzSjfdi42OfwiNfug1fe/A2PPbwp/D4g3fgrts/gltveT/u+eSH8fDnbkF1yYPIU9ISDQOA5kRwkvd6j33AjOkHuEmpDoy03FMlMPWmMgQRwETaL70DyxjJYFdID6EabUURwKap4noTyRBz2AJljtKZw5jLhjCXD0u5YlTP5+twotWD79c8jm9+6U7cffuNuOXjH8Inb/kI7rrjI7jjzptw761rcOutN+CWNR/ELWvei3s++UE8/sVb8cS312Gk04vxfvWDyZTWdwJUH1CFMarS/PQbkBkCoCGGxDfoKTQ1aYDMuzSziT7mtKqBlYVgOW4i58dEnO2wziuGmAiqabEUMboCnvmbD+F8LiRRP5+tkw/9fd9bi8Kv3Y177/gwbv7o+/GJNR/ALWs+gDVrPoCb1rwfH73h3bjxxnfjppveh0/c/D7ccfuH8PD9a/DD8Jfl64YliDWcoBi1OUaDkjZnVgnp+PiMe2E/IN7BqIWlitDB+a6kW9YQJL/VeKdMujANrVdIA8Ux6bBUAMdCrtYYURgLBJ7nmRIP4IUhRrsO8edLULr+s/jCfTfhE4zsxz6Ej9/8PnzsYx/AzTffgNv/7kbcd+dH8eDdN+Mz93wcax+5G1sL7sG3yz+Pg9/7Oo62VGG8zyfR4uYJiGAYVclZQ8JMmsAUEMkgMFsup9NqlvIepc0OUUpmUAyWIGfy2jQR7JTtGcQnSAABh+AgwPlcLeYHFDh/z9GJaRhpP8ZSPnQ8XQzX5gex6RufQuHaO7H5q3dha8FdKC+4H3WlD+Jfar6K1if5n8FCRJ4uRmpfEQ63sYd1Svc0k/RrVE014IbYygoYA54RFfPMauSZWhpJQ46MY/ljZJUsSQnmLOs467s0QkqGqoPPzHjTJjtmsrVaf4cY2TrJ3XkxrDAmEmGMRgM40RvEwMFtyDYUI9ei/0E4FvFitNcr5YKGMJtnL85yUysRnM7UifExogRC85tnGys+odFjNaBxqWesiCzLYy6suUtFMJKMHttfY2ISXZEwCVJlMMrcC49pUzotYL43lQrDwU0wqufztZjL1UqtpWHN5NhA1MpHxHy2FrOp7RIR5gQnpJlMZeqkhC3w3SzbzloFlzUdmMhWgWhNN40Mn0uUKWlWA8pcOzxGZi4fxPxASPag5smarzk7wyZHpK7lixGX99PsFrXFZSfIeQhQjJC5z/XSNC2WI9lwHeYG6jCbIwhGp04ImBMiuIhx8EwdplPMB+2umArTApa/mQ6qmBk2FWkSSADMrTCmaUSMMvt3kkhCTCQlNwcCmBkwzY/0A2HMDnCcRlECwfeYzykCNqkhxIalJsvHjyhNzY6pM0k5Mw3SIThoVHOcRPKWG9RICwncjMiQRDCnCLoWlKsQwFY0RzL0fUaZnRiBT6V1jOQm3yNINjHivoy0IVDaUm6OLaoSo8ZlpG6iP0siJLoaYclvgqB0BbD2Dba8aQUwacJoc1yWpiV12BoVe+Q6LHARypsgGXGe8wRci5nMdiN9PueEdZIS81RFjs85B+WlOcx7jIyAFZAhzKb8mMnUyhhLFqM2wx49FcZcP8ukphf3QBUJYala6bfnEgH9pOUXnTQb6vyzaQaD8ytxnJPuzCjzPmUtLr0wyAXIkImwdF3csAWtdZrRlXwRGSrTlCfJWWDuSSRt+dguUud4+sF8Moi5NOVOBTHCZn6SSFBJv7SvfD6b5zrbBSTTheMX5HNV1SfSzvM9kqbKmzNfaxIkUROfqdGR3FnTAzjmByhDumAt5iR/NAcJTpzS/jNA6qdZUEpIrXxNSUkzxEhUctsxx+hltmt6MOLMe6sYKkRq6nbp6lh+JBeNGamKCNikEcmlHEmQ/LOiTtadk980y1qZj5GU6zzXY+S14ohPUPIpEhCEY8FIls4o0pNJ9R8Bmr/GsPi5aEoYN6XP2HtTBfa3Gp1GVd1TAMgaqqCVZUqNsFYaBpYtynvpPy7y8WJ8Q1QUXPYRyWv9kOGelnJe9lKnHRxNj/sSwk3eU9JzKfbSdGaVM7+KGCmClwin+KXEvFVnZfQ4iSVjLhXAfKYOVIpERaLN91Xqcym/zm/ynd/YQhClmK7FXNK3NN90drvkNtUgMuQ++Fz2Q9NTVVh/4RjOL9EW+Wp5pNT1e55qIz7Op+Q5zg+EsDBYu7QpKRnGseWDn3JfKlUEzQ1rd8aoUBliVNwU6x+9QJoMEkZVqEHJJvntS5OhmiRKzHsaXBgzzEnjuqynJEM2nQ9imjmfYx9gctLsQZzaKENVR1lTnazjNDbuk0SpafLaMT9k/9th3JaRZZQYRZPHGhE1HGs6c7k6LOS2i6TFac3Hx1xGHZQAqRw7XrssGpdfiJGocXOS7wSrKSAkyT8ftARyHSFElGEAMYKS+6pKrfeMZBjzqaB+C+Rrtb+wKZqtxUK2Do7zQ8oCN3aeMhwgk9oRsTzphiljLhJQZzSmtcAvKqnD3DgJYl7RZbkxftb5NRUM+IVcAGxkWFOlpAnz6rSSMvx3EeUsLstU8suHgXgLe37Jaz5XifLfTbIec1UA+TGXr8P8YBCsPAuDQekg+a0vyk0H8L8Es8cvupOSlQAAAABJRU5ErkJggg==;" vertex="1" parent="1">
          <mxGeometry x="280" y="160" width="60" height="60" as="geometry" />
        </mxCell>
        <mxCell id="WDatNG11xKEBm6-NoSf6-6" value="" style="shape=image;verticalLabelPosition=bottom;labelBackgroundColor=default;verticalAlign=top;aspect=fixed;imageAspect=0;image=data:image/png,iVBORw0KGgoAAAANSUhEUgAAADwAAAA8CAYAAAA6/NlyAAAYcUlEQVRoBW1YeXDdV3V+IWHoMnSGTiBu07CVhKYMpYUphE4htNDptGFILTvY1r6/97S9p4V22mGYTvsH3hc5XmTJlp70tLx9lxdZ8iKvsnYlsmxcaNhSyhrIAsX21/nOuff3e3LrmTv3d7dzvu8759z7ZM+m2E1siprGb2mrZo79KjZHdcx+c/RlbIq+LHM65hrHN7EpsorN0tx1Pc8z6mNz5GVIkzOcX8WmGJvFUWQvdhOb2ax/+839DuY1lMRuoiS2hk0xfmvjt9p0x1zz6II5JEbWUBK9iZKoPWCBqGN1rsQ3x1YhTQAZ0BHuuynEhYxdM6CtgNaOQ9SKbYk4+13/FqsGxeAUgrcMUfb225K/hZL4bWfdo4eLIitqr6mCVnVRlKqq+i4RgrHzmgmWiEaREWe03Yhz3e5xomD9CNmiaDNKnLNiOL1Gk+dtdG1k3fEtN+Jxft8SW06EVWnjTAyvSqSd1HnQsQXnRMIQFvD6/ULkJWyWtl4MFYlEDHCxZVPXzSyms+Iyc0Up66Swk402ouw10puEqI6tL8+D9SO1WExGnCowproLwo0sVbWCafQ08kI2StIkbOZsRpgzNiJutFV0sePsMf6L6tSNvBLVaNt9hrCz36b6LXhKqIJR2KYOifG7JF6sDi8GQ4w9lY2tYaPM2dTTngRL2JjKY8v4slxUKpBces551pemnvjjvRFZxUbxvyr+mYpuXdq96odnnWgSS1FEubZRapf1y30qhkcL2k4oEaacRpKEb2IjN6+7xMy6iZqqvWZuVL2wylK34M18A42FO2jK3MbWBG/nFUnxTRFzaxsQDlkZ88K8iZKIuXmFvIKVLIiuabZYoc0N7dRwlJeZBsqZcy42RtjearJpDcx7zkmKxG9hs503URFwBqhVTQmvSnS2xlfRcOqbiC1/Fy//4DW88rPX8a0f/QSZ26/inye/ia1xzZTNvM0ftEMsjAz7qAZB9zCzXNIOPouzyI5EPXFbeTgRtwLcgkfBan2JIhJJWwvc6KaKKszUNClvlLNgno/cRF3uZRTu/ABv/erXuH//vjbcx9279/DdX7yFr138Nr6cvIWNTPl10VGhNQBG9LgS1UixxCiEYpJvU3KuAMXRvSWCir0i4h465YUidWuN2d7JfVVbou6kEkVRAEx3ARJdxb+dfwXf//mbQhQP/KMAk99+HVuyd7R24yqsRFSia+vNRFqyzUbH9m70hbRgNBkpNoqEE6LumPg9Jc6vFvskEYSpnyJjWmf/t66kvo1orP1DM9/BL978FXD/AbYyvI9v/+wtdEy9IqWyyYnQmkbPkJaMIVgSlj3FUXV/RLjZoOsSAEcka9OcFS7yS8vcuHIBKSFNIVVfQfGQyQLnLbSquhfdltFFdM9+Bz998y3g/v/H+D5eff1N/NPl7+AfaMdkkmSOBRq/LTXMqGtGsaYteEarKAuk/DT7lDxxrh+7+HVef2k5N6GpGQeIuSzs2NmnhiUSIoDeAS9EV/GPU3fw8o9+irv37j4Q4vu4d/8eln7wc7RNfktufQqrl6Rrb13U6M+mZVGv9csM0KBIgIxg+ozRnjY7tuIV/dLSVLZPDHsBJAf5VptUl3mromtY3+5V1Gbv4OjCd/Hqa2/i7q/v4v79e9Lu3buLH7/+S/Qu/RCVudvm2bGX0gP2hByjqvblPZX05j6223p/GFJ8f93IEnfxmL8VuF/xeywpS1TGxZE0Tt1oGuJO6lglNbW/HFtDdfY2vnb9VeT/48eYfuVHeOmHr+Hq936CvVf/C1WFO9iS5JtNO0XNZpETKV2zP36EhPyYIBlNcafG1xEuOufMuwIoYSFo6lfShMqb2jbE9NIy5IwgAsYCNfs3RkhmFSWJ23ghuoaKxBpqTt5BbY4q35a63SRvrCkXo7zzRNF/MZ51wipw+ypY0Zygca9Jc8FvbUvGKB/nryV7aH1vU86m7vo0d9OI6+aNNAKoHfc8a4kAuU/ryYhnnjnr10ad43XNRJ7neYnZp0xt6TNmv6W39V2cMdGb5u/h4nqlulZhU6/W0DoADniTYk4mEKjJEPu8GRE2Sq/7adM2e1urffdvcR2vF0iEteTZ22/xb7EY2/a+sT+LYzf5Dqvq7B0AD6prxm6dW8PF/YPfhrQRU+ybUlA/Gn1+K4Zi/9aWu6Z7TNk5WWLfae63Tfk4l2yxfY2wrV1V0v2LwwhBBYvS1D4J9ga1YHWeP0O/YZy7YJ2MYcTtDWyzQGpW9wp5538nTNpKBC1RiuKKIW+sc5NbnMpDRXVT3Yrs4a8j+evEFniRInr9E0xx7brg5AeBWXMjYAA55cCzRWViMkn2i5C6zjGFcQQs+g0va0X4FLz+xpf9JG0uJhFebNkfK8SrmHhO3mFeAO4vm+LU0j8LFUSxcjYdtXfTyRrmvPk7mwKSmMkS9/ZUPyqaPccfIta/Ec4JgN1D29avEd/UsvMjRc64eIlvXYQ54KTcfA4wS5apQuV5iH8b22/zW9cxTkAWpPstKWh+AvK8FU/tmf3yTBVfQG5UxKZgsvVq1iSVza8t57eC618FN4KYW53+PfXHs2gM5dHQX0DDQBb1A1l4B/LwhXLwD+TREMqicSAL30AWjf0ZNAzk4OvPo7Gfe/JytrE/B6+cy6FxgN95eLkvxHFG1nwyr758XA/l4BsoSO8dKIgdbygP72AOvsECfIN5+AcLaBzM6Zz4ysI3lId/qABfiHsKaAoX0DTElkNTeFzG/vAp+IbGZb55OAd/OIfm4VPwh8fh6d9RiuM7ytC7oxTHdpahZ/s29GwvxbHtpejdXipjrtn5df3XOV+KHp5l214mNminjzbZ7yxF705dlzna3VGGY1zfXi77+naWo3cX95bjxG5t/bvKMbC7HP1se7SF9pRjcG8lQnvLMbSvEkN7yxHeX4XhAxXSj+yvxmh3DcYOVmG0uwqj7A9Wa99di9FDlfCEdm7D0K5SDO3ehqE9pQjt3grO9e/eisFd27Tt3IrQrm0Y2L1F1kI7t6J/1zaEdmsb4j5zLrTHfO/ZikH5pn3OlWJwT6n2O0oRku9tCO8pRXjXNgzt3Yqh3WUYPlCGkX1lGN5fitF9ZRjZW4bR/WUYPVCGse4yjB2okO/RA+WIHChH9EAFYt0ViHaXI3awEvFDlUgcqUT8cAWS/D5UhfjhaiQOVSN1uBqekW4aLMUIDe4vw/A+dTS8rxyjeyswTGf7yhE+YHrZU6779lZgZF8pRvaV63n2sr/MHRNkdzlGD5ZhbF8FRvaz6b7I/kqMdpcjsr8CkYMViLLvNgRerBACkRcrED9YieiLFUiQ0ItViB+qQuJwJZKHqpA8XIWU9NVIkdSRamSO1CDdU4PM0Vqkj9YgfbQW2aM1yB6tgyd+kMpUId5didhBOtM+erBSlWN/oBJ0TCVtIwBR9sVyxA5VInqoGrEXKxHvrhJwcX7zLAHTphkLaPo7VIGEgNeeEYgfrkJSIlGJ9JEqaamj1dr3VCF9tBqZwxxXI91TjUxPDbLHtOWO1SJ3rA7ZXvY1yPfWIX+sVvu+ehR661A4XgdP8oiqkjpaieTRKgl78nA1kkeoXLXMpTmWtSqkOH+4UnsqS2AmXQgkc7hGVT6s4Ag4eaQGqR4CrRH1hcTRKmRIQFoNMsdqhUCOkSBQEuipQ663BvmeWuRIpLdWCMl6Xx3Ge2uFRKG3HoW+eowf13byeANOnWjAyeP1OHmiHif7GnCqvwGnT9TDo8ZrkO2pRVYUoyNtHOd665Bj31OLjKhZi/zRGigwrhNcjQPEgsqL0lRbgef7qLZGId9XB44L7I/XIUewjICAbsD4cZKpUwICuA6nCF4INeBknxI51V9viDTgTH8Dzgywb8Rpfvc34sxAI04PaD8RasTZUCM8YpwO+hhyKkRg9arciTqclHk6r0PuhIIk0MIJoyaVZutXEFS5cJygud6A8RMc87tOAZ+oF6Wp/ClGor8BpwYacJqECJKR6PfiNOdCBMxxIyYGG3AmxPV6JcE1jkMNmBjwYnLQi4mwF2dDDTgb8uHskFcbiQ75MBVuxNSQDx4aUCXouF4dDjQKCI5Pn3DnTw7UYeJEA84cr5d1OSsgXWBUmSCpPoGK6jxD9UNUnvNeaRMEGVIyBD0x1IjJAYIm2EZMhhswKd9enBvyYmpQiZHMZNgrJM4N+mTt/DB7beeH/Tg34sX5sJkL+3Fx2A/Oe2hcwj1IZbyi1pmQF5OiHgF7RZAzorBZH2zEWaf5QODcPyG2aM8rc0whkpgI+zARaZDvs+FGTA76tBH0oFeUnzQkJiU6Pp3j+pAPkxIhEvThfNiPybBfyQxz3ISp4SZcGG7CuZEmnB9pwjkZ+3F+1C/zF0aacHGkCRdGSZjOw1SOhr1qnA7oiPNMjUECV4dnw7o2FfJhatiLcwQc9uIc94aZSjzH5sfEaCMGL7yA/UvP4es3P4/DlzfizKgF7Mc5Ud2Hc4wOwbMf8eGCGV8Y4Zwf59mzjbH3K3j2Y34ImbEmTI826XiU635c4DjC+WZc5NxYEy6NNcNDxc4x9EwDGpc0aMLkkB9TQ35Jl8mhJhFgyqTFeY6HaZT7m3B+mI1ppOqyPzvqx/blv8GWt96PT9x7Fz76P+/CF994H7qX/xoTY15cHGkWYFR+etSPaYmARmJ6uAkXR5UE5wlaCTVheqQZF0ZaME2SkWZcGm2RdpnfYxyb/RE/LpEkz460yNqVaAs8VOiCGGFvFCMBzg8ZdUebcGGMc35MD/vF+fRYM6YjquR0RAFSSYKhk3ymEZveeC8+eve38NQb78CG1x7G068/gs/87Hdw5NrzmI5TcYJqxuVoMy5FCErBXuZcrAlXIs24HGkCycgezo+16nxM5y5HWnA52oKrsRZciTbjKr8jLbgSa8YlzsWaZZ5kr0ab4aFTpsZFEqDDMaYGe6rqznFewAlRqstxC+iQjqzC09FmXIw24d9vfQHP/ur38NQv34H33vkNfGDOg8e/8TA2/Pcj8P3nn2IqbgFZG624IqBbQXAkSIDXZI4+tJGQ7Iu14qptcZKx4xZciZs90VZcidNuK67FtXmo5qWogr9EElR7TFUV1ZkqUY5bcCnKRnIK6AqdxJtVXTqPtICEw1Nl2PTGR/CBH74dGxbejseuevDeqYfwzksPYcPth/Dc95/A6bwP1+MBXCUggpFoWGBtuBZvwbVEK64lTU/7CfqzrQXX4m24lmjD9UQLrsfZ85zamJGzHLfJGc5fT7TCI+kSYdiNiiQjUWvBFfaSHlRMlaeq1+icgKItuB6jYzppE0CXYwHsm/s7fPwXv4nHv/cwfj/3EN6TeQjvTHiwIfs2vOf8Q/jc6uOYzNYLSAHN84k2zMTbMBNrA8HOJElG568nApAWb5U1nrmeasUMx0KkTfbPxAPO2ZmUEUPWA+KLez1Xon5cpVJGYdaCkIkrmetitEUNW+OJVlxPahOHnE8q6ZlkK/rPbsaza0/g/fMP49GJt+HdWQ/+IPHb+Gjyd/GpzKMIXHoGs8kmITGTbJGzMyScCOAGW7INN9KtuJFqw2wyiNl0G24kzXxKyd1I6foNOcd93NMmZ+ZS7GmrzZw1giQC8BCwTQsqKmlhUyPRghmmCxU3pCR1LFlxTlXbQEXphI6vJoOInNqMZyfehydyj+DR6CMoSTyNcH4rJpK1mMu0YjbdjFk5oyBnkgHMkIT0BBgQIeZSnNcx153vZBvm0vQXwA32JEiBpHEcxFyGhCkUx4rPQwIkRdA8cIOKUuV4ALPpVsxyPtlq1KJxkjORkP1qzKrKiHB9Nt2BTKwOrYmP4xO7HkNorFyIzmU6MJdqUTvJdklFZgdTmFEjgblkUKJFQnOpoJAhptmMRnouoXu4fiMVFFs8N5uhX0vQEBayARUnHYSHacSoiDJUiwJIGgUwn6YzNThvjBOYGKWq6SDmkgHMp6h2EHNp2mnHXCaIhXwQi9kATg8040t/+yn0f30jzgzU41LMj9lUM2aTrZhnNEkuHRTgjAgJCtFMG+bFHsdBLORcQvSrjYIozvmsiiMYiIUYMiQaFB5z8t0OD4lykY6oFslQKdlA5zRE5Ri1VDvm2dLtSjYVxDwbz9Nwpg0LjGCmS1JvMlyP7n99Dlv+/hMo/eKfYMtzn0ZX4+ew41++hNxxLy5FFSRLQQQztuZzFKsdc9kghIjBIMQzXNNGv1x3iMn5gMwxWGwL3JMJYlb6dngWmDYGMHtGUiKXYeSCmM9pOvDQYp7r7VjIqsIiSjYo47l0u4LmOBXAmR4fvlrzWXz203+Ej33kcTz91GN48kMb8Gd//ASe/fgforHiWSR7azGb6sCiCKx2CHAhawSVbwJuF9Akt0gi9M8zQpZBUVLzmYDYWjD7iVOIExNt5YLwkICGPSDkFpgOKU2HxbyqN59rU1XzAXVs1BJ1jVMxTocEm2pC5lgdvur/PD73l0/iIx/egA9+6DE8+YF348NPvgcffuox/MWfP4X9X3se05EWLKboh4DasZhTgrQncxkK3O5ElWRspJnmQoh7eD5PwioOe47Jh8ESeyRMcjKRU6eOARrLsxZMHUh6mXoimFwQS9YRsyHTLupS/aUsnbbhVF8jdnzli6h6/hl84bNP4zOf/CCe+dj78VfPfBBVX/okjm8vweWEVb8dSzn7HRTiFE+Aiz+Spl3NMAqj4ih+GWe1/pVPccboN3F5NEqq4HymA4tGZao6R+M5jZo4StMJgWmbF+UDMsf9Nm0YqeVCG+ZznfKDZbyvAWNHqjGwYyv6tm/GyN5SnO2vx6zYD0oUliQtlfTSuPqxZWSF4P1B0hRbeorMeqb4khHtWMxrIx5m76Lg1z0L2Q54uFnT0a1PcUAyVkXzvVQwF4akOlNG1SZBAUHH+Q4sZTskWsvmpuYzw/uBN76USS6AlXwQy2I/oGAJ0PrJM9Lt4OVF2xSYYyHDgBi/vFNUAMUh+0UQLQNikiYXnfLxzGc7xBGdSa3kO9S4JSz5b5S3DuhcHAdNGpIggZAw1ezAshkvZtswzxs+qwRXCnpmKReQvcsUkUKJaMZuukOIqOAka+xzj7mhSVR8WdycFyFUHGYb8UikhYue9UjasO4IlpvMpcHDjKiIYA6ImuZ7iet5RkHTSghLlKi6pjltMkISuXw7hGy+A4v5DpDo8rj9Zgm0a+2TQLpDbFM0LRsVkSJrNqkwkok52lAsvFOY4pJt5GPO2wuQ+D1asxpBRkZU4uZsu0TJEhNDVJXA8mZN6kdTjOCYyjbKTFeZY9oWtPY4XjFkVwodWJYoGbAEnevEgo04xzYyYpuYVAgS4RoJCj5iEuF1XTDwrMlEKVlZb4dnWdQJmJRUxUmajWvLTEVRP4DFAtNQ1ZXaMsLQGceL46qqpruNQoeQ5J7l8Xa8VOiAkGWtFwiwE8sSdYI358U/L9CgA5pZY9cFgwikGBWTLY0iDCb7JAP4nW+Hh6oJWE6wvjKdotxKminISBalzEmud8jjv5wOSoSEnI2UKN2JxXQnltIUUQkt5jtFqJVCpyHPGg+KoIwqAVNUXnISxXQ7lvmDxNQny0r2jBs82XasMAMNaaa2CCqB6ZT7ZdlecpkOLUtL2NaXODNPENOW0aDyqp72YoSOaHjcpiIjZfbLhaKR43kBYWqW98FLUiaMeCdWKF6hA4tsctl0YCnVhkUKReIy12VqVv2/xLtGXgJiYAZoFvC1EAzmQuNZjhdZYrbsmGHZoNYwnxI+Ewu8XQuMLNOMamovTw2NZ0008l1YYR1xH8lSAN7OTNFxlgDTlimkQElcao6Rlr0dGk17nilsXgu9A7pMdLuwyAwwt77NBuLR+4H2NdOYMXxnJRMohtSwCQb9S+tgDZNEl4DjI02wbLLB1LE4kCgqGT2jxlbGdb9GiucpACNhyPJbFFcRGFXZI6B5U2smad3zKSFYpqEtJWNH/FBYvWcEk42sZArvDPoiLopEwQ1eBwtv6exXJOyqHo136U1qLxVGORvASrZDwC3lviJGme4iDvdnAljhPkav0CWZoY41vZcyrRCR5BnqUjFIXMDzzmg1NzyfoU7JNK17gyfTJvYlTU3E7WW3wKzLthqfJM0AEptm03KOeIJ6d+QlwiYijIxsVBWlJuQWVWJqpEvrzqSqRrMoYrJfo8TUFtJy4wZMendKvXJeM8KMnfTXC0eizOiJH2NfMoeZqLe/3LyyHpQysje+3AuMqOzXWmd5SVmQsBKhcRI2NSo3KCPWJREXgKwjPiGMjFFM97t7BKBEzjxlJEbnTlRUPBW2U6KymON5rTlJfUNCyqpAAbokWnKnmNLgPnnaxDazgD40Y2h7KRuQO2iF2WbvI3n+uvC/0WPg6KEu8Q0AAAAASUVORK5CYII=;" vertex="1" parent="1">
          <mxGeometry x="40" y="220" width="60" height="60" as="geometry" />
        </mxCell>
        <mxCell id="WDatNG11xKEBm6-NoSf6-7" value="" style="shape=image;verticalLabelPosition=bottom;labelBackgroundColor=default;verticalAlign=top;aspect=fixed;imageAspect=0;image=data:image/png,iVBORw0KGgoAAAANSUhEUgAAAD0AAAA9CAYAAAAeYmHpAAAaAUlEQVRoBXVZCXSU13Ue4SXtiXOa03rFdmwwBuMtqZe49RLHSW28YgMiGO27RtJoZiTIOU2buIvTxguY1SBW7UiaGc1oNiEQCIHYJKEFySzKYp+6jZ04jZ04mx0bfe1373v/DMThnJ/3/+/dd+93v/u9+/8DrsWhs1gSPIvM4GksCZ7G4sAZLAmcxpLAGSwOnsXi4JSuB04jU+a5ZtZDU1gc0vUlQbtP1xfTJqjrYhM4I/vTfTA2/TOO+uTeU869rtPGrAtGEyd4BrIu8enjTAp/8AwyZZ3zBl/oNJYG3kBW+zhcBJFJQAKaI8HSMUGaeTo5D7RdI2G639oTvPgSEGq3JEDQvFfiZDRx9F7XZG/glImlsTOFhLS93GcKQ0xClklS55m84pe4do0kkLzgGbhYZecKGFbNIg2sodpYZ5YMu9cEkkQ1wXSfBLPYSTzlQ0AaQlNALQFqp4ml++e9jWHwSfJ/BgvVyNi24jZplYZ1bDdztHMpAALCJhdKrbO6rBr32EprZa2N8UeAdr9NOP3YnLc/5ZMEqd8/j8+S6BDuxDkr2FTqU+mVJhh1qGfIPAtLFqgZ5bzbOTokKWkJE2CHkbkkmQ7UVukslrCfGBKszG3FHXJNfD6r6nSPECBxLQ47psfSPZnSs7RwrLojb21gZ40U1IAApNGlgXNApauA9+mJCwFsjqY6oSkwsFb4s8FJL7H9JZ1AUwgbV1TpVD3NlyHPFs4hzdmfKqhLgaTYsWxqV051ZjtPp5nm7Ktc0mWnIKQK5iwxWe5lJRfz7WDeFksu7PwEJzamIiGSZoHSbwqjJqSdX/DY4qTJ2eJ3ureQwhistPPKYjBWOo09aWQaMHWe7DNBUD48d2bO2ZtqMEs7TmNZ8BSeD72B5yNnsSx8BplMyCZvwaQrh3NymTeJXQsoealCGTtHafZZsamdYrOkkXSRt7DB911oCoucLjflVNRu4Gg7oVTMgFNCNKBllpVdGjgNd+It1A/+FEff+QAj//sBwlPvwrNvCsvatHJ2L/1SEXa/VFAIsaQSvEkgvRsbGykA3/uhH4oqUso0eyzJtnuLM8rNSZibVQokQpOeEiVYAlQRqUroG8DsIbj2Uyjd82OMv/srfPrJNAC9zk1P460P/4D/PPgWlra/kSbb8yvivP9tlUX+qiyLgaMmZwhPa3ZWfWprfXPke9owxYT1UrZ5JtRh+nzqXIkzp9Lmg8FWIngGS4On0HrmZ/jkk09x4Z/p6Wmc+fmvkNf1Br7Fjxtnn1VSWjImWU0wRbzF5yTtEHABxrReYKuvSUvirK79ZFOpS7ORTfy4MJ087ZyTMErYvq7Eqemsz4encOLtD8AEP+vPL377B/j2vWn2WsVQKbYqBrxIWe8Fn/MBZbA6fYivQM6l7TcFdaptinR+9zYd1VacTc6yo3LWZz0GdG4/K9MCCUlTyAqcwuDbv8T09LnPyHka73/8Mb7T/6b2CDlK9KHqsuRpdW0yVnGsNu/51riwqlyzWDjae2unDfZPktbA9r2qzBNE+hlh0vIsAdI+Sowq+M5dGjiLXT96B+fOffInSbP6p9/7LYrjVJS+z7UaKXAp8KpA++qTgkhTSjU45zVoSNBC2YQvTP6Cb2/poBc2NIdNNguCooTM2TJyUUZTzvkjgYl/e8//4Ke//vUF1Z7G7/7wMdaPvoOlBB+y0tb9KRUpAfbI6byJnY7pgkTVLkUec9KCMY6+8pwvMqmwOdMaiD8LbZJaDcugODafh855caRk3pUdp7A8dAb/fuhtDP781/jFb36H93//O5x970PUT/wUWaEfSbOT/eYLTL8ZbIUscDum/4y1c59tqzgvtKG01YeR9xksYvczsuEm531MJtnERMr268s8S6Vt8zHJspE51xSWRaaQ1/UmipI/gbfnhyhJ/hhZIf585D7zs1QIMwk46rH9wyrA9BfZl5J2SmXmW/5CX+b4pP/4Sat0qmmJDC7cLEkrew6TaXN6BhVgevXV1nRaQ2AKqLW3I/3z3lYpNerHi210KX9SoHR7o0D7qezEMr8H+CyvLG7MZOkdyZqXvTizZzkdjK24grT7tLlpR7fgLSi1MaoQsozfdOKYsF1z3rvphLAwqYTtcVBibdGMvU2S/ozyiIkVd9lu/Vnsnjd3ATj7+WiTs5KWZ3NGUx8dJrBVj+PLfKNbcm3FnMRtwna0leez3iupaURIk7XkpWyYrN2T+vYWZtM3m48VB2A6y9apHU3FHfAKSipgE3D82ATMmDavVdR5q5BU5dWnJdkmwFEbrzYqJd2So7h0T2q/I29+aIgDc6boKL2a2vbPB6rs6StH70mCfpI6CZsvNGfd+idBxlYSs/dGDSTgT+KnEWgT1YSsLQtDDPaDJpWoJYm4XMKo8yM/9Rs2xZjdaD8i9Dzr+TVradVSEGkd3UrW+Qmqe/RrKu3eaUD2S8uAl8/e9J+8af3EiZuqrP1ytElylFiWMCatzeAz3oECwjBnmgdZFIYD5hgYR5YAHQ0AJ0g6MbzXDxtVgm0+FrSxNZ+jAlz8aDyJL5+gdh/tzz9imqz9HNU1/bmstouDP4SrrCmBsoYkyhvjKG2MobwhAXdjHO6GBEob4zJf0RBHWUMMZQ1xuOt5n4Cbz2Ifk/vy+ij0iqG8MQbuKW9MiI3cN3A+IfNlTVyLobQhKvHULg53YwzuRhO/UTFxjVhoX96UQEVjEu4GvSqa+ZxARVMMlc1JVDQl4G7ejfKmpM63xFDRHENly264m5NwN/egqjkJ146Xc7D95WxsfyUb217Okmu7jPqcPr/15SxsfTkbW17KwtaX1Nbu2fZStq69shzbX+Jec72aDfH3Uo7xreNW2rySjR0v50rs7a/kYPurOdghV7aMO1flYOfqXOxYlYMGXqtzUb8qG42rc+W5cXUeGl/LQcNruWhanYfmNfloXpPrXC1rOcfnArSsz8Wu9QXYtbYYrqZV2WhelYXmVdloWv08mlZloXH1cjS9qlczRwn0PJpezULjq8tRv2q52qxajuaXc8x8Fpr4LL50bFmVhZbVvF8O9bMcLa9mSZzm1VzLQgvjv6bxW9Zko4X3a7LQumY5Wl/Lxq412WjltTYbbWtzsGst73PQtiYbbWty0C7z2ehYm4uO9Tno2JCD9g056Fifi8D6PHRsyJMxuDEPoY35CGzIhqttbRZa12Wj3TjUkU5zsWtdDtrX5KKVI9fXMWiOAGl7LVfu29aSQc7nom1dDvjcti4X7bzWZ0vwtrXZ4kdB56CN4AhS/OaifQPv89C+nsAJNAcd6/IFPIFzPbguD4ENeQhuzEfwdU0gxERkLg+dGziXh/DGAoQ25aPz9QJ0ctxUgPDrBYhsKpQxvKkALmYfolNxwHt1HFqfhwDnzBhcn4egcRx43bC3IV/YYzBZ21Ag9pHXCxDdnI/OulyEGXhjPmJ1BQhtyUVoUy46N+Wgc2MeOjflofN1AiPIfIQ3mpEgXy9AeHM+ujblyxjZxLl8RDblI1KXj8jmQnTVFcgVlftCROo4l4/olkJE6woR3VKE2NYixLYUIra1EPGtxfLs4uZIXR7CdQWIbFZGZGTQOgblWCCjzNPGPtcVyp4wg25iwGJ01RVJwGRzAbpDyxDvfQp9k9/A8H8/iIMHF6K7IQtdW/MQ25yP2JYCxOsKxJ6kxOoKEasrQpxgNxNwIRJ1RYhtSwFnAvFtRUhsKTJjsSST2FYMeyW3FSO5tRiJ7cVIbitB945idG8vxu4dJejeXgRXXJgoQnRLgbDAIBKU7GwrRnyLBuYcbSWYrJE5BUY2k1uLEN3OAIXo716GsfceRO9H87Hmj1fhB+c+jy3Tf4ONv7kBkfgiJHcUYff2Igi47cUGVBGSBEmAArIEyZ0EWYzd9Cu+S/R+Rwl27yzB7voSSaSH9zuK0bOzFLzv2cGxFLvrS8Wup74Ue+pL0VNfIpeLATQYNxYisa1EAjM4HXXv4DMBpMB0E4wEKkFye6naCahi7O1egsT7t2PL9BX4p+nL4P30EhSemwHfuYtQ9snnsOGDm7Bn4DHsaSgSYHsaShSsBbWzDD0NBFiKvQ2l2NNQJmNPQxn2MKF6PpfJuKehFHvry9DLtaZysdtbX449jWXYy4vrjWXY11gqNr0cm9xwcRMDMNCe+hLQkQYtwd6dDMqRTkrQSyCcE4clCoosmgA9zaXoG3kUmz69Ev8+fRm+d+6LqPnNxfB9MAPZ72ag6GeXoOSjS/Hah1ej+8jT2NtEQGXY31iG3uZy7Gsqlefe5jLsaylHX2M59jWX40BTOfbzanTLM+f2M1ZjOfqay9FnbGnT1+zG/pYy9DXRH/e50dfkxv5mNw60VmB/cxlcDLpPgpejt6FcmBEQZs5ZTwvKjZzvJahGginH3mY39rWWov2DO7F6+q/w4h8vwwu/ugzZb83A0ikXnpmYgeVnM1D03gxUfngJXv2v2dgdKET/Ljf6WtwCtq+lAgdaKtHXzNGNfnmuwIFWN/paK+S5r5XzTEDX+1ordd7Y7m+ulL20O2D8qR83Du6iDzdcfa1kzQQ2wcks2WPgA2SytRz9rRx1EzeS0QNktakCB5orsae5FId6n0Pj72fhhY8vxvL3Z6Dw1MX45oALC45nIHPIhcWTF2Hh0OeQ/eZFWPmLy9EbL8RAiwf9TKCtUkAd2lUh40E+y5wbB9sqnGugrQKHeLVzrhID7RUYENsK9NOOGOmD67uqHF8D7VW6r80NFwMKA8ICk6rEAd7vqlQHrQTjRn97BQjoEJ/bGYD7KtHfWiH2h/YsQ+jde/EfH12Oql/OwLOTGXjukAsP92Tg0b0uPHEwAwsGZ+DpwUvxxJkZ8LzzBXQefhIHOtw41O7BQFuVuTwgwIEOzpmLgNs9OCw2Hgx0VGKgowqH2zw40u7B0UAVDouPShxq8+BQRwUOt1c6/g63V+FIhwccD3V44BJn4pRJaeBD7ZW6STYygF6H2ypxpL0KhzsqcThAG7JHQBVIvv332PDxX8P/0V9i8dkMLBh2YdEhFx4/koEF/S483OvCY/0zsOBoBp48MQO5b1+CHVP3YiBI0B5J6khHNY52eHAkUIVjAY/eBz04wovzHdU4xjFYZeaqcTTowTHj45hZP8r1gPqhL/rnvqMhjeWSBMhCQNkQBsmMeT7SwXldE0DBKrWlU84HvTgUdKPpJ3fjnz++FBXvXYxnT7jwaJ8LT+zLwDf3Z+BJ3ve7kNnvwpN7M/D4Xhe+dfpSbBt9GMc6PTgWqsKxIBOtxrFgNY6FqjEY8uA475mQSey4GWnDteMhtVU7r2NL+6P0xSTFljGsbRVcZIUGlIgYd1QJwxKIbAsY3ay2nhQ4Og9VyhU79hx8P/4innzjIjzRfxEe6nHhG90Z+IfdGXh+9wws3JeBBXsvwjOxS7C89/PwD1+DRDgPQ51eHA9W4XinB8c7NZlBSciLwbAHg50kwIvjYU2SifLi3GAnr2pzeTFo1oY40m/IK8nKHuObJLr4l7DLUWSlDB0PVEODezQAgXCjOOTowxCfTdCDXRXY3Hs/vN3X49nui/DNRAae7XHh0fAMLAz/BfJ7rsSK2I3YFHwKgc6l2BMpELDHQx7xQ6CShEmGz/TPpIbCXrWxzxEvhkK8dI+u+1LPEa8kTRIGO33id5jEsfIhL1yDdOiwZ4NUYyioQYfCHgxLYA0w2OnBYLgaw2Evhju9MhLcUMiDw51V6I3lY2XXPCyMXoIF8Rl4Ip6BpZ2XoyOyCP2RSqnYUMQj5LHKw1FTLUnMj+GID8MR+q3GcCefNcaJiBcnIj7o6NV57u/kvNrQVu5px/kuM0+sYR+Gwj4wXxdvhsJkk0lSUpo4F08QCEHISPmQQWVekqYNA5J5yinsx/GID6HAcvxb5C5kdnwB96+9FN9t+QqOdlZK4BFJyq8JdKnv4YhfAZqEBVPEgxPEJomSiOo0Gx9Goj5ZH+4iEUqUEqLEjUS9GBH/tNOkSShtXUOdrKSycoLBO8mSTypwotOA41yUjs3lsEuH1cIeK0OZUY7H2dwiHmza+SweevY6tGzIlcY0GqkW8ENd1Qo44pc4I12MU43RiE8uAhvpIqFaaUkmpkmMhn0YDfsxKnhqMGzsiO8ECQgzMT+YtORDX7JWA43jg0tYIANhH4Z5jsLKukgjopIQxghAkiUBCkCdGElSSsKkVmQk7MP67y7GrC9dhx+sfErevUx6jOxThiZxVn40SpA+8J6xRqJ+jHIU8H6MxmivSXGNF5+5PhqtwWjMj5Fwjew5YdZJCvE5vjlPfF01cFngcl4IiMzFCMzvJKeM0WmNgB4jKAaS4H4M0TZSa45JjTDc0+BGbf6DuPOWa5D52F14ofJRrH1hIer+dZH8a8e+xkIMtPEIpSVKv1E/xmI6jsZ84GWT5Px4TNc5xzU+j3TVYDRSc/7eCO1qQKwnoqxyjePXJQ7JaFcqCWG9SyvAhEe7/BiL6zMDcw8rQoAka4iVC/twoM2L1jXFWP2dp+EpeAiP3H8z5s67AnfOvxZfv38uHrznJjxwz0342j1zkfvMPdj84mL58qIqRqNejEWNT0OqkOsAZoKsKiXNRAzxlqCoH+NRnyQ6QrLifkmYxSFOGUlY1AvXSES1PsLFLq2SBGOSQgQdMWnjhAREa4QEMsk9R0KVaFudDX/BA3j8odtw352zccftN+C+L9+I++6+Dnfd+iXce/cs3H37jbhj3tWYfcNVuPXWmVj02B3Y+v1FOBKqEKnSn60I440zTrRGknUqbOMnFK8og+pI+MSeyY0zyW4vRk0xBT+JIFldfkilKRNJVJKkTGowGjdkUDqUCRMkgDgvv4x0RukMtFZi3b88jccfmo95N83Edddfgdk3XoObZl2F+XNn4o751+OOeTMxf+51uOkGrl2OWTdcKQoo/NYD6KorxGh8JcYTKzEer8V4QuMQk1xp8YlDMRicJMbIXipqnqWycqZ1nX6oDh5f1xiTEMnWOgkxSWE8nkp2rIvnqQYnORfXgAxG9kgG/3Ex56nbcMfca3Hz7KslsdnXX4nbZl2NObOuwtzZV2HejTNxyxx9nj9rJm6/7Xose+pedK7LB/1PJImhVmUsBJNcPZtUFONLwrFaiSlqSPhxUiRcI2QJNoPf7hWcZg8bnCRN0DynTJ6GIhnDLpklSycTNTjJpI2sxmO1krySVou+XT7UvbgEzy28E1+55QbMnX0F5s2+CvPnXYPbbroW8+dcg5vnXYO5s6/G3DlX49Z5V+Frd92MmqJHkNxaAPqbZAJJlfRYQo8UkxSJs/qStGlQpiCqQD/keEqVzX6SZfaKEgx5JMolUqYxJZus1fPKRKkA4+RkXJMmMIdtK/OYD7Ier5Hf2HXfX4ysZ76Kh++bg698+UbcfssNmHfzNZh/80zMmTMT8+ZcjVvmXitnPC/zq9j8YiYGWj2YiNfiZKJWkrbytQlr/JQKBANJ4DEkRl4JjkYB5lkKQ6K4JiRxvRYuVpfVO0lDVtkYsbJkkQFVUvpMB5S4XefaRLcfJ7trMdTlxcF2Dzo25uB73idQkvcQli38Wyx45HY8+rV5eOCeWXjkqzfj6a/fjuq8v8PmF5/F/rYykfTkbnO8YisUD4+QxULJ28qSbHPmpdcI+bVCAMmQ5AxGOf+iWD2a9DEiSTMBaQTaQKTCTDZG5jW5CSONk0nKrxYnWRWSJerwCgkTQpIPY/FanIjU4ECTB4ntbnTyPwheW44dLz2NNd97Aqv/8Sm0rslFYnMBDrZX67FKmCqSfAGsnZvkjidrMCEYFYslfZxnXAgwhEQVrxBCRdp1NmDaRbVYJMbFM8yzatkTRuN+MInJmB+TST1LPGMExEZDYgiINqqEWiNPPtdijE3DKIjNaTLOb2z+2qnEkZAXI+FqjMZWYrx7BSaYsFzaLxSHJsC1SUpelKWYeARs4lZx8jqzijSKsMqw/sbMPhbQJRIwTsejlIkfE11+THbXYDKxAifjlJuet/HYCox31WKCJIkSeMa1SgKAc+Y9KcQkavHGbgKnL1asFhMkj6QmV2I8uQInk0ycMUgi96/EBKvCOdPNJ2iTVEJZMa7LM3GYZEUhxBfTdUk2ygIYRbDagpWVZjDKVrq3kRADpFeR1eJZE9C1GlCY0zmCk0ZE8ijHbh3HEyswlvg2JrtrcUqSpl/dTwVo41phCNaGKAl2k0i+t6mqFTJOmtcl99FmPL5Cz695rxM/3zJUopBFApgon4lb1pi4Dy4yPSkNjM58mEysFLkzmJxfgpR350oFHKc9WWeFWEEDPr5SyGO1JshoYoWcR+kDcvYIXvc5YJJ+Oa+ML2TxOblSKx7XeKo0gjX7HYI1Kekv0vSUHOYjFeUZF3UwpsYVwnmmJ8xX0BhfPaZ6AooAuk1ClHq3yk+kKB1bJUbWRaKssMjUnlFlnIH5KhwXWeuaSJcEONWulVjiy/ig+oQk2hGHPNv9Rm0kgJgZQ4ijnR4V2StN11RcbFRpLu1q+vk3RnZFosrSBKsa9WKS8qBkqQKp7AoBQsImoqoOnrHx+LcdeYkMEyswEfXqm4AfHSI5lScJohpOxrxCFv1T0iSEcbVKul+ODo+g4EvtH4tRldWiOiZJyUtfkELwDcR1NkDbl/RYuNid5fxKMqaLJygz7c7SeLjGxmO6t7xGeEa7CYDSXKGqkPOlVaX0pdnwh4BUNe2MmdeeVJ/xxQ9VReDcTznyXPONofvHGV9kqgURcsQvFaNqs2dZj4oqSd8wqgi552eoAtOySxXlVUQA6mjSSFAYZBAyJ4RQVip/MiznRZqMeZdzv8xrsxPAMmdlrayrchSUyF1edUycZ9NWSM8lGxuLIGQ7/k2jkjV2f5/2GvYGkbpNeCUm2Xf+/0z/H5KFvs2DllCRAAAAAElFTkSuQmCC;" vertex="1" parent="1">
          <mxGeometry x="100" y="220" width="60" height="60" as="geometry" />
        </mxCell>
        <mxCell id="WDatNG11xKEBm6-NoSf6-8" value="" style="shape=image;verticalLabelPosition=bottom;labelBackgroundColor=default;verticalAlign=top;aspect=fixed;imageAspect=0;image=data:image/png,iVBORw0KGgoAAAANSUhEUgAAADwAAAA8CAYAAAA6/NlyAAAcAUlEQVRoBW15CXjV5ZnvScBl2s7jvaMOCYgC2UjAIuPeqV7tqNUuUwlgIQt79u2cBLA6Tp1p545i2AIoa/Y95yQ5e9iEAAkJW1YgiG2d+3Taap17pa3tnarwu8/vfb/v5OBcnud7vv+3vcvv/b3v953gWOS5gnT3e1jsnkA6W0dUM2vp7itY0nEZS9yXsbhjQvYudl9Buuc9c1bPU4ZtIsv9HhZxj+c9PdfB89ooj3IpR5rMX8Li9kuRPemin/Zd0TnqFxu0t+fZp8vaJaSLnAksEX+sb9RxGUs7LsKhBtBQI1iMpoJJ49UgFSIOdUxgSccVLBFj9eziDp6x56IcMYpFHkGTZmVxfEmAXNJ+GdI45jd1uKnHAqTfEdBljwEwal/EH+M47aUs6icwjgjCYjwjpsZqr5tu3qOHFZAoxzzmnOkFwKgIpUfAsOeNIxFjOW8B4Zrus8ZO2mABZpRNUOxeypI5c56+kGESPNo3oQ4rJSaNt05HBFKIQdwqntyjgmQ+SrAdqwFW9v+HNSaC6izpbAGxDqvxEnEr34J301nLhpvP0w7LFNrsYP5GjJd8U2pH5kzEb3Le5LvOqcPM2eixRMYAtdhEenG0LkHfpgDpfEnz054R51SmGvylaAowyhIFy+q3waFdZAHrj6X15egI80BUkhuFLBwSLeuQKLLUicp7M0/H1VlFVmSyaEmRoyz9npRpnI7QeTJSkq9Wr+kFWLtXCtgkEzTfJ8cSAOOH1RfJYUZUq6IxTgwzFTZS0NR5FitlhjU+Cl0TIa3gmkOLKMvmc4c5KxWe69GRM3lJqnpsUbQsoG7dawFVFirACoShM/cZkK2jtuY4bl4gvW2kbWS/3Os6BZFqkYha2hijbErYSr60/RKWuifwQ/cElnomsMQyRyIw6czNOazXjxr7pcgxJQyrIpGMjKPWCF4kLU2VlnvY3Je8N3WDibQYNlmtrSNCdVGgV4i9H+265J0gfQW5vivYd+HfceTX/4Hjv/ot3hn9N5T6r2KRGENHLkcqqb4JFAChqFsr96RTNuLGTgFMI0/dcudHGKnzNrr0y1B6Qh8RdNYgrw4pJW3eSXkXBVapFo3Ju3KyotKJpR2XsTb4cwz96k/44osvcOPGDdwA8NkX1zH88e+wqseyR/M2ApJcL8ZRW4kJXpRzSm+mh6kZAr5l34TotnssE1gTHFaI5KQtLqymNsfst428paJQavLetNGgPH6Ttss7L6P64kf4/PoX+PK/G9e/gHviQ/zQPSaPDzVu0inNSZvT1hELtDKOd7s4bKqxMNMGJHInT8rUCEchw6hKznmuKjU8V7BIaGkU0Fl5sRghJop0MFJRDU3JhgzfVZz/6JpE9ssOAzfwwSefIvfg+3ip/aK+qCSKNkWUjpHrLeoak7SJ3MXWIcOWiD/Wxihad8i1ZPKTAlhNO69KhXuR6Hkm1GHmhEFO8iQqunIHyvWgdGakZE/HJSzvnMCZ31wDbpDI//XfL//wR+T2/EyqL5+TWjvUUFuJJfICtNonOW6cZQpEaCvflgHsTcETEM18B19aURTQhH8Pizrek7uUdJHCwnezdZjXC5lg70KTY0ppi/YElraNY7lnFOGrH+LG9ev/xdsbN67jwm/+NzK9fDtfvCk/9b2sdNYqP3lFRQCPzl1xytI+OqKaXuK8sd8hD35TttM7NHfpcHq7UiS6ai7mnMllBeDmImVfNgSRBeultkt47cRV/OaPfzK01kjT2U/+9CdsOvNLvNSqzoo8iYoFVw1nEKzTaqv95cV1k+NkFR2KBM9GmvOTwSEbHLYCs0/3XBVaSy/ORzloKWMoqw4bVI2yaIpZQJa5L+P1vl/j/L9fw8ef/gEf/+FTTPz2Gt4c+DUyOtWYpR18Vt4sS8c6Zx0WBlqnpOc6X30Mjjkvvf3WebHLnHPYjYvcV6C/jW0OaoSZV0SPLXJt2LF9bBiHuVcjRbQVLNaBJe6rWNb5HvLCV1B8+OdY6yMzrmApqSzUnMx/SQ1JE3VGqrWJoBYryrbMMhG2zssNouu0w6ZZdPpFnpbimKE2jZmM4ATS240Si55RYAUKaOb3pj4h7ePFFMSoCIghRk6kskfLjchWhzUg1G+Lq42eec9bZ0WG2i2BsfPsTZ2hLIkwkVvCCm038bBsnKxulq4aZfsomJAf67rXntFe9+s9GYmMkWvBlF708O1rzpliqLZYqlrZlGfz0zLQrNl5G1nLkkhx1YjfFOGIErmiogQa2okTRqCtpEp3g6ycowF2bKmnypSu1kDrhEYuEnkLQDT40folOJMpEGGm3W/ZSYdt4CTVdOwgYnq3UTGpaKmk108keqZYSW5yTzv38w1MQQb1SA5Zp+1LjGNjpPT81qbRtj9EtJ9kB+Wahwh7KVBRgBlbbdRtrzbfzA6VGUXpSIk3SOnhKMPkYWDAsH+Ai9DFUlyVaG4zypznXzHMH+YM0jLPX012zRYuiYjKIvjKCB3bb42a/QOgiaKNutQK7jd5bqMe9fR0yJs56q6zSJCymmOKLFGztIsgLQgbJ8XYKIct9Q0oirr+ZSPyhzv+wU4YYlgigGgERZc1mH1UbqrzZk6cpF5lh+iROctUc7sYGQ6pquanoVCTmyNPOf6KosPqCK8IfY2pgsh+84hX+l0y1w3lUNklvOTRezYSbWELnVSaW+foiAJugTOUjtZv6oQwMBIUyzyC8KUCHKnuygZHXmMIeXVh5NUHkFvvR359CAXs64LIawggvz6Aojo/8uq8yK3zo6CG30Hk1fqRUxvU7/oAcmoCyK/zorDOh/waP9bVBVFU70WxpwsvB5ux/ogfr/jasN7TjbymMAqqA1jX4EMOW70PeQ1+FNR6kV9HndQfQB711QdQyLk67gmgoD6I/Nqg2FcgY9rsR0FjEPkNbGHkNQRlX0GjD/mNPhQ0cS6E/MYeOGreysKBtzJRXan9fn6/lYEDmzJxoDIDNZU6rt6UiX2bMrDvTdPeWI59b2aC+/ez37Qc+zYvR82OLLTtysbxriUYHHweQ//rKVz+Pwvwwafz8f4HD6Pv+DNoqFqD6srl2Ec9b2WJvuq3skWn2LEpQ+TShurNWaipzEJtZSZqK/mdgdrKbNS+lYnazdmo3ZyF2i1ZqN+cjYatK1C/NQv1W7JRvyULDVu1r9+yEg3bs9BUtQqOxs2ZaNqSgaatmWjcshyNWzLQsJX9cjRtXo6myuXgnsbNy9FYmYH6yuWo27IMjZXLdG7LMjRUZqBpcyaat2eiuyYD71/8Fn73+QJ89EUShj6/A4du3IrD+Br6r/8lxq/dg2M9L6BrVwaatmeieWuW6t+WgaZt1JmBxq3L0ST6M9CyORMtW7LQvDUDLVu1b9qWhZatmdq2UW8GWrdloa0qE607MtFSlYm27VnSWqs4n432nVno2LECjtaqDLRWZaJ9exZaoja1b89G644stFN4VZas83Ar91VlomUbvzNkrW1bFmiE58BL+PnVR/Cbz+Lwsxt3oPPG7Tjw2RQ0fTEFTddvQ/v1KWj5/BacujYb504/DXfNMjRvWwnP9my071iB9h2ZaCdD2FetQNvOTHTsoLHZcFetEIPdO1eig2Pb71iBjp0r4NnBuWx07lwJ99srZN29awVs63x7JTy7VsLh3rUSnp3Z8PDQrpXo5Oa3V0YOdu7Usa6vgCcicAU6dlEJ57LR+M5KjB19Cte+mIX38d9wDF9B02dTsev3U9By7Tbs/GQq6n93O7Z/GovGz2/DxT/fhYGTT8BTtwxd76yURt2d72SDxnXRrndWoJu27F6JrrdXyjfHXbs5vwpd76xC9+5V6H5ntfRd/N69Et49q+Dl957V8LLtXgXvXv12dO1eje49K+SAbJKNq+ClsL2r4DO9jPdwrwqn4O49K+HbQ8HZON6yGL/48G/wC9yBE/gqjtz4Gnz/eTsa/2MKdv4qBm9emoIfX4rFv47FYPs1B1o+n4qTv5+GC33Pw1dNOWvgNway9+1eDd/eVQjwe/9q+PdyvBq+fasRYNuzGn7p18C/dw0C+yZbcN8aBDm3fzUCe9ciuJ9tDUL718DBwxQmh7nADXvXIrB3Dfz7KWQ1QiJwLQLmYGCfrgf3r0Z4/2oEq9dg8Owz+PDPszByYyqa/hyDjt9Pxe6PbsU/XorFa+/FYvPVGPzTaCw2jUzF1g+moOr3UxH4z9sw/uu5ONiUhRBlUtaBNQgfWIvQgXUIVauR4QNrEDqwFuGadbIWrl4LaTXr0MP5ap3vqV4HaQdypJf9XOM899ashSNcQ+FrEapei57q1Qjtp2COdYMcqlmHUC2FUmCOKAtV56CnJgfh2hyE96/FYN+z+OXnf4lDn09B1ScOVL0fg59ccqDkeCxcZ2LwD+Mx2DwRgzcu3Y6qD/4C/3P0Fmz+eAoGfpGAQPMqNbR6HQ6y1a7DwZocHKrjdw4O1a5DT+1aHKpeq+O6HPTU5si+Q7U5OMzv+lwcrl2HQzW5OFjHs5xfh0N1uThStw6HanNlznGYHxRat04OcuPBem5chyM8VJ+DIzzEvpaHc3BYhFBAHo42rEafLwtXzz+Hg//3q2i9FoM3hhzYeMGB18/EYEOPA8X9MSg9F4NXRqZi/YVY/PPQHdhycQr+5d+mIvTRNJxoWYHDDXmgLaozF0cbc/FuPeXn4Zj0uThKvQ05ONKQi6MNObL+bkMu3m3Mk7Wj9bl4tyFPz3JPPVuezjXk492mfDiOWGHs6/NEMYUc4UHbqLwxH8ca8kQ4hR5rotJcjB15CR/+cSEGr/8Vgp/ehqqfxeJHfQ680heDl0/H4se9DpT3xyL3SCwKj3JtCjYOToHzTAxe+UUMWj/5CwyNPo/etlLRcbSpEMca83GU+qQV4FizGnussUCMPt5I/Xk4LuMCHJf9BeD60Qb2k/u553hTPo415aO3uQAOHlTBOnm8qQC9VNSSh+PN+dKONefiREu+tuZ8nGjOR68RMnjmOfz8s7sQvvE1VP72FlScj8XGwRi83OvAxoEYvNwXi4q+WJQfiUWxfwrye2JQ1hOL9YMOvHwuBjUfx+LMRyk43ZmL460FONlSiBNsrQU40VyAXuptK0BvK7+5XoATbGYs+1p0/Tj7Jjqo53qbC+U8z51qpdwCOHrpgBwuFAUnmopE+InWQiO8SBw92VqAvtYCnGopxKk2CirGydZC9J9cjO4/346aa7GofD8Grw7GouiEAyW9DhSddKDkZCw29MVgQ38MXj3owPrDDpQfccB51IGNxxz4l0uxcF9cgH435Rahr60Qp1qL0N9ahL7WYpxqLUZfaxFOthXJ/EnOcU97EU616Hp/u64rWEXiD+3l+GSLnjvVxr2FcJxsMwLFQSO03SimEhFeiL52NaSPTnZQYSF6W4vQeywdtb+8E+uHHXCOxGB9fwzyjzhQdNyB/N4YlByNQUXfFLzCwnUqBhsOO/ByeApKQzFwHZ6KTcNfQTCYjpOt+ehrL8Lp9mIMuovR36Hf/e4i9HPcXoT+thJZt3N97dxXjNMdun66rRin24rEPsqinWxcl3l3MRx0pK+jGH0dRaAAItfXVox+OVikijqKMOAuwkC7ChcBnQpCn2cNGnvn4Y3DX8GrB2/Fj47GYuOxGFT0OlB6OBaF4Vi4QrF49fgUbDh4K145eAte756Gfw3MwNaeRLSGv4Wjbbk43V6CAU8x+j0lGPSUYMBdjAF3CU6bxrUBGu5m47o2jgc6SqSJ43ReWglOe3QvARzwUFYxHKfdRTjdUSKI0nEiSZSJqjhJR/ndVYQBT5EIHuwowaCbrQinukvR61uNhtDfYXtwDv459FW4Dt6CjT0ObAjGIN8bg7LuKXg1eBdqvY+gwfMtnOhai/7mUpzy5uC0pwCDdMZdgjOdJTjjKcFZOt1ZijNddL4UZ9j43algEBDOy/imOQWNMgY6SxU4fos8glIMhyBnEKWjEj13MQY7SC0KLsYZN4UXiTFnOovFAJ6j0n53qbBioKMQh9tyscN7P14O3IZcTwwKfQ44D8XA5bsFje4n0e8vxKC3EAOdJTjfWYZzNEqaOnm2q1ScPtfNMb+1ne0sk/FZO5Z1BUcA4bwAYwDqorOcI4hlIuccgWGEz1CJRYFOEOXOEpx1l+As+85icPNZKuksxbmuEpxlo9FdpaAxZ7rKMNhFYArh9y7Gbs/jeMN7B0qCt6LQHYvXm+LQ1f1dXOguFhlnu3mGep0421UGjs97S3Gum60E57ylMn+uy6lzXdTLVoZz3WwlOk97Oktx3tjDPWIT93Deq2POUw/tdIjCrpIIfYg+kSXaIoiKqMBXIkrFWVGqws53lYGNRlpj+jpz4O1chLea05BeeCe2bfk+znTkCUh06qw4RoPKcMFLZ5244LPfRg6N7abDTlzwOnHeW4Lz1NvlFIC4X/VqT3vFNgJIm3jey/1cNwB20+HOEkFDDCaiQrUynPfRoTJRcqGrFBcCpTjvU4Wcp8IhGsl9YjQNVEV04py7DHve+iHSEmdiy4++L6kx1E1jDJjdKm/IW4ohOu6j004M0Xk6yHG3S/V3l4n+C91ODHc7MdTpxJBfgaLd1nFhgIdMIEAKGG0ScLwuke8Qp2iwoQE5z82yqdspKNMxok1aq3NO0PhhGmjWBADKoAM+5nYRCn/4OO7873+F7PS/RX97IYa6nRjxMVJ0UvdR7xCdMzbQWXHcOux1YihAwCnbrPl1P/cO+VwYCjhxoculMgxwEogIOwyg3jI4KPy81xWhFSPLzYp4maBPg4a8LhE+7C/DEBWKs5xjTjHKTqV1V7mwJLivAC995wGkJU9H+jOPovqni9C+KwvhA6vlHdzXmosT7QSQsinDRNcaLPqoR4GlvuGAE8PBUgz7GWECUSZzFxi9btpi5gUsgmFkc+x1yjmHREiQUpoowkpXQV4cU0FUNCLoOnGejhNxP4uBC+c7S8HXTduuVfhJxXfwgxceQlpaApITp2N+yiw8/UgqvvVwGr77d/PxzJNpeOHpNJSveFL+2jHQZqJs0oSRFGN9LsMiGluG0YDOS6T96sAFv0vsoB8j/jIM+0ldpoCVqUASINrvGLoJGdKCtCN6VqlupCA6O+QrFyNGpJCU4rS7HD3V+djx4xexKuOb+N5TyfjGwtlITZ6BhSlz8PhDifjGg0l4/BvJeOjhFDy6cA7mJs3AwrTpePjrs7Ey/SHUbkrHsZZCqeLMXTo7TAfEYRdGxVgXhukEI+VzYiTI3iWRlnGoDKN+lzjF8YVwCS4wf71mjuzw0WGhCtHRCaJA54YDRFcR5phKR8TpcowGmcNOvNuYi8qN38Xy7z2CJx+cg3kpM5CaNAMJifFYkDoDjy64F99+IhUvfvtB/P2z8/D0N9Pw+LzZspacOA3J992NOffG49nHUrDj1R/gVHs+RoPlGKNxxsCRAG0j2IaytJdj2icO6resG9vtN8EZsnsIAiPMgxo5l1BmNEDUygUZXVNldHiMewPsnRjoqEDdltXIWPQIFs6bLsYnzrgLSffGI20OHY/Hgrn34JH5s/Ho/FlYuGA6Hki9F/en3ovUWdORkhyPOTPvxH0z78QDaTOw+PmF8hdRXj+jIXWGFCa4EjlfuThtA8JiNRJ0yV7aNcz1kM4RiCFvuYBC5wU8f7kA5KADPKyoqQIZCxCT6I0FGVlDj6ALZ7xOdL2di+Lsx/Dw/bOReF8cGLWEOXFITYlH4pzpSEmYhrlJcUhJiENSYhySkuORmnwPUhKnY27KNCTNuRv33nOXjJ99YgGqXluMsx7mKh0xzorOcgwH1WHaK8wT8GlfeaRYScRt5El5OktgKC+ovUOdJYVcGAkxP9UpQc/kLREk6jRC9lGp34l3W0vwzk8X4bvPzMP9c+9BYkI85ibEI3n2dCTOjkNSQjwS7v1rpKTcjeSEOMxNikdaykykJs9E2twZSEmcgbmJ8bg/ZSaeeyINVf/4A5xqyRcG0cBxRtCvFCcIlsaMmtgTUHtZc2jvMKNo05BjX7lQWtYkgBVwkM5CG8kNjbY4KwKU5krtcqUGDwadGAu5cN5fIX893LDuCTy2MBGpidORlDxNIzs7DgmzpuG+WXcjJXka0pLikZwUj7kp8UhJno65CdOQlvDXmDs7Dn+TOhMvPjcflRuexfGmXAFzPOw0kSnHmERnsraIfYxkQGk7GijHqIkk54YJlIm0guSE7Am6NIdtQZLcoXBTJIRajK4Id2GURgTZyjEe0kLHiOx67ftY/sLDeHTBTMxPo1MzMC9lJubeNxOpSdOROCsOycnTkTr7HiTOiRcmpCbFIfm+GUhJuBsPz5+JZx6fhzc3Pi9/Vzvvo84KSBqRWQEtmAzMSLBMc9M4SFvEKZ6h7WJ/OUa8kzQWVgpTxGEWBadShIcZWcN5Fgu9+zTxhUZmz5jPiYvhElFyrCEXW15dgrwlD+F/PDgbX0+7D2mJ0yQ3E+fEYV7y3ZifGofUxHgkzoxH0uxpSJkzDfOTpuPhBffiuSdSUJz5FBoql2HAo0VzLOjERUNrKVQBF8ZCrCNkGqmugeBYbhgWuGjaC4VNYeN3SH1zkPcSyTAdr8CIrxxjXqeiS3r4daNSgnvLcTHswnjIhYshF8ZZNPzl6G0rx47X/x4vfucBuV+/njJdHh1pCXFyJz+wYBa+nnIfkhLikJIch4VyZc3FivQH8Vr5t9G0KxunPSUYFhtcGOspx8WecoyFKvSqYqQlmuUY8xvnDaUZYUZ31L8eI4ykT4EZ5ZvBACN7/OVwMKJjPby09b4TFIVG66UCynq4HON+dXI85IwYI2gHKzDi5w/u9WjZtgY/yn8KSxY9iBeeno8nH0zAY/Pn4LEH5+CZx5Px/FPzkf5CKpZ+7wGUrP0mtlS8gMYty+Rv0fw9O+orEwdZH8bDdFadpE3jvJ54RxOAUIXYJtdNoEKvJz6Y+FZgPocZGO7R83JO1lxwEJkxvmAC5RgLl2I8uEETPLBBFQTKJYoUwKo5LsoNgiGtjvw9O9BeinebitG1NRsN2zKx5ycv4qdlLyBn6WMoW/NN/EPe36Lq9RfRXLlc/gvlyP51ONlchMF2fZePhDVKY/4KjNHogEZWjGVemkjLPFlJ5lmH+Hbw0XHaxQCwiFUIYKwDLHpyLkSHBQlWNuYx6auCxsKG1hQSqsC4odc40RUhGgEiyheM/HLxuzDQWQ4WncE2l/y51HdgLfx7M3FoXy762vLkLxzyO5jPPr57+SOBRZLgMYWMPawXjCyjPBZW48U+obGp3LSNY6k7yoDR0Hqlt5wjMwicvcZccAxLNeMmIkN01VFRFliPMW8ZxtlLsaow5b1CKReswJhPHwoEYdigy/wbY4TCfBToe3YoUIThQCn4VJS3LyPkr9BUEid47UzScCxMhysw7i/DeHA9RsP6yKCDYxxTn289Rvgy4zmywFR2pb0LY/714g+DRP/YHPJclCgykkorHqZAoTvnQkR4vWEAo8FHga7LW9dcB1IAaSRzPrxRIjQcqsBFpkGYoDmVmqbiipGm8krtiLJDaCh5q8xj5NQpk07RkbMOURbTQdihDGFx1bRQVvw/7l7NjcTUir4AAAAASUVORK5CYII=;" vertex="1" parent="1">
          <mxGeometry x="160" y="220" width="60" height="60" as="geometry" />
        </mxCell>
        <mxCell id="WDatNG11xKEBm6-NoSf6-9" value="" style="shape=image;verticalLabelPosition=bottom;labelBackgroundColor=default;verticalAlign=top;aspect=fixed;imageAspect=0;image=data:image/png,iVBORw0KGgoAAAANSUhEUgAAADwAAAA8CAYAAAA6/NlyAAAdqklEQVRoBW15B3iU15X2jChOvN7949gG0UEdBKbYxLGz66x7CfYahDCghgD1MjMSOGyMYzvu9GLTUa8zmhlNE1iABEggUC+AhBMn9jrrOOtdO47X2QSD3v95z73fSHiX5/mee79bzj3ve95zvjvCFGe/gjj7EOIcQ1jmYDso/Tg7W+MZ0mv0u30Iyx3qCa7nXtqRfcoebXJe7HLcfgXL5RnEcscVxDn4fln6y2uvYHntZSy3X9LtFSx3DMp62lhuV33ZR1tcr+2pefU+cgZxKX+5l336YYpzXFUApb2qQRvgR1rlvAYiwEaDGukvqxvpx9Vxv7K5LEiGOjzomAZlOG+0dFCB1OuFPJJMskisIsQAe/N6A+wQ4uquBoPAvSZxSBwzHNUOBonQ43TAiL6owSCK82RydHRH3kfvUeu0SvR6AgyCt18O9gWAjuxNYGSfPsuIsG4VWQahI0QJSfYrKsLL6ghQO8++fhcZjo6WMKuBBOVvkMRIjswp1kcBC67/Dklin+sMOSuZE6A82qZyWNvTc0qmN8s4SGgwOLQ3FFQKCRFJE5wA/G7kGHkty9HGDPZpzNhnOEng4ozkuCJBkWis/Q5oQxnMZYmUylV1hopK8GypB6Pyl3UgSIAB3kgFpRyZJ3FcR0kbTgvoUdGWqNd9IBE31rDlwxwylKDGWBB0BHRr5C5zaCnzqG4IS7nProGLmmhndOQYEQ24ziiKo1LGiLg4b6hLAQwSrYHxvBF/DcAsWnRGA1FO6qgYMh8FUoFV86pP59WBEhHmYxD4CDlxdYOIr72MeMcgnndcwYq6QSwXQAqsVHxDhjpiKnIGAQYpSp7qDCOPjTkFylAX68KIDcOXYIQZAfVINASkIkJV3UGJDEEGJUwGtXOjC48iT1VS5l583RDWuK5ge9u/IfDJ52j59HOUXvkEm47/GnH2y0FlLNNRC9YTHWl+hhQIHaVgtdeBMiKqP39UnlRxnbtCjrbNvkiaHZGolp6S9xDiaocQ59RkUIqjjAfZ+06l5LgQwEiz7/w1nFf+jL/+7RqGh4cxDOD6jWF89PU3yG/+DVaIktQeKU6GbA2gPNNQznfPlwDo82Sdob5BxBsRFj9UtEmeSRwXdkZVa347BSiloPokRKInOWdEVxUKuTyIU9owSWB0HZfwYsu/4atr1/C//g3fwIXff4mketq4PJIKGpTUBAOgtDonjTGqUPfVJUbPB1NqJNWEeD1uuinkzCuJ8gdBwCw0zLdg1I0DdSTJ5AjgEbaphuWuIVRc/QzXb9z4X3g58NVf/oYXz3yMFdUDQVUYlVr8GgVKka1ASloZ0qY/4pNBiM5diayRBlol6rNkXP1UNOOcH0hU/6V2EEvrBrFUmBnCslolFwEujhjRVa26POgCItX4CuIdV1A99BmGh6//n4C//ts1vHT6o1FXRPqgbASLD88KVlytQru6PXENlSRkGKCDLYHr25gER4FWEaZRncfyGam9Ct5tl9mvYGktN7I6qoNF2lSCzl2Vrxq8wSrlXHsJz9v78N7Fj/Htt9/+H4CH8cmfvka6fwjxNZeC8qQfYtPIW/FNn6+LJkk3zjfyO1jYDB90DgdtCRHBoqXksMyublrP2a9iKQuWfDNHPltSxCh5IYDMjvpsCJt8V7KLt6tPUU7gMro//xNuDFPWLFlshvGXa3/DkYHPsLJG5a84LCAVGCPSo6uu2GaR03KWCq4VIQU1GN2R/JbUMoKjqrQBiGCVnKXV4ONkTF3aDTCKYUO+Rg4Z8jIkplQTb7+MvIaPceI3/4lPv/ozPv/6v/Hhf32FfT2fIdlzVSLFNSJN46qpo6FAj1xAVOFU9pWcdZHUoOmfkrj2jXYM2WsygpJmcVoqxWl0ThuR53dYAWJeqmgMiuyVtNS8OEjDzHdGwcFbFueuIt41hLX+QeSc+BBpPpUm8bUDkkpKdgYQDUI7aNzgRmqHPktHTSRtyF8I437lo9g1vud6vfoOB40rgIZkl2nJsmAZmxUow6i6/xoH3FQtde6RdVEEb1f6VqakyIIycjMjMJIq0tQ1xZC12JDfs4YalXqCRIn/KqpG5CUoo/LZWCsRFockN+iUYlicH1X6l/P7q6PMzSxqwV85jLoGw+ujzIvMRm5mCshop7jOyDVdiXU1Fef0fgO0IkOTJ+rRsjVA6dohZ0vBYjDosy6oN0XYiIaOtGJH5Y6RE8qQBs3NQoz6/UqnbibKeB8hzwBhECN2jU+dvtQYV0IFUqtNR5v2lS8quiogBmhFnAI4qsoLYINkpSYTo8tc42LeYw2AlLVEXrNOJ5QS9IGSpwZwRQSLitgjw/pGpqKoWBZiaE8+dZp9Sl4A69oRjKz6YgSBGcGQeSPFlMpuLqYjJI8EYuR8fdMiCJ1PYpiskDW9kK1IWDOq/3ogUQ/uY7TVPomGXkMpyt+qpA7ovvGXDVGJcS5JMiSu7vaKZIJT5Cj7mlypyAZgpSgVLAOc4b/eq4kySVT4C0PyYqSsK6eNKKhDeTCNqsdwTkVcHab7tVfwnHMIy1wfYqn7t+DtjeSs4E9EfuZ4T7dfQTz/EKcJk5+m9ENAG0qhyugD7Rq+KWmLL5JaWrK6htCuiqwOjuGvDp6JrBqgJaqM7E1M8wB1GK+ZSn7KAcpX/YAneA2WwGr6BVCSsw+W4+34+akTsDY1YuOpY1jr70JiXS+WyV84NHny40Hv1ykm9mjT+MTJHxBYxRXRopxRCmT0pU5Iq6IrY7VqjzFnyihvQEZJAzJKfcgo9SKzNIAstiV89yGz1IecEi8ySj3IKPEiq9iHjBK/9NcXB5BeEkBaqRepR49hbfFxJBUH8GaDCxUD+9D2+0L87ptn8OH/3Ivf/mUePv7mMfT9RwK2OfbBUu5BWmkDsksbkF7mkXMySjzIKPNLP6uUtumPD1nFXjkvnX36VOwX/7LKfMjimhIP2OfazLIGZJT5kF3qR1a5B5nlHmSVB5Td8mMwFW1JxJEtiSjamoijWxJweGsCjm5ZjcNbVuPo1tUyfoT9dxJwmM/bq3H4ndU4/PYqHHw7AQffXomjbyVi9+srceCd5+H3PIvf/vEn+Pp6NP79xu3oHR6PMxiPVnwPg8Pfx5XrP8SpMw+gcucSFG1PxIG3k1C8JQlHtyTK2Ue2JuLIO4lgy/OObFN+FW9NQPEW9lehaGsSirYkiG/F2xJQtC0BJduSULo9GSU7ElG6XT87OJaIkm3JKN2ZgPJdKTBVbE9ExY7VqNiRgPIdq1C+Xbc7VqFi+2pUbmObgPJtq+Up3boKpdtXopzPjpUo3fo8SrasQNXOeDTXPIdPP4/Blzcm4oPhcai5MQ77vzGj9poZldfHwf7teFQNj8Hlv/4Agx/NwwVHHCr2JKJq20pUbk1ExU6er86p2LYafCq3JaJyewIqd6xG1Y4E8al8hzGWgKodq1G5cxWqdyagZncCqncnoHJXAqp3JaBmVyKqdyeielcSavcmonZPMkyyaE8ianclyWTt7kTU7OZ7MqqD40kyXyWbE1ElhhNRvXMVKnetRuWOBLj2xaOz9178x4078Onw3+Pi9VvguzYO9v8eg6I/hqDs81vg+iwEe74yo/rGGFy9fiuGPo9Fc0kcnDvp5EpxqmYvnU5C7e5k1IiTSajZmwTHrmTYdyfDsTcFdr7vSYF9TxIcu5P0exIce5NQtzcZ9neNdUY/GXV6zFT37ho4302WhXXvpsD5XjIc76XA+W6KavemoO69FNSxfTcZzr0cT4ZzjzayPwmefclodj6Pz/4yDf8+fBtah8fCd30MXF9/HyWfh6D492NR9OkYHPjdLdh22YR3vwpB943xGPjrP2Dwk9lodvwM7v0JcL2XDNe+JDjfo08pcOxLVr7tV/643kuBPPuT4eKafSlw70+Be98auParx70/GfX716Be5tbAvT9V3t0HVN/kPpCK+gMpqD+wBvUHUtUC9velwn2Q7ZpgG1xzYA08NHowBd6DyfAdTcTvrt6PL278EC3DY+C6FgL3N+NQ8+Ut2POBGXsHQ7DrN2ZUfDQG+wdDcOCqGaV/HA/HN+PQ/9Ud6D39CLyHkuA/kArPwVT4DqTCuy8V9QfXwHswFfWH1sJ7cK3MeQ6tgZfPfmMtx9fCdygVPq47xP5a+A6ynwrfwXXwH14L/6G10prY4YRMHl4H/yH1yOYjai5gGDm8Thk7vB7+w+vQcGQ9AkdTETiSgN/8YQ4+vX47HN+aUfEHM45+YsbOoRC8dNGMV3vMeHvQhMO/HoN3BsbiwIfjsbVrPLZ/OAanv7gVLU3PoOHAWviPrMexI2vRcHgdAnyO8oy1aDhivK9HgP2ja2UucHS9mjfW8f0obXBc9blXxorWo6FoLUwNRTS6DoGidTgmznNiHRqK1uOYbtkPcINhkAcUrcf7xWtx/Og6dNavwtWhWHReGwv3lyHY3WnC291mbO0w4ZU2M17pNmNzvxmbBsx4vXc89g/ejq0XfoCdHSFwfvo9nG15Co1H03G8OA3Hi9fhWFEajhWn4f3i9ThelIbjJfRlPd4/uk6tKUmTNceL6QPXpeF4abqsf78oHcdL1Fijnm8sUeu43tRYnI5GLihdL21jqeq/X7IeJ2Q8DVxzolS1srY4HU0lmWiqSsUHlx7FR1+GYfCLKSj/8xhsv2LGKz0mvEHQXWa8dsGE19vN2HTOjBdazShsM+PNztvw2sXxeLN3HEq/GIv2j2fjrHc5GsvX42RpBt4vScfJsjScKs3AydJ0GTtRQh/ScaIsHY1lI/OnOF+egZPcw35ZBk6Wp+NUmV5fmoFTZRk4UZaBU+WZMMmCsnRtPBONnOBibuSBbMVIpoyLca4vTsep6jX4/KtZ+P2N29B0bSze+0MIXms3441WE169aMYrXWa81W3C621mvNBkRsEZMwpazdjcZsYvz5vxWqcZ2z8x4+Kfvo+uzgdwsmw9TpRmoLk8EycrM9BckYUmeTJxsjwLTXwqstBcnoGmigx5PyXvI/Mny7JwqiwTpyoy1fryLDRLPwOnK7JgaqrkhHpkkTbQVJWB01WZaK5iJNnPwulKbs7A6fIMNFZm4bQ7Ge1fT0L7X8fj3T+H4J1LZrx43owXW9ma8MoFM14+r5/mEGw+GYLNJ0woaDTjhdMmvNpqwo4uE059MQYtXQ+guTJDzjjDs6qzwPZMdSbO1mThTE2mjJ3lmH6aua4qE2foV1UWmukTCSJI+l6ZLfO01VKdjTNVmTCdrswUA6ersmXj6YocNLNfkw1lPAdnqrNwtjobLVUcy5HNZ6uycc6ejAsfxaD2qzF4qdeErQR5NgSbTpjwwkkTbC1szdh82ow3z4bg7RYzXmwzYXOjCT9vNOONMya8ct6MXQO34lzDcpytzUFLTSZaKnPQWpWN1uoctNbk4lxNDs7WZutzc3CWvnEtfanimmycrc7B2UqC0v6Kr4a/yk5LTTZMZ6tz0VKtFnHx2cocnKnhwcoI51pqc9DKA2tyxIlz9mycr8nG6Zo8NLX/BIcu/z+8dtoEa5MZm06ZUXjcjIImE2zHQrCpwYwNzWPxq9NmvHJmDH7hNeMF13j8om4cXvL/HfY03gr/yftwzpmJc3aek49z9ly02nNwrjYH5xw5OO/IxXmO1eThXG2ujHG8tdZYl4vW2hycr8nF+ZocbScX9JM2ubdN9uXCxIWt9ly02BUgxTKN04h6zjlyccGRgza7Opgtx1rsOTjrXIfiwDxsD9yG19//Hl6qH4vNfjMKA2Zs8oxBtmcM8hwh2NwwDm8cvw2veb+Pt+zhOFLxY1RWPA6ncwlO1aXgXB2BWtBiz8d5Rx7a5Ey2eWiry8OFulycp9P0QeY5zr7y6XxtngDjvKyx5+G8zHOv2k87pvOObAFCRhlJRvEcwY4Cd8GRhwuuHLQ5c3DBnoeLfK/Lx8W6HLTV5eO4Px1Vx5/CVt9s/NJ1K6zusSioNeFfa0JgtZvxc8dYbG0Ihdv7BHw1iTjrTMO5CouAuSAAM8EzxK6DdpX9C65c6V/kWa58Ac7zCJ7nX3DmqaeO4PPFHgkgwDYn1xG0JsyZJzhNZIksMuzMFUaVDFECdILzcmB9DtqdebjoVO8XXHlod+ajzZUPOkY2G2vSsNcdhU21t2BDuRnZdhMKvGbk2sehvOonaHXn47w7V6VGbR4uOCyKfbFLkOqd57TX8SwFtL3OImSIH858tLv1vPiWJ2RwTkWS/ihySNxFp0Xs0B5VYyJzZJbMiHzIEB2w02g+2p256HTlosOTiw5XHjrdubjoyhPm21356HRZ0O62CPvtziz46+JQ6v4pdtbfgYL67yHt8Bi8enAqXK4n0SlALLhYr51wW9FOW26CsKDTTVt56KzPB213OK1o55xLv7vUe2c9/bCgw5mPTj5Cfh46ZI9FCKDvHfX5Mib7CdxlIWB2KFkyoPLnAll05qGDDrry0OHOQ4dHOyJjFu2QBZ1OiwJdz7X5srbNmQm//XlsL/kRliaFYu+by3HRkY12Vy463fnorLegq14BFMfdVgHJOXGSwOvz0em2oYNzfDxqH9873BZ0ey3oIkkeC7pcFg2MqiOZFnToczpc9I946LMFJgUsH+31BGhFe51VJuUAgnHno4uPL18O7XDZ0CUOWsTxDu6rt0BaRpxAGMHqfOx+LR4R06fgdesTInnZ51aO0ibB0ml5PFZ0e63oqreph319lsz789Fdb0WP24pupxU9BFxPItR++kBAElmXVYgTotxWdHnoE+1aYKIkuVjkxOJAkJ58tYiL6y3ooVGCErlxMyOiDhRj2igdo1wptVMVaUhZsgi3/+B2PPvEvThdnY6eegv6/TnocuWipz5fHGbEujw8hzZV2+WxodvDyBZIdLt9BuFWdHPOy9aCbvHNim6fJoc4uE/sKEzKrvbZbYFJDnPb1CIvJ/LFmIx7CTZf2Owhux71iDP1VnTXF4iz3NPltaHDx5wsQIfDivoDGYh/ej7mRE/FMw/9CIde/he49qWgqWodWmoy0FabgaaaHClcikwbuinRehs6PSrKPIeE9jDaHit6/Xzy0euzyViPzwo+VEW3W4/ptVQT95OUDpLppipsMJEpMiKMiaTUIfLODRokD6WM2Apg9rnPz6gWSB41V2ejYs8a/NL6NJY8uggxs8MQHTkF86Jn4qc/mo2H75uLZ5+cj8f+eTYe+Wkk1i9djP0vP4fm8hyVp1pRBC3neWzo5Xn67D4C9FLGjKpa0+21idTpU5/PImSQpG6fRfwkUd2Us7ZjIjPCBI1pafXSCA8hWDlMHcrDe9w29Pos6AtY0VlnQWuVDZ6D6Xh74xKsjH8Aj98fjvsWzEB05CTMj5yBHy2cicXzw7HovnAsWBSBxQtmISZyEu6dG4r5sdMR9/hcvFXwJNyH1qGlLk+ixUj0MqJs5aEvNvQQhCjNht6AGlNkWNHbYEW/kGBDLwEG8tAtBCrSFIFWRpiysAiTAlBYpHGbBqz6ZLfXV4BeD+VvQ1NFJiq3xyE78X48+U8L8I/zwzBv9gzcPXs6YudNxwMLZ+Gp+yOx8un5WP3cjxH39Dw88fAcPLgwHItiJ2N29EREzZiA6VMnYEHMdOQmPIi6I4nocNvQ51cPnZRzvYymKjrMSSGE/ngLxM9enxV9RpCEoAIEI6/30m9G2cR86BOZ2sQ4D+j2FogM+jgn82qNzHls6HBZUfFuGlJXLMY9i2YiZtadiJx2J2ZPn4CY8KmYHzMdd8+ZigfumYWH7ovEg/eGYfHCaVg8dwYWxM7A3JmTERUZilmTf4jpU25H1Mw78MDCcGzIfAT8fUsF9QhoK/r8BFOgIqyLGeXM4iXENNgw4GMUC9AbYOQZIPpfgF6/VoieZ74LYDLGiAp4v5IKFxOgGPXa0O8vkMN5WGtVLva+uhTxj83F3bGTET59AqZPnoCIWRMRFjEB0TETEBEWishZdyE6MhTR4RNFxjFRkxAbPRVREZMRO3sSYsImYMa0OxA54y7MDZ8m8q7csRIddVlSnPoDNvBRkSwQkHSaYJWvNvT6C1Rd0XJWOBTYHhLl1UETPFK0dIHgQIBMKgN9PIxjXisG/DzYin4/C0A+Wh25qNvzHNLi78HCu8MQNiMUs2aFIiJ8EmIjJmFOVCiiZk1ARPgEhE+7C9Exd2BO5ETMiQ4Vyc+Nnib5OztqOuZET8LcqEmYP386nntqAXa/vgTNtRlyHez3bZC8VLJWUpZcptTpH1OMgPR7r7cQBEn5quhS8gyUIqbfVwiTiiJlw1xWUhH2yKyPoBnlAvT5uNkqUuty5aGxeB1+lf0EHrw/HNERExExPRRhMyYhMmIiYqOmYF54KCJnTsCM6XciJmoi5kZNQXTEJMTG8JmK2RGTMDsiFOGz7pJ2wbxpWPLTaPxq49NoKMlGh3wOC9Ef2CBRlshKnmowjKyAKZBA0X/62+NX0WUqEg9b5jjB9gcKYFKSVRWRrDF3KCEjf5WUtSwCLCI80IrT1dk48PISLHt0ERbFTsOimGmYMz0U0QQRGYrYiGmIDZuFmJgpCGfORkzG3LCpiAyfhJmzJorUo6ZORXTkXZgTdifmhU3Gw/dF4Bdpj8F3gL+ceM5G9DcUqjNFmvzsKGCMogQioCPIeZ3Dks8ejhcoEhg4XwEGAjYdYbIT0AYM5vguEVYVkhuYT33+QjHc4crF+4fW4lc5T2Hl0wvw0I8jsXjeDMRETcCcqImIiQ5FVORURMRMQUz0BMydzehPRpgo4U6EzbgD0eGhiI4KxbzZE3Df3JlY+o/z8JbtZ/AUZaDNlStyvtSgUozRYoR6/YXytVC+0SfKWsldUpABY2RHtTLeoPw3qRKv2OnzFqLXU4B+D6VcqBlSElEFhJG3YiBgAa9/LVV5KN+WjJdyH0XK8vvw4D2zER01CZEzJyIybBLCZ0zC3eFTEBM5DbGx0xAdPg1hs0IRPnMCwiPuQlT4JMyLnIKFd0/DM48uwKbch3HwjRVoPJIjn5BLDYXgQ4cV2Ty/EAMknwB0fooapShtkNQboEIZeeazyFqlJcdNkvzHVA7TWH+AEaThDcImZUHjl/w2DAQKMNBgxcAxG3oaCtHmKIB3fzq2b3oW+SsewmM/WYBFd09DTGQo5syajPmMXsxkxERMxdxpExAbMwWLYqdifmwoFs4NxaLYKXhgcQSefmgeXs5+GPbdK+UPbZ0unrUBA/zkNPBMGy5RrvQlUKhkLrnKmsLA2NAnFxV10+prUMSoSCvJD7Cw+QtgoiT6eYMRYBYM+BVLfd6NsoAsXuKckGFDf4P+RHlt6PQVoLksC0VbV+OltEeRveJBLH18IR79p1g8cn8k7p03FdFzJmLOrGmYHxmKxYsi8PgjcxC35G6kPrcQa+MXI2flQ9i2+RnU7F6FczVZckWV9PEzsnwKcIm1g5GmrxxjZH0aKPssZh5D6oXqm+whMcxd9TAV+W5SkaRsWerZKhn086rGA+RRiyXyer6Xv1R8Fpx35cp/kdRuTUHZjiTsfzUe2/71WWxMfQwrlyzCww9E4L75YXhi8Ww8v+QebM5+CDt/+TNUvvk87LsT4Dm4BidKUnG+jndkG7r4WZR6USByligf02ADBKVSjWqTouUrVJ8guTNQyhvVnUG+4YogkbwubqaeehYnFdUeb6F8noRFSse3EQMeKwb0vFwt9aeALPf4CtHh4N+S8nGOf/u156OpNBsnSjJQv2c9Dm1bipesTyIv9Z/xYs5TKNu2At59a9BUmonzVVnorOdfU/LQ7aLCbOjmDYkFlOkjUt6AS34rLgU2qGBIZAlig4Dt8W5AnycfrD0ia/8GnXaqsPZ7N6Jfag7flWJM8v3id5bRlSqsc4USkJzVecNDyDCZ0uzxEP606+ZfRLwF8mOc0enl71jvJlxwWnCyJAONR9bhRLn6qyfTgL9e5BvKK6TXKEraaR0JpSyVQgTfH9ioIql9la8Fi1kDC66qPdzDqKvcV1X9kqQBSVKPiXdVJncwR2lECgFZ4UefbPJbyD6d441LGeZlgDedHm8uurz56DJuZLyxiYOb0Ovimjz5OSe/aeWCoCIk5MknhDnJyLKloxqA5J06SxWrDVKxhQDxSa9jfWEa8HyfBfyUXW7YiEvHChV4FmI/q/sG/H9zvonJZ8lozwAAAABJRU5ErkJggg==;" vertex="1" parent="1">
          <mxGeometry x="220" y="220" width="60" height="60" as="geometry" />
        </mxCell>
        <mxCell id="WDatNG11xKEBm6-NoSf6-10" value="" style="shape=image;verticalLabelPosition=bottom;labelBackgroundColor=default;verticalAlign=top;aspect=fixed;imageAspect=0;image=data:image/png,iVBORw0KGgoAAAANSUhEUgAAADwAAAA8CAYAAAA6/NlyAAAfJUlEQVRoBW15CVhV55n/uWqSLjP/rIqiArIJKBq3JJNmbRqb/KeJCpIFEFCR9cK9gG3azmQySZOqEdz3hU32u8C93AsKLoiKyL7IojGTJunTTNNk0qRpNhN/8/ze7xzAdHye85x7zre9v+V9v++gFl0zguiaUUTbRhFl431Efst7+W08T2xTv1fLGGM87/o1cR7biJpX2oaxuka/bMOIlt9DWG0bxupqXkNYXX1Z7tJmG5H+xrzGWHlmX32uaI43fhvz13B+Fc9q/U58WrT9CqJtVyD3mis6aAP8+J2ESD+DGJ2kaDvfj+Lmu06SXY2PYl+5RrCaJEow48CNYCfeGSwDNYKVNWpGZTyJVoQMi0AcN9ZfJ1LWkLiuIIqAbaMylxZlv4IoPTADVJSNwEmEDkYWUIsZ725uN1ygT6y7ZCzgsXkMB4z3V8Hq4G9STZEjgKm0obYeiwKoxgn4/0NZUXjCWFFYAAvAUSjwCiwbSYQBkFYXdfQFo8SqeuACyGjnO10ZIz2+11cUYpvMrxQXO1MpKkR766pwfQVWzSsgRHmqOm5rcYesp9tYfhsOUKnBPhptKooa9pugrCgv76n29xbUn8fy3rDfBCUMdUikQdxq25Ux4sQBQiCDvDl4UdDI/7G1WA9GdEKGJfeVuuOAlPI3P0vseh5rDERZWCmqFFfvou1XlepG3oqSzAW9XciZaNPx32OWZ8pIjRjFKo6Tsbq69hFE2ceJFHsbhNmprE7UmNrsq3LRIFC5aViIUOmhxyDjlUPH6oZtxChabCB7DE5NOhbwGEha9uY8VhZX9hW1mEcTrT/2ewQx1UN4rmYEL9iG8bx9GDH28RRQltXH6koY1h1TR5Q1wKoY/6GPYXVxzXh+G+RwnTGFpUrbr2CV2E+fkAP1PDMqnbKw/v6mQqEvIASNkxNjG0WCfQivn30Xrnf/grb//gg1V/+I/zx5Dc/ZLmMVgyQYyV+9brCikxBpU/ms+rAfKzTjm6C+PKvtjw6VvrpTuOWp/modASzqSrXm9qRvJQRaPYJoBxe/MmEhLmbkyND4Xlo9jJjvEcCFnq2+iv1dn+CzL77Cd999hxsAvrtxAx9++SVevvAOXqi5ooCJO8bByd4sajNgVXwkHiHHSB3lzJusLA4dkVgMoDJeJ09TVjbsbFTlK4hyKPCS405uXYrR1TrznGz1WKFhwdEPEAKav9k+iMwTb+P9z7/EP/67gWsf/w2pjVcRzcMGDw/GHsr0MsAaAOWuqyuKGkpTOZ0QHey4wjoxEqsSShMWjAnso4ihJexvjQFeyUkcE1Q3tg4Co6qyhSjAxomHjEYxCPswtnS/h6+uf/uPeAF8/c11bO/8E2IqB5UiY84Zt6ERn4Cg62r0Ss1DiJBipINKQ6W2Pp6x6n2M97rCBltXEO14S/Lj2coRrHIMY4WwNopV1WRRAVd5xGOgsZXo1mZfqbqjiGKbbRA7ut7F9W+/+b8Bf3sd29v+KAWNczE45Qyj4CjLStFh7t60vupjqCnApFgZqqpUkHZRWD0LYDUhtwhl3ZVVV7C6ahhRNcNYJSyNYjXzmQvqRUydfY3Avre4jVX5MmKq+/BvTVfx96++AiR7J+K+gf/5+xewHL8qCkfr5Kn6ME6gAUjUlIKoSKdihmpqjJHXEwGrWmPkMPuNAxb2qPBVrKi+glWVHMi81ash1as2CtiIECCLEtwEmxvkxdTw/WUkOXrheedDXP/u+jjoGzfw9bffwH71Q8TZhiYUQeNkxLvapkiwAq32f4lHV2y1jQ5TACmOKm7KrVLhdUurWqPqija+31LdqwIwysFCohcqeWfsf5xM5YVMSBImFAQyqC720xeuvox1tdfgGPpvvPc/n+LDzz7He598hpLLf8Z6zxVJi+dsQ4hh/sp8unI6YBKo9n+6i7uFWsMApJTWx46dE/Q4hAzOxzhVSo4pvLJmFCtFZX0/ky8TpS73Sjnf2sa3nqixYqUzW60XE1ZY2l9yjvs6T1hX8FztKNZ6hpHZ/BZSvIqomKpBqcYxotQEdQ27ymFIBc+qLWcAuas1DUuru6ofigAFksoqu/NZ1RtNTlbCGo99ZErtv5KzrLY8/lUb+67aOsYWkrzjpGoysmjYT/JdLzI8zPA9L9mrx75fCUYpJx8jXE+PRVJjgmP4fpUUJWPrnJifiixxmxGrFFldDCFQFcWxKs0TkQpYt5R0UkrIRHbFGgOOIVtShUcQU6kAKyAjyppcjPaTk9vNVlQqqbSgCwSEUSfGvpJ0SzImAa3SQ53DjfRSBI6RPyEdxnLWcObYeUG+liYyZkyigEruGAVCt5myDBVVF61OoghYCocsPGEL0VWWHNLnEBAMRlQzasd4ceJHhpG7Ykk5WEx0jyJMgTXy1RDKcKOq9OM5r+ytHy0Va2RfWVIFI1uQDpgDjXY5FQlQdbpSAEYR5XhLncVZIKqHsdJ+DasdV2X7YEGM0T8N6SYWSxYTzilF0vh4MY62/JCRLy3dlmJRPb7viSCk6EVJSJDYSIRKQXGuFFtRWLetcTyTUxLf0Ub6fkhlZEGDzSEFnu8Ny1WpPF7puCpfXPIt7byK5+1DeK5qQD71aMlVJMVxTVmV4Ki02F/dja+1aBt3DB4xVSqRwHEHqQJpFCJJOakLOkgdsHIjseg5zn3YOGzwG1fZSIGK0QuLVGdhlFYxCgVzlZ+S+r5sBGdjTo7geecwWIGTXIN4ydWEgs4KvHLGicyWRmTUn0K0cwjRDirM8SRWKS7FTb6R1dySs7r1x4uYIkCB0cmQI6mKT6WOHquIwTRVducYTZQwvpSkSOi2ka2FTFLFUZAAMqxsrueo8THPiXmk5GHDNoBfnfei8q1StF1bh7c++jn+/FUE/vxVKP7r83vR/m4KXusqRZyzT1Vo2rp6UFJgrEKzqvOQQ0KquGsoYkgmSZC8nGBrZdlxMYRIsTAPSIybKascqKWWNiC12Iu0knqklriRVuJBeokLaUVupBa7kV7iRiZ/l9Sp5+J6pBbXI533Ig+SC71ILvVgQ4UbG+wn8WrTIbzzVSI+vBGId27Mxh9u3Ir/ujEF/TemYPi7f8ZH392Bs++sxOv1e2EtcyGlyIP1RU6kFbuQwhhKvUgtrUdGiQcpsm69xJJS4kZKqRsZpXyuRxpjKHEjvdiFtOI6pPN9ST3SShWWjJJ6pJfWIa20DunHvEgt8YBYtcI343H0zTgUblX3I1vjUPhmLA5ticXR/FgU5sfjyJY4HN0ch0Nb4nB4cyyObInF4S2x2L8lFvu2PIfDm+JxaOuL8LpW4JOP/PG3G7fjM/wIXd/djrovJ8HznQnN13+EluuT4b0+GS1/98XgexFob3oCR7ZFoZDz58ejsCAehVtiUbiZz2tweEs8DuXr8eXHoZhxvhmLIj3Wo1vjUcR482NRvDUexQUJKC6IR3G+ukr030VbE1C8LQ4l2xKhleXHo2xbLMq2x6Fs+4so2xaH0m0v4ti2F1GeH4vygliUFcTjWD7vcSjNfxEl+S+grOAFlBbE4diW53Fs+wuoOPAiPnwvHF/e+CE+wj+h51sTLnx9K7yfa7B/MAmuT02o++Q2HP2bhrrPb8XAN7fgvQ9novHYT2AriEZ5fiLKt7+grm1xKM+PQ1l+HMoL4lG+LQ4V22NRsS0OZQWxOMb2grix9+U7XkDl9jhU7YxD5c44lO+IlefK7fGo2BGHih3xqNoVj8qda6BV7YpD5a44VO9YI52rd8Wjamc8anYkoHJXPKp3rkHVzjXSXiFtql/NTtVWzn57YtB+6hF8+FUAPsaPMXLjVrR+fStOfDEJxz6dhKL3TTg4MhkHr5lQeEXDwU811F43Yfjb2/DOX0PR2rQKtXvjYdsbh5o98ajaHQ/brjWo3rMGVbzvXgPbzjWw7UqAbXcianap33LfuQY1u9fAzne742HflYCaPXyXMHbZdifAtkc9a/Y9SXDsSYB9T6K69iXAtjcRjj2JY3f73iTYdyfK5didBNveBDh3ccwaVO1bg+MVz2LwT/Pw2Y27cfXGZLR+bUL9ZybYP7kF5e+acOw9Exrfn4TS0SnY2q2h8j0TKj8y4cyXU/D2N/8Pb40ug6fsRbgOJqBuXwIce5Pg2JsI+wH+ToBjfyKc+xJRtzcRtfsS4dyfACdj3JeI2v18lwTnfl78nYC6/Umok7Yk1O5fq9oPJMG5by202gNr4TqQCNeBJNQdYONa1B1IknvtwSS49ifBuPO99DmQCDd/70uEbV8CvNXR+OALX/zlxm04+LkG2/saKt42oeL9yTg0ZML+ARN2DmmoeGsSdvWbUHrNhOLRydh/zYTGv03GW38IgbsiBu69aj3PgfXw7F8L16EkuA+uhevwetQfXA/3oXVwH1qrLrYfXAs34+f90FrUS/s61PP3QdWX4zyH+U5d2tjD4XXwHF4Pr37VH1qP+iNqUAMX5IDD6+Hm4CMb4C1cj/oDKXAdSYaz4acY/Ksfej+7Ba4/aTj6tgnloyYUjpiQ32HCtl4T3uzWcHhoMrb1T8H+t2/F0au34OUhE8reNuHc6EzY9sSi7kAyvEe5VrIE6Tm6Hg1H16HhaDIaDiejoTAZDUf4br30Y9+Gw2xfj4Yjer+jyWg8wn5qLu8R9uVY3tdB4w8ZUJiMxqPr4GVnvivcgEa5J6OxKBmNhSk4zj7Sbz08R1PQULYGPY0r8MeRh3H1D9PR9rEJtqsmbDuvYWefhl1dGnb3KtAFXRo2dmvY1H0LSobuRPHlu7F90IRtb5vQ9BcftJ9cgRPla9FYtB6NRaloLE7BiaJkHOe6xck4XpSMpsL1OFG0AcdLNqCxKEXe8Vm9U/1PSH/1juPZ1iTzbJD+WnNRCpqKN6Cp5ObrRHEyTvJ96Qa5nyxJQZPet/HoBpwuScNg6y/w6Rdh+PD6HTj71x9g+/smvNmvYWe/BgLc16nA728zYfMpDa+cMWFTt4bt7T/A7ztuQX73FOy7ZsLpj29D97vBOGOLwqnidTh5LA1Npck4WZKK5pIUcO2Txfq9NAVNpak4WboBp0pScYptx1JVO9+V8jlF7hzbrPfhnf00Tn7qWCpOySRciL9T0MxndpLnVJwsS5OFm8tS0XQsGc3F69HV9BQ+vf4jDH0zGeUfmLB32IQdHSbsuqhhR7sJO7pN2NamoeCMCW+2mrDlkgmb2zRsPW/CG+dN2NOmYctFDY73NXR9cAcu1D+L5rJknCtPw5nyVJwuS1dXeRpOHkvH6WMZOF2WgTPH2JaK08f4Pk2/sz0dzaVpgoWY+MzrTJnC2FKWDu1UGQekK9BsKEvHmdI0nC5PRUtFGloqUnG6IhUt5enggDNlqWgpS0FreSa6T67A0Nc/wPGPJ2HTkIaCsyYUXNCw5YKGbe0aNp814Y0WE948b8L21knIP2PCtiYNbzRpePOkhh3nNGw9p8H1RxPqrk7FqaIEtFRm4HxlBloq09FamY6zValorUrD2ap09a4iHWcr0tFSkY4zjIkxlqfjjPFMkgiyPBVnyjNwhu0yVwbOVqRBI3pjQEtZGs6UZuI0J6rKwDlOXp4pi7VW8lldrRXpuFiRjq7mKHS/ezuqPzBhU4eGvWc0bD5pwhuNGjY1a3i5RcPrLSYBvqN1ErZ2adjcqaHgtIbfnzThlWYNW7o0FAxMwYlTj+BUZRrOVafhQqUZ5ysz5bpQbUZbdSZaazJl/dYKxpOB1io+Z4LP5/lcmYnWcoLKxFkSVZGO1ooMaWe/c5VmEIN2tsIsL4WhigycLSO7mdLIwQKyKhMXqjgx7xm4YMvApSozTjtS4W2PQEnnP+FQs4bXT5rw29Mm/PtpE14+q+F3nsnY3GDCK6emYNvZSSg4PxlbvSZs8f4IW2t+jO3Nd+Og94fwnFqMS7UpuOjMxPmaLJy3mXHOlokL1Zm4YMtCG68akpCF81VmnK8x40JNJs5X87fqx9jaqsxo492m2tiHF8ey7YLNDO0cmao2o7VasdTC50qzujhhlQqg3ZYJXhdtZrTLghZZ/KwtDcfqHsD+43egoPmHKGiYgte8JvzWa8Km+lvwW89k/MY5Ga813IKdx/8Zuxt+iKLGCNhLn0FD5Qtodsai1Z2E885stNVY0Waz4KIjC5fsWWi3Z+Oi3YJ2exYuOai0GaK4LRsXbVm4aDejzabeXagmMepZ7jVZaJN2zpOFiw4zLtqzoF2oycDF6iycp214iZXMQgLZbKtWE7c7M3HRmSGDOwjabkUnJ6my4ITDDJt7FXbUL8A274/xb57J+PcaDVtqJuHVegV8//HpaHY/g2ZbAi7WpqCt2oJLtmx0SuBp6HRkodOejUt2KzoI2JGFdkeW/Jbn2mx5vmjPRrvdjEuObFxymuUdAZEcASZtWbjoVEDpDiHHacbFGjO0i3aqpiyjbKvswrxhByp6yZ6NjroMtbhTPV9yZqPTYZEFO+uycc5hxqmatTjqCcKrttvwWpkJedUaXvaa8JvaW2G3PYw2EuTKEKsSTKeDQWai3ZmFTmc2OpxWXHJmoauWc2ehw2mR5w4HyaHqBG1BZ20WOhiTw6zHRKIs0s4+l3Ry2m0kTb3voMq0dDsXrcnCBbGpulP69mozOmzZ6LCb0eXMRJfLjE4GVmuWIKgAA1GgLbhIyzvS4K2Jhs39GPbW+eAl54+RvmcKCg4Eot69HD0E48hGpysLXc5sdLkYvBntTs6dje5aCzpqs9BVl40OAc1nEqE/O63oqOO4LHTXWWSObmcWumvNyiH6GAKmAziPkMM5CNxphaasQQswF7JxXixMJs24ROs6zBJUp8uMrjqCJGArOpw6YFqbAdWZJTAhxJGOEzVx2F34MKJjZuPwG7HosmdKYD112eh2WdDrtqDXZVGB11rRzfcMmIDG7jnodFrRVWtFl0uN4+/OWgt66y3orbOgp96CbrpNHEJyLLgkLrCgq86CTqcihoDpII3FQexBMHar5BBt0SnPylpdZNGtmO1w6AEIe0qRTk5cR/WpjgVd7my0V5mx/T+iEDjTF69k/hRtjkz0uq3ocVnQU0ew2fK7l8HXWtDjVld3nRXdLiu63TnoruVlRU+tBd317G9FX50VvU4r+gjYnaPGkYQ6ArIIlk79WYiS+QiecVugkRl27mJnG3PKgk6XYbcc6cQgqYCym0UCIrDuuhxRiwsYQDpoU2cWmsqSEPvkfNx5x+146qcL0VK1Af1uC4a8meipy0K/Kxu99VQuR4AQDJUXsPq7rtpckIAed7YAVn1z0Fdv1R1C4Dno9VjRLX1JvFXAMV4C5HgRgXenBVq3i6By0MXg3WxUzAvDYrts9LktwqyAYmB1ysZUoJNja7NFkU4P3+eiy2ZB7b5kRC0PR3ioL559bBmKXlshn3It1cm4UJWK9ppUnKxKk+oqhJI02loUyREySQKV73Mr1fs8VvR7sjHgUaD5TMAkvqcuRxxEFxFTt5NjlRAkganR486Bxlyi3FyUvxXDKrfUAMUmQUsfYZeWs6KfE3qtaHflSl6drMgA/86Ul/oElj+yEKEhfggJ9kVkqD8euT8CTzwQiZX/ughPPhqGRx4KxAtPReL3Ly2Xrx+6rIdx0DkuPXha2M311dWvA+2pz0Eff3N9dw56XUY7+1M45rZ6pzDQiSpmrdeYvF5NzkVlEN9zIrlUfkkO1lrQ77Git9GKzmorWooy5G9Lv017AiueXYKHFvlh0fyZCAmZjsigWViywB+L5gUgcukcRC4MwLJ75yA8dAbuv3c65kfMwi8eC4V17aM4mp+A0xWsuDkgMOYn4+h15wow/u7zkHTGlYN+L2NjDiu1+xusGKC9XTnoo+IN2UIg1VekqTaNIFgA+nXAkh+cVAYr8OxDkH2eXPS5rDhjy0LF7jhs2vgEon+xAA8vjcC/RAZgQbg/Fkf6Y/GSOXjiwVDEPB6BxOglWBP9IKL/NRJPPxGGny4Jxn2RvpgXPh2hAdMxc+ZUzJ0zE6uXL8HB15/F2WqzAGY8BK1UVeBFfSlwCgTtzIuxCVh9DMkhEWJ1XdB+PWU1GSBezxHQA/og5kR/fY5MxMn66y2SO521uajdn4KMdT/DTxbPQWjQDIT5T0Oo/1TMD/RBZLgfli0MwtIFc/D4T8Lw88fC8ej9Qbh/sR+WRVJ9P8z390VIsA8CZtwJP987ETzrDiyZ74fYVUtRkR8n+zFrCHOVV787T6nJ/Kb1dUBUecCbg0ECpxO8OXJRrJ66XCWauEQJx5zXVMVTihps9bhyJUfIssEw85V73/maDBx+eQ2eeXIx5odPR4j/3fD3vQczfaYiyG8aAkPvQej8aZgb5IuggKkICZqOIP+7ERo0DcHB0xAe4ovgQNrZFxFzpiJg9l0ImX03Qvx88PAiP/w25VE0FyfINjjgycVgA8nOQ68nV9mZ4jDtKIaX1s5V2x0dKfam6rlSuZkOYn9xgRJUclg8Tia9ZFLlTD8nE3atimU+u3NwoSYF+a8+jZjloZgfPB0BM+9CgO898A/wwdzQ6Vgwl2B8EBY8DUHB92DOrLsQFHI7wgLvwdyQqYicOxsLwmdjaaQ/5oUHYN7cGTJPeORMLFkUiJhV92L3pmdx6li6KDvQmKfnK6svQavqy/hICF1IMSRed55SmnksRS0XPVRerJ8r8WtKRavkphQldtYZYS5I7tbnyuSs4jwDl2yOwYtPLcLScH+EhPggxP8uzJk9DUGBMxAaOh0Lw2Zh8VxfhM3xgb/fXQgLnop5wTMQEjwdEaEzMH/ubMwL9UWEqD0VESHTET5vlpCw/MH5yE1ejpqDz8tJ77J3Iy435qKHey23G1pUB8CaMuDVL9Yg2ZOVO5kK44WPOwrJsUIzVFSVT23itES/wZ6hNAuDVw10H01C9trH8dB9AZgfNhPBfncjPHg65vn5yr4bFDYD80NmY15wECLmz0RwgK9YOyJwJoKDZmC2/1QEB/sgdJYfQkOnIcTvboQG+CAy2BcPLg7EhucfxbbfrEJrWTYGG/Iw4MlDj74l8bDSW5+LvjoV44A3T2KlOAO0P2Nk/C62qwouxc9N0XIgCtPSfezoVZMQsOQH80RnasCdi8teK4aaNsqfVn7366fw3JORWLbQH0sjfGQrWhA+C2Gh0zAvzAfz5vkiIsIfcyNnI2TuNMyfN10cEOjng4CAu+DndycCA3wQRIfMoQt8EBnoiyXh/njm6SXYsvEZNBWmq/zlWcGlgPSygNUrkIO6wnIud+dgkAWMAolDdbuz8PG5IVfa9BxWnmc17HflYUAqJCdV9mZhGzxuxfDxHAx5stFmz0bN/mSsj38US+8LwcJQX8wPn4WIYH+EzPVFSKAvgufMQFCgLxYFz0Jo8CxERMxERJAfQgN9EUSrB9yFgNlTEc4qH+aDhfP8sCQyEA8vC0Hsigex69UonK3IQq8rT/ZVKksh+uo3gkAHG/PkrpyocnjAs1FSb5AKUzzmL+uQxyKAL9fnQpPkb1A53O/JAy0y0EB2NqLPsxHqHdUleyqXux2ZOF6Wif/4VRQeeyAMYaEzETmH1XcW5kb4IijQB8GzfTA/aCrmzfWR09bc2fcgLMQX986bhciI6YiYcw8WhE7DvfNmYnHkbDz6QAgS//8ybDI/ieodiWgp59eZOngwRirHSi3xNDJOgqJQSpgBl0XO6qKuxK+KlYjmsWJQdpxcaIMNueDe20N7NFgxSJbIkPuXwpKwSQtJXismeZg/57DgwJYEvLjifjy4NASLw3wRHuaLiHkzERY8G4sjZuHekOkIDr8LQb7TERF4DyJCZmPRQj8suTcYDy8KwP33+uH+JQFY/lAYEmMWY9/vVqLh8AZ0Os3o0W3LryplSVZrEq6UHSRQpiHj5r7L3YXWrdcrtZvCGecI1p88DDbmQBtgB56geDD3GhZgAbCKoqKqLMR2nras8g3aXmeG+/AGvGz9GZ5/Zhl+8cgC/PyhUDxxXxAeXzYXj90XhqULAhAaPBWBs6chMsgXD0QG4PEHg7Bq+SKkxTyArKQH8VLKT/BK+qMozY/HyZINaOf3rxwnCUCPy8MYue/yrtS9TBWlsKo2pp1sU55fqju3LcYtxOm/WbR47uyndTk5c9jNgWSH1fGXGGQxqGc7K6Da82gtLnDOniX/y7h/UxTyX16JHf/5NH6d8jNYUx+BZf3PkRhzH/7lgSAsXOCHhx4KxbrVkfi1+XHseDUatbtp2w04XZaM1qIUXLCn4xI/6fTvYZ6cGNcg4+H6FEPfHge9GwV8r3sj+l0WDPAuubpRidSgbN7v+iUG3HQti7BKV4127pN8UOrKhi0TKybF8g15UIvkoo8pwKsxTyr7Rf6VszwFTRVmNBWnoPloEhr2r4W7MANF+XF49aUnsDH9Mbz+m6dR+PtoNJUko7UsC+3yVwt+xeQpy3rz1Dc1T0k8CzAmvbpyxxjwqhTj4UjVEmVxxsd3oibjkoKWA74f9OaBTuA7ee+VoqWOj5ReBglTnIyskknFJu9qsRzFmGcjeuuz0euwoLs2Rf7m22bPQa/NjD6XBR3uXLQ58tBanIozZetxtpx/z+YXjMqzXkmPjeqURNI96i8YvTw2SiGiahtVASUI70YMNhgVOheSw8xnfZ9mZZZtyWPB0PFcDDf+CkPH2a6KLYsdnfq/qFZE0btxQI4AAAAASUVORK5CYII=;" vertex="1" parent="1">
          <mxGeometry x="280" y="220" width="60" height="60" as="geometry" />
        </mxCell>
        <mxCell id="WDatNG11xKEBm6-NoSf6-11" value="" style="shape=image;verticalLabelPosition=bottom;labelBackgroundColor=default;verticalAlign=top;aspect=fixed;imageAspect=0;image=data:image/png,iVBORw0KGgoAAAANSUhEUgAAADsAAAA7CAYAAADFJfKzAAAZGElEQVRoBW1XeWzdWXV+EyoEnQEqNo1QKUsLAlVtxYAqgYAWhFSoKtpsMN4db2+x3+pM1faPUlWCyb4vduzYfu/Zz/bbVztOYie2s3nfMokTVhWoWoaBMkyGgar5qu+ce997obV0dd/vd+8953zf+c65Pzt2J+5DRtzMiW153iPv72F34h72xO14SX7vjvP9NrhHRnmd7++bPZx1P8+rD7WjPit+9ljfMut72td9T8bF97tkrXJ+N8/Z8Vvru5OMc1ticliDGlCVAwYoIKwhA1zAm3ckJK7gLCAhiefGXzLnLQEM2gRoQSUflN9JsFxPVoGoArU7riAVqJJcBij2rP0nybA+udchrMbvY1cZ2HZVkDYjVe+eyOI97BJGSQyBW2D6vIfECCE8z2CMvcR9yY4GXgVY1GT3akZtFp+YSbDYsn6ryDcEldVSJmwbjifZ2cauuDK7K2kYMs9lBRjpcn0nsyCZ1eBljwC+JxlSIpTxPeMk5h52p1RWu5IPsDP1AJyrpWkzR/u7Ze1BlWwZm/rkPksAgdnf5TnJczrsGYemWeuPUrHZ0ffKrt0swASsBsznXeaZe1Qllezp+jbqs9tozz1Ea/4hajL3Vaqp7TJQBaVABISRrJAnsjbZjxsfVgEyK5lKtM2wJswmaHdCzztYI+KAjBk2GKQGX2FPwfOZB/VwtVQ0yPtgRijdXeP3UJ/exr/e+DFufP9n+OGrr+OHj17D7PdfRvfMt/H1cWNHwGxjpwB8gJ02G6ax7E5qLDZjNg6dbTKUdIkh+VCzb+wqYMXhYGYU3ANIZqs0rocVmLAvklbAIncTiM2gDYg2axIv4eDyj/DzR2/g8ePHsH/8/ePX3sCBuR9g79g9yW7lnJGpkFkNUkm0TcoClfiMrAWDiY/rmoiK7LmuDUrkoLVRcWxrxbyXrFeC0Xqg7K1kSMJ97DGMtubuY+unrz4BtBrwg5/8Ak35e9hrJGnrS/1X17KNi/MD01O0BARstX/j22IQUsoE3IdcPdIxWfDcbCSskrZXgTYuWa9qDAJO9ls56X32tcR9uKe+g5//8g2L7//ML7/2Bvwz3zc1b7NoVCTqsiCrCCbh5XrW9Wo1arOrNKsyFrFnwNrirjBV7UD1Lp1VgCrD5eIvgzWEmEBdhQd45dHrACoSriB+jJ/9+tf4h9kfaJMyJFu1SGak+RnA7Mpx9cs9/E0g/Fhg9iRu45fvZc8TzUuTqFePOSQXujBnvoyqrwWbcdtAyvIzTNr1+H3sjb+Euty3sfaz/8Ljx/9TwWh+sW63X34NbaVvm2bHe74SuK1JWxIK3oBidhlXUsGWM111Xvab+CS7JCC+zZqtqjsbsLn0tVMrk2RRAjIdu5wFYdwqQeW8Z/wuvp54gN6Nn+LRG7+d3cd4/Ve/wfn1/8De9EMJuiJFNiLNms3WrgS7q80q/ajUK+va1S1AzaoSI1m3Kojfg0PZ05qxjOpsathkVw6KAqxMjJyrs891EsaPh/F7aMs/RN/qj3HvlVfxyi9fxyuPHuH+f76Kwc1/R136u/odnWKwlZoXeRrSyx8W4qOqaVH2pmHu4vmqGCtxEjDXTCLYja0jYcbckfbdkwctW1XEVKvC1I58I1PKY/zo38bz6Qdozn4PbaXvwTf5EK2l76AmqWvlT1SCLauKHyUcRrZcK38LMOtKqDbVSiw2/urYaVObqiZAwMpdazRui94aU3k8WU9WKjTMdd1TyY591u9XOtrWKyn5QJqKXbffytWflRqsuQVsVsrATcMSWTOmav8mg6b/2BvGgmcS5J5V56xJyzAL+knWuEeHOiTzViK2uaiEtbmVMyXdUb+QbLaqZ2HflIc9XwFRVZ/myrFES8xCRgWw4jCkyze6KSve/ypjNSjBG1b+/98KXp1ZItRR9X5xKEQZp2Wb5pvYNJjymfI/HE/uV2Krs2V9ao0rMEt4NQZtcGWFGP+SWTot/+fxW83GdkYbmO4zmRUVqJTs+s7kQ/3KMQ6eBG78yNWhIGzAlX2VoPlO/RkSqpSm/mw96j69gsx5uYbY0Gx8asPBelKnT8qhkkEjbSNHcRQ3/8fa/0/LmbTB2nuzOlD+Np3TZjNxT76gVL62KZk4hHj+VglqWdCGSlM7tVUW/ap96T8Ea85zvy1JB0GRQduYZFGkZgzbO9dm0vzjbBuY3IG8y8py1aCl7gjKsCzr5YZjGhWfZd3Ilc+yR7NiMy9nZR9jMj1BwClAe/dK7JK8qivHxiU1a40TNA1a58b4Ll4TCQanLNMgi92C3VX+z6fCoDrVQHbSmfm3i793GanbABUQybK1ZrNi7nEJVskUqRJMWRnsA0qAEGJuFLVlFCt7H2iDckaL6BgqoSNcQPtQHs6hIlzhAtxDfJ+HaygPTzgPVzgLZyQP92ABroE83EMFdAwV4OTvSA7OoRxcMgpw8lw4j/bBLJw8K3vzaAsX4RygH+5R+85w0awX0BHOwRUpwh0uwhMpoSNSgDNSKJ93mjXXEPeU4ImW4IkU4Ynm5bc7WoR7eBIuvo+W0DlSgGekgM6RSbiGJ+C4eKge/Yfq0M/5YC36DtWi/2CdjN6Ddegzg3v6DtbiwsE6XOB8gLOOvsO16D9Qh75Dutb3Yh16XqzDhQPP48KhWvQeqEXvi3Xo/VYter5Vi/Mv1qDnxXr0ir16scfz/YfrcPFwHQYP1WHwcB0GjtRhgO+O1GLocB2GjjZg6Gg9wkcbEDlaj8ixJkSPNyByvBHDx5owcqIZsZONOk41YvRUM2KnmhA72YLRs41wRI/UIXq0BsNH6hA5WoMIDR/ROXK4FpFDNYgcrkPkSA3Ch/m+BkNHaxDlnmO1iB6ulfPcN3ysBpGjz2PocA3Ch7j/eUQ5H6qVszw/dKAGgzzLtaO1iB6sQfTo1xE9VIvhE7UYOVaD4eO1GDnO97WIHavByPFaxE7WYexEA2In6hA7UY+xE/UYP9GA8ZP1GDtZj/ipRiTONCBxVkfqbCOSZ5qQPNeM1NlmpM81wzF6qg6xU9aQGhFjxxsRO8XnRoxwPt6A0ZM6uD56vEEC4G8OOh47WYfR4/WIMYBjDRhmgMfrEDtdh3G+P9GI2LEGxI7XIX6iCbFTDRg7Vo+x0/WyPnaqHuMcp+sRP9mAsdN1iJ9qkOfkqQYkTjchQQBnGpA604TU2SakzZw6Q0BNyJ7bh0xPM7Lndc70tCB3fh9y51vg4CYeTJxpFGPJ02SoCXZOnW5CnCydakTqNNlqFPaSdHyuEYnzDYifa0LqTKM4TnAvn2nnbCNSp/isZ9NnODcjebYe6TPNYkeCPscM6PkUZwZ9thmp803Inm9EuodzM7LnmpHh4HPPPmR79yEnowW53hbkLrSgcKEZhT7OLSj0tcoo9rWi2N8Ch7DQ0yRsZMjG+RZwtgyRlUyvcdTThPS5RmQYBJ3y/dl98i7X04xCTzNy5xuRO8fRjBwDOs/gGpHv5bo+53oaketpAs/kztmAm1E4zzMtyPe2IN/Tinwfz7Qgb4LPX9iHfO8+AVPqbUGhvxXFC60o9rWh1N+K0sVWTFxsw+TFNkz0t2FigHM7Lg1wtMFRpAFhhEb0cKG3Vd/1taLUuw+lPgawT5wWeyxrLShcbEGRaxdakOtvFofFCy2Y6NMzpf59IKsTfS0oXeT6PhQZYH+zzhdbkO/nOgNu1QAZsPxuRWmgFZN9rZjsb5MhQAjCAJocbMeli22YGmjH1CBHh84DHZga6sAljsF2XB5qx+VwOxwTF1swQQeDNEKn7ShdbENpoA2XhCldKw60okTwZE32tglbEwx2sA2TDOxiu8xTg60SwKWBVkwM7IM+t4LBTQ3quSkyzt9D7Zjqb5OgrgwycBPwUBumhjQrlyPtmArzXKtkicETDNcvDzlxNdyBy1EnroTbcWXIiSuRDlyJmOeIE9PRDlyNOOG4zI3hdlyiQRoJd2BSWGnHFQY31CHMXAq34spAOy5TEkM02o6rQ07w/FTYicsDHbgabsc0HdKmdSrB0HFHeUxJMOqXQC4PduBKtAPTEQbVjqsMbqTdPHfgWlXAssa9w+2YiTgxE3Xi2rAL16MuXOMYdmNmRN9xbWbYjevD+t5BVqbpgAEPuTAVdulvBhR2ShBXom24EnYJa5cjyiSZojE653lxGnHiOgOOujAdbceV4Q7MRNtwjfOwrvG3BtphgnXhatSJ6REnZiIuTA+7MMPzZr4adWN6mH4Ixo3pqFvAXRshAA9mhj24TkAxN66PeOTd9ZHK8+yIB3Py7IJjms4JgGmnMzMYwNURBtKOKyMM1gRFtsIuXIu5MDvcgdmoUwYdkuGZERemR924FnFjPuLC3GgbpsOduD3mxHWOqEucz/L8iBOcybzMoy7MMQsjbsyOuHCda2ZcG7PvPZiNuTE35sZszIPZUQ/mRzm7ZczFOHswN+7B3Ggn5kbdMm6MeeC4NuwEWWK6KYPpsAdXIm5cjbiV4ahH2JyJkkHKxYOZETfmx9ygYTEec2F+1I35mBszsU7MxTwCuFhoxMmVr+Cb25/D8HQNro54MJugHacEImfG3LhhgqateWYipgDmYxow982NecDn2ZEu/T3eiRuxTsyPduImf4914oYA78T8uBsEZ5+5dnO8C47ZWKcwRDaZ/llKY6RTJHONsoh14lqMMwNxi/F5Gh5Xxmh4Lu7CjbEuzJHRJFnuwIGbf4MvPnofnvvNu/HpN96Kva99ACdu1WIu7pFxS2x04lbCg9vxLtySgLsk8JsJjzzPEyD3xTvB3zfHvLjJwBMeeUcABCrn4zrfHu/CrQT36Hwr3olb8S7cjnfCwTQz7SIJ6p4smuzoe5ULnQqD4x4BeivulYDuMLC4W4KeG+/EzaQHlyYb0fzLT+Az//00nv3VO/Cun+/A7//qGXzh5Q8jX2zF7aQHC3EfbiUYhBd3kl7cTvK3TwJjsAqgCzcYPMmwgyDi3vK6gGIsfCcACbILN2mLNhNe3EnQvhcOZoZSmB3zlKVCCcyPdYk0CHJuVJ2S4ZtxGurErXEf7iS7xBCNLY0F5N1iPITz39mLP3r1Gbzn0dvw9ntP4ZmVp/A7/7YDH/zFW3Dk+lexknXjTtKHhXQXFtJeLKU6cSftw51UF+6k/AL+VpLBduIWiSBQBi6kaOC3Ez7cTnIwBsbCoWsLnFP6zp7hmkO0boDdGKX2vQqIjI5bxsi4r8ySODbyWUj5sUBH8SBuprpwNRfCX//knXj61R343Xs78HTmKbw568DTt3fg2R/twDc3P4vlRCdWMx4spXxYynhlLKd8WEx2YYEjRRBeAXqHQXMk+J7Z8+FO2ouFhBcEJaSlfFhI+OSZZxczekbX/ULGYsILhzDIbBl5UALctBg3c8ILblxKebGU9EGCSndhkc8SoA8LGS8WM34sZfyYmGrAX3z3Q3jP996Et00/hXcmnsI74m/Gu9JvwftvPIN/XPg8lrN+LGeCWMl4sZztwlLai+W0T2xSLQsZm3Hu82GZ2c8QhBeL3GdnqoOEMQ7Oae4lgX5DJN/5sSC2/XBourtwO0WW/CINGlhIdQnT4jzpxVJWAS9SeimvAKThSiA+LGR9uJkOIna9Fs/Nvh/vmdyBt4+9CZ8KP4v25Gdxofg1LE34sJLyY63gw0rOh9WcDytZH5azDJqBMWN+yd5yWglcTAUUZJZgNXiSwP1Cctov6wQrQNN+tZfhe78hwAeHyCapbC2lA1hK+nWQvbhXM5hkYH6s5AnaLwzKc9ov79f4LhPAMoPKBnBz/O8RG+5EW+5T+OyF92EgXSs1t5Lbj6UCiSLAoGR4KWeAck4yMPr3Yjnnx2omgBWOVBBLJIPnSHDKjxVmmvFK5v1YzvkkNs1wQJNDWySAZ3N+OBZTfKEvF5NeLKQC8rySCYLgF7N+rFJ2WRr2CjjKcK0QxGrGj/WCD2u5AFazPvDMaiGAzYkAFjPdKIQ7sevLf46R43twc6wDK4VObE3Shg8baQ9WckGxt0RJZynFgBBAUmlvOUNQAazl/VjKBaDEcA+HXWcSuE8JENKzGg/Pl0c2AMcyGc4QINnwCzg+L6cDEshqTteX00GspkOQ52wAK9kA1rIBrOf9WM0zIC/W8yGslkJYynViKtKCb/7Tp/Glz38ce7/4x+jY+SWc/sZX5f/fhYRLymY9T9tBVQUzmA9gtRjARj6A5UIAK5R6nipg0PQZxBp9kVwZmgiuMx5Rm5RFQBLBPUzMksQbhGMlp0Y4kwUyIwfTAawaxnhovUi2glgvKHi+WysEsFGgo6CsrebZdAK41OvG/n2fwSc/9SF87CPvxgc/8Hv46Iffiy8992F4n38O48f/DrcyXmxO7MdGgXb9JniSRnlTRfSvsZFgZpfk8jcluZxnvQewLPFznx9rlL6oxZ5VFQiefAAO/ljlEKcETIOUqQZAiZDN9YI1ZllVAtYlq7qX4JezblyKuXH8n7+MvV/+BD75J3+Aj330WXz8D9+LP/vT9+Mrf/kRfCP4BVwd7hAw60IYiSORCob+SZqAzAWhPoIKxMTL+KSehQDGz/hIegDrnAs+yS6TKGooBOEgOwTKjSoFbvSLjChrkQ/lRdZoiHsLAawzy8x43ifZWCdB+aBIcKPox52UF9nzTTjxL3+LYMvn4Gv+PILNX8SLwb/C0MGvYX7cI8GLvXwAm7SbD2K9qKAp1TXKlpkrcFawsof+2TO4ZsFIhg3pkgCTFPN7g2DX8iE1mAuJMwKhfCglZUtlvZZRyTIoOlInbFAErEHZwLdKXtD4WjYk3Xk+7sZ83I/bclWEsJr3YrMUMqSROG0kPL8xoVkm8UKqKY2VtJLLdwRM8My4nJE61hJjbMyklpxf9wjgEMGqjMU4M2WNFQgkCNYhwWyUlP31Iq8b7brSmLjHELBR7MZGIYQN02RYZ6tyNXRhlY3GZEjIMYzzNwNbyiqB9E/5kmj6JjB2eZW5Zp5+2UPEjgUn55QgkT/fE4tkXjE4rEENnFmuMCYbc0FsFoICQIyzWRRMVsSYrhGgBFDkfjql7L1Y4dcRs0Rw8j4kUpWsFVURDE6UxMDY9cWHZnAlU4mJNqR+DaGWNHlHWyRO5M5YKs+S7VwQDpFBSds92WPWuHGzaGqoXEd6mAY3igpwVVilAkKiCN6fazmvXkVk2thjqWxyTzEk19NGKYjNUhBr8mzsSv0F5QOCwbHLS6e1jYpZlmwp2ezi4ldiCWJD+of2H5LOMtJEKtEkxsGXUod0TDZMDYocSwaYMGoyaLonsy2SL4bk+qAxdmzaYyAbIn9mU2XKhmbXNhkgJS7XRLc0vrVcN1Z4veW1fKSESBYBZv1Yz2l8vMvZbXkXk/T1kqnVHMuHiVKg0jwlGbRJQgNwSH0xcAZtABO0ZM9m0dQIg1WAAalhASRsB7BeYjNQoypZlkOoDJrZFLDG5lqJkiPQEFZFGXrFSfYYh5CutwTvT/YKBaMAJT4BZxJkkiDnTA+hCkmaxMVuLJIhOJFyNzZyIWxlVWYbhW7ZKHsYLCWeC2AjE8CmZJtgDJMEzY6eCWE9o19T68VuyBDntBXSLimNkBnrljMkQdRF++z6aaqFt4PWOZWyOWnqNe+HKEPUoeSXMTDrtGVKkWpQwHqDOCiDLdNphXnW64QBK5kOQWpMsqpSXi9pMyK73LvF/dJdu2XvRkm/nSVgBl0MYFPuTAYTAs+vFkNYLvAa0gyvpX1Yy/DO1h6wVtgve6k21vddk2mRaUlBicqkeRIgyaACrLTZH1SxSgBlPBESsOywkl3OZKfYrSBK2lw2i/tV2lynYQZRJFHazNYnQsL+VjGEu1VXljiUz71u02DU/jrBsL6YIdarXC8E241VZiTHT8lubNIeSS11q4zpn6XAEiGJ8ptyV7tSigSZC2nSbEkWuuHYopGSuRtN3TIjZJMZ2yJY+R0QxwxOiJEAdI3q4FXDD4XNojYYrT2Vz0apW2xINzZdWVRkmgv9EbhkRaSnzYZ++ZGxNRnC1oT2FPqmOkTKpqvbxqp2ukXKjJNniM/udbDmNgtkjUbIptaLBt6NrYIfW7w6KF3WcPV6qRtbeT/uMssTlOd+qUuC4rWyxq+krE9Usi5fTLou4AvdIuX1jA/redY2r4purLLuippRfqRsFrygWjYm2Py07uW92GOWu0QBClhx0D5Lb6vwAraKQdzlx04xBMfWBDur0Tb1LiyzYVHWBMmZhyk7BSE1ILVupcJ9DDigdydn+fDQLyHNhsqYoGmXxPEeFlUI0SRSz7NTU8IicTZOiY/nzd1vpckymGCdMusGKJNh+ggze5flJSUnYAmMQ7PGGpODBFd4QVheE8cEzM9B7b6s6Y3iC9gssZZVYkoQ61DB8mqRbAhwKqZbsqT/2tEfz5psGXnLFUM/8t7MtjmKf5UnAYgKpSurf3mX90vpvTTxArYm9ouUtd674bgrLISwMWkajXRglTO/oihPAWG64sZEtzAnYNkJJesGLL+nSRolxy+orK8sS2aX14tkjNmV2vMbBVnZauOT7Eu2jT2JiWdIIv1zfze2Sn6NzwDfKnSpvUnWeTfuTgZwd5KNlvEF8b9mqKT5V+qijAAAAABJRU5ErkJggg==;" vertex="1" parent="1">
          <mxGeometry x="40" y="280" width="60" height="60" as="geometry" />
        </mxCell>
        <mxCell id="WDatNG11xKEBm6-NoSf6-12" value="" style="shape=image;verticalLabelPosition=bottom;labelBackgroundColor=default;verticalAlign=top;aspect=fixed;imageAspect=0;image=data:image/png,iVBORw0KGgoAAAANSUhEUgAAADwAAAA8CAYAAAA6/NlyAAAYv0lEQVRoBXVYCYydV3V+WVpaISSkigaCkiYkDZtTKCkKFMTSllKhAvWWZXZ79v3NjLuoUmmLqpLE8b7G2+zLmzdv5m0z3vfdHs9qe+yEkoYiCg0lJUmTkNT+qu875773HNqRru7/3+Wc7/vOOff+byJL49ewNL6AJcPXck1jwwtY+v+2q1gWXwDXLdF+792G9nF+eAHLhq9iaeyqej4vH+bzldz7Ur3Tlq1fIrtm27DRNueI85rbvIZlxEbcvk9YfA0xqY1cx5KR5+05fl37I9yQd3KrI4GIX82BIbhAxoja3kDaABhAAloW43prJHsrUZLIz5u4Zt8AG0DDQKIMiBE3f5x/l//hBSwZuYYlI/m9eh4xoZbEryNiUTJ1g6IyFAuqWwbIsatKcCaSR9ajvJQq0rgikSdqUfSsEOirDt4I5sm6uCFC8esgSEVXPm8lTQFEPszl9uUx2LwJRlwRUzCQ89QJxKhgjgDT04UJfS6lCxQNY8FGrr+ai7jSPEQ3pKQygKKYwBbFa1jMtBTpBSxRxrD8LHuUnaEUXXStleCGlfbEQVFXhEMteN6HOnBHdByaZcCCQNGwjHv6KHWGr2FxwXo+5wQdvqa6V2qrTq9iefwKHotdxXJm0wije1WZs0Q997IG6ccziZGkgCMhEBTaxF6SsGetZVoLX75XVg5fRyRMWMp6yuTUosKeHj7GdRYFd8QsoEhyUgjE60bZkLdhtbyA5UMLKE5eR132BRQlr+HxxAKWx65gmbdwrhhZI22lkg8QseTmR65jcWG0lVnGZ7GTV0rnNriai+PP2+nLyNFALmJB6aCk15anJNfRoBl3gCGdJYql2OLYVawYm8XGqR/i5L+9gudffgVnfvQzbD//Y1SmXtDpzZNcda1MMLuM9OJhizgFpx/LOGaOvZvvW0/lwG+xTmtF2BULtZIjaGRVQ4VzimQQwqMbUk3RdHsFZHWFsf5iV/D44DwGrv8Er735Ft75nxu4efMmbty8idfffgeds/+B4gSjchlMaxIKQobD0E5qP50dSy7SCpD553mjvZ6heh5eyB9aTG0plIuqR5TKFtbSuwjLGQ8cRcOccczUZ/ozsn4lxS6jMvN9vPhfr+LmzRu49e8mvv/KL1G97yUBDfYsQi6sbLmgtwSG8x5xlpenc8iA0NNWJHcleD3kVSVhT81gvFAtjunDopCkkculoyJuV43qM34F7UdewOtv/PJWrv72+lvvYM25n6qUSDhEJdjLv9s1IzEUoIIyy9U18RVkiAshwjp0XBU7FV0tPyHzCnm0VT/vJmpRpQgh7UxMq12m87Lhy/ibg/+C1956E8DNXyH95jtvY9vMv2NxQYYU2pBtRTlPWCe5AmMBsvT27AyB4vnit49FWAeOA/ZFRpIHkyudO6WpGgWx9WE+d0fLuJPUs101S/U5OY/GiWt46ZXX/8+U/tl/v4HV53+Y+2w1DFav+a+2PM6lDAhLLPdllSeaw6eIBw7+pRUMCzzT1tXguMiFuhb5glrJkeZJysiSHPc7YY+2PjO9jlcmrmLw8st47fW3cOMG6/imyL/9zjs4+8NX0bT/eSwf9O9vRdPKhB8ddqWZfWUlffqZYvc/iVmkhYOnt2qbItmcPi2NsOd7QcEvGeElH+7QcMe6WgWimEBm1JTNEw7kdWoSdOwyqrIvYuvsT3DypZfxo1+8hn/9xatIXvsZ2o79AE+mruIxXkv8GPGvMfsyM5uMdDjQgm3hz53Y+S+rXz2D3v2lpehaDVotUoSCmhzxU5dCvCuSdg3kQRrYQhHsbuUPCO5dHr+G0vgC6g98Hy37nsfjIy/oV5XZte9ws3EFLAdmT+49zjH/1A1ZwGwUaRebZccMc04SJ77ALy1GzEN+S9TCRicc0lfrC6Ieaj4XDbdXcEKTRIiSal1fawtYTvJM9dgCHuOaOMdIhAec/4TUYUeyRlKkHYtEVkbmsQZiy1iGFCDMO247peWMuX/rxlAnUl1zgWi+D1eDUllgrdbkWKQLMsTfCXRZ3NfFruhHgWrUU3557LII2+/oPHm+067Ey2WZ//JixkkIzyoFwAnr2cb9W9oPoly0vJ79PXcQ5aLLzbZGhJXe+XdLvZA1Rlggg6A6wBjZK/r6UpQ9otrr39O8ytQKIk5SIVv4Y4MC5ALz7kPTBTD89j3gv4eNcPg+tVrwXypMc08Lndh+OASioScQ7fcoBkEs8lZ/ciwQ9pkpov5PApLgfIi8/RQ0UXRQiXQga0RzhF3InH3hDVmYz1pmcMQA271qREOk7EdELk10JeWNBON2BlAUU1B9AF8wlo+KAeAhlKtTrmM0uU817T1JqoYLes8O+zgxIXNRD2IWRlqZaBnJIET444C/JPIR8YtctWJ1oci+u0aUWuGqKribCUiHFKNRcCcXpqJsFxyGXmOq7dyzHVqMog46jVvd20lP4VxkP/BI3A4pw00cITCywQiHT7Pw88nIhZ9+3EB17D0XTZEP0SYprrsuZ3KQ+yS1MYpp38Z2h+c+ZUP6hxTUu9mzTLH/cki4QCYWgmA2cxmYCwjHbY3NhZ+SdqZE6vomUNs7gbrecdT0ZFDXM476nizqu+29tjuD+u4MarrSqOFzVxZ1nRnUdWVR25NVX9edRi1bF1sWNZzvZp9GbWfa16dR05VFfWcWtEkbtV0Z1Ha6be1NuT3az6C6KyW79fKdRi3xdZtP+iHOhp4MGrozaOh13L17xaGhZxyN/Wk09KXR2LcXdX3jqO/bh0jv2nJ0ry1D15pSdD5botbl/Z7VxehcXYzdzxaDz3tWl2D3MyXYvboYuzj+TIn1q4uw65li7HymGDueKcLOp+151+oi7HymCDueLsIujj1VhJ1PFWPHU0XY8VQxdobxp22cNmln19Mltv6ZYvnavboIe/j8bKmwdBLramItRdeaEnStLUXvmjL0ritH77pStb71pehfX47+9aXoW1eBvk0lGNhYgUhsQyliG0owuL4UAxuKMbi+BP3rizGwpgQDa4vU+tcVo399EfrXFqNvbRF61xShj89ritG/ls9PoHfNk+jx1rv2CfTp+Qn0ruZ4kVr3s0+i5+kidHNu9ZPa08ee+1c/ib51T6JvDeeL1Pc+W4R+99W/jv5L5Z94BtnWlqgfWFeEofUliG0sQWyTtfjGMrANbylDfFMZ4pvLMLypHJHElhKMbCnDyKZyDG9ibwuGN5ZhaFMphjeUqo9vKENsYxlim0oxtLEEet9QAgrG96F1FK0YQ+uLMbihxPsiDG0oxtDGYs0PrC/BwHqKx3Wltm4d95citq5EdmhvkPY4v7HE/G8kDvoux/Bm4iwVXhIR3s1lSPB5cxnGtlQgsa0cY1srMLaNbQWSWyswurUCic0ViKS2rdSAFmytQHJbOUa5cEs5EtzEflsZRreUW9tcjpGtZUjQyZYyJLbyvUKiJTi3uRQjm8s1T1UTm8ql7sjGMoyG9y2lSGwpR5z9pnIktlRgZCvtV8imfHGtxsrMP583G/DRHKEVSG6vQHL7CiS3rcDY9gqk2J5bgdT2FUjvYFuJNN93rETquZWIZHeuRHbXCmR2rkRmx0pknlvpi9ivQIYbd67QpmSBoRSV216BNPttK8B3jeWeCcTACADHCew5ilqBFFuY30FAK5ChffqnTwZiR4Wek5x/jnutJwnhEt5KZHZUQjx2sq/EOBvHdvG5ChO7qjDO512ViOzbU4m9u6swsXslJnZXYe+uKuzdaQu0YVclJtwQ3yd2rDRjEopzK+UsOKVodGptJbI7qpDdtRLjWke7Nk/nHM8IIEUnIAemtQ54RyUmHAPnJ4iNOHdXYmJPtfDu210Ftr1838PnauzTs79zbA/HKhE50F2NA13V2M/WWYl9e2qwr7Ma+/i+pwp7+dxZhYnOYLTGx2jAxzqrbK+c0niVgcn1lbeA2UtbtM39XVXYv7tSNumP/vd3cdxw7N1djf3dhkf+OjlPTNbv76zBwa4a7O+pxYHOKhzorMX+7hocYOsitxocFEd7jxzprcPh3hocYuuuxSFu7KnGwZ5qHObinmoc8p7v9sy11TjI9Rzrrsahbjq2tRKQ7921CILS9oHOSrMte7U4yDU9Dor+Zcux9FbjcHctDvbU4khPLQ731ObwHeqtxeHeahzpqcOR3loc6avTGq4Tn74ajR/qqcEhruFe9n31iBztq8OxvlqwP9JTj8O9dThKg3zvtXa4txaH9Fxv432cp6N6W+OOKBYNH+qux8GeeuyPVSMzthIjB0qQTqzQ3sO99TjcU2f7e+irTmTo43A3xXeftN9b535JkGsDvjoc7a/FMfrvr8/1R/vrhYlcjvbX4WhfvdoxcumrxbH+ekSOD9TiODcN1GuAz8f7+F6npo0D9TjOee85f3ywHie0j+tsjg6P9jfiUH8Deg8W4Ts//yzK3ngI5W/+Dv72559HeqISx/vrzNZgnfs1cMcH6nB0IIzV2xzt9xuOY4N1hm+gQftPDBFDA9ifGGwQnmODBTg5r7WGT2sG6hE5MVCPk0MNODHYiJMD9Tgx0GiG+E4Dg01ukO8NODXQiBNDDTgVa9Dak0ONtl99I47FGjB8oATFrz+EL954Hx6+8Zt48J3fwKdvvB/lrz6I+KnHcTJWZ/7ko0F2TwzWy//JAbMnu3wWLhJrwEkS6G+y51gDTg024dRQE87EGnGK/inAYCNOxIwT15MPx2mPpCOnhm3D6VgjTg814kysCaeGG8H3U2zD1nPDGZ8/E2/EmThJN+IM54eacDLWiBPxehwaacKzl7+MR99+Lx755XvwuR/diQdeuhMf/8/b8fAbv47alz+Jo6kqETk91GBg6ZsEaI8tbuMcEy4ndHqoWRhOxxtwOs49TerPxpuE42ysCWdpi9jIYbjBmuw34lS8CRFuPDPcBG46S/Jh83CzjcUbNc65c5qnQe5pxlk123d6uFl7Y/vKseyV+/HpV9+Dj/zgDtw9dSfuPx/BJ2d+HR/+6e344qvvRexIMc6MBF8Ea8/BHjGc86a53LyvFbZmnB1ho39iNbyn4004PczW7D4CD/MROTvSaIvZc3O8Uc5o7BxbognnaSwYd8N0cG7EgJ0ZacGZkWacTDai5cVH8PAb78f9l2/DXQfvwL17I7j30G24+8TteHDhNnzm5+/B9tk/wZlEo9kfof0mnEsEey3u13xzXP4TjkFYmnBupAXnEmxNOD/SjPPabwLw/SznhNnGaIdBjXCQC86RgFSlI3NyIU5DbpDAOO7Gz8dbcJ6E3TDtHE81o+HF38N9P74THz5+O+5NR3BP8jZ8KB3BfYfuwIfO3YZPvfg+bDv7Zzg32ogLtJdoxoXRVlxItIgY7fNZAnBMrdX8KggtOD/q+IS9BRdGW3BhhHhoj/Mka/j0PsJ5Em5E5PxoVIu1IMHNBNCsBRdHm6EmUHxuwcWxZlxgkxMDR+Cn460yuO3ot/CVY/fgdyfuwN0Zkr4Ni0bfhy+m70Hp8QfxnQtfwtnxWlwca8Mk7Y8142LCbZM4fSfpowUXE1FcZB/Gx4jP19A/8SZaMElcoy2YHPPnsVZc5HiyWXPCmmiVGEaYm4PhsaAqFxOQGeO8HBCgGgGZYa65MBrF5FirlB1OLsefJx/AR3p+DXf33oEn04swka7GZKpDeydTtBnFpWQrJtlIIknSrcJBUufHmmXvwhgJRvMi85nkki4E95MgyarxuRWXUi2yT5sUxIRqQeTiaJMGJlOtuDQWxSUCT0RBUJe4eMw2TKYdXDJq65N0EJXjS3ROpwLchKl0K7LxKnTEH8Wn/+G3sLPrCUxR7bEoZtLNmE6ZrUveT45GcVHRiOISozpKsC24pCxoxWSiVXho/1KCuEysC2OWARSM+CeFjZijRpg9yTtWPkeCKoFYUH7KFzGyUykqSuMuAMVJ0hgFMkc0djEZxRTHkk24kGzAwMYS/NGXHkbn95bhaH+Dams6TdJRTKfbcCkVxVSa66PmgwKOtQisfOqda0ygi8oIimPZRMzamza/wpyK4hLtp1owJbuMtq3j+shUqk2bTBU6b3EHUUxmSNSckfBUsg3TMuIgSTplzqfGWjA92oJTsVaMbi3Fhr/7JpqeeBRf+cInUPn45/FXtV/Frmcex6H+JkwyXd0OCU/TBm2lW+WbghD0VKZVYyQV1nMtm4nVqmwR6TGKZvtFNElRbWyS64k9FSVhe2HPDTREZzKSsYjKCZ27YuacxrmnTT2jf2KwBVv/8S9Q8dhn8YeP3I+HP3kPFj34IXzsobvwsYfuxte/ugjbvvstnI4za1ol3oxI0o41CehCBvv0yzKYTrZp3UWmL/c51oCdaxRAieU2hdEyifYijBoVmc4YAKYkFZ7Jhg0tmMlEMc13RdkizTQTiHSb5ln3/Mn2981fwyOP3I9FH70LD9732/jEA3fhgfs+gAfv/yAe/f2H8Nc1f4y93TW4mGyByKZCiltEGAmJ6JFk6lsJEE+byogEiddS1iI+nW3FDMVPRjFDG+MtVl5cqxKKSmBFmJtl1GtqOhPFVNbSRqmTYRQt9UU+04ZZAskZM5AHu6vwzx3fwDe/tgif+cy9+NgDH8BHP/IBfPyhD+JTi+7B17+wCN9b9Q0c7KvzOo1KrJl0G2bp0+3xXS3Yp+DE5mVADDPE5FmhAIWs9D2WHRbZcG6wliPTGVNwKtVuzmlcB0qbomyGWbsE1YY5ks0yqu0CyXmJNdqGc/FGZLuq0PlP30a05gso/vYf4Nt/+jCKv/k5NK/4MrZ/d4l+H0+lmxQhAp/LtmHO65j2Z8edTNIyh0KI7FibRYpk06xH80sbtobr20A+JMtMmfFAKkjpdo1HGE0ZpAHfLHVJJGsGSGg2G8Ws+lYJwjkRz4YUNOCM+sWxJv2U4z8G+G+j4/21ODXcrAPp8oSRVJrRH8VLuR8JYKk7RWL0SQxMe5Lx8gm9hPZI65CjnbThES/u0V7LJPqMMFXNeRtmxttdOVOL4EW2UIgUFTWyFIFAmN7TEiCKmVS7xGEG8GqYTDbhUrIds6kWEy2sJ3iRyfunXe63lHaQKUt3khdRYaJ/j7RKy20xiiTNtHaByM8Cx/3tiCiq2SjmXD1umBlvw9x4iG4g73XlkZ3VvJGby1p60yDBzo63Y46EMx2Y9FOcfigC2xwj5+lHEior1R5Lpx20zVSfogC5fRY9raVozEzaC3g8Qym8MiNkhB9YIWsjipAi2GFKOBgCVhqrRs0Z64sppjmmNx2Pe22n2zFHonpnRG2cgFn/TFvLjKitIRAeVMowitmO6fFW1Z3WKQCWOcqytAlB/3ZgWuRImBwsszzzQtRdMImkg7ENkRwpRilritGIDpOU1Rtrd2ai1eZlJC8GwUm0cRJpx7wUZiRdCM5THI8a7apufZ9qjvZVs55+XMN3jfvh5IFQTWs+COjzXna/us/WSZhslCntGxm9VIciM59sw7xHSvN0MMH7rUN33FySBxT3eQpnmaZ85/52zCUZfYrS4Y0CdigzlPJpiuf76V9Zw0OxHbO0PcYSMdEYHc1P0Ge7IjmXsoAo0kp5O91n0x0SmvMiyKzxTAk8I4omoyOFWLvtmJuw9JSaBM7oqD47PG0tG5gRqlfuUYpzvgPzBMexLMukQ1fNPLOFaU9xePVk2zHNjPK6nk22YpZrKPQ4hVzlJUZfbbgcMobicF77+EHkgugwa7WaHrcSyWUIr1MvwQiNz/MEzBAsI7vKa41APUqK5Cql9Fx2FeZz0aPSjAYV5XqC6VBai3BIY82v8nrvsBpkNoQoKxJGjPZZzzOZVU7KMnAmrKdgIu/reQjqgPJ3ieVnBrPWS8cyrh0ROlDtZlpz0bM05gFlSorIBN9NBEaHYyYI656t1YQKBxt77WE5+GHm0ZBzZlQoG42bP0vldt0UVnfux+2aL09pCepraY92xjs8AHn7OgTli4dWmqeukZ5l9AoPr3QH5lItlooTVPovC+qSkV2FuWQr5rmOaUTxFAkS9AxJNWOeQk3w+vHoKSsoZgdmk81Wu7rmWIMUj9Gn/Q7MJVswz9rmGcL1utY6lFnTaWZLM+Y8+mGegZmhQOlV+liSf+cVmeeXj5Qy0KZSPnp652ISUCRD6lgtKcpOUh8DXBuyQfv8/s126Bri3am70muQUbT7tMM+UZX+Hu0QeWWT1bTuU40Th2dRKD2vbY7znCB2O0zt7OB7xA4Yqz2C54J5RccPHE9rnbKcD9+/JKPMIBA6dyHoTIBIgBHxqOm0DfXerqjy3FBE/Y4k+VmVlqWm9ufshiDY9advAZ0ltOmHIdemWo0Db4XcXmLjLdGByNzedsyzxthTSdVpOKBYB3niPNyUqkxvGiN5iiChKEYrZijWhNd4mh8Socb5wcDvcKab7dcXF6PiwEiWz9MaM/JW/4EQT3crFRKey9q5QywkN59t1g0zu9dxTbRgXvgoFk/uVvwvBVPYjffOXZQAAAAASUVORK5CYII=;" vertex="1" parent="1">
          <mxGeometry x="100" y="280" width="60" height="60" as="geometry" />
        </mxCell>
        <mxCell id="WDatNG11xKEBm6-NoSf6-13" value="" style="shape=image;verticalLabelPosition=bottom;labelBackgroundColor=default;verticalAlign=top;aspect=fixed;imageAspect=0;image=data:image/png,iVBORw0KGgoAAAANSUhEUgAAAD0AAAA9CAYAAAAeYmHpAAAZvklEQVRoBX1YC5CU1ZVuULJxN8nWVsqARDSIIqKFiZFUQgKJrEQTE11hUJn3DMyze6Z7BtystXGTSm22VBgY3jDAvJ/dPf3umeENMzyGYZin8nC1ssZsknLXmEqWYAT5tr5z7v27J26tVb+3773nnvN93znn/v/gyvBfxCr/JawK6JMRuKi//ZeQYR7Zk98XYe1lT86Y8/Qhz0VkcN34tPacZ/jfkPNc0zjqj/ay1sW5tbkkfjjXs8aG+GwcM9pYum64yN5lrBQsOq4MXBZurlXyg5PLWOW/jJV+89uIoPspEk5A2U+3VYfqJyUifTpgjHCrrNBGmL8EPVWotNgOptSaEDEELVYhavEFrxhOV5Rj4BKEdMqIYC0RSyKlnGTDAJVgwRQ5za6pEpMNtU+rJAFnz2gcVoyKQDs9L76YfVMBFEUrK82XyZqtUEfYwCVoRtN5qPArA1fAx2R6KpAp2ZLM230z+unYrtlMpgEmyC7OTTuk2xqwKpo5a8lZO0PStpUdlYxmWUU2GTeJUAHSyaYEsPasZIf0SpMFKe+0jKwMGicEQlB2b0ogu26Ip2VMzogPK5KOTjbsnpQ8RaIvzaicFSGIQWNoj9o7Ic2nxWUqVfw4Z1NCMK5LSegiFyyYlUH2AMsh/RJQuwz2fpDr2icEp+cs+UtYZXpJ9iRzF7EycFHOSSVxXx5LyJagIRe8jAxDQKvKAtdS13ipPtXkUATDxcFvbCRJjCGZTgHXi8yqp2CUNAFYhzoqIC1zVdWWuZ4XUP5LWN11Ec8H3sALwdexJnwZL4QuISPIJ0VCgab5t1kzFePs+y/r2yMdiyVjKkGSaFpIy51+rThMlulpzdgVyc6zxkAyzYwa5RwFpcdpO5VkqvyMiHwtdV1EbuQtbDn5Do7/8n2MvP97HP7Fe3j51FvI7dIqUvKX5IZVgVMAbYnacWrPWjsr8iWtvuCbkm1bhQ5uh4e5vcUZSy1dEZa1lLF1bkiaFpA7IO2d7pSgeeWt9F9EZuwyQlfew7UPb+AmbgL8/82b+ODaR2ga/zVW+1nu9K/ALUCbWSErWeddofGdOBaHWWeGickmyak+uy+kNY72tPTkFTDLVm3pNzG0a5/Mus2uvXhSmaDzi/jZ4Dv4/dUP8cn/buIPV/+E6r4reC7wRlrrpL4TFDz92Ioy8a2okiSLSe2cS1dw2/ZJjVYQc5HZQyarVN88NrioaG5aR232rO0/e5lJj13C6sAlNI7+Bjdu3PgkZwAf3biBfRO/QUY3+1S/uhyCTs+SsN4t3JvacgarfFCl409lW/vbCJfW8y4nO3Rub1STcfatVUfLWefaBnSmHxRTSslUx2r/6zgw9Gt8dP36/0n6xscfo/Xyb7G6W8vb+rDx0ud2jXEltl+/suztLoKYuHIZy2/is4SnZjtFmoZp17zj0PSJBaEBrpj3qSFuVTTBeNM/1/kG/nXwbVz98Jr08lTmN/HHax/htcH/wGojXOrWNZl1buWU8Jbc1NdTWmYlvrF3zit5KxyFmPLtbS+ulEF6QL1hnevflJ1WgFFVXjH6WmHJFoXexuCv3sONj1nivMj4303cuH4dA+++j8Lkm8josqWdBs60iFPScmmZck67bEnAYtWRc2un4pGTJkwvQ34ap5FO3d56o/LjgQfVCTOfcmx7za6Z7FBpAubT9QZWB96At/dtRH/xO7z7wf/g/atX8c7v/ojet95DcfId8879/9696f5NT08pWQrF2KxSMzo4dW5FUYH0g8iU9yU8KxeFghdDe0saIjaj+pGirwclaIiK6iRsPyUV0OrQZWSG3kZO9C24e6+gpPct5HRfxKounuOfkbSzf0hwLfWbOPTS1IwqrrSvPhFAKyRFPG1OX/yyk0QYXLa8rRp2VPX0sAS22TOqOnYCWBVVx+b7PA2MtbV3hJI0wJwvLjtPA2wzaGPK3WJfn7aE08Sw9qbt5FOZaxZ7Wix5ZRFYBm9GHhAi5vtXHPG3VoBTSg4ptZdz8peS+UPfCaDlKXeFqRwHBH1YQI4/u6b9ZwWT0Zyf0rOmpKfaWQFTHzSMY8U2PZ3q5RQpzZ6da1A6s+tpGTVg6DTdsQQSMkYwK6aQtSVsM5s6KzEkq+aSsmI5vtSfJUr7lBAGoyOm4qUtyVr8cpHZQ3ZUR/ZjIEXW7qdEMJkxFSHO07LGfpRgDOh8IhqiVgQ7yjmWre7Tl1ykU/aNgI74ltQV49+cd6rC2Ds+dO6UNy8TCWQU5Q1uLy0BIgc1iJSlo54Scr6q5CJLvR70YqMN1wxh54Iy6/Q9ZZ9/PKQE4DmpIgueApp9CitJsLg50s45by9DK9BluJg9daCL9sJRoqqMLQvdY2nbd5+pAgGttsysiGUA2pJ3gDvEUwKovT2v/lPxU/eCrtnWmorNYrRfjnbujFYw+UcEXgbm89MxYPmwROQz1Kp2Gc+KqswAH73EHAFsT9setEFkVJE0KyxFAtZHsmTnxpb+NXs22/qnrFQiP0GlUizpqS2mfrXcRaQAcVs/rIo34SppTqK4MYmSpjiKmmIoaUygtCmO0qYEipvjsl7WGEdxYwxFjXGUNiRQTJvGGIqbYihtjKOkMYbShihKGqKyTl88U8Jz9CVjTM6VNdAX1zjXeLQXO/prsvEVU0kzYyUEB3+XNSVR2sgngbKWBMqbuBZDWUsSZbRt6QU50a6sNSZPeWsvSluSKG3tg7slCVf9a9nY/1oW9nN8NRP7Xs3E/lezsE+eTOx/Tde4XidPFupeyZSHa/bZ/0o26l7NQt2ra8Df6isLda9lYd8rWbKmtvRtz/G3ic9xYzYOyJOF+o1ZaNiUjfqabNRvykYjn5ocNGzKQlNNjsybanLRtDkbjZtz0FyTi5YteWjZkuM8rbVc45OP1m05aN+Wj/batXC1bMpCS00mWmqy0FyzRn43cb5xDVo26dNck4nmmhfQvDETTRvXoHHTGrFt3rQGra9lgSP3WmrWoFn8pZ0V20zx1VTzAlo53/wCmjcz1hq0bsxGC39vzETrlky0bc5Ea20m2mrXoG1zFtq3mKc2Cx21OWivzUJbbTY6tmShY0s2OmuzZK2zNgdd27LRtT0bnduz0LUtB/5tuejanitjYEcugjvy4N+eBVfH1iy0b81CZ222OZyNjq3Z6NySg3aODCRjtozcI5COzQTA4HY/R87JGu23ZqNjmzlPO2u/LUv91+ZIzK5aAstGlwW9NUfm/q26HtjOMQeBrbnwb89FYEceAjuVQJBEZC0X3du5lovQjnwEd+Whe2c+ujnuykdoZz5CuwrMmA9XkEbmYHB7Hrp3qGO71r2Nc3XONTr378xFQNbzJBCDBXbkiB8bOERbWc9C904LNB+h7XkIEvTOfBm7d+QhtIPgchHeSbB5Ao6/Q7vzENmlY3hXvuxzHt6Th/DuAoT35CPCZ3cBIns455iH6J4CffYWIlZXiNjeAsTqChCvWytzlxrmqoPd+QjvKkB4dz4iDLInH1GOewsQ4Z4EyJNAUc735ost7eWMAMkTWwZO7slDbFceogdyJGh0byHCu3MNqHxE9/JRgLG9+YjvKUBsbyHiBLmbgAsQ3zMVuKztK0SCdjKuFTKJfWthn+S+tUjWrUVi/1ok961Dz/618vQe4O9CuBL7GMQEsM720hGdcizQAHWFSNQVIslgBLOvAHKWSjIA7blfV4ie+nwMxNbg0MBKdA09gfZfLcbx/1yKvhPPIFmfj0R9PpL7CyHgCOzAWvQQ9P51+vvAWiTt7/1r0bvfAD+wTn9zrF+L3nqd93E8wHmRrPUdKEIffzeYecM6HGwoQl/DOnlcPCxK0NGBQgnWQxDGUQ/V4cMgXN+/Dr0NtNUnub9If3Okog3rkDz1D4hd+zJqrt+BH338OZTdvA3/cvOvsfnqneg58iwONtJHMQ4KiCIcrCegYvQRWH0x+hoJrhiHGosELMe+xmIcrE+tc/9gYxEONRTjMPeaS3CoYR0ONZTgYFMxDvHhflMxjjQVic2hpiIcai6FSw7QOQ3MeLCJ83U43MA1MzaZkWtNxThMR3Riz9bTYREO+QtR97v5eOnmZ1F+8zNY99EM5FyfDu+1W1F87dN45eps9A4+hcNtJTjcUoKjzSU40liCI/zdVCzPoZZiHGnhb64X41gT7VJz2WspkvVjLSU41lpibEpwrKUUR1uLcYx+m3muVH4fbSnF8dYyHG0phusIAzUXiwGDHxJDBjWAZE/3CUKAEpDYlYjDYyJCCXobi9Ay8jh2fvx5/Pjj2/CP1z6L596/BZlvu/Dkm7di5X9PR8X1T6Hmg7sQ7VuF4y2lONZaKkCd361lMif44y38XYbjtGnjWIZjrWU40VqK422lOMF5G+e6rqSsvZLkGvfp46TYlsJ1rE3VkeAWQHMJuE7D41SxtQQnOG/jwVKcaCnFCTqwgVvLFXxrAXb99iH8841Po/CjW/Hcb27D46+78Nj4dDx10YVVF29F3i8+hYI/3IYdk0twvKMM/R1uHKevdn3628twssM87eU40V6Kk2lrst9ehv5O2pTL2N9RLmdO8JzxdZL77W7n7ABtJV4pXARORxJUVCnHcQZpL0d/G52Uy0E6pF1/mwnUScBlGGhz41i7G/2dpYifWoWf/mkW3H+egaeuTMffn3dh6cAteOzENDw1cgsyJmbg2fOfxpr/+ivU/fJrGIiU4mRXOQY63Ojv8IDABtrdGOh0Y6DLLesDXO+kf+4bu85y2T/V4cHpTg/O+N04JfskRtsynKJNh/o41enGqS6PrPV3eeAa6OREDSUoDTvL9RAP8jeBdZXjdIcbpzvdOOMvx+lAGU53uXFGbNw4eCQTjR/cjxf//Fk88+40LD3nwpOnpmFp/zQs65uGpSdc+M7ADPxw8BZ8951b8aP378DB3gKJLYAFWDnOdHlw2u/GmS43TstvD04HPPq7qwJnuRZwm7UKnAl4cDZA4h7Z4/6ZgBun/G7xI77M3pmgCuQioVN+jxpR3S6qQmLqiMSEnN+DQa4HynFaSBubQIWACPc/h+oPP4O1f5yBJwdc+M4RF5Yfnoblx6ZhxQkXlh6bhqdPuLD8iAsrzrlQ8u7fou9YJk4zTqBCssWYOvdgMKAPCX3yqcBgoAKDwQqcDervs4FKJU8BRIQKCEna0YdjWw4XVTnjZ1BjTGKiVgXOUqGgW0cCC5K0BVFhwLhxtqscRw8WwPvW3+Gpf5+O7x2Zjq8mXVjR48Kyoy6sPj4dK45Mw2MHp+PJxHQ8c3IGXhqfjZPdJTgXrMA5IehWYBTXr4QGuz1C7ByBh8waSfJMsBLnuvlUOA/X+Qxx7K7EYLAyRbbbiuOBS1SkCgFD0p9ST4IFGbgS/M0AEpCBgpUYsvNgBfojXmw/8U1kHZqJZeHpWNztwpM9Lvx9YjqeSNyG70U/h8z45/Gz2NewpW8ZEokXMBj0SsYEeFBBngsYMoxHcowV0liMJ2thJUZyJD4k+14hK/NwpZDW816xOS/+PTgTrIRLHDrqaZChUAWGAhWQMeTBearnKOrBuZBH5hrUAOtmn7mRjOXCE56P5aEZ+FZsGpZHp+EHwS+gPfpDHPQX43TIg9MhNwb9lThPsGEVWcB2+3A+5MX5MPcqcF7mFfo7XIFhrstToWN3Jc53V+p6SEe18ep6RGMwDv0OhbwioOucTAxBlgsJG3WHBZQ6HgpXSnYHu60YVN84JRA568VgpBIB/xq8GF6E7wf+Bo9u/xRebv+KrA+FPLgQqcQwiRFIWIEMhX2GqBeMQ79DYY/YDYVpSyEqMEwSnIe9uBDx6j5HWauU/eGI2Y9Wig3Pkof6UFvXULdHAJ8nmLAPw91efaKVOobt3GSAAUhWsqHgWRFUWEGx3LzoT5RhW/P3seT52WjfmYfhoAcXwhVgHC1XH4ZCPiHJuMzsBZJhvDABKx4SpEjDxBP2YiTkxYWQDxeixFMlOLg+HPWChMU2zH3Dhz5lz4cLEZ/4cIkKxvF5yaLPKJbKBFU9L8A0sAAwCgtgQ1hARSowQsARH7b9eBXuuXsOtrz0NE77K3Ah5MEw+5HtQQGkfH24YEAK6YiCpA9Zj3gxEjOEuEfgUWKkOD6MRHwYiflwIVSFETlLwj6MRNWW+yRtCQ9HquC6EKnSDIfUETNxIaYkqZ6UkajPAFUYjXgxSqcMZAEQNFUXUhx9iO8rgjtrCR5+4A5kPb0YP6/6Pmp/8jR2/ORpBLbnob+9GGf9VRhiZbHCCJ4Eoz6M0ndUyRKLxIno+liMY5USi3nVNlKFkXCVc5Y+RihIjORVJPKkX85dVEWVNgaOMgxqwfgwGvemVOUZA1BEkaxUor+zQv6t6seex5Gx8hF8ffE8zJ9/Ox556E4sX7oASxffgyWPzMWT33wQP61YLn/JaQaqMRqjf2aZIE22JWNVUMBejMWqMBKrwnljI8KTCAWLejEWpQhVkrSRuPKxxC/QjoJFK+FihmyJMJMUQDLJQ0YAKjRqnBDkaJSqMSuq7rluj/wLxz+VfAsrvrUQi+6fg3vvnY0vL7gLjz58J778wF14ZNGX8PADc/DA/C/g3nmzsGTxPLzsWYFD9UUgoAvG1zDxOABtLM2SVIDE92E0YckqudEESSueMYrVUynZFrxSHZo0VpRkmj0jRIWkHhyJU2FmVNWlgiQ5Fq8SAai6lqEP5/xutG3JwPM/+AoWLrgTc+bcjrlfmoV5c2fi/vtm48EFd2HhfXdg/r1fxD133455c2/Hgvu+iGceexAHXlmDM4FKEXIkyowzhk+ySnG13BlL4+u+4rCiEwfLXspaEmJKWypA24L8eBewfV2j8So5QHIkxIAsISkpEjTBmHUSHRfS2lN0NBrxYTzmQ/xAIarzvo7FD8/FgvtnY949t2PuXTOxcO4szLt7Ju6bOxPz587G/ffMxIJ7ZmHRvXPwxLcfRM3Lq3CqS/uUWBSPkhXycQUt9wkFkadaEiBk4xpfEpLQ8xa/I54IomfYQkKaB9hL1olVV7LKjEZ9GE9Y0iwrilEtABlgNFKFU34v/NszUV64BMsenY+F95EkMz0TD8y9Q4jOv28WHpg3Cw8tvBNfXzwXhc8vQXDnWrn4xuLrRXySlvgky4xTCGbPJIBEmAg7Z3zBL8Q0SWrP8+asaU/yo0+Xlgid+DCWqDb9qvNxUyrjVNOQZr+I2qYq2NujUS/G414MBt3o3p2Dl0q+i9U/fAjf/sZ8PLpoLh5eeCceWjAHDy6Yg68uuhuPL1uEyoJl6NyRDf55SOBjcS1tvS+04oRglNVFbMaGLSb2VaaHDTFmmYkgZj6055y2skexqjESqYaLvTCeqAIJMogtE67xAEtXyl4EoI2WuN3nmfGk+hiO82PDi6NtxeiozcLef1uFjS89gReLH0NJ3lKUrf4GfuJegT0/z0DPgSLwLyOKPZ5YL6Iy9mi0WmMwg4bceJxrRhQRW3FIlcm8WgSQqmB2ycdWhrl7rFDDUZImCbkIqlUROhGy1QJEBDElJeSS1eKQZzQDXkzEqzAh/eQ1CvNLqQrDoWqMxzw421mOE63rcLilEKcD5fJZyJbgK2Y85lVCJMVqImCO5tKUucXE7BlCY/YOkgqgL+LVfWbY2WfZ87ytmJiPpE25msPsA8leogoTMR8mkyoCAVE9Udxkm0R1jaQpBkmux2i8GhPxarze68OlPh9e59mEV8hMJvgu1XfueIJC827Q+8H6YgxJBjHQhkkw8RmDGGkrD3GbXrXZlJK2mRaMFFSTOsGetgaqLsvEh4mID5M9DLgevGAITp7YeoxFqjEhfaVroirJ0jkV5qVHVZMK+PUeCuGVShAfSQtWS1bXzHn6iW7ARIQ2GpcCjLO6eM70LONPyFwTZAWi4CQu+CiG8wrUdlCsVXCxXCbYk476VRijQ5N5Bp1IVmMytl4yOZngnPsEagRJamZFee7JQ2WZ9RfFfjLukzYYT67X88n1kmX6ob/JOEvd9HeS2X3RVIHaTUo7mbg8azLOKpGS59uHlyxxyXmtFhGNHLgnbeKFiyAm+XUTY3AvJklEXglG4cR6KdXx2AYpNWZ/UkprvWSPcxEgvkEuNJYjS5uEhTzLkhVg7CaYQQaXfRWCgghwip9UcRlPXmPWnllkNcmdwlYicVaE3jEjsk/MzDYrzlSHtGSqciZiVXBNJDYYRdlzBGcUSvowwdKkcj1Vptw165LRnlQJjxEIAUn2Scj4sRUj5enTvhdbClUlfuWM7PM8iWkWWX2SGRIjDs6tXwprBZA1ew8pacViBTLi8G6irwRvb/aHqMYLYoO5HIxKsfWYiFZikuXRywMbDDFmkQpvwETUi0nJMt/tG+RdyD252Fgl0UpMsIp6KAbPs7z1GWNWYxVaST16XnqZ2RWQ6zEeMfsiAvHRN6tsPUZjG+S8ZF3akeuGOAWXfYptqtHcUS7ezlOyJKXHMuNFxId9po5YXiwd+x5Ucml9KK8dktOsSjbkNZTKgO05FcW84yWTWqbsQSljc4OPxb0yH0uy3E05C2abbWaUImkixnj3EHu6jQhl7KNe/AVpDWyzREeTUo42c/pOF5EIiheGlJcqyQtPRJIqYG9y3fSolJYpa/HJsrMZsP55gdk2Y2/ayiJZLU36n+yhvfVPzHpecJs3xWRyg1QUE8Z1tjErUnpa+pUgeqoxyT5hqVM1Gia9cnOTPLPGd6z0nLy7mb1K7XUjDPdpOyqkKRA/PMwtzVeg+fri20HeCJKNFDESoog8L1lNOy/2rDpi6/kLfNIy1ZiMV8g9NNGrwkz2eFUgVhIf+e5Yj/8FQlvZ3Qt0axUAAAAASUVORK5CYII=;" vertex="1" parent="1">
          <mxGeometry x="160" y="280" width="60" height="60" as="geometry" />
        </mxCell>
        <mxCell id="WDatNG11xKEBm6-NoSf6-14" value="" style="shape=image;verticalLabelPosition=bottom;labelBackgroundColor=default;verticalAlign=top;aspect=fixed;imageAspect=0;image=data:image/png,iVBORw0KGgoAAAANSUhEUgAAAD0AAAA9CAYAAAAeYmHpAAAeU0lEQVRoBYV5B3Sd1ZXuvbLBwwyZmeSBi2zLlqxmyTamGJMwlEBeQiAUV2w1F8nqukWyJ4EEQg+44t5kWb3ce6Xb5SoXNcvqzQ0YCA8mCZCXgQcJkMH+Zn37nP/qmmSt57X+de5/yj77+/a39zm/bFrivIQljotY4riEJc7LWOy8jKXsc17WffxtvBtjXHMJS52Xscx1OWxczxVbeo22Q7uyh+zF/S5iqf691HFBfi9tuIilDfw9qt45x8l5F/T8S2P93ENscJ+L2gfll8Ji/A7zz3lJ8JkIjs4LSHHsSui3OKqJCI3LXG3QIMNYTwKMxxgTUhSZix1hRIacJjAFxiCCZChC2K+eEBDO1c9i2cMg12gNkHzXfa4rAnaJU2EziZPXAVMTFWCDAG1AokvAiqTFNBKKtHaG0QtTi+FgyAE6ElKCsjsWcRXV60BrQiTiBjl/A1b7d53tsEAaQXEw0legQLvCwLkuYzEfEkFwOlIq0sr4dQrQc400CQfJKKn+6+0Y62WM9mWeIW2uMeRvgFHRC9kLA71YFGPMY/ttsKpP1KznmkIRcBCkioKA1TJe7LqExZqUMTmpeQTITQSEsbmuDxK9sIgvMYh1GY6Ftzr6WtZK0ipPucd1JEm0wvYP2TNqxtj8MZIMZarWZAAKOR+KHMEwF94KAz3G4lKSxHENxiBAkaikbowRMB2nE4o4bYf9Oj3EQSFOgyV5LtabMBWGRVFsyXojX5VCwyOt9ue4tkH7lPdi1xgocdyIeNgGBtMGsLGWzisgoT4xTOOaccclLHNcxDLHBSyrH8Ey50Usc13CUnn0aaBrhVKHWrukwYi+fjf8cSjyFLkKjOGfUWtUuijfjCCoIqbmmwwWVMvOK1hkMBNqDQMqQiH5G/loFDida4ZNgiDg1Z53sPH0+/C//TFOfPgJyi98iNwTl7GiVklSka1BSrroyJAYIZEFToOXVvlhVGMjugQv9cj11ljahee/rk86p3VkRIZ6w1Cu0tBY31jlHStAwqZUbdphv4rg4oYLSPVfgf/tT/DlV1dx7do1eb65dg1vffoXvHrmPSyvG9XFRx9P+jhSQDRYAnVcDNWO61LE8FMrjnXJiPyycIJCvy9BzmkDCCNkVG5uGgKrK/pYMTKYJkDlmEhTDBtyZHsBm3o+wBd/+Rrf/kcCLn70KTI8o1jOC4guiopAHQSRtEGkagVQ2JEp0TXm6Ugakf+7resyQetKqM9XgpbyzujKcxmLOIdVnGwaktayIdjQYziuK/hy52W4L36Eq1evfhuzvH/8+ZewnnxXE2fcqnTOhiKjlGMAkEBIESXxWoFCgiZHgCvSZE0oEJyv1BQmby1XAm18S1dulSMCmoBZXLScJG+vAzzmtBDpvIynHaNwDf8e31z95u+Avob/+9VX+MWpd7G4wXCINsZUpPI4/JZnnCgEy0ddhY01StZX9LmvbBq+qDmKDCVvo9JKJFWECUpJjmB5WTCqJp1QaSBOkclQPmu2pbBdxPL6i9jW/1t8/de/L++hP3yOtT4Fkjeuv3GQtrVkjTxVclZHJf0zCpwa1/uHiDPeFVjDhjqndY5IFB00qCPtIPCwIkb5SlS+JatvVW/aMT4U8rzvYeSjP+LqtfBoX8MXf/4aW3o/xDJJHX5QGNV77KgzSAjVFvFFpx2BiXTH1CGXK0mx630mWKk5QixzWiqzniQRZLlXwFWrNmGehxcbgzXmerh01G8t0YaLWO66iA0n3sOxD/4L//npF/jkiz/jwkefoXTwQ6S4rmC5fGFRptp5OUEMm2NSV3ZVhK/bQ0Dq+f/fQsZ5vHvr3KAhns+Lwu7dCpi68chRIMyq2xZZVtdWVcjUe9iVlPkvF4wrWNZ0GSlN/4EM3zvIP3IFmc3vIMWlPyfls/FbMtW2DZKN6y/9UbWE7ZgylCLCgeviHIqwURzVKTF299Z5EIogJa8lJ5sJgLC8M+QolTrsA0GI+XaE1PG3lJGQ08GI7Fg9UPvqEyJUYzSJhm/G1Tf8ONVzrzu7dTVnvofIEX+VmnQhUwxK/uoiJOzJRAKgc5fl6mhcPORLiAVOiglb47tYKUGOMZGeclyICx0tYxcR2pOHirvuuDEkPpafvAmKnfA6o9co0jhuRNkg1Aie9s95CSY1ecywKg5qomHIqOJkTn6HWNOGJbp0Um34N63MH5MwbYTbUpci5QM/ZK7PWeNd29dEyh6iAEWOyD7sXanUUKaao4qZcTnRuaLkMHZUMQLGZWQsv8KckNxTUVb3cfUZqtbw2kh5qcIox5pcJTXgsGul2oeglXMGaAEihVYDFnK18mSu7jfSQeSs7QjRYXPDAmO67u9LxlkZOncZcearlkzYQvYpJejok2VdlBTrBEfg6tNO/g4mdUGdAopgff009mNLuco+JNz4cNAK0n4YSjL2N8gKnQAhxY3ZMuaQUBOPIp6DfAxpheQsf5TTgKUS6iuqjsjYGa4qvKEGiZTjEp5svIxFje/gSfd7WNp4GU83jGB5/Yi60ze+JeAk9zVoIYh+yAmiTw1RoaGuscgZPhoEGeoQPJo0BVRLOyylTKJz+aD41hkojKtNFrsYERUhXkmFJB1Bsi1yDi8u/KSsG8LTjkEU+trxQstxbOxowEttDXittQyFgU6kubrwVD2PLXWv5/e2cpwkc19eJ7/VuvjZq/+MFSIjrM6I2gyQxnVUBU1Uock1ZZf5kVMZRHZ5EDnlfmRX+JBTHkBehQ+55X7kVPiRW+FH/mH2e5Fd7kPeYT+yywMyL6u8GesOB5FV7seasqNYU3kc6eU+7G6rxvEPnsXbn63AR3+dgw//Gov3v56OD766Axf+6xFsdb+O/MMeZFccQ17lEeRUepFTEUAO968MILcygLxK5VNulR954osPOVUB5HOsPIDcigDy+F7hF3/5m+tyK5vFRp6Me5Fb5UVeNfuCyK06AtPhjak4tDEVpW+k4tCmVJRuTMUB9r2RgoNvpKB0U4oeT8Gh11Nx4I1UHHyD81Nw8PWV2P96Kva9vgKHfpOGN3/zNA5ufBptzT/Dh5/eif93dTrevfod9H8zHmdwA1owAV3XJuD8Nzfj7NBC1Jc/jvpdq7D3jXSUb8xAGf3YnIayTWk4tDENhzanoVS37CvfkoryTWk4vDkF5VvSUb45VdqKrRxLQ8WWDFRuXYXKbemo3MonDVXb0lGxNR0VW1ah8s00VG9fBVPl5hRUbU5D9ZYUVG1NRdXWlajakoLKLSvlqd68EjWbV6J6SyqqtqxE1eYUVGxaiYotK1C19WlUblmByo1Po2LjctRuW45zvifwyWez8OnVSRi9Nh6uqzdg3+dmOP4cgfqvx8H51Q049E0EOv/yzxj8OBrnfD9DOffYtAI1m9NRvW2l+FCzJRV8qjezTUPt1jTUbktF3bY01GxNQc2baajj+5upqH8zFbXbU1D/ZhoadqShfmca6ranon57Ghq2p6OOfdvT4djJJwOmuh2pqNueArYNb6ahVoywTUP9NrXAwQ22p6vx7Wmok3kpsmHdtpXiRPXWVDTtfwq9V+bho6vfw4fXbsbAN/+AY1+Ph+vP41H6uwgc+v0NqP3AjP1/NKP0vyNw5psb0f9pNNo8P4Vrewpqtq+EY1caGnamon5HOhw7MtCwKx0N0mbAtT0Dzh0ZcO1aBeeudDTuWgXXrgy4dmTAuSsDjTvT4dL9zt0ZcO7kPI5x3io07l6Fxl2rYeJE567VcO3MUA8ncMHuVXBx0W4aU+9OtjJP9bt2cG0GnHvT4d2birbmp/CHLyfj/1z7R5y5Og6eb8bB9flNKP84AlW/G4fq30dg79sT8MqQCXs/jsCJv45H+5c3Y/ijaJx1P4Km3alw785A0550NO1ejSb6sDdDt6ukde9eDfee1XDvy9Dtanj2rYZ37xpp3ftWw7N3Fbz71sCzl2Ps18/+NfDuXwuTe+8auKVzlSzy8H0P+1bDvXsN3PtXw7NnNZp066ahvavh3rsKnj1cswre/RnwH07Bu+/dgT9d/RccvxoB55dmNH42HtWf3Igdb5mx87IZW982o/LdcdhxIQIH3zKj/P0JqPrTeHR+9s8Y7ngA3tJ0BPbRsTXw71sD317+Xg3f/rXwHsyU1ndgLXwH1sB/cA0C+9fAd3AtAvvZtxYB/pYnU7UHMuGX8SwESzMRPLgWzaWZMPn1ZBpSxjIROKAejtEo+4MH1sJP4wczwX7/wSwEDmYiWJqFQOlaBEqfxpXfJeOD//5XNHxtRvl/mnHgPTO2XzDjhfNmvNRnxktDJuy7PB6bRm/A7ncmYOfgBLx2eRyaP/oHnGn/EZr3ZSJQmoUjpWvRLLYzETyUiWa+S5uF5rJ14ri8l2XiSFkWjpZm4sihLBw5lImjZetU36F1OHJoHZrL2J+l+jj3cCZMzdKRqYzSyCGywUmZakGZ3rgsC0EaOZSlnlKuycKxw2twojwTg/7luHQxGd1fjYf7jxHY0W3C671mbOo24ZVuM17uM+NXA2asHzLjpYEJ2DP6PWzp+h42d45D9W9vxOnzD+Jk2TocPawcO3J4HY6Wr8Ox8iwcLcvGsXI1dqwsC8fKjXfOycLxw9k4zr7KbBw/zPccmXO8fB2Oc7w8Gycq+DsbxyvWwXS8LAsny3NUZ8U6nOBETqik8Sx5P8Z3MbwOxwwHytbhVFkeTtWtxn9ceQjvfzYTo3+agsOfjcPGUTNe6DfhtR4TNvaa8XKXCa+dN+OZVjM2nDVjQ6cZr3bfjJe6bsSL3Tdi7x/GofW3M9B29AmcrF6Llgo6l42TVVloqczBycpsnGLLPunPxgm+V63DqYoctFRmo6Wa4/p3VQ5aqrPVWlmTq9ZX5uJUdS5MLRU0qieL4VwxSENimON6zomqXNmU/ScqstFSlo1T9avwx8+j8OHVf0LL1+Ox+3cREtnX2k14Wcv6N30mvNJhxs9PmbGh1Yz17SY8d86M5zsi8FqXGW+8bUbLxzeiZ+B2tNRkCcgz1bloqcnB6Zo8nKrOx6maXLRU5eF0tXo/XZ0rffJew/5cnKziWB5OVuahpTIXLZzDPlmnAJ+tyYOpRYzk4BRZqNITq3NxuioXp2pzcKY2F6druAF/5+FMNTfIwZmqHByvzkOrNw29X0xG95c3YsenEdg4YsbzXWY812HG850mvNhpxosdfCLw4qkIvNASgV+fMGHDcTOeOWXCS60mbOw0Ifj7CJzsvhNnanJwtiYXrbX5OFuXh9a6PJyty0VrfR7O1ufhjO5T/fniE3+30re6PJzWPhL86dpcnKnhnFycqctHW12B2DNJZ00uznIyn5o8nKkqkMVn6/LF2NmaAu1APtpq2cfFaqzDlY7z78fD8ek4/GrAhC2dJrzUFoFfnjTh5ydNKGk14RfHI/DcKTNeOx2B19vNeK7LJMCfOWbGSydNeO6sGZt6bsKZ4CK0NuShtT4X7bUFaK/NR3tdAdrrC9FRX4DWBjqej9a6ArTxd0MB2usK5eloKEAb55Cs2jF/+d5ayznKTlt9PkzifF2hsECmznJSTT7O1heMbcBN6gvQzo3Y1hWgw5GPzvp8nGkoQkv3D7B/5F/wymkTik+b8ctTZvz7MTNKWkwobo7AM8EIbDg5Hi+fisCLZ8fhOa8ZzzZOwPPOCfi17zt4M/hP8BxdiA5XDjqdBWh3FKHDUYh2RwEIpsNZgE5nITrZV1+EjoZCdDj1w98ONca5nQ2F6CRJtCNj9FWtP6fXmTodZEyxJi0lIKxxg0JZKEw7C9HlLMA5buAslJYb07FWVybKA/Owpfk7eO34Tfi1dzyeC5ixodmMZ3zjUeAdB4szAr9svgGvHbkZr/puwiZnLCpq/g2Omkfhdi7C6aZV6Gy0otNpRYfTgnOuIpyTPdmq9y5XoYAiSPZ1OYvUPBf9KUKnw6LIISFCBMcLZc55VxG6GtV8E9nrcOaLsXaC1TLpIGAuJHMOAi7CuaYCnGssQJejCOedRTjvsuC8qwDnXFYcC+Sg7uij2ORPwq/d/wibZzxK6k14ti4CdqcZzzjHY3PzFHh8P0WgPh1trmx01FjFbreAysV5VyG66ZyTdi3oarTgfBP30Xs1WdBFMmTfQpx3WQUIwQgortFEyHuTskMCua6rSREpoCmpc04yxdwpFPkY0VRGuIEF592F6G60oLtRvzcVoafRiq4mqzjX4SrE8YZ12OmJxzMNE7ChyowChwnrfWZYnDeguu4+tDVZ0eEuBHOrg+TRcYJyW9DdxGiod/7udnEv2lZttxDNdyt63GpcCBFyCNCqA0GySBD7inC+0Sp+90ikC2HqdOYLo4yeACVTlBXZcxgbF6KXAD1F6GkqQq+7SEAyKj1NFvS6reh2W0VG3Y15CLiWotL9ILa5b0Gx5yZkHxyHF/dPR1PTI+htpE0rznvoCNfZxGa3x4IetxW97HdzL5JgQU+jDT1CiAXdbgt6mmyyV6+HfljR02hBLx8JQJHM7SVR9MllQa+H/tE27SnCTIwcmaOMVPgt6BR2FPNkh6yT2V5vkRjpZh+N0qkmK3r58N3Ducq5c4158DtWYHP53ViUNgU7X12K884CTZpyps9jRR+BymNDr9cC9hGwssfWjh63DX1uu4z3ekgCHyv6fXq9V9kgMHlIDH3yWNDHMfFP+Uq/TSIfgmi0oMfLyNkUu41WtYle0Oe2oM9vkb6eJjv66AgNeviQDDqrIm9ErKvegjdfWo7YqKl4xfZjdLoKZR0dJ9g+va6fANw29Htt6PfZ0Oexo89rRx9/u+3o89jQT4ICJMWGAc5t5FzubZO9aa+HPlD6jLzbIFGv95Ig9dtEkGSCC0QuzAMNuE8bJfv9GiClR4DcXPo9djVGEtjfZEWXSNeCltp1WPP4Xfjuv34Xj//kTpyuzUG/x46RQCH63UUY9FowIHY1YC+JNB7ataPXXSwk9Put6PNb0SPjdkUOgZAQr35v4lxjPfv1uJBoVbY9NphCkzx2YU2Aei1qgTBvxYB2bkA2sGHAR2kRJA0XizFKss9nR4/fhu7GYvQ22hAozceKx+cjKXEaHrnvLmz/xaOo35mOluq1aK3NQWddNk7U5km17peI2dFPO+K4Am0AGuR+XhsG/TYMBizg+wAfv2qpjn63HQM+u8yRdfJuU8SSLA/HbTCRaRVFxYwBhtJlP98puwE+spFVWvb1+qwQIgIsTMWg4+3OIjQdWIeNv3wKyx+/G8lzY5EQPxVJsVFYOD8W99+VhCd/chsevj8R998bg5WPzMcbGx5Dc1kOupsoZx0hL523Y5AgDIA+G4YCNnnvZUA04H4fCVKpMeS3YcjPyFvDxuk/+zRogxFjkQx6aFhJZgysMioOeOiIFUMBu8i5o6EYzYfzseO5JVib9hAefzAR994Vg8SESMyPm4G7b5+BBfNn4c57ZuGOBbH4wYI4JCdMw8J5kZibPAOPP5SE4qwfomxLKk7XUWXFGPIXiw8EMOjju/JpMKAACBlBGwa9Orok5IgNw5zvt2OIIJstKigkUADbMei1wcRCIJEUozqiwqAdA367jrD6LQ6IM8WyhldY544VKF57P5546E48cEcc5iVHY25SFBKSo3D3vBl4+K5oLPlxMlY+sRDLHpuHx348Bw8vSMDC26IwZ3YkEmOmIGr6JMyeNQ1Lf3o7Dr7+JNobLBItAUoAjK6OOoOg/LXLnEH6I3PUO+XOPpJG/xlUJXlNBOXNAiGLRCJqIcEN+CjXsfchnx1DPhuGhWlWUzuaSgtgW/sAvn9PLJJiJyIu6lYkTJ+IhOhpmBcfhbmJU7Fw/kw8sCAW/3ZnDO6+PQoL5s7A7XOiMSd6GuLjpiBm6v9C1NTvITbqu7hj7nRkLF8ofwAcYPH02zEc0OB8xSJRKlHlMgEVYyhox3CzHSOGIoJ2DAZJBANTLGpUwaIdRZCJEhXJMPyGNAwJkUHmCDf20YFiAc3c4OWdf4otXLYQ99wxA/EzJ2PG1ImIjZmEmFmTEB8/EbOipyA+ZiJmx0ciKXYKZidMxezESJF2/KxIJEukJ2Lm9FsQG3ULEmZOxv0LovGq7Udoq8vCYNCOkWAxhoMEWoKBQHGoUBF8KMLSz6I2FlVRAAkw0iRgx3BQkWBiRMWAj1XRjqFgCQa8NG5TLApgG0ZkEQngmao+AIIHV+DZvPtx3/dnI25WJGZFT0ZszGQkzZqC2bGTETtzIuJiJiJ2xkTMTroVyfFTkDx7Cm6bPQNzEqMwPzkKSfEzkBQfKfNnJ0XinrvikJ12D+r3rMQ5pxXD/vU62qqAib+6uA01q0AwklQhoz5IcnzFkuvEw3owQLkL4BIM+0tgouYlmkG1kOwJCUKAYnNYom3kiQ0DATsG3Ba01eZh968W4ckfJWFO0lQkRkciduZkxMVNQlL8FMyZNRlx0RMxY8atSEyYjOT4qUiIi0Qyo504HUlxBBuJmJm3IiFmEpISI3HP7dFIWXQP9ry8Aq2OXLlQDAdLMNJMabKYqiosAQoUYzDA6FENxRhm4Oi/9Ku0YPQpaxIzElB2TNLJKOrqSLYISlVMNZmyFonTQFCdjYNBm9zV67YvR+ZT38e9d8Tg7qSZSJ4xBbPjJiEubgqS46YjOXomEhKmYdbMSMTHRWJOzDTEx0ZiZvQkJMRPQcK0aYiLm4iEmFswe+YU3H3bDKQ9vhAHXlmFUxUF6PeUYDjIaKt8HAywBunCxoDRNy1bVmj6ryLOaCtCJKcDBF2M0aAdJjLI6iiFigvEuCoEzCUukOJFg36VX0OBEsk33qra6rJx8JUVsKbfj0cfnIfvz49GcsIkJMVNRmI8wU/FrPipSIyfKNU6LnYqZkVNwayZt2JW9C1ImDUFCfGTMSdxIu5MjsIjdydhQ9aPULtnLVobCoX80eYSAcoAMaKD3J9gJXoqyjxKGWUWPj6hfJdAcZ0dw0eKMULQg37mgAInLPlKhKFhLxeXjJEgOc0+vRkjLndjG05UFKByUwqeL/wJFv3wdrmBxUdPQnzMZMyKmow5MZFIjJ2G5KQoJMZGSYGLjZkoxS4xNhLz4qfi9tum47GH58Ge+yB2vLgEzfvy5LKiJFkSAiOR9ZdI1Biw61VIxSpVjPgUGUPMbwJnYFkY/cUw9fPgFxYYbd5mOLlES2T9WM40F2OUEgkWY6TZhuEjdgw1l6DXU4K2+mK492Rhx8+XIe2J+3DPnTORlDgFc2OnYn78ZCQnsHpPw7wZkzA3aToWzJ2O+XMjseC2SCyYNx33LojFoz+ci+dyHkTdtqflD5E9jSR4PYYJrJl7cm+eNPSP/SSCUWcBVv4O85rKSxNzmAr2l4gahCj6rmuTHFmUDDsGAiUYbrZiJLAewpBvg0RacoGbkWF9LqqIF0vR6HLZ4CvNxd4XluDVwp8hZ/m9SHniTix9ZA7uuysGyfMiMS9uBhbMnooHfpCAJx+7DenL70DeigXIT/sBrKkPY+vzT6J++0q01+eht4k3K4JSD0+OkaBNSJaCJf2MMpWo1MebGI81Sp7pR/+HfMTD6OtH8NlhYlQpCZUnlICqiCwWw4yonJMq+mRbiobM0dXep/4gcLq2ACcO5YN/G/cezIZjZyp2/mIJbKsfwOKfzsH/vnc2Vj50OwrT78PWZx/DoTeeQtO2NHj3Zch/DbVUrsW5Rt7n+Vlp1JRijDLKR+wYYWTFF+a3Sjuqjv4IeKlHhr8blOwZIGOcp5Gkgx2mAd8GOdOGGF1/iZxzLP3CMgkJbMCI14ZRP8fpDDfVx4RcCkrQx79QuPmVw2/wYpx32nCu0YIzh/PgPJiKXS8vw2/+/WfY8fwi+PatQkt5tvx597yjAP3eIvR5LBjgN3XAjn7epHgOS3RLMNq8HhcCNoxqqcve/mJRI30c8FGVFlGG1KTAeozIEacl71svJxP7JMDBEih58wjQrKmFOncoB8lh5hUJWC/SkWueZpHy4qcgc4nnI6+Og9yA19jAs+jx2NFaa0FbdR7anfwrhgX9rL4CjHnHI5BVlXmr5GocQcZtTK6ZjFKQijTyWkVYIkkFihIoZ1XcpAZQ2rQr0eZ69dukQKqrpuQRwUilJlPr5RluVmCHWBkl+lSCijaPEbkQ+IrU51yQaaEKyWBwAwaDP8egm6eDVY45dVngWUubxYogFk+xpwDJMcloyfmsihnnyt7N6oamKjdzmECN3FdH0rDfKpeZ0eAGIVLqkPi9XhRrGjlixaDBTtCOC0GbyEOiJecgQawPVcPhgFWIGCS74ihVQnAEpeoA04DRU+eqShWqgxEe4FHnXY8+407ss6rq26yKIm3IMRpQkR9ltI4QGAOgCqmkIpUpZFmFDEPSo4EijJCYo3bwfB85YsHoEbWOd3l+Wv4Phbr0l6exFwMAAAAASUVORK5CYII=;" vertex="1" parent="1">
          <mxGeometry x="220" y="280" width="60" height="60" as="geometry" />
        </mxCell>
        <mxCell id="WDatNG11xKEBm6-NoSf6-15" value="" style="shape=image;verticalLabelPosition=bottom;labelBackgroundColor=default;verticalAlign=top;aspect=fixed;imageAspect=0;image=data:image/png,iVBORw0KGgoAAAANSUhEUgAAAD0AAAA9CAYAAAAeYmHpAAAgAElEQVRoBW15B3Rd1ZX2fTaGn59MJgHcsa1eLHcDhgQc4jAhIQYsuWE1F1ldenoqzp8V0igTY9mSu42rqiW9rtckW5YtV/UuuchAJkMSAiQZwoQEmIC+Wd8+90qC9Wutu869556zz/6+/e19zn3S1tpvY63jFtbabmKt7RbW8dl+G+vst6Rl31q5N56Nd5xzC+tst7Be5nDuhLFj85Q9sWG7LXPUWlzvJtbZboy16/hs5XUD66zDqmWffeI4rsln5a+yMWFd+sC1jfXlXvfBdgtx9lvQ1jrexFr7CNbZRxRItjbj/jbidBJIxMR7IUtI0snQga916AtIq7/T+2S+AdyuCFNOE5gCM/Y8RogaR3InApHxdgVCfJng53jQDDIY2BHEcW37CDSJjkOBHAdlAGG/QYBuwAAqBnQixgCqaEsUCEJXiwI0wYGJAAyVSORUBBn9idFU8/WIG+RMsG8occx/I8pfIcIIlBbrfBNxZEEHLmw6FBgaITtxRvRoRDdoRI1yYXqoBRmNcefojERIJEe2aVcROuYgo0X7BE0ZU9qyhkEA7Sv1fJm8cRLjvkSisv/l6Cv/JHVtlLfBBkEToG5ASUEtRqcMUuS9gFByU9HUQctclasCQqJn1AAlMVlvjETdQQGpCFs7FmVd7npEx4lX6wp5hupYkwwchv8Tn3WiOYZkC2iJtDGIrR5pNYgquKPUMHEMix1JEkNMgXEnGTEVcZKhpwfVpBdII9qKANonuboqxOkb4/YcJE23IeSoQHAuCVcqVf6Jv2OEGgHjXK49bkPjYgYowxAjrmRsLGDI14iaIVs+64vrTlOaqrKq6ioyZoW33cR62w2srxuS9+sdev7rkRSS9LmqWt/EWqux7riUhSgbCdej+5V6JOsxOMZ7aY35igCNkw0W1AT1IlaiOkE2Y8/KWSVzI0JG/hlVWDkrOWgl2JvYWv8WdrX8FvUj7+PsOx/g1PDvkXbuNjbWKAIJVKWEWtOQM1sFcJzoMUDik/JXyNDla0RfIj/Bb3l23IY2tt+J7r8KUslXFjFko7M8VqElbydU27HIqYjH1d1Agvc26u98gH98+jlGR0fl+ucXo7j14T/wysXfYEPt0FiBlKotqlEESnFjYBgx202VTvp+awBV8h1XHMcaEV9vRJzg9XtNitdYhxqsJKlLW+TD6OpVnOBluzKYV+DEWSlChpQMJ4dR3PkO/vaPz/DVvy9GRzHw7odIcg9iA+cy2kaRtKpqrpzXg6E7bQBiS5WqVqnOUMg4ISoFJz5rE6uxET0WMnUyG5FNnc+xXFBObkarFysjD/XDhOG4sddusN2C68Z7+OKLz7+KGRgF/vjR35Fz/m05mRlzxoril6KkQInzxk4zJu/xQKj3xtiJZBkqvgUt1nFnnF0j4jTqZP8IYlmhnbewRo6CtxDHY6KeO4y4RFj2ViXxsUjpDm+0DsHa9wd8/v8DjVG898knKDr/FuLqdMVYWbnVDqLAUzGG6lSrojueyypAxjt97BhhhvL0fh5DYx08hqoXhpRkT3aMIJbHUz2fYumM9RbWWXUjeo7LWdk4Cxvy1MkjIRtqb2B312/w6WefQkI7Id6jo1+g4/cfYatH7b1j53Cjvki9MCKk6otBuEhaFDmeZob/E6WssBGwWoPbpRQyAWmwKQeUEcQ57wjoOOttrB/b4/TJAlwdZqSy6s6NVVl9AYJYbxtGpvs/0Pfun3SJjyrwo6P46ONPsbPjHay330CcfVgVGkkXRaxKN5Xn4uOYnPW0M8gVslUkVcEb35EUAfpuop8Wxw8nUrA4UR1GeEBfK9K/gzjnCNY57qg9mQD1xUR2E3JdVGFESW95rNzouInCc7+B/7f/hd99+DHe//hjDL73EY71/Q6bHLew0Takjp92FjPj2DkeQXXqU6CUf5S28cxWVwr7jF3mS++pElWMOVbjwYSGDCNrbLexRj8jy7lb3t0Z3yokp/k5qfZmMit5zYVZceVAofZyuZcqPIJ1rtvY5HobyZ43kdU4gm0NbyLedQPrpR4wyurMLqe5iQcenQR1iuPWpR+JjW2L63OMbHN6KgjwcSKUYvT93naTx1A1wWCL4AUImbIaAykPFjEFkPudHDwk6kYf91D1PRwnAHQHOI9r2G4j1sFPWLWf8sBiVHpj/5STIcfrgCYemlS+qrxmrRE/RY3G/qyiqfCoPVn5aKxPH9SOo8XZGWklERqWSigOqY97iYC+LwtYByOsR1f/AYDz19Up0AqMckQYFsdUURRVcS6/yvQfLuTDhoTIfqt8UZExSBuXsRQvqTkKvPLbkLTKW+ljyklg9FMe8RGTHgxVyL6kfwIyIqlYl+gIUAOs0erEsJDoVV3y2tguhCzjg0I/3BgO6SoxtiNunbJ96jnJwiVHYVbosQ8gEqEXNj1QRsDYKmXoyuXaspYab6iJwPV9Wh3vOJGdKuIKPAfLKUdAqyiPvRfZKkeMYhNnY+V/G7FOVvcbooA19rewnoXQdhOxzjtYL7/MsC7oRVOiPCLvDOeZCir6aidRKaLXjTFl6gD1FKVf4q/eKtB6oTN8le9picpENtQ9HVSfiATPiBrR1ceKkZvimOSRSHYEa+vU4eUF15tSAwhijXMELzqHsLG2T6RNqcW53kKc6zfq09CpF0o7WwLh0VKv4vJZS/lPCIKuFpX7E0BJetI/1UfVyb20SvL0VZNoyOclWVeHEQGoy2i8Shu5PF7caHCdnbJUEYtzvCmS5BbH/T3eNYhN1m6kenuwu8mOqpv7cLDzCHZ02vDjJj/We4cluvxe5hwFdkTs8cgrktdPf5LPAmYcpFG1JaJj777snypsShFG8dWk8JB5+XVkvChwsAziliPVlKB5ULkl53AZL/JUH+ixzEVK0snqfxMbHX14ub8SLR+8jKE/Po93Pl6Gv34+Ex99PhW//ywEw39+AaU3jiLe2Q1uky8QnHVYtj2RKZ9ZBK0EyVb/wZJrTNiL1S884yoQAnQl0F/jmSdJVTRvQkur8iDttA/pVQGkl/PyIr3Ci4xyHzIrPMgo8yK9zIvMci+yeV9RL2MyynxIK/cjsyKAjIoAUsoakVoZQFptPbIbm3Cg9VV88PlqvD86FQOj0zE0ehdujE7C9dHJ6P3iX/DuF/eh+Y/fxauXXkVBlQOppwNIOe1GZoUX6bRT1YD0Sj8yKwNIr/Aho8oPWbPSi/QqH7KrubYfGRV+ZFb5kFWh/M2s9CGD4yvV/Cx5X4+MSg8ydZta2Z5tKCtOwKldCTi5KwGndyfgVHECju+Ox6ld8Ti+Kx4nd2/C6d2JOLkrHqdeT8DxXQk4wX62xfE4WhyPw7vW4/jrCSjb9yIuXPsh/vbf0/C30fvwIe5F5+j98P19Mpr/aULzZ/+Cc5/cBfenk9DyyYN4+y9BGOhYiepDsThdnIjTJZtRXpqMst0JOL2Lz8k4WZyEEyVJ4kN5aQIq9ySgfE88KkoTUcb7kiS5Ly9JRMWeJFSWbkZlaSIq2V+SiMpS1Zbv2YyKvQnQqna/iMo98ajak4jq0nhU741H1d4XUV1Co5tQWbIJZ/bEo6ZkE6pLE1C1ZxOqSxJQsWcTKkpeRHXpRnGiaucGVJVuhL1iAz78IAyf4h78Bfeh858m9Hz6f9D0sQm29yfB+aEJjvfvhvXPGuwf3Y2h/5mMP3z4AFrsD8NZuhZnSjajbt8m1OzfhJp9CagpScKZkgSc2ZuE2n0JqN2fgDr2741Hzb5E1O5NkH7rfr7bBOv+RFgPJKLuQAJqZGwi6jhuP68kWA8mQuOg2gOcEC+tdV8iavbHo479+xJh3ZuM2gOJsO2noSTI+wPKCI3a9/NdEmr2bkbNoTj0tD6K//pnEP6K+zAyejfOf3o3Ah9PQtlfJ6P8HROO3Z6ME7dMODKs4dh7GtyfmjDw+RS8/beHcOXSatQfToLjSALsh5JgO5wIx8Fk2A8nw3ogGbZDyXAcSIbzYDKchzbDcShJb5PhPJAMx+FkuA4mjfVznv3gZtgPqbn2gxyzGZrt0BY4ZeAWOA9xQjIcNHiEi22Gg5MOb1bGjWcuenALbIeT4DyQBMfBJNQeTMJZ22r0fxCMj0a/gdujk9H6iQn1fzah6k9TcPotE6p/Z8L535tQeeculAxoqPlPE2rfNaHx48kY+ew+3LmzGP4zG+A9ngzPkc1wHd0MF9tjydI6j26RPs+RLag/ugX1byTDfXQL3G9sQf2xLfC+sRWeY1tRz+ejm+GRluPYt1XNObYVmuc4H7bCLS/0gW9shfsI+7ao9tgWeGhcb2XBo1uVA+w/tBm1h5LgqXsBf/j7g/hg9B4c/YsG55saKodMqLgzGccGTDjRb0LJsIbyO5NQOmhC+VsmnLo1GW/cMsH335Mx8k4QvHWx8BzeDM/RzQgcS4H/ja3wHt8K3/Ft8J7cDt/xFPhObJPLf2Ir/Me2wXt8m7TsD5zchsCJbfCfSIGfrYznOD6nyDstcHwr/MfVQB+N05C8VIN8J1LgO0nDWxE4kQIvF2ErC6cicDoFnqPpcJ/cBuvZlej5cBa6/jIF/v/QcPxNE6oIetiEA50m7O8zoaRHw/HhydjTPxlH374bJ+5MwS+GTSi7acKVkWlwHHkR7jdSEDi1Hf4T2xE4yfsUNPA6vR0NJ7ej8fR2NJ5KQeNp9rHdjrMnU9B4ajvOnkrBWb4v432q9HEe38m409uhNZSlirGzMjkFDWUpOHtqm248RSbTOME1lG1Hw6m0MQN0xHcyDYHqRPQ3PYc/3Hkcb/52KlrfM8F2w4TSFg0HezQc7NBwpMeEPa0m7OnQUNSrYWf3FFQMfhOVQw9i75AJxTdNaPjgAXRdWo2mmi1oLE/B2fJ0NFakoak8FefK0nGuIhXnKrbjfNl2NJWnyfPZslScLd+OprJU1VeZhia+L0vDuXI1l8+8P1+hxmjnKlPRdDoVzRXpaK5MxXleFXpbqRZpLt8OGVeeivM0djoN50jWqVQ0l2dg6Nqz+OiTSPz583/F1Y/uxd53TNg1oOFgr4aSTg1H2k3Yc1nDkasm7Dyv4RfNJuzq1rDn2j349fUpKO64C/tvEPTd6PxtMFrsa3CxYisuVGegqTIVzZX0LQ0XK9NxoSINFyrTcKEqHef1/gsV6aqvOh3N5XyfKu8vVPM+Hc0VaWiuyJD5zZUZ0FqqUnChIgMXqnhxMq8MNFel42JVGs5XckI6zpMUtlyMrFWl41wVGd+G7vNP46//vBfD/zMJ1e+acPSGCQe6TDjYpuFAqwn7Ok0ovaah5KIJxVdNKG43Yed1DbsumfDKJRMOXDXh9SsaKt/U0Pru13Hdtxrnz2zH1TMZuHQmHS1nMnGxOgsXz2TiQpVxn41L1Rm4eCYDF6sy0VydiZaqDDRXZuJCdaZqKzOEOL7n1cLx1QI6VSYYky8SLA3RCCedSUPLmQy0nEnHBTpQnYFLYoT3abhyJgs9F1Zj+LN74PvTJLzWr6G0xYR9rSYUX9Owr03Drosm/PslBXjfpUnyvrRJw6uNGoobNey/qKH4kgbb2ybYb05Fc1kyLtVm4npdFi7XZuJKbSYu16XjSl0GLtdlyjv2SX9NlpByqSYTl89koqUmUz0bQMX3LLTUZOBSbRau1mZBa6lNx6WaLFw6k4HLNTRIdjNwqTJLAafxM5m4VJ0t7ziGz1f0Rdpq0tHTvAZd//l11L1rws4ODYdbNOw6b8LORg27mjT88oKGX1804fUWE/ZenIRdnRp2dWnY3azhtSYTftagYWebhuLuu9DQtBIXatNx1ZaB1rocXK/LxrXabFyzqvsr1mxcrcnCldpsXKnLwpW6bFypycHVmhxc4zP7a7JwuSZbJyxLnmVMbTau1uZAa6nOweVaNehqrQImrFVnCTM0QFIYUS5A9mmc7XVbJjrrsnHRnQZfexTKu76G4+cUkJcumvDLFhN+eVnDq97JeL1hEn7VNEVAl16djN0+E17334c9dV/DvnPTcNTzf+E9txyd7jS0u7Jx3ZaL6/YcXHVk47o1G9ftfM7FdVsOrtXm4jpJsOeoZ2sOrtk4LkfGtlpz0GrNRqs9G9dsHEN7vEhcDrTrDjpPQJkCivIRoHVkhayR0RxcqaXhHLTbs8cvG42aZbHLtnRUuh/DoYZvYM+5e1HSMAUv+014yW/CTt8UvOS/Cy+5JuPVwBQcaPw6DgXuRXnjAriq1+BsbQIuOJNwxbMF11xmtNktaLOb0e7KRYcjF+0OM9oceWjnvZOACC4HrXaOzUWbIxet9hy02niZ1b2D73nlos2pxnB+m1NAZ8pgRo0sUPOXSQIlRdBkUWSWizZ7Dtpc2WhzZYkznfYctDst6HLmoK0uD02uXFi9cdjnW4SSwH34qe8u/MyqYbd1Ml7xmVDsm4JjZ2fhvHcNzts3o82VjlZrHjoceegiAEcGupy56HKY0enIQ6czFx0E7spFp9MsV4fbjHYBYUaHIwcdTvXMPiHFYdZbzslFe30uOpy5aCVgRw7a3DnQOigRyoegCdCahesETKC2bJFJm7Cagw67GR3ubHGsk444zOhwmdHlzBNHuj1mXHXm4IJ9C076w/Cy/R68UjUJRVYTfhmYhJfcd8Ph+A5a6YxHybbdyfl0NAcE1MXLZRGg3bzne1ceOvV1Oh2Mfh46XHnoqic5ZnQ4FXiO6XSSLPbRVxKiSOhw5kkfidDaHXm4ZsuSaLdZmTPZaGU+2bJFNu3WHHTaaTwHXa5sdHnY5qLbnTMmv05XHrpdNJqHNqaAMwMB2zrYvatw2D0DP3F9DVmHpqD0jRD4fc+g12WW8V2eXHQ789DjsaDLTdC5ArrHnYdOtxndBMXWxfcEb0ZnvRndbotq63PRU8+1OcaMHncuusW3PLHbSTsOZUcIdJMUCzSVMypvKKM2FyNsxjWb6mMOUQ1su1w5ArrbrSTT4bJAIu7MQxdlLk7prBOEMxPnbAk4eGol1q6bgxOvbUKPM0ec6603o8ebhz5enjz00vl6EkDnzaBqxFEBmS9Ae9z50k+SCLzLreb3uvPEFskSckgQATMYfOfRWyEuD1onpaTnAQnorGcusM8icuiqVznGXBM2vXSIY3RHaLCei+Wiiy3nU4p0wGNGe10uSn+xFsGzZ+IX2d9FmzMbfZ589Hos6Ksn4Fz0eszoIwB3Hnp1Ivi+12tBry8fve589Nar8b0+s7p3W9DrtKDPl4deT74A6yUR9IFgGQi3Bd2ePPTU56OnnvbUvUbDBC654yYjRp7kKVYJkgzTITFAyeUIKDJOFsWoh4tZxDgZb6dkXWY012xF0g8W45vf+Fc8s2oxLtalod9rwY2GbPS6czHgzUW/n2AtKupeRYiA9uSjz5uPHneBpECfz4weH+VqEaB9+hwhkPc+iz6WvtM3iyhIAOvEsE/rchWIozREybDt8bI1K5BkWyRoRr8nD32yIAlQRoWM+nx01+dLYenx5aPLTyILJBL+E+nY+KMFiI6cjR8++TAOv/SsfOxfrEnBtZp0tNam4dyZNNmiGHkVVeYq7TPCBE5CLBggKLZ+XmYM+PLR77OMXQKuvkDGklgqgPZIHFNIiKjPh8YbgiEwASz3ChCjOCYzylGkp7c+JT860U9G/YyuUsRlWy6sh7fhlR0/QtwzyxEVHYyI8FmYHzoXjy4Jx3cemY/YZ5fge09G4luPB+H5p+ZjR/Yq2I9ukeLZ49Ij5NFB6YAJkOAH/ezPRy/B8F5Pgz7xke9JBN/nSfR5TxVIWnkt0FQxUYyKxMSweu6nJGhYZ5qglQwtYPEY8OWhvyEf3TYLrlTmwnF4G/694Ed4ceMTePrxUDy6bC4iI2ZgUehsLF80F8sWBmPxw8FYsiwE33o4HAujH8K3l81ETPRcfP+JcCSsWYGdP1mLhlPZYNEiOEZpwEuQBRJp3g8ECJ5geZ8P+tmnR32gMR9DQkQ+BtjfYNZriBrPeZLTlAWBkckBHaCwqhsjg1yAbFFi/f4C9Nfn46o9D/wJ58DPf4jEuGX43uOL8OTSMCxeEIKli4KwcFkQVj4Siue+FYb45xYhIfYxbFi9GM//IAbPrIjGE0vnYnHMbESHzsacOdMQNncWvrtiPn5l/g585Sno9eVh0JcvMh4MFGDQX6D806s9gVLicvnzMeDPl/Hiu5CgyKDMx0iSnGZl9JlFDpxMyUjOSMQLJKcMw8oBlVPdrkKcO52NnxW8IDKNiXoI84OnIWLeNMQET0dM5BwsXxiMZQvmYuWKMHzvyQg8+WgoHlsWhEcWzcPSBUFYEDQbEWEzEDzzfgTNuh9hD30DixbMwr+tjMLrRatxpSYXvd4CDDZYJHoD/kIhX9KJKaX7OxiwYKhBRXjAW6CiTwXwvacA/Xo6MA0YPI37oXQyDySaajCBywRDNmTSYNXHU08uHHvSsGX9E1i+eA4iQ6Yi+KGpmDNjGsKCpiE0fCrCo6chPGQmwoKmIjJsJiKCpyEqfCYiIqYjOnw2wkIo7VlCVtCcBxD20AMImfsAlkZOR+zTC3DsledwzZkh6w41kOwiUZlEjTWFCvTlYzCgrokRVkAL0C/gCwSboQhNlfsC0b0wQXCBQvSRIRaQgJINZc8cYz4xlztdmSjftwFZ65bhkYVzEDbvQYTMnorg4OmIDJ+BheEzEBM1HREhUxEa8iBC5j6IiMhvYn7YNERHTsfiqLlYFD0HDy+ch5ioIMREzER06HRERs/A/PDZePzReUje+AiOvxaLdmsuhhoLMNioiO/zskKrWkP/hih7gmf6NXAMFVEgOS3+czxrgkS8ABqjS+DMVemUnGafHvGAzpJUROYUDwK56HDnwXlwM3I2fhtPLQ1HVMQMhAfdj9C50xEaNBPh4dOxMHI2FofPRGTwNMyb+wCiwqdjQfgsRITPxPzIWVgQNQcLImYJyNDgqYgKnY6o6JlYFDUby+cH4QdPLcFPcp+E/+QmDDTswM2mQiVdX6EULlW8KN8CFe2GgrEawL4BvQ5QDSRFVOErhMbclIIg8lVVkezIViAVU7FoRFypgXt4Ppqq0/FK0Wo893QEli+ah6jgaQIqZs5MzI+YidDIGYgJn4MFYSGIjpmN0KBZiAibiZiQhxAeNgtz501DWNgMRM6Zi/CI6Qib9wDCg6YjOniGVPZnnlqAhNjHUVmcKPv2UKAAAw0Eo2QtoOsZQYIulJY5PdiQry7285nz9Lwe8hVA6/XnY4iG9MrNHOAAGuI2wXwxcoGSGvQUYMhvweDZQvlIOVG8AZb4x/HUigg8vngOViyeh+Xz5yA6YioWRE7H/PkzER09DxEL5iAyahoWxsxEWOgshM6dgeCgBxA0736EBE9HaPgMRIYoNcwPmoWY8Nl44lvRSNu4EmU7E9DrYqTMUtgYsT4vg6WAUt4EJgHxEU8+hgncXwASxQLM90NMhUbKW040zGG1j7EADHgLMeAhSwRfKKCN4jHYaMGwyIjHwTycrTTj5/nP45lVS/HYkmCsWBKCxZHBiIichfDgGVKswkJmYUnYQ4gMn4P5MQ/JISUiZBZCg6cjOITFaxrmh5GcGVi6cB4eWRSKJx8NQ9yzy/Gy5VmcPZ2JXje3SXXaYk73e4skl4caC6VV0bRIhIcCRQJ2mKDFV5UWPLQMEjSTX7YpVsBGVnDmdqGSC9nzsWIWymWwpRbgwmZcsVlw8JUtiH16GZYuDcGjLEqRQYiJmY0IFqZ5M7AwbBpiomaIpKPmPIjoiNlYEjMHi+bPxILQqVgcNR1LFszG8sVzserbkdj2wgrszv++/OPtXHkG2u08FKmtiI5zqxIfCVjkroovVTnk5aFJ1ScClL2d+zcjHsjHsM/CQqbKumLEgj4CbuS+WIQB5rS3SMmErEnUmR+s6uoLp91lQc3hNOQmPIUfPrUQTy4KwSOLQ7BkcQgWRgfh4YVzsYSAYx5ExJxZAjImai6WLwnCiocjsGpFKFY+EiJ7+OpVMUiLfxTHd67DuVPp8inb4ymSStznMauTmZ67g/5CDAUKMRwoUvs47yVvKXlDofS/UEWfaey3yByt12sGDQxKfjCiBKQqIifLwUDygUwVyrlWCgkZ54eFJwdNlRnY/6sXYNm+CqlrnkBy3AokPfcINv7gYTz/vWVYuSIci6NnICJ4FpZHzsPK5aH40aooJMauwI+3fAc/zVmF1yyrUFz4b6g7sAUt1elod+Wj26u2HuYw/ZKToJ6fVB/9uUH5SpVWEmZAJLqBHbrs9SjLeD2n5TvVs0OOlYN6dPvJjuzLlA+B/hjDXkqjCIM+dcKR4yrJ8VjQ5spD44lUWA8noYr/Lz6YgBOvbMLhX72A13esx47Mp/D8s4uw8vFIrP7+EhSmPoZdP30Wp4vj0XhsG65Z03GlNg1t1ZnyS2in8UUkJygW2SIM0R9fkQoIC6wUqSIB3u/bgUFvHoYYOKapv0hkT9+lRnmKBM8wg9ZQCG1IDhs0oiLMg8nY9sSqKAwVSNWjERYJMttPdslyQyH6Aha023LRZs3CFZcF1/k7Fn/o42/P1gL4T6TixO5YlPz8ORz+9Xr51y5/db1el4fOenXm7/WyIDEqhfI11+vTD0xSV5izKicHA0VyyqKfUpkJhEpk/op/evGSIqYqubwXNahqrg2SJe5jBC8Hdt0I75nDAbJL5lgR+U6xS7LkJEQn+euFfA5mot2di05WfU+egOgNFKHb8//QUcvf3jJwzcqfcfPlu5wR7OeeS7vcDpmLxh5czy2K+VkkFwnmNkofxBfmaKN6VpElaaqSy9bkz8NwYz5uNOzAcKPKa+LkWG3YV4jhxjzZ9LkoJ9wMcFsiYOY62bcosFyYcm/IE1ZZHdWph/lWhD5/Lnr5cX9WAZa9nmrhuVmOgrno8hWi28+P+x36Zys/DfNkd+DBoy9QKJHs8xTKewXUoiLZSMJJPn0qwgDBSMT5waECQ4A3AmZ5HuHrXP4AAAAQSURBVDzL/Zr4+Myx6tD1v4GkrYnQCIwVAAAAAElFTkSuQmCC;" vertex="1" parent="1">
          <mxGeometry x="280" y="280" width="60" height="60" as="geometry" />
        </mxCell>
        <mxCell id="WDatNG11xKEBm6-NoSf6-16" value="" style="shape=image;verticalLabelPosition=bottom;labelBackgroundColor=default;verticalAlign=top;aspect=fixed;imageAspect=0;image=data:image/png,iVBORw0KGgoAAAANSUhEUgAAADoAAAA6CAYAAADhu0ooAAAXbElEQVRoBW1YCWxc13Ud2W7cIjAQoEgdO7DrRXWcWGpcu4GT2sjSNk0RxHG1WRZ3istwGc4MSXVBgaZtUDS29l0yRYn7MhtnJbVRu0Qt3ElJlGQ3rl0jTWrXbmTVmyqd4tx738zQrYCn9/9b7j3n3Hvf+0PP0sgclmXbFSyLuMbxyzoXnsOy8GUsYx+Zw1JZw949c48+c2x5eA7LQ1yvbXn4MpaHL0F7s2NzWbtmn7aXRq4aDvq7gmXhK1gqGDhHX5z/jP/wHJZGr2BpNLdXnqPcPwePEBUCOYJLQ0Y+rARECCPJTSqOc+r2XcUyGhVgOYIkIgQppoC9bKAdYSeiiSpElawQJgbxOZ8siQtpN5fdl8Og8yqUR0hkQahRN0aFFLhGSYEaYDOs6nKdi2iejaw4l7MRJmkX6ayAWTFyduh3SfSqRpdkJEPmRCRmi2STRDoneDYTRNA5LCdGcohehRDVdKFiSowh56bsuKSLgpDNMscIappIioSvYEmeqnx2gjH1lktKX5aeJbEicgkvhi5jBbMnymgaeOm596qkocMgUSWBqKaoCmz+Y+wNL9PXPVvPvR4Jr0TUUsNIcXyJi+hniLooOlWZsvIs661GGAVRVsVjhLRG57Cifw6FiauoybyGgsQVrIzNYUXoEpZb09JwGaIEXGa5zHG9kIpexZL86EomKZ8lRtaj7FW9JZFrkqouQk7NfIVUuatyQLjUU7EY0VwmSJrbIaeE57AkdBnl8WlsnXgLp/7tfVx7532MvP0udp//BSqSr4kQK+xQ0mxQkYhnSVgxMqPoR4hTPHtX39csCy3SkmFXsSR6zVLX1UJe6mlEXfrYRomc1kQ2mtnIudq1SBpJpuwy1lfoElb2zaL36i/xwUcf4+b/3MLt27dx6/Zt3Pj0Jtqm/wOFMUbhIpbKaZ+rPXfIOcFc9qjAFnlG1Pm0Ayq7L3LF1ehVjYYs5gaX7zYuQmhh56JsVw0PEnOgUbArgTXJcXe1hC6iIv063viv67h9+xbm/7uN19//BFUH3pSIOHvqi8JZvUtKupTOF9yVizsIc+XiIu+REzDvPlSV8lLQRdnqVec1/3lf5si5a8JdTfYesfqLXELT0ddw48NP5nO0txsf38SGc7+SkiBR8SM1boLynJB39kZSepJUvMSi4hCfrtHavgKPqCWA9bJlNGXSougU4birwXnkJGoaRbnbHLj8nodM+CL+5vC/4IOPPwJw+/+Q/ejmp9g19e9YItmRF0GzI7bFV46oI6gZSNwkatnoAiQCSeqa0fwJOWV54Jiy2VNX01qJqsJUUCJrYqnqSpzZInUjX0WzqB+6gjffv/H/pu67//0h1p1/y8rApR79539lmaDEw0DM+xLKEcziE+LKwaMR04NELle7Szku0c2miaol613NmFqipJBy6WX2+CkoTT8BV8cuo+/iO/jgxse4dYt1eltIf3rzJs6+dR2+g9ewoo8Hl9W9RPOyfCzo1WTimn8hKqcusSo+F1Hi5EmtpOd4GKl62Zpw71FeznnKyrOqwxpx+/RZ68gZzUbV0o5k+WWzPHQRlZk3sHP6lzj15jt4+9cf4F9/fR2JK++i8fjPsSp5GS/yeuFHhH1B6ZeUCscvIndQZX1IdHP16L6E8gmTW+7LiETsqtBaM5UMLL9IxAkFkEiqc+4RInbCOoACROqN6/W7lh/23LsicgXFkTnUHnod/gPXsDL6ml5BYjfvE5Hrw5ewNPvZyP0cs09S8WnpbB8t6tfKzjhxTD/qGfZ5UTISMu6ixShaRCXq+qyZoOByhC0iQlS/iPLBUbAVQoJRnsOLcvFzjAR4cNkvHTnEaFvJuRuCYokvORdyWJUkbdhV6OYj9gm4XE6q+Ruyd5eRmpeuMqbpkl2XrUWNnji1DHHPjuzyiP6i4UcEU1rTWlN7ReiiEJU6zSMtHx3mg9mlWWW/hBxGl0GSAXoFaoYJUbtO7NR1dxQNMVq52nXRtFSZN5+/1ohaNrAMpM5cmrlfKqFL8rVEIC6CAsq+dymCtHyy9sNAI6d+ckLzhM87DI20yzj51iUp9/2oJ5l9+jGdLfxyAs/7BMwjF5nT/a6enUBCjoAMhDjXz0EhaD/OKQQBuUjrTzJGmB/6TggTTKJFsY2oCSiE7Fmi7aJs+I2o/TrPRkk/7vNPUTWUX6eMsEWZzj9DKhdFS1NXL5LODrzNMXoky+gylV2UpUbtV42r2/Bl+6hQAek360vI50VW+GgGevhl79JUev7GlHRzpFxqc0OuyWEgV47NS/R5/OtBwQNBssEIChiL+PyDRCPDMbcmm8pSy3awuZSXk/szh53hYploNO1Ht0WVtiWiJKv3DkG7n2BMTW7U92z0ZPP8e1T2MlKcy346XtXfo3aiuv1SU0Y4J4QThT2bpaWkrQnOPSEnvv6Qzwmv4yRJofPHtSTn4PF2DaGmaxDVnWnUdA6itjOD2g5993akUduRRnV7CtV8bs+gpi2NmvYMvJ0Z6Ws6UvCytbNlUM35DvYpeNtStj6F6vYMatsyoE3a8Lan4W0z27I3afZoP42q9qTYrRXfKXiJr0N90g9x1nWmUdeRRl2X4e7aLxzqOgdR35NCXXcK9d37UdM9CE/HxhK0byhG2/oiae3W71tXiLZ1hdi7vhB83reuCHvXFmHvukK0cnxtkfbrCtC6thB71haiZW0B9ryiz63rCrBnbQFaXilAK8deLsCelwvR8nIBWl4uxB43/oqO0ybttL5SpOvXFoqvvesKsI/P64sFSxuxriPWYrRvKEL7xmJ0bShB16ZSdG0qlta9uRg9m0vRs7kY3ZvK0L2tCJ7QliL0bS5G75ZC9G0uQs/mQvRuKELvxgJpPZsK0bO5AD0bC9G9sQBdGwrQzecNhejZyOeX0LVhFTqtdW18Cd3y/BK61nG8QFrH+lXofKUAHZxbt0r2dLPn/nWr0L1pFbo3cL5A+q71BegxXz2b6L9Y/BNPH9vGIul7NxWgf3MRQluLENqmLbK1BGzhHSWIbCtBZHsJPNEdJYhuK0V4G3udCG8tQf+2YoS3FEsf2VKC0NYShLYVo39rEeR9SxFCnN9ahP5NFKsQ/ZsL0belyPoC9G8pRP/WQpnv3VyE3s0UjeuKdd0m7i9GaFOR2KG9Ptrj/NYi9b+VOOi7FOHtxFkseElA8G4vQYzP20sQ31GG2K5SxHeWIb6LrRyJnWUY2FkGDx9kYmcZErtKMcAFO0oR4zj7XSUY2FGqbXspojtLEKPxHSWI7eR7GShWjHPbixHdXirzVDG2rVTUjG4twYB731GM2I5SRNhvK0VsRxmiO2m/TGyKL66VsRL1z+ftCnggS6Qcid1lSOwuR2JXOeK7y5Bke7Ucyd3lSLWwrUaK7y2r4cm0liO9ZzXSLauRfnW1TbIvR5ob9pTL4kSegSSV2l2GFPtd5eC7jGWfCUBBiGOOE9CrFLMMSTY330Ig5UjTPv3T567VSLSUyXOC869yr/YEL7gEbwXSLRXI7FmNzB72FRhk41grnysx1FqJwdYKePbvrcTQ3tUY2luJ/a2V2L9HJ2RhawWGzADfh1pWqxEaljk6oEjqjGI5h+K8pRKZ1tUYFCC0q/N0zPG0AFNbgwZI1xrQlgoMGQbODxEbce6twNC+KsF7YG8l2PbzfR+fq3BAnu2dY/uq4DnUXoWDbG0VOLCvGgfaqnCA7/sqsZ/PbZUYanPGqm2MxmysrVL3ijMarVQQ2b5iHoj9tEXb3N9eiYN7K8Qm/dH/wXaOK479e6twsEPxiL82zhOT9gfbqnG4vRoHO7041FaJQ21eHOyoxiG29iocaq/G4Q7tPUe6qjHM1uHFMDd0VuFwZxWOcFFnFYat57s+c20VDnM9xzqqMNxBh7pWhON7hxeHxAnnCaRCbYs9Lw5zTaeBoX+xZVi6qnCkw4vDnV4c7fTiSKc3i2+4y4sjXVU42lmDo11eHO2ukTVcd7SrBke6q2V8uLMaw1zDvZ018Bzv9uKYLK7Fka4aHKMhvndpO9LlxbA81+p4N+fpoFbXmAOKRIPDHbU43FmLg6EqpOOrET1UhFSsXPYe6arFkU6CIQH6qhES9HGko0b8K1gFrX5JjGsdvhoc6/HiOP331Gb7Yz21golcjvXU4Fh3rbTj5NLthecEF/fW4nhPLfh8opvvNdJkQ28tTnDees6f6KvFSdnHdTpHR8d66jHcU4euwwX4yXvfQMmHj6H0o9/F3773LaSGKnCip0Zt9dWIL/qhjxPse92Y4iCe4z2K43hfjeLrrZP9J/uJoQ7sT/bVCZ7jfXk4OS9rFR/XeE711+FkXz1O9dbiZG+9GuA7N/b5zBDf63C6tx4n++twOlQna0/110P2S1+P46E6hA8VofDGY3ju1j1YfOu3sPDmb+LJW19A6fWFiJxeiVOhGvUnPurE7sm+WvF/qlftiV0+Cy4SqsMpAu/x6XOoDqf7fDjd78NIqB6n6Z/E++pxMlQrmLiefDhOex4uPMPWX4+RkA+nw/p+mgbC9WDPhSM2PxKpx0iEZOsxwvl+H06F6nEyUovhqA/rL34Hz3z6eTz9yd345tt34dE378JX//MOLP7wc/C+8wSOJSuFwJn+OgUp/s0ebUZ0/EyoTnEZkTP9DYLhTKQOZyLE6JP+bMQnOM6GfDhLW8RGDuE6bcbPMxL2gYvPhn0YcZvCDToWqZdxzp2TeRoiwQaclab7zoQbZG/oQCmWv/8wnrx+Nx75+Z24f+IuPHzegyemPocv/+oOPHf98wgdLcRI1PkiSH129ojhnDWZy87bWsHWgLNRNvonVsV7JuLDmTBbg/lwPHzwyKJovW6K1IsTGjnHFvPhPI04o2aQe85FFdBI1I+RaANOJerhf+NpLP7wC3j44gLce/hOPLjfgweHF+D+k3dg4dwCPPXe3dg9/acYidWr/Sjt+3Au5uz5za/65rj4jxkGweLDuagf52JsPpyPNuC87FfifD/LOcGsY7Tj4cQ5AhcV6UCNX4jQgBkiII6b0fMRP86TqBmk0RPJBtS98ft46Bd34csn7sCDKQ8eSCzAfSkPHhq+E/edW4Cvv3EPdp39c5wbqMcF2os14MJAABdifiFE+3wW4hyTFlC/Ir4f5wcMH7FE/bgw4MeFKPHQHudJUvHJO9dEG+DhIpmIcRMdN8jE6EADpAkYPvsxGm/ABTYxrqAI+EwkgLOReuw69mN89/gD+L2hO3F/mmQXYNHAPXgu9QCKTyzETy58G2cHvRiNN2KM9uMNGI2ZbRKm7wR9+DEaC2KUvRuPE5+toX/ijfkxRlwDfozF7TkewCjHEw0yJ1hjAXjkwRmMOxW5iEDUCB2LYQKTRiBqkGsuDAQxFg+IYOHECvwo8Sge6fwN3N91J1alFmEoVYWxZLPsHUvSZhDjiQDG2Ag+QbIBIUgy5+MNYu9CnMSCOXH5TFIJE4D7SYwkpfE5gPGkX+zTJoWgTQ8fxpIBjMeDGCfgWBAEM85FcV04ljJQiaBspKOxeFAcjtMpnQlQHyZSAWQilWiOPIMn/+G3saf9JUxQ3XgQU6kGTCbV1rj1YwNBjIr6QYwzigME6ce4RD2AsVhA8ND+eIy4VKQLcY04hSL+McFGzEElyp6kDatHyBghp/SETTKSE0kqSKNGnKIkaITCqAMaHE0EMcGxhA8XEnXo3VqEP/72YrT9bDmO9dRJ7UymSDaIyVQjxpNBTKS4Pqg+KFzcLyDFp7xzjQozKhlAUTR7iFv2ptSvYE4GMU77ST8mxC6jq+s8XKwq0KnfDAcxliZBdUKiE4lGTMpmA0eySXU6EfdjcsCP06EABnYWY8vfPQ/fS8/gu89+DRUrv4W/8n4PrWtXYrjHhzGmpdkh0UnaoK1UQHxTCIKdSAdkTPDZeq5lU5ECkh1CNk6xdL8QTFBMHRvj+kQjPPxvguqSuSkim9MaQTFOp+JMI6hGuadRosJon+zzY+c//gXKXvwG/ujph7H4iQewaOF9ePyxe/H4Y/fjB99bhF0//THORJglARFtSsjRjjYRzgSkCLRPv0z3ScM5yjTlPsPqsHONrBeRzKbY0MzxUIHJtDpm6lHRqYxb6MdUOohJvpOoNJJTNZmCnGdd86fT3zd8H08//TAWfeVeLHzod/C1R+/Fow99EQsf/hKe+YPH8NfVf4L9HdUYTfghJJMulTUCKroKLwLTvqS6kZbIKV7BYhGezAQwRdETQUxRkEG/lhHnbb+HJMWY1cxkOoiJjKaHpEiaxFRZIZ1uxDQBZI0QWCMOd1Tin5t/iOe/vwhPPfUgHn/0i/jKI1/EVx/7Er6+6AH84NlF+NmaH+Jwd43VYVBEmko1Ypo+zR7fpTn7FJrYLH2JYYqYLAskMNlat5TNi6Q7FzxcOJFsUqc0KgdFo0RVDbI2CaYRMySZYRSbBBznRaSBRpyL1CPTXom2f3oBwepnUfjCH+KFP1uMwue/iYby72D3T5fK79OJlE8yiIBnMo2YsTql/elBI5HQTKEAQjLeqJEhyVQjJpPqlzZ0Ddc3YlKCojU5ZQGU4KSa4BFD3GibRE0SyOhGEpnOBDEtfUCE4JwQzmg0GVECZpRH4z75ScUf5PzzzIkeL06HGyTdLw4pOUkn+qNoSfMjxDVFJ0iIPomB6U0SViauF4EtsnJ40U5K8TArSVr3auZ41GkjpgabTClVh6CFZL4ASSqoJEmeAJjGk0KcRJtEFEacR/xYwofxRBOmk34Vy60naCHhIqUZw/2augqOkWPESFoICib6t8hKCZmtVJOUEMkJSZJ2ftJBeLhpxtRiZKYGGzEz6KLpSFvdWCSnZV5JzWQ0jSdTCnJ6sAkzJJpuxpidyswWkmebYaQszQieoLTeWSJNoG2m9ATHs/s0WrKWYknEmkQsRn3aMpKCSya4DLCDiOJ5uGk63awKGwgClXSVGlQnrB8alTmmMR0OWu2mmjBDgvLOCFqECIj1Zu8iKtcQAA8gEqXIqSZMDgbAuhK7IrxmimRVSgUQUpwjMSHlAkG8lmlu3oQScZQoN3GhKkQDckgktZ4IamoooPOyOScCQUn6DgaF6Kw4Z+RMABEqmI0S7RIQ59mkpmhf0tNSkGv4LuN26FgAuFfKxOyLLduvAfvsPhM8IxHV02462SyRmE00YtYiI4DpeIj3U7PcUTMJHjw0YKmaYTrynfubMJNgtClGszUK1yyZwBSaTlE020/AkiU87JowTdtxloKKxWjI/BB9NskZMMODj/sl6nZOMNtSzSIe5yXazBLLDPLwzDAakr6szSbMDGka0sEkAbNmpP6aLT01+swAqUfukVTmfDNmCYpjGZZDs1wZs8wOpjdF4RWSacIkM8jqdjoRwDTXUOBBCrjGSom+GnHRZQhF4bzs44eMCSGHVED2EC9LIZsRvBZTQXhmeaKlCZKRXGOnKgFaVCRyayR1ZzJrMJuNFpWl+lSQ6wmiGUxfV69SAjK/xuq52SLBaLusoPJKiPYFZHqNkeEaprmtp1BC2tbzcJMSsHcRyc4ERtlKhBnikdpMB7LR0nTlwaPKCYEhvit5qWdTXuuatW2HiDuw2Msepr0dUqa+pDUzyJWHjKs/TdkmOfndYSOCm136dmeI4OI7I0h7tDPYbMLn7JMs13pm0hqtaUYr/1BKNWMm6deUG6Kyf5lXd4zkGswkApjlOjrLMBuoPIlZRiQbMEuBhlgGFi3JAorYjOlEg9amXFesMRJRG7Q1k/BjltHmGcH1cj01SyZNppgdDZixaLt5BmSKwqTWyOku/jNNrFE7LKiwqKJ1QsDyzp7ARU2XIpqeoraRk0uca130ZZ/dn5lmuU5Y83LXWY0xOhwjOdaUXAXyReR8W2QGtWblY0IygPOWNa7ErHb1CtMI6yGpZ4MStQhwYlae7SCx9JVTkweM+z4lCckEAqBTE4AfHwKEwBkBi5Kcnq6emySKPBckgnKC60k5LSWkKSj7s3ad+HqNyV0uZwVt2iHHtcmA+GcU5fyQq5LYmvG/JVEy5/kPEAwAAAAASUVORK5CYII=;" vertex="1" parent="1">
          <mxGeometry x="40" y="340" width="60" height="60" as="geometry" />
        </mxCell>
        <mxCell id="WDatNG11xKEBm6-NoSf6-17" value="" style="shape=image;verticalLabelPosition=bottom;labelBackgroundColor=default;verticalAlign=top;aspect=fixed;imageAspect=0;image=data:image/png,iVBORw0KGgoAAAANSUhEUgAAADsAAAA7CAYAAADFJfKzAAAYYklEQVRoBW1YC5CU1ZVuULJxN4/aShmQiAZRRLQwMZJKSCCRSDQx0ZWHOtPzhnl293TPgJu1Nm5Sqc2WCgPD+828X909/e6Z4Q0zDAzDME95ZbWyxmyScteYSpZgBPm2vnPu7e5Rqbrc/9577jnf951z7//3OFYELiPV/Jex3G/Hl7AiwMbxJazwmzF7/0WsTK2ZdWvH3trKPjOWfZew0n9R9ouNtcvs/dZGY640+xSLxZTGs9zGy8C9XLAZ7MErhtMVOEgmvWjJfZSwDXwREjxwCRIkmA4u5ElEApGQglZyxm4ScI2hZKwAul+FvCSC2v20WxlQv5OSYIll+BZsIr7loYIL2bRqkxdlXhRLk9I5krVzNnMZQAmsg2OKYwWgvfVvxUpXwSQ7ESpDIMbymz3mWcU1GbaVIZhsDPZ2z2URLkV2uVFGyjhTpaDZLMpmOJ8UwM4bwoYgAQko8WHF0T6lvl0z5Z3OtNmbImAJs+cxyhTRxk8LaiswLfBlOPTsKCECsCCWB69gReCKjJlFO8/NK3m2g7Sljaqm6xlBzVkhWQrJzC0PXJR9AoDr0jQDK1hBkj1DKki/FleaBLNFIhpP40sGrWh2Twq/sfFf4plNA2ZAyXCGmnTKJhkSRxpYgTCoBhcCmRVBW/8lrOq4iOcDF/BC8HVkhS/jhdAlrAyymYrJiCU+OLZ+UkcgLUi63O2cFSJjXwon19iUo7mgOLiCFcEreNYsSGZJ3iilQOxtTVt7Vq1DkxErHkut4yLyIm9g08m3cPw372L43T/h8K/fwcun3kBeh1aNkmb2NZatFsazpWh7BW5FMhkTMiq6VFvwV1JtmX7oizxSZ5ZEMw0ko1Ku1qm9TAwoObPm3Njyk2wqmOX+i8iOXUboyju49v4N3MRNgP/fvIn3rn2AhrHfYRVLW8rNCmaJaNaEpGSZcTLK3CRAMJp5OQKp8rZCGX+C1Z5ZOZOaVXVgzpM4tef241kWpS0YcUjQCpQ38S8G3sKfrr6Pj/+7iT9f/Suqe67gucCFjCNiK8fGMv4khpkz71M576k7Ru2YWY3/yb25oKyxySLVNo3k5QKgauYS0NeOOZMChPvNpWFIrwpcQv3I73Hjxo2PcwXwwY0b2Dv+e6zsZBYu6Dm1WUqdY8aw4vFSvCJjxWSwpu4Zs25xfMyXXFBWvctCUBXTbPJcqmN7celYy5379GNAz1Smmlewyv869g/+Dh9cv/6JZG98+CGaL/8BqzoJOn3J2XjWJ8d2jnEltl+/iuxtbc+k3Dupe0YTkJlph5SiZE/JcgMdphyZc2CDq+MrenlIFtPnVh3r+/G59gv494E3cfX9a3JWJzO+ib9c+wCvDfwXVhnB5Aa2OOyNbMaWrCVlK8zGy1y3Nml/6aozF5RmRW5EuajSWUo70hvTXuO2vNKvKt7GepHw9cDSLA69iYHfvoMbH7KUeUHx303cuH4dfW+/i6Lkr7Cyw5ZwGpQC5diWJrNrL0rba3lbfNrzKH1k3W8vq4v2NuZGUyKpALykdJ5Bmem0Q3uW7JwGFqXtGe64gFWBC/B2v4nor/+It9/7P7x79Sre+uNf0P3GOyhJvmU+JQnGVIdk0rwvPymrqZub8TJi8jnjcrICiFjGDyvYlPElPCsk1YEY21uPxixlc/Hox4UZCzFd1wtKs5t6ZQQuY1XoMrJDbyI3+gZc3VdQ2v0GcjsvYkUH910w71L7gc+59DNx2G9wfTaxrKDmHZs6iuYCTY3pi19iYm8ya5WwfVo1vWGFqJBVRVN2GXOWoBVDA5ob2lQG/erZN5dHKqN2bPpUNmwG9YJkiSppW6oGX6a9ub3lk9YkSo6Fn2TtBURHNBQC9mvIlErG9Z8phDxL1tWORPS8pstSwMnrwQAXlTPI2Xg2S7KuZ9+KKn2q0izRdOlOtrO+1YcS1dtevo0nH+q0mkrMnEsBZdcyfpEYEEpUA8kZtL+SRHV7DjOAfIRkOuMqeOrHh/GfKk3jzxIkxjR++s8odbFV/MSU8W2cuUkN9CVuHGQ4VaUtcLuuJZVZxvojQd/FtoJseWdWUGpOblL1yxhyQU4SRSvIJsH2QlYqlFmnsJoUFSQtdKqM+YEgAaSc9MrPBK7gTGZNlvUW1Qsl9RUkrx0tIc2w+QE/6XxSTJJKC6GvLSMgv4JSN6/OSeYtcRIz66kKsLiF7CX9Asyc4w8BOfSyUYmkPiZk02QldY0lnHnR2LJRWxIUkQywdHnar6Q0IVuaam/3q/+PZkjuE0NEkzAZWyrLJhF2nOrl9yyva/NDOrUgda8XgGTAiPGs+cGQ/rDIIC6XU7qEJpepiqNZ0O9bG0uPBIHby5HPeutqHIqjPyml8vipKEfKkrVlase6PxU/cNn8bL0ER2ljEiX1SZQ2xFHcEENpfQJlDXGUNSRQ0hiX+fL6OErqYyiuj6OsLoES2tTHUNIQQ1l9HKX1MZTVRVFaF5V5+uKeUu6jL+ljsq+8jr44x7HGo73Y0V+Dja+YShsZKyE4+FzekERZPVsC5U0JVDRwLobypiTKadvUDXKiXXlzTFpFczfKmpJwHHgtB/tec2If+1ezsffVbOx71Ym90rKx7zWd4/weaU7seSVbGuds2/dKDva86sSeV7PAZ/XlxJ7XnNj7ilPm1Ja+7T4+m/js1+dgvzQnDqx3om5DDg7U5ODAhhzUs9Xkom6DEw01uTJuqMlDw8Yc1G/MRWNNHpo25aNpU26qNddyjq0AzVty4Wja4ERTTTaaapxorMmS5waO12ehaYO2xppsNNa8gMb12WhYn4X6DVli27ghC82vOcGea001WWgUfxl7xTZbfDXUvIBmjje+gMaNjJWF5vU5aOLz+mw0b8pGy8ZsNNdmo6U2Cy0bnWjdZFqtE221uWitdaKlNgdtm5xo25SD9lqnzLXX5qJjSw46tuagfasTHVty4d+Sh46tedIHtuXB0bbZidbNTrTX5phNOWjbnIP2TbloZc8A0udIzzUCaNvIwAxq13Nln8zRfnMO2raY/bSz9luc6r82V2J21BJQDjos2M25MvZv1vnAVva5CGzOg39rHgLb8hHYnofgtnwEt+UhKHN56NzKuTyEthUguCMfndsL0Ml+RwFC2wsQ2lEIR5CLZkNwaz46t6lDO9e5hWN1yjk69W/PQ0DmTUDZkyt+bMAQbWXeic7tFmABQlvzESTY7QXSd27LR2gbQeUhvJ0g8wUcn0M78xHZoX14R4GscxzelY/wzkKEdxUgwrazEJFdHLPPR3RXobbdRYjtKUJsdyFiewrhUIM83bizAOEdhQjvLECEzncVIMp+dyEiXBPH+RIgyvHuArGlvewRAPliy4DJXfmI7chHdH+uBIvuLkJ4Z54BU4DobjYFFttdgPiuQsR2FyFOcDsJtBDxXZMBy9zeIiRoJ/1qxPesRmJvuiX3rkaSc/tWI7l3Dbr2rZbmSOylc+PYOtlNB3TGvlAd7ylCYk8RkgxCEHsLIXupHB3Tnut7itB1oAB9sSwc6luOjsEn0PrbhTj+34vRc+IZJA8UIHGgAMl9RRBQBLR/NboIdt8afd6/Gkn7vG81uvcZwPvX6DP7A6vRfUDHPez3c1wscz37i9HD5zozrluDg3XFcHCTMKeD/UUSpIvBjYOu/Wsgjc45v28Nuutoqy25r1if2VPBujVInvonxK59BTXX78BPPvwcym/ehn+7+ffYePVOdB15Fgfr6aMEB+vWoKeuGAcPFKOnrkSeew6UoKee8yU4VF8sINn31Jfg4IH0PNcP1hfjUF0JDnOtsRSH6tbgUF0pDjaU4BAb1xtKcKShWGwcYkinXDD9wQaO1+BwHedM32B6zjWU4DAdNKT3HDpQjEONxTjkL8KeP87FSzc/i4qbn8GaD6Yh9/pUeK/dipJrn8YrV2eie+ApHG4pxeGmUhxtLMWR+lIc4XNDibRDTSU40sRnzpfgWAPt0mNZayqW+WNNpTjWXGpsSnGsqQxHm0twjH4bua9Mno82lcFxhAEaS2SBQQ+JAYMZILKm6wwuAAlE7ErF0TEhX4ru+mI0DT+O7R9+AT/98Db887XP4rl3b0H2mw48+atbsfx/p8Jz/VOoee8uRHtW4HhTGY41lwnA1HNzuYwJ+ngTn8txnDYt7MtxrLkcJ5rLcLylDCc4buFY57l+NGVfJvac4zp9OI61qBoS1AZuLAXnaXCcqjWX4gTHLWU4ySBNZTjBIDZgc4WCbi7Ejj88hH+98WkUfXArnvv9bXj8dQceG5uKpy46sOLircj/9adQ+OfbsG1iEY63laO3zYXj9NWqrbe1HCfbTGutwInWMpzMmJP11nL0ttOmQvretgrZc4L7jK+TXG91pfb2tVXAQcB0IMFEhQocp/PWCvS2cHOFbKAj2vW2mADtBFqOvhYXjrW60NtehvipFfj5X2fA9bdpeOrKVHzvnAOL+27BYyem4KnhW7ByfBqePfdpZP3P32HPb76OvkgZTnZUoK/Nhd42Nwior9WFvnYX+jpcMt/H+Xb657qxa6+Q9VNtbvS3u3Ha78IpWa8Q8SjEKdq0qY9T7S6c6nDD0dfuBgc0kGA0aK9QY27gMwF1VKC/zYX+dhdO+yvQHyhHf4cLp8XGhYNHslH/3v148W+fxTNvT8Hisw48eWoKFvdOwZKeKVh8woHv9k3DjwduwfffuhU/efcOHOwulNgCVABV4HSHG/1+F053uNAvz270B9z63OHBGc4FXGbOg9MBN84ESNgta1w/HXDhlN8lfsSXWXOQyCm/WxepZgdVICF1QEJCyu/GAOcDFegXssYm4JHg4d7nUP3+Z7D6L9PwZJ8D3z3iwNLDU7D02BQsO+HA4mNT8PQJB5YecWDZWQdK3/48eo5lo59xAh7JDmPq2I2BgDYS+XjzYCDgwUDQgzNBfT4TqFTSJC7kPTgdVN/0RTsHVTjtZzBjREKijgdnqEjQpT0BBUnWBvcYEC6c6ajA0YOF8L7xj3jqP6fiB0em4mtJB5Z1ObDkqAOrjk/FsiNT8NjBqXgyMRXPnJyGl8Zm4mRnKc4GPTgrxFwCiDEH/EpkoNMthM6SWMjMkRz3BCtxtpPNk2qcZxtk31mJgWCl+pSxBw5RjQoFDDl/Wi0JEmTASvCZjiUQAwQrMWjHQQ96I15sPfEtOA9Nx5LwVCzsdODJLge+l5iKJxK34QfRzyE7/gX8IvZ1bOpZgkTiBQwEvZIhARxUcGcDhgTjkRRjhTQW48lcWAmRFAkPyrpXSMo4XClkdb9XbM4FK+EQRym11PlgyIPBgAfSh9w4R7VSCrpxNuSWsQYzgDp5jlxIxvLgDs/F0tA0fDs2BUujU/Cj4BfRGv0xDvpL0B9yoz/kwoC/EucIMqziCshOH86FvDgX5poH52Ts0eewB0Ocl+bRvrMS5zordT6kvdp4dT6iMRiHfh1nQ15DioQqcZZEjZpDAkYdDoYrJZsDnVYEqm2cEYDs9WIgUomAPwsvhhfgh4F/wKNbP4WXW78q84MhN85HKjFEQgQQZmwvBsM+Q5DP6ncw7Ba7wTBtKYAHQwTPcdiL8xGvrrOXuUpZH4qY9Wil2HAveQjZwU63AD1HEGEfhjq92qKV2oft2ChOxyQp6itoVgAVVTAsKy96E+XY0vhDLHp+Jlq352Mo6Mb5sAeMo2Xpw2DIJ+QYl5k8TxKMFyZQxUNiFGeIeMJeDIe8OB/y4XyUeKoEB+eHol6QqNiGuW740Kes+eAQ1sbhOcmazyiUVp4qnhNAGlACG0UFqCEqYCIeDBNoxIctP12Be+6ehU0vPY1+vwfnQ24M8bzxGJC4lKkP5w04IRtRcPQh8xEvhmOGCNciPgxFiZGi+DAc8WE45sP5UBWGZS+J+jAcVVuukyz3Oc5HqjSjIXVA5c/HlBzVknIRtem4CiMRL0bojAFsYIKlykKGvQ/xvcVwORfh4QfugPPphfhl1Q9R+7Onse1nTyOwNR+9rSU446/CICuJFUXQJBb1YYS+o0qSWCROROdHY+yrlFDMq7aRKgyHq1J76WOYQsRIWsUhTwdVUGXNQkoJBrMgfBiJe9Mqco8BJmJIFirR2+6RvwX91P04Vi5/BN9YOAdz596ORx66E0sXz8Pihfdg0SOz8eS3HsTPPUvll5UQCVdjJEb/zCrBmexKhqpAoFwfjVVhOFaFc8ZGBCchChX1YjRK8lWSrOG48rGEz8eYWSpiSoGZI3HJHI0NcSo9YjYT3EhUgw9HVc2znW75i8K/lH4by749Hwvun4V7752Jr8y7C48+fCe+8sBdeGTBl/HwA7PwwNwv4t45M7Bo4Ry87F4G/loikPPG1xDxkABjMssSi/FMxiW+DyMJS1JJjSRIVvGMUqSuSsmu4JW9Xs0sz4QQFHK6YThORZlBVZOKkdxovEqIU2UtNx/O+l1o2bQSz//oq5g/707MmnU7Zn95BubMno7775uJB+fdhfn33YG5934J99x9O+bMvh3z7vsSnnnsQex/JQunA5VCajjKDDOGT7JIolrWjKXxdV1xWLGJg+Ut5SvimBKWjKtI5OcYiVeJIUmRCAOxVKR0SMwEYZZJcEzI6pkR5SM+jMV8iO8vQnX+N7Dw4dmYd/9MzLnndsy+azrmz56BOXdPx32zp2Pu7Jm4/57pmHfPDCy4dxae+M6DqHl5BU516DkkFsWjJIV0XMHKfUEhpFWL8EIyrvElEQndb/GnRBMhqpUsDXlW7GarpmSRGYz6MJawZFk+FKFagNHxSKQKp/xe+Ldmo6JoEZY8Ohfz7yM5ZnY6Hph9hxCce98MPDBnBh6afye+sXA2ip5fhOD21XKhjcbXiugkK/FJkhmmAMyWEZ4EmAA7ZnzBL4Q0OWrP/WavOYYOLQVu9mE0UZ0+I1TMlMQYnw1ZngdR11QBL46RqBdjcS8Ggi507szFS6Xfx6ofP4TvfHMuHl0wGw/PvxMPzZuFB+fNwtcW3I3HlyxAZeEStG/LAX+mEfBoXEvYntFUVqOsJmIzNjxKYl9lzqghxKwyAcTMRnuOaStrPjhY62OJKiHGALYcOEdDlqiUtxDXUmcp23XuGUuqj6E4PxK8ONpSgrZaJ3b/xwqsf+kJvFjyGErzF6N81TfxM9cy7PrlSnTtLwZ/qVDkscRaEZOxR6LVEm+MGTOkxuKcM2KIyIpDqkrG1UJcqoDZJB9bCeZuoUAOGgihWLUqwM1CsloAiBCmdIRUsloccY8q7sV4vArjcl68RlF+2VRhKFSNsZgbZ9orcKJ5DQ43FaE/UCGfbyx9virG+EohETZWD4GyN5ehjC0mZssQGbV3jGScvohX15nR1DrLm/ujQtaUpdnEOpdsJaowHvNhIqnkCYRqKTBVjgR1jmQpAsmtFeDj8Wq83u3DpR4fXufehFdITCT4LtR35liCAhuiFF38awxJAjHQhuKb+IxBjLSVRtzmTNryltK1mRWMFJIXlC0VUZPl4MN4xIeJLgZaC14cBCUtthajkWqMy7nROVGRJOmUivIy4zlLKtDXuyiAVzIvPpIWpJamzpn99BNdh/EIbTQuxR1jNXGfOZOMPy5jTYwVhkKTsOCjCKlXGe2YWarHM5dSuwqjdGQyzWDjyWpMxNZK5iYSHHOdAI0QyWowk6I016Qxa8zyi2I/EfdJuY8l1+r+5FrJKv3Q30ScJW3Ob5LZfNFkXe0m5NiYuNxrMszyl9KWDxC9ZCmOJkGrhNUwzvcsg0/wayTGoF5MkIBc7UbRxFolElsnJcVsT0gJrZVscSzE4+vkomLZkTiJCmmWn9wHajfOjLFcZV0FoBACmKInVdSx2DqpKqks2jNrrB65MygsCbMCVORhWSdmZpcVZqrBHA3aO8YT64yCPFN6huhkNOnDOEuQGeyqMmWtWZYMdqVLdZQACESyTSLGj60QKUOfnmuxJfEq8St7ZJ37SUizxmoTHCREHBxbvxTUEpc5LWf1ZXzbdStKkmXM+pcJHvx15tAbVWJrMR6txATLoJtg1hlCzBoVXYfxqBcTklW+q9fJu45rcmGxKqKVGGfVdFEE7mcZaxtlFmMerZwu3S9nldnnxcg+YtaFPPHRN6tqLUZi62S/ZFmOHec1u3rGuU6RtaocvG0nZUVKjOXEC4aN50gdsIxYIvY9pqQyzpm8PkhKsyjqy+vEAOB+8WXFMO9oyZyWI8+ilKu8W0nYK+PRJMvalK1gttllhVEcTQDLXbBn2ohA1fgIWQ1os0IHE1J2Fpy+k0UcguFFIGVkzqNklAToh2eP8+YMEqgobM7dR256jcmLxR4nnj1bSekbnOJPdGl21T9jKT7xYW7+ieQ6qSAmivM8rv8PSsMomRvLuMoAAAAASUVORK5CYII=;" vertex="1" parent="1">
          <mxGeometry x="100" y="340" width="60" height="60" as="geometry" />
        </mxCell>
        <mxCell id="WDatNG11xKEBm6-NoSf6-18" value="" style="shape=image;verticalLabelPosition=bottom;labelBackgroundColor=default;verticalAlign=top;aspect=fixed;imageAspect=0;image=data:image/png,iVBORw0KGgoAAAANSUhEUgAAADoAAAA6CAYAAADhu0ooAAAZCklEQVRoBXVYB3Sd5Xm+MquhSelpg7FNAO/BJiGUPRKStGkOYMvG2pZl7XGH5DRpRluHQ2LjbWw8ZEu62rpDukvykOQhb2tL4AEJpJBwSlpCmhjKsp+e532/794rn8Tn/P7+/xvv+zzPO/7/yrHIfw6p8es8FvnPI1WupHnfOSz2n8Nin87ZPZzjWV07O8HOYt9ZmVfbtHkOqXI+YV/sGZupvonnrV05Y/fEsRl7FvdfXD+Pxf7zIBZHgpQCsCR0PgFqAuArHRohdI8SEhF855EaMDYCF5JENHMGoArIvUln4z44NzEABD9RAApusSo5i1f2+s/BoUbUWJy0AbDIghTlaGgikHg2cH9cVevUjIELSJUrGayxJeA0K+LRNpGlUFeKLs8T/Bgf8TklazMvmbwQtRPW8CL/BaTKlQxIjXAv13UP0yKZmIJexOiZaNKm7jlrgF+ArJN8nKj1o4KpwFeuG/++c3re4PuzgojtBEaKKKkbT7MJyhilCdRENDEqMImoJZp01iq/xHcWz/texfO+cSwOnEVqwNZtAnSCrBGJdihS3J7B4dNasylpRw0O99gzSaLFM/E8HInoXcBCG8XABSliBWFAMZIEwGgypQWQNiJ1opEmgEWt55DZcQH/fuQdBMb+C8d+8z72vv0eXjr1FjKCZ40dK6AhZjLF+rRZkEhDS0Yx6D4zx7MBXq8L4QT5xLpDAEujsKliDlGheHqRWILwlWqrYbt+Dun+17B68Ld4/+LHuHTpMoDLuHz5Mv7vs88R+/UHKOh4A6ltryWJSUD2op2z8Q5vI0ef2hOsH615zUbbI3QtUU42ypK6NKD5TMByxTukdko7b9WOqynd9qwRgdFVR8XRC3j9g4vAZZKc+O/DTz/DhsF3kRq8Io0lYzQCKlyCuMVnxZYaN1jjQsQbZ0KIZLwOfX8xijZdbZdUkmJIGgANJKlKkuyQ8VrSprPEfx6Vh97CxY8+ncjQPH1+6TJ85/4bS6VMlFgckNhKAhrPIm1g8oYQQib74rVsX2MJcZJxEXdS11WCqp4eVGVZmwmltaYZPaaXTbEEOK5X9vwSFz/55M8SvXT5czS9+T9Y4juPhUxXW++SVZpRCtL0AttBA69jkZ81SJI2e/6SUEmETZYlPhisQb+NrEaQasdzninNyJtGxFqSiCd1N3ba/P1v4tcXL0ptXsn2488+w8+OvYPFQvQ8FgfsCz4hlhK1zySmfhOvpcRXWryMDKGJz4aw77z9MtKOqrmvaWHrTYiSiOm4oqjc2wZg1VN1F/teQ0bwDQTf+ACffsaoJur08uVLGHv3T8iN/UoiuShogehos8WKZ8tJs4xktavqOkVWMWxN63kr0Dnp7vopKp+AdKKK8SCN6zMPJEhPMGaJmk5pU1wASJqfRWnsV/CffQ9v//EiPvjwI7x38UP0/Or3+MHBN6WumfqJ/Uxh+lKxLIHEaCL6Z6NmiSWTtnPWnvlg4PvTfu4RtAI3zYiNyNSofjCYZ0lf277N60ca1DksaTuHJb7Xkd7+Ogpjb6Fk35uo6HoDWaE38Lxkh0bQ2hNC0mR0XgQXHPqsmC7EPyQmvlsNmSvO2ybLvUkf9QlydGI/hMVBvB6NYhOimayccSiqJwAyKxYzWra2TRYkonflOWMzGbh81CdedTbSiaCYMwYbyUmwLHb99cLmY75NJXK29njY1qYFowTirdtG1X4mmogqCT2jYikQZoa+4C0wAyiZlBFCgFpRhACDoaWUyIBEgOLEBLOpX0OUxE3XNY4n1EBiLp4q4tC+6C157crxNLTGBSRtaOrE1+PzCjJByIA25+NiCvCEr0Qm0DajnESe9/Z8kh9JXdkooU4+oJ+BCWdWOQs8ObI6pzVu5o1gdKBZkZiXfRJB+62rpZIArN1SI2TOx0EnE6ZfbZ7cq+dtBupaIrPiEZ0IiIfiEbgyHeVriM1HPxgohhJKiGDFkzUTUa0r+xPLiGMb3YQvLP0k1RRXXGKfkTLR1TeDJZ3o1vprirYTczYD5NeLfWdachz5QreblIw60jXj1H5MmBpKVjD+o5yfjQGtTbEvrxGTMabxqS/7YWLrOOHDChYfTcNT3IlMtG+HOO64fYmoebXEwZpXhWnvbFQ8SOCipBXANBatX/t6MeIY9YWA2b84oOe1A6vq8kFgf0DYiIlf0/kl9dVmIlq2jKwQHJOCYutUgnUOC7nGZlRU14nCuggKvWEU1cVQ7I2guC6GQm8URd4oSusiKKoLo9AbQUltFEV1URRzv5kvqY2gsDaMwrowims4HxYbhbW0QVsRlNRFUOyNosAbQRHnGqIoqI+i0BtDUX1M5rmvmLa9UZRwnvt4b/wVN8RQUt8p2Iq9nSjhM9frIyhp6ERJfQzFDXvFHs+XNIZR0hhBaWMXihs64ahek4ndazJRvTod1WsysHtNBnatzsAu3r/ENZ3jGud2rc6U9Z0ypqN6dRp2/SJd19am6f61aajm+kucT8fu1Zmo/gX3ZaD6pXTsXpOFPbS9OtP4yITFsfulDOxem4WatVmoXZ+FmnVZqF2Xhbp12ahdnwnv+mx412XBuz4H3g1ZqNuQjfr1OWjYuAyNm7LRsFGvxk2c430uGrdkw1G/Lh0N6zJQvz4NDevS4V2fjvq1ejVwXJeJ+nVpqF+bAe/adNSaPbyvX5OB+rVpsqdh3VI0rF+Kep5flwbvunQ0bVqKlo3ZaNmUCe+mdDRuyJT1hvX0mY6GDZzL0GtjBho2ZKBhYzoaea3PRPOGTDRtyELTxky0bMxC86ZMNG3KQgufN2WhdVMmWjZnom1zNtpezkLb1iy0ctySDd8WzuXAtyUHga05cDRtykTrxkw0b8yQg800tCEbzZs5n4WmzVkytmzOEuN01sp1cZKF5i0Z4JnWzZlo2ZKFNu7bmgX/K2kIVmegq3ExDralYn/zQvh3kHyG+KPPli2ZaH45E61bsuXybV4GH4FuzhHABEmw/s3L4H+ZgJchsC0HQY5bcxCQuRwEzdi+NReBV5YhuC0XQY6v5KJ9Wy46XsmFw78lW4yooRz4jQEZt+TAtzVHnRhj/m18zo474T7/VtrIRduWHESb0jB0dCHeePvbOP6b+7Hvw1vR/8ks9L9/F3o6vgvftiwEt2Uj+Eo2Atuz0b6NgHIMqGUKjEC3L0MH17bnooNgt+lzx45lCG1fjtCOXLnCO3i/HB0yLkN453JwLrwzD5FdeYjsXC6jo317DtpplAZfydVxWy7aaZCK7ND59u254BXfx/nty3TulWUI71qBXm8Gxt55FP2XbkX00mRs/Px6rL10HdZcvg61l76EwG/uwIHQs4juyRaQkV25CO/IRWTXcgVEULy2E9xyRHfkISxg85QA53blIbYzD9FqjisQrV6BWNLVWb0CvGK7Oeaja08+unavgCNMYzvpLA+xHXmIUokdqkJ05/L4nDowQOhk1woFSCAEVrMcfYPfxKufz0I9/gY/v3Q9Vn44CT/430n414tX498+vgovfHodwn+Yhv1di9BVk4dOAbMCnbvz5Z6AeMn8Hh27ZI2AC7B3twLfW5OPvbX52LcnH/tqeK3AvpoCvd/DsQB7awvAfftqC7C/tgCOWHUeOveswN49y0UZ3utzHsTJnnx01iiA+DOd1nAfneUhVp2PvvYl6P/TPOy7/LfYcukGbPrkevzH+9ei8JcpKH0rBaWvp6Di91dh1SfXwfu7uegOL04CWIB9dQrqQB3vC3DAPtfyuRD7a/Kxv7YQ+7luxgO1hejmWn0Runmmtgj7vYU44OV8gYw99QXoriuCg4z3eWlEHdHJvtp8HKASdWr8gLcAB2rozDpVlajUgToaXoHRM0/jyKc3Yv2la/GTjybhp7/7AgrOTkLeeApyR1KQP3wNnP95FVb94a/w4h+/hNDJR7GvoQg93iL01BfK1e0tQHd9EXoaC9HrLUJ3g4499UXorStGT0MhehqK0NtQgIPeIhxsKMLBxiK9r+dzMXr5zD08U1+MQ5xrKIZDnNBoXZEo0Es16JgAvAqgp74YPd5iBcF1zvOMnCtEb9MKHHrtMRz47Ab88NNJKDo7CQXD12DJsRSkn0pB3sgkVJy/GsVnr4Vz/Gq43r0WDa/fi25fAXoainGY4BoJqgSHGotxsKFEr8YSHGoqxsEmzpfIeJjrTUU4LM+lMvbKvhL0NpbKeZ7h/sONus5nB1mLEg06HqQS1rGMReKsVwCYPdxbX4Ke+hIc9OXi9GvfwuE/zkftR9fjp2+nYPmAA8tOTcJzR1Kw8EAKFh5xIOvk1Vh65lqkH70K+W9Nwrbf3ooD4WwB1NdWhr6WUvS1lOAIr1YzNhfjSEupzrWU4KhZ72vlXCmOtnJO7w9zrakUh5tL5XxfcxmONNMO95XBwQcuUiEqcKhJn4/IcxkONxdDjZTgcAPXaawER5pL0dtcikNHnsPRj27G7s++hFW/+yKKBh1YesKBjD4HMnpTkHHUgWe7HViyz4Hn9yrxjCEHfvjeF7D/aCr6AkU43uLE0ZZyHG0rx7G2Uh1bynDUXH2tZTjWQjG4h+t8Lsfx1nKc8JXjWGu5EOZ6X1spjrWWmrNcK8OxtnI4aIwqUgHeUy2qpE5KcaytRIz3NZfKHjrlxT19zeXo7V6E+o++iLUfX43yN6/Gin4HlvQ4kH3EgezDDqQdSUHaIQdyux1I7XEgY38Kcnsc8LxzDZpPfQvHfeU4ESjH8bYKuT/mL8OJtgqcaCvHcb+5eN9WfsVcBU74y3HSr2RPtlXgJPf4y8TOcV8ZjtOWr1zmHWR7jJNt5TjqK5cwH2/jM5UolVGeRZkyUZsgjgmwMhyJFeDFX/89XO9OQtbgJHzviAPPHHBgcc8kLDqUgtxDKSjsS0HGwRSk7U1BbiwFWd1XYeWZG9AdyxXfJ/1OnPRX4KSP4CtwilegAqeC5TgZUDIkxD12/WSgArxkr5wnSXtxTfdznfscJ2jcV6ab2qimqniSShtFqLjct5UrGKpkjB/rKEP1iSdR2nMDlsSuwfNd1yA96sBzB1KwdG8KlsauQmbvtVgR+msUhG7AmtDteHnvHWhpfwb0cardqYAD5ULutL8Cp4NOnOngqPen2g3xQAVOy+WUPbquezhPcc4EK8TmqYC1S8GccIiSVMtXJo6p3CmfKkVVVDHjSJR24pTfidMkGqjAiWA5jgZL4IssxKrgXcjffzW+F0tBeocDz7SkINd/HTaEv4aawDdwIJCJI/5i9AWKcSZYJhE6HSwXcGfanYhfAaeZq0B/hwtnSNxeHU6c4ToJc47nAq7Ec4cRQdb1bH/ACYcoQRUD5bBOVVUaKlcD7Vx3qcLtFegPVoCHxUmwHAMBF04Gy7E/nI6f+uch038tUgOT8GwwBct9f4dm3xKc7iiX/QKcwNorcIagTfTOBF3o73CiP+TEQIcTA+1uHeWecy5zOXVf0In+IPfpyLM8R/sD7S4MhM0z19tdcJxpJwCG3IlTTBWpDS6SiCoiaRRw4jT3yUFd5x464Nzpdrc46WzPwvaOR7Gi9cv4zs+/gBe9X8epUCmUiBtnTIToXIh1uDEQ4r0LAyEF1R+qwKA8u8xYIXtIlvsGw0q6345CkFgUw2DYGd8jQpAowQ6EKjBAh6KSS1UNKoCBoKpDpVUtJwapXojONCo0RhAiQsCFUwE3qquX4pEnZqBpa46CC7HunFI/ss8QEzshEnJjqMMto5AUAZwYDDkxGHVhMOTCcIcLQ+1uDJFgyGMwuDEQVgH6iZU2SJQj7YZ51gOHgKciLGSTLpwTxdvVgSjVzsMuDERc4kiMcB8JC2nudWIk4sRwqAqbfrIIt9z8Ffyo5J/R18IUVRLiz4oWoi0FxFRVYB4MhdwYCnkwFHFjOOrEYET9DHJvRP0Nck/Yg6GoG4PtHjk7wPWwChFfJ9GwGw6JpEmTfuZ1hMqrSnFlO+jcg5GQCyMRF4ajNKaXKEh1O9g46MiFw80uePIew513TMM/PnofPMuewIv/8l3seGExmjalo7N6GbobS2XvkKSdIUbgEUM07MKQiKrghyNujERd4DgYcWMo6sIISVKQdo/g4Zrg6nBjOOLRvWEPBsMeJarsSc4QNEoPiGpuDMdcorI4kT1OMSg1FXKCYE8EnAjvLEL1C89hZf438PhDczFnzpcxe8YUfPWeGXjw7ll44uE5eOz+2Xj6kfkozXoIvs0ZOOOrwLAQok2WCUG6MSwjCXhE2FEB7kF/SHHGCZsISgAiHok4o8zzkhEinhsOIUklQh7Ja9kQVWKMjjg1jrlnmI65X5T34ESwDL6N6fh+/mN4/rv34MkHZ+Peu6bjoXum4+H7b8FDd96Gxx+egycfnIcnH5iJ+XNuxp3zp+Ke+bcg65l7Ub/xORwPODFCkmKXkXJhhH7CHoxGGUklG/cfsxlgBIm5oEK4MUKCXRSf0VWsxOtgegg5m/OS98x5kxaWGBWOesQpHVOtgXYP9u9egZ+UPoEnH5iF+bOn4tbbvoxZ06dg9vTJuGvezXjgHiX9wD0zcNfsm3H73KmYPXMK5ky/EXNnTMOS79yN5vXp6PdXCKkxRiOmBJia9CX+hHjimSJQbKboiElZuacoEjgNBu9J3sFNzHMxKopWyjNJibGQG8MhN0bEIJVVkuK83YnDTYX4cfFTePz+mzF/xk2YO30yZt12I2bdchMW3DYVc2dMxfw5N2GBjFMx87YpmD93GmbPmIyZMybjqYdm40flT6G3rkjqf4TRCpOQG6MxkqjEcLhS/IvQkUqpOfaJkZgHo0LKg+GYYiNZy8fWKQVxMLwsVmEuTUZV0k0kqw5Ho5pGmrrGcaQSp9vLULdhGSqyHsGDTM2Z0zBn+mTMmTkZC+ZMxR1zvoIFc6Zh3jxzzZ6KufNuxKyZkzH91htx390zUFn2FLpqCjEarQT9kKwQMWKPxCo1shLpBCFilK4tEU3CzawwZ8mLthwK3IORTipnNtOZpIqSE2WjSi45nUSEqAf8ktqxahFynnsQ9915GxbMnYo5s6Zgwexpks7zZk0DrwUkO+smzJ97E+bOnIrbZ03D1++bDXfuNxHbU4ShjgpI6jJ7BCiJm8iKf4NBIm0aFXGavVKTfBZBKjWtTaQdozE3RqX+tHglHbgYIUmqS9KJQxLZmO2GHox1ujAUq5Q/X+xenQbn8m/iicfn497bb8bt86bijnnTcMfcabh97hQsmDsFd8yZgjvn3IS7F0zBQ1+bjrRnHsD2ny3E4aYKeW2MddKm1h/JjsY0ypJhFo+Uj2LkHgkKo0vCTGeOttRM93Ywx6X+DHPej4YrpT7Gkg6Ndrkx2sn5SulwjOxwJz8QVHGmf3/QjX01hdi8ahHyUh/Ctx+dj6cfXYBvfWMe/uGr03Hngq/gvjun4+t334qnH1+AorT7sW3V9+SPcPxOHQ5VSNqORtT/CEmTCDFR8JjWLokJQZNlw+wxsq41PSI9R89Jw+J7lG15tNNspBJRN0hwPOLGOOepDKNOQ1GNLBUb66RAzP9KjPEye4Y73OCfRvhH5G0vLMa6Hz+LFyv/CZXFTyMv/REUpT+MlQVP4aUfPCN/lz3eWiifiNp8tBbpayxGm0xVbTqMMkXWBmSzTdelnm0EbdqbUTDHSJTpQdDsbGE3xkJujHd5MM7oRas0gpI+VRgJV2k0GXErgpD2YDxaifGoC6Py7q2Uj/fjgTIca3Wjr7EE3XUl8ifN/bvzsc9bgKOtpeAHCV9jw50ejHeRWJXYGe2qwlgnSav/OMlIJcYjFJlZZRqUpDfxr5QUHrXRteXGjIh64BhjSpr0FYNUznRYqZHOSoyTmETNpFS0SqJLtUa7KvEqU4xR6KzEWBczoBKDkSoMGmHGoitNc6nCcIe+o+VTzag+HnNpFnVVicgSOcmuKvE7Lg2pEmOdFIC+q7QBEQfLi3Uor6RKaaojkSrNROnilRjje3Sc760IjbjwaudKMTwcqZKIMaJMS1FWDlVhTJSk0h6MM71EgCpQMKYzBRFHvCdxAmEEKKikoqY/mwbTkudlH6MaW6npGqN/7Qc8H/fPeYNDgmAa1RCJ8Z4iUDwKbOpbg1YFh+Qw65KGRS2+asyzHGZasT5IjmqaVDd1pGnGaCbSnLUlQJkdAtjUt31FSDpVSn2TvGSCnF+pfuw5jl20ZevTkDfrUsOd2lfUH4XQfiM2mfp87mTqxmicRU41Tf6LGlUYCzsxzqgyHSVN6MioHV2JsbAL450rBehw9PuSznQg9c19YadGgK+LsKa7nJf2z5p3iT2eGYl+X3Boeqqw1j+zwUaVdcxrOLISoxF+Nmp2cV0FNtGMrJR3MveSn4P/ySUqabREDYmYptto50qpBXZYqjNu05GdlnVD1emQgE298v08EnPJM8nJS50ZYfwxM+SVwP02TRlVEZn26JtCJGWapLkRIY6XZ4xvU3Laa0zZmN4iREUJaeem28pB2/m0EbEm6ZxGxm1UBbRpGELYI6StPQEgNW4ywe4XlRmBxGuEYvF1piWgDUdISmPUBqf+tTvH3wiGiPiMuBSfZJlGmPPM2v8HteuZgBXHBngAAAAASUVORK5CYII=;" vertex="1" parent="1">
          <mxGeometry x="160" y="340" width="60" height="60" as="geometry" />
        </mxCell>
        <mxCell id="WDatNG11xKEBm6-NoSf6-19" value="" style="shape=image;verticalLabelPosition=bottom;labelBackgroundColor=default;verticalAlign=top;aspect=fixed;imageAspect=0;image=data:image/png,iVBORw0KGgoAAAANSUhEUgAAADsAAAA7CAYAAADFJfKzAAAazUlEQVRoBW1ZCXSV1bW+CUhfW5+rfRVkEgiEhBlU1LaWOlStrVYkgEoGQgiZk5vcJLZantRXfXVgHg1TZjLcm9zcMQxhTkggQCaQQX311VerrcOyrbZKS763vr3Pf+8Fy1pnnf8/w977+/Z39vlvsC10XYI05yUk8Nlp3l0X9d11UeetdfJ+Udc1WWtNz3djJ0HmLsveBOdlY5v7TDN2FvFdbF+EPMs7x0wLzYd9JYRi5JgVp84LBpdiSWgy/l2Xsch1CbYEy6j0BrBxHulwkeuibGBglsHIeQFhCFHSrIDDQYaI5ToDWsGSgAsKUMYVxDX2TXxhG5b9SPL+ta9FzgtIcF2GzWJVQDQZRr7CpmXYGJN1hlFZex0RZkxUYmW/idlVpkM+DcBQdpvUD4m9HtS1BIfJCq2z/BjClSgTr4lHwGp2LVaUKY5ZDkLzlI+TwDQYXXMRCTTm1PXWnoWWjJvexELKyQRzbdYtEq3sMIbwWMhWyJ8BGVoTCSZCcRbZ16jwkpVZ3aTGLZAMMJyJsGMajcgSQYbOhpmTLF6S/QtEshYIE5w1b8lZsmGyKfa4zviWwM0+s57+NAYdj4xNFcq918bIccmsZMpkLZx+gjYBfKW/JMVE5qUgaWB0GgrCeRGLGy/gSdd5LG48j4UunklzLgWc2tCzHpFNC1xEdlhceCR49jS+f52EUOyhvVwfJsom50gycxkLLDYjMhoyQCCmCkqlpUGRtGZB5mTfBSyov4SCA79F9RsfoO3tD3HonY+w7dzvkbv3LTzRyPUGnBWUZddkjvMK7IJW6IiA9bYIk2uBEaJ5ZELStXyE5W2Ts2bAykYWHzYGYECLTAw4WWMFaYKwZMUgE5wXkBO4iK73P8U/rl7F4CAwiEFc+ec/0fenz1F08G0sarwQrr6uS1IDtNpznEESpJVFvl82NYHP4UyF5BsZmxAVsS4U60XKmHK9HDp3Cph6V7DCWISDsDM1GDoCJhuL3RfRcP4P+OfVq7j+39Wrg2h48xM85bogEhdCJaumQJnip+RaYK2jESldjU/BRgAzitFxQ4pRDeO2KYOaTQUSPvwhY1bRkIprjDOwEGsqlSedF7Dc+xZ6//hnSEqvRwvg/J++QFLLtXtV1nqGrUovsYi6DNjmN82HDEGbZHBeYmBirOdwfJZd9oxVMqsbWH3flCxLBTV3Lp3K1WLOgpxxyYBK8ZrgXJeR7H0bAx99Cor3q/8G8cYnnyHF85bIOHS/WgFbx8K8C9nNhnyJjWeSMRLQ9Rm1wEbUhJAidX34o4Ll3JR0KwiCvOYONWtkngGFzpWyz6qZ2HgR7t99iKuDX5Xx4OBVHHn/EzzpPCcBW9Ve/VnBGyChe1mvQImNgKWO6BqJTwBZe63zbL0bW0bKBiyzFwbLsyTl3jBjnUuLDK2IBGuxaPWUyxv45ZF38cHnX4DgrAyzSP3173/Hf3e+hwRKMpQZc16t9wibCVJdmdk3keAkUFWeHjcLEIlWG6K6iGxSGTymVrEzYMMFSpkz76YaE7h+2GsxU5DKosxFOCDYJ90X8HLH/+H8B5/ik7//DR9/9jec//DPeOnE7/G0yQwJFEItyXLcZEDB0KeeT94KCwSoKuh6sHJeQ0qwsmslINzLmeUZXRCxWAuTVQSMlM0VwYxoFTUZiThvlCNB8GPiaddlpPnfgmPfO8jb/w4yA3r2eM/KfgFrZTVMptQP6xeYkSjjEeAcl8JoATAy5TpDoqUYq/BKb7KrBcoUH73PLAnrZ6N1ZkNsWzILgWTAZFwromZD2bVIW8RAJJh/EaTIVyVJOeoeU11DhGhGBXQoVuPTqEoLp/ol6WJH6grj0/vbfC5eDhUiYeY6IAvl14gaCs9fl1mLBOM8khzNpAZ3TTGSAhgGRttaHyzQ1xaYMGHWHotko0LxbcDxWcCarzDnhYgfAhZAK0vXBG2KQQiQBiHV0BSzyIIWBqrrLHlfU9AM+5pJtR/Khik4KklDqsTDH+EmFsmwVVQtJemXVuiWMJgiCpT1KcZiYEDIGbEkF2EoxByZD59lqYYhmXI9lRLeL/MWAAmAVfuCBE6ABKCVNBKItV9jsgi8vuexoY1QJRa/GnNIhcanfBuHfo2YQdW/+VwLfSmp89DdZo1LH/51IYHLlcEgLRv8SwH3W9++Cnah8w0hWIuIlUHrJ2PkMQnvozS1LigxYZIImnvox0qcxmwRJL96Fhk2rPPEgHXMMB26d/W6iLwyLDXQoDqzgDNzkb9aGIh+dSnjb4TuPyuYSP/XSl6zH+lLnyMLX/hLL3KdYlHiBKzeoWTh2pbQxICVpQWUmkiV79etsy7vxjewiL9dI84KndG5yNaowBqTa0Tmr/0uVhWwwFjEKZHWuPZqV4FFZtCcW/F5EfrHA1ONsyqCyKz0ScuqDCC7yofsygAyq/zIqvQjt9KHrEqvzOeUcywg4xkVAVmXXRVAVgXHWlBQ0YLsch8yKnzI2dWCwj0tyK9rRWbdfmRUtSCn0oOsqiByKgLIqPJjRbVP+qxqP3IqvcipUv859FHlR06VH7lVfmRXeZFd40duTdCsCSKnJiBzOdU+ec6pDiC7Zi+yqgOyJrfWi5waL3JrW5FdHZQ5245XErHz1STsfCURO15NxM5XloBjO15dgl2vJWHXq4nY9UqSjnGc7WWuScLO1Tq369UklK9JROXaRFSsSUXttqfQULEYe5sWo+vEo+jtvR+dh+fDVTMfu9Yuw26xm4Rdq5PFx+7XUrB7dQoq1qTo3Opk7H4tGRVrtVWuSQZbxZokVK1NQRX7dSmoWpcsffXapahZn4raDSmoWa+tdgPH+LwMtZuSUbcpFbbq1UtQvSYRVWueRtXqJahc+zSq1yxB9eqnUfPa06henWjel4TnVz8F7quRdUmyv35TMqrLktHh+xk++PhH+Pizefjj51PRc/Xb6B/8Ds5/OQ4X3pwLZ9VC1K9PRvWaJNSuTUTtuiTUrk/Cng2J2LOO74moY1ubhPp1SbK2fkMS6jcko07WJaN+fRIaNiShcWMS6jcmonFjCpybk9G4JRkN7Dclw7kpBY2bU9C4aSmatqSgactS2PZsSEIDjaxPFCN71tNJCuo2cjwZezYkS1+/MQl1GzSouvXJqN+QiPqNyWhgEJuT4dqaiO4DD+O9v0zF+4Mj0Tb4DTQODsOuwRuwe3AYGgf/DQe+/BbaL92Gfc7HUP86ASyFa+NSODelwmkCZNDOTUvh3JIM1+YUOBkoA97MoFPh2pqC5i2pEnyzjC2F1bs5vi0VzVuXoZn9tmVwb01Fi/TLYHNtShEWXJuXgs25ZSlc4kydWO9kRtZsTQkHIc5S0LgtDYcrn8CfP5uK32Mk2nETtg8OQd0XQ7H786FY95ehqP38a9h8ZQj8X9yIvo8mYL/7MTSWpcLNQLaxT4X79aXy3rKVz6nwcKyMweoz3z1lqfC8vgyeMm3esjR4tqfBw74sFd7tafCVpcG7fTl8O5bDx/edafDvSIfNvY0OLKfquGXrMnHiYSBly4SZFvZsr7OlyrM4KluGwO6leKP7MXw0OB69GI69gzfh0JVvouLTG7Dh/SiseWcoVv1PNF59Kxpb/hoF55VhCLw7EUeaF8C7PRV+E6Bv+3LzvFwCDDDgXQw0TQPfmYbAzuXguJ/9jnT4d6brmPTpCO5KR5DP0q9A6+50tO5Kl96mjCwTY/4yMrFcmPHtVFYCZQyAztWof8dycR7YmYagPC/HkbbF+PivM/EWboJrcCgargzD9k++jl+/PQSv/W4INvw2Cs/2ROPl3iFY/btobP3bUDR/9g109d+N1vJUBBn4ruUI7k7H3t0rECxfgdZyBrkcexksW3mGzO0tT4e0ihXYt3sF9pWzpWNfeYY+72afgb0VGdjLuYoM7K/IwL6KdNiEISIXBtPFYcByQMe70xGoIGMr0Mq2m2tWiKHW3RloLV+B7gML8fGV4Wgf/Dq2X7Hh9T9E4/lLNixtj8Zzp6Pw8oUorL8UhZcufQ2rLw/Db/qH4pUPh+L4+TlorVyOAybo/eUZ2F/J4DJxoEqfD1RmYF/lChwoXyFzHN9XmanPlZlo43N1FtoqM9BWmYUDVdzL8QzpD1ZzXO3ZhJnKdOwnU2SgcoUar6DxFThAx9UZOFCeiQMVGThgHOyryMT+8nTs35OOt4/MR/+XN2P/P4Zg4//asPKiDatORSHroA157VFwnInC8wPD8GxvNJ4/++94oScaL1weiuZ3JuJwVSYO12ajrSobB6sycbAmCwdrM3G4KguHarJwpJp9Jg5xrlrn+c75wzVZOFybhUPV1nM2DtXqM8cOVWfjSE02DtVk48ieHNjaqjLQJkyQlSxxSGYOVmWhjY0OuNEEcqg6U4y3VWehqzkZ777/A1z+xyh0XrkJdZ8MxcpTNjxzIgo/74rGs0eikN8RjWUHo5F+YAh+3jUUJd1Dkd8RhdKL0ah9bzhOHk7C4dp8HN6TjcO1uThSy4D5nCPtCMf35OAo36Vn4NnmPVf6Q7U5OFKbi0OyP0fm+c7GfQR6vC4HNqI/LOjJCJnIwuE9WWYDmcvEkYj3o7Xq7EhNLk4efBLvfTEOvYM3Y91nN2LVxSF45mwUHG02PNsVhV92DYGjIxr5rdHI9g1BejAKmcFo5B21wdEVhbJ3b8DRSz9AZ2MWjtYzoFwcr8/DsfocHKtjy8bxhhxpxxpy0c41bA25OFbPtXzX56NcTzL25OJYA/caO/W56GjIk7U2Gj1alysLj5EN835cNubh2J5sdcqehupycbQuTwI7EUjCwS9vROCLoXjx42is7B2C3GM2FByyIf+YDYUd0XjuRBRKj0ehZL8NeX4b7PttyNpnQ0GrDb/pGQpP1wNod+WhvTEPHY15ONGQjxON+ehoKJDnjsZ8tDfwPU/7xly0c76eY/nolLX5aBfweUJMhxCTh3azhuvaG3JhazdMktV2MisLySIX03COtOMGIDeR7aP1WTje+hRc74/BS7+NQsmFaJS0RyH3sA35bTZkHI5C3qEolB4dgmdORuHZjigUt9rwTDAaBZ4oFLUOwSunvokDLWnocuai05mHrsZ8nHTlo4vNWYCupnx0NRWg00lQBTLW2ZSPE64CnGgsQKdZy3nuZet05aGD6515OOHMk70y3pQPG9nscCqrZLe9IQ8nyLDVZEMeOsk4DdCgk0Rko925HO6Tc7H2xI14bu8wlLZFw74vCgUHbcjeH43s1mgU7Y8WwMX7h6J031D8vOVbeMHzHby4dywaA/fhmDMPp5oKcKo5H13N+TjVXICTrgKcarLjZBMBF0jPsS42jktv5mTcLgQRvDQhiut1rWXHRlYEBPvGPHQSpMWuK0+NNOehsylP2XZqMN2ufHS4C9DpSUNd8EfY4B+HVd5vICdwA4r3UbJRWOGPQo5nCJ7xfwfbWmZhZ9N3ccidJgpq96ahqykb3c12AdbtLkB3cz5O891diFMtJIBzhTjltutzM8dIRCFONttx0rzLsyGmm+RwfZM9RBTtkCAbJaMy0V7YM4DI6imXXRnnc1N+iHE65FoSdMqVi4POTGzy3IZnW7+G1OYoZLXYULAvCiW+Yahx3YcObxZO+nIkSz0tDpx15yuoZoIswJkWO7pb7DjNvrlIwbkLcdpdJAScdtvR7TbzTQSj2RciSIiow45TLSRB57vdhbLnDMFSxqcki0YqFnMuBkA2NZBTwrodp9lbz2KQWbDjZAsB5yHgX4QtTXfjvzw3Icd/A3JaorFyzwi0tDyKHq9dAXkK0e2xo7uJgRSiu6UIZzw6d8ZTiNNs7kKccXO8EGda+Mz5Ipnj2tMthUpAsx1nGE8TY+Mz7encGeOP5NEefdm6ybBIgxk00mm24zSBkkl3AU57DHgapjExoA5oSJyboNrdGXC3PI7f1MYhoejbWL/pEZxuztGguc9TIPvPegpx1luIM54i9PgKwXcNkGN2nPUUSeth7+U7gReJrx5vIc4yDu432ZMkuIsEFO2IbcYksZK4Ith4RjT4IpxuIis0YseZZl0orPoYJNcV4aybgRnWOcYgPIVgAAyy11coe8vWJWH21HHY8qsncMqdjx5mkwEyi54CnPEWoqfFjrO06S1Er88BASbgi9DrcYjNXpISsMtcX4sDPc1KzhmPQ/wK6BajEsmwpZQiIYe2z9KWj2AZLNmRM2CyRjbIogDjGBljkGSfQRahxwJIY94i9LRopvr9dsnQyuwfY8TNN2Pp4nvkou9uLpSAe9wEwUxRMXac9dnR4yVQh9rxOtDro32uK0KvvxBn/fRbhB4/35lxJVz28d3t0MxbahD7tKFE0g6TYaM0pJmzxKyGMmDNCTgH+uicgbBnBrzcqwo462X2CjHgs+OUqxRFy+7BzBlj8OBdt6Ek7Yd49T8fQ936J+HelozWHcvg3pmG9voCOZtnWbBEulQIQWommI0+X5EA7fM50Be0C1iOkwQFzmKnxHCcMVEt+qwknTUE2qhlylICN/LU86ROON7j16wQKCXBDMseyYoy2BcowtE6O7zbUrHmF0/g4fvnYPqUsYidMBozp47DXbPi8ND9U/H9Oybjzjnjcf/dcUhP+iHKX1mCdmcuenwl6GeWvMXo82t2CVTI9RWin89e4zs0rtJn1vp8ehREtoyXoA14UQRlrEETLNmlwTC4MwRjDFvSokMdc0h2Scz+2ixsWrUA9mX34PEHp+GO22Nx14yJuPuOcZg3NwYP3DcFjz00GwseuwN33R6Le+64FZMnjcX3bhuPnz44Hc8X/BiBXbno9RVjIGDk6yNgh2RWer8mhAT0BRlnscwz3r4gyTAEMf7WAjlqTIwQRvl7i2ATOYimFbCeA2VMKqXXbDASFmcBysSBbmch/GWpWJV/L35631TMmjYW48aPwOQJt2ByzM24fdZYPDQvHo8/OAPzfzILD31/JubNnYw508djatytGDd2BCZNuAX33DkZK/PvQ7AiU4qVHhcH+hikBZj+CczvQL9kvhi9fq5hfOEE8F0kLIXOEGaybGPw1DQN60JmWBdRCjybdGIxJxmWQlEsRa124yI88ZPpmBk3ApPHDceU8cMRN2EE4sbfgmkTR2Nm3K2YPWMUZsaPwbT4WxE/bgziYkdh8rhbEDNuOGLH/wdmTB+NnzwwHeufW4DOBl5NPKsO8StKYnw8dxJjMXoo9YAD/UED3LxzTKs6540NUaaO26yCQBAErMWBjoycCDQYwSDHKQ8CDjrkr4OJ8+/G92+PwdS4kYibNAqTY0YhbtIIATUldjQmxY5EbOxoxE0ejdiJoxA/eSTiYgzYCcMRP2kE5s4cg/Qn7oR3S7LE0OcvRq9Iuhg9AUpWzzLjC2XUT+DMpIKRcT4HVBHEIEoIaG8jSJFKsFgAyjulwewSqL8I/WRMpKMgGYiMeR3YV5WPdat+hsWPzcGc6TGYFDMKEycMF3nGTRiJ+PiRiJ04ElNix2B63FhMixurWZ48DjPix2BK3CjETR4pReyR+6Zj7arHcbwuX9RGEKIuAvCXKGCfyahP42XGNaOc1ySRJJ5p7pc5St9XAlt/oAj9lKvJKlkhEFkoTq7dKEyZasnK2dloh3d7BlbmPIJ5352EafFjEB8zGjHjRmD8xFsweRKzOBKTJjHbIzE1bgymxY7GdGY5ZgQmT7wFU2JHYvbUMXj4/ln4del8HKxZLt/GzJoGG1Yc3+XM+jXTQrzJYG/AyDuUGGacCWNyimEbkLvMoZliusmGVw1ykXWOWQFVzsW6xsieXzId9QXyx3RH2r149IGZuHNOLOInjREQ8RNHIi5+NKZMGI1JE0ZiYgxlzDM7FrGThmPqpBGYFjMa350Tg+T5d+P1FxPRVpmDbjeLoFZcAS11olALkgHXR3AE5tH4SUQf5e5R5cmcZFWrvG2ALzzoRteUK8s/7zUyKDLiYbcMU0Y+XUNWpQX1Ig/szsHLv1iER344B7fPnIDZ8aMxe+pITJ82GtPixiAuZjSmxo5CfOwI8CxzbPaMsZg3Nw7Jj96NLb9ahLbaXPk5xq8fqbK8EhmLHCWtwIxLGmPiMeRRM5VZjqSp0KqCYvQFNeM2GhkIFqGPFc3jwEBLEc4FyQQNs0gYQATmLRagBDhgKqFW8UIM+IvR2ZyHPeuW41e5P0JSwlw8eu9UPDAvHg/ePwX33jUFs2bcKl9Vt992K+bOmoDvzY7BA/dOR3biPJS99hQCO9Nxst7cDpJVgqF/Fk99HuBdHCwWaTJzbMTQ7yuVtQOMke/Ew8RYa3yU8V5+4vELRNnTcm45YNaLcc7ImhlXtkrkDDDbA60OnA/qdcBvZP4loa08F02bU7F5VQJe/MXjWJnzMPKX3o/khNux4PHbsCThDiyZfycSn7gLBSsexM6XFoN/5TzZZEefvwQDwRJREouSBG6y2h8oRX+gRIAzm6F5UYES0t9KIriGJOhZlaPqd8B2LlAoZ2Og1Y7zwVJlzEejyh4z1ucrgcidGRWmGUSRZpfsBUrQL+owcvI55KfYybo8+fNn4PVUuLcuQ9P6pWjcthT1a/g/f0kofyEZTWX6R23++KZ0z/lLMUB7If88QgqQFZWZlt4CI0fNzHMd570lkoRzApbZJXkOVmO9gEUaYtSB/lYCMXJh32oAWfOUsJnneZDzEzRXA4+FnCEtMMz26eZi+Zg/6XHIj4zOBjs6mgpwvK4InS5+rJegh3cmv4+pFqkhRo60T1mG7trwPI8aQciZJTAmi2uDDpxrLcY5IY0/IMw9OxAoNbIplezRgAANlOKctxDnZJ7yNewFyRrXlGCA80ENsMdXKveckECHVAHZZ7CtPCI8U/wZZ34i8h7ks9yFxejhPWrW65ksBeU3YLIiHxU8r5J5VulS9PsKQlljfBo7VebAgO8ZnPMXGcAqZ5uVIVkgGWPBUvZYuPoJKvhMqBqTJZGHsFWolY7VjllhL1lRJvmFparQYtcjMuPdpxd+D4uHFEgNpr/VBCq29YtOakSg1Hw1mXUCjHGSTO7Rc065Co5WxXCO/pk8aUbGfLEyIpmSbJlCwQuZ50D0r+eU1ZpBhBqLGwsZnbSqAlg9OcaKzvvyrKmuBGo1vcdpW2XKOOifqhF/Rn5aE/gT0CSC8hRg4boiGHyFQgBrz7nWEo2HiaNK/aX4fzOBl8qn24aIAAAAAElFTkSuQmCC;" vertex="1" parent="1">
          <mxGeometry x="220" y="340" width="60" height="60" as="geometry" />
        </mxCell>
        <mxCell id="WDatNG11xKEBm6-NoSf6-20" value="" style="shape=image;verticalLabelPosition=bottom;labelBackgroundColor=default;verticalAlign=top;aspect=fixed;imageAspect=0;image=data:image/png,iVBORw0KGgoAAAANSUhEUgAAADwAAAA8CAYAAAA6/NlyAAAcjUlEQVRoBW15B3iU15X2SDJxNtnsv+ssmGqKVajBBteETZx17BTb/EEUA5JAQkJdI40kXLCdOMnaJvRumkC9jEbTRxIdAQIhoYqpTmzH+ZP1n2ed2EnWiU2sd5/3nPvNDGx4nu/57nfLue95z3vOvSNsC51XsNB5FQud17Cw+SoWsd3Mb/Nmu5lj17BI2mbMeRWLpN+Miw0d035dQzvJzdeQTPvhvbjPFSxs5t7Wm2uvYJHz8i14otfQloUh+XZ8Ufsr3ghufhPDwubrsN0KzhowYJsVrOVw5G02phMua65py7dx0nVdNuFGC5zXkcwxC9ht5FkghXBxJspuFOkWBiHQBIJ96pCuCbdd15AsGDhOLNdg08m3RjO8gBu5zJhh1yLoljmcF3bEALWc+ztgLdCWkiKqYrSNrbB6IvvLmAFOEvX79vFooqLazivitDisAOgcGVG2VDJRCwQ4jbNP38mWAiQilsSvK9umj6kStukyY+HIqIxpT52mStQBITasHu2LkGzhiibnNrVF4RTMBo9GmKBuj4Tk3lWVoUjGOCu5qJImKHX6KoQgsaOESU0gYErKdUOlbRwQ4BYhYSKjwauDJCLipO6v35HxsFrEntmbzobta59lJyrCypA1oG+CVe3TsDUmUZNvM0ZywrnCeczX61jAOXyLvCPKUJBR0TbkWsoRsEKO2r9dbVQD7cpj1BLGZn0LHu4RwShFy3JIqp+JXnjjKIbD41FKYJ+ljLBh46xVoBY7r2CJ6zIWN13WqhyOqMpSi1R0RKIiHRUlkbjzmqnujPDfCcQtMo5WQWSuKVrs0GeBZSgqshECrmEBSbGibWSkhey6Hm1c57yMRY3X8OLJd+F++3c4+c5/oe3t3+G17vexInAdP3ReDx8v0dILS9g4KkeXi0eVyllOhLBa1InoyLLNqIfxWeSaVGO/TZwJS1In32L49ryzNjegVJ66kW5+FQuar2LNsRv45R/+hM+HhzE8DAxjGH/862dovvZ7pLvfioqUcUZOgStYJGcz++ioqdoCXAlNZlEzmCKO/e/jTtea4hbGehU2i2Er7ywHLKkz8sKcyQ0ZN1EOR4SApO8qFjgvY7nvGi78+kMM09Pb/v3przfx8tn3sahRLzxi2yqa5mKiqWLJXGvLAqnwJiAmkoKZuFy3F7fob9oxjlsRtiQjeSeOabJHHDV5JXKK5K2QZUXcyHxx8xX8uOM9fPzJX25zVT8//3wYTVc+xmJjK5IuGmli0eoflTrG2eSWG1jotAqpKXqGaIm2izlOOxHVhNvm6FNJ00mZqEcImWOuWuenGGtSI0oC5UVgejXUHDYAm67jpdPv40+f/n2Hh4c/h/udD/Gs5HpUflrEWTloHXF0toXO3QAdXtD8trYlMMax6LZlx8pfGSM2JcJIWjsipf56uFDo+aoRFmfNcSAO07hsYJFByV1HpucXuPbxH/+upD+7eRPb3/otkpveCoMQMFF2NK3MRUiq/g05y5NdN6AP99G7APERVySSSnzk22A3RNxyDifLfZfn53W57EdHzjqW9OwzFTkqdxUkN9Oo7+j5Lf782WdgubL+fT78OX754UfIa31XzmixGQZrRcsUJ5MiImPjtBXlcO5a0pW5GkGORY4sJYMFzCqAtsggD3K9EUXemi90XPJKrp00EikedFTGwtJhHl1Giv8K9lz8Dd798I/4+K9/wQcf/zc6/t/vYT/6LhaJnCO3NSsaQiZzUqqw7m1h4W1tASNsClZYBda+tGmlg9V3y1sJNTnMo+SaPDTEXyIqE1OhKRsjCY0Kv6OOAjMmzhtpLnFewTLXdWSHfoHyI+8gt+0dZPiuYUET7ZuCE84zjQQx0Hm1bWFQiUpUhShVn3UqqON6u1OHNdKKRY81ia5EmceSyFK9t5yMGFMg4Ty2GLMqo3VO0slwkYkc/kqejkl6sIpGOWlFNgKawHVPWRt13tK+pJockxZhEVJU5laqabUWfwQbMajz4SotgFh5TYS0GCnjQoD8ilG2IyRdxcImc55KxM1845QSqBFLbjJrLQAyR1UiERXnNDokhWv11hQJRjjKFvGGEGuu7mdhpoOWCs1p4Lyiv4eVYctZToowZ41pNDRakcoccZYgSZoSZyJpXSSiiYz+KXiLY0qIVR8s8NY7rAbJUyVBVXD7jwg9Mq2IWoELFy3LICPLtiU5tvUioqyLcYtZkwbJ/FEtUjHRM0VDFUDirOpoWJf1JM08JsoWBstZJVkdCTsqa28tlhYmPTlMHpsapDasaEf203NYZGzurSYqAsLongBV6hED1nikIBgJiYwsORmHjR2usebTEbEZ3oN/kWBBMxKWE0NzWlLKkCyOhO/+ltz1XNZrsFGhRe4t72uwWclu5W74bSQaiZZKVpy3pCvG9C6rylBCLPmEnbLmmdtZeA8qQGRN4FZEb00nIdZaL4qIKE6jHzmOJOKGMB1TQiTdjKrCPw8j92jrHCR4bk5Q6gh/BWkh0cNdJNjC+VbVJCmMKn/70gFueAXPtlyWtmzczDSwnIquyJp7updlz+Qjz33rT0/GeSXCcl4dUyeJ1VqnKuJxp8q6CltOVQg5h0LIPuRHdqUfOZUh5FX5kVsZRHZVADmVfuRLv0/m5B0MILsyhJzKALKqWqWdzfYhP/Iq/ciuakVuZQA51W14sdmDVzs82NW9C5t7GrHlfAXeaGtAfkMAudUhrK4OIqfa7FMVQG6lD7lVQeRWBZBHXJUB5FUHkc8xYqoJIr+G+IIynl+rY8SbVxOUubk1bWIzv4pzfcir8SG/thW51UFwzHZg3XLsW7cc+3++HPvZ/nkK9q9bpn3rl+HA+hQc+PlyHFiXIn0yl/PfWIp961Kwl22OvbEcezYuR8WuNJxqWoJf/eL7+OCjR/DBzQfxq8+n4Ld8/jIZl3/zMOr3LEXFhiU4sCEFBzem4tDGVFRsSMOB9anyXbE+BRUbU3BwfSoObUrDoU2pqNyUiqqNaajclIKqzWmo2qjv6s2pqNqciupNK1CzZSVqt6ahZos+tVvZl4aazemo3Z6K+u0rYav6eQqqNyxD9cblqNrwLKrWL0PlpmdRvXEZavisXypj/Oa8ShlfimrO2cSxpahcvxy161NQs3Up2pvn4/9/NAcfD0/Cr4ZH4dznd8I3HAsnvoTg8J1ou/mP6LsxC979yWjcshz1m1NQv3kZarcsR93WZajdvBx17OezKQUNm1PQsCUVDVtT0Lg1FfVbUlC3NRUNW1LQuC0FTdtT0Lh9OZq2pcG5IxXOnalo3JGKpu2pcG5PQ9OONDRtXwHXzjQ071wBG43XbaXRFLMR39woDfXbUtC4JVU24Jvf9dx023J5N2xbhvptqWjcsgK1m9Lgr5mP//yvGfjD52Pw3vA/wzX8JTR8Gofam3Go//SLcH4ai12fxuLwp/+My+/ORajp/6J2ywq4tqXCuSMNzu0paCJYAt+xQsATpHNnGlwEvYPAV8K1awVadq5Ay640tLCP3zK2Am6O716Jll3paOF7dzrcu1bCI+902Oh983ZulobmHSvkce5kX2Qj61s25JxdnJsmQJw7VorB+jdX4t2Bh/Hn4cl4FyPRhX9A+6d3ovpPcdjz4Rex64M47P3NF7HuvRjs/+sIXLr5FfRcnYag8xl4d6+Ad9cKuN9cgZY30+DevRLe3Svh3rNC3p49BKx97PfuWQnvm+nw7k2Hb286/Hsy4N2bAe+eDPj2rIR/b4b0+feugn/fKgT2ZcC/PwOBfZmwuej5bt3EbVjghp6d6XDTsGysDHn2pEM2f3OlgHLvSdfN96VhwPcMPvzzTLyD/4MQ/gFtf/syPJ/cierfxWHHr2Px+tVYvHEjFq/3xmLjOzGo+uQOBD75CnouP4rAwVT49mQgsDcDvn0ZCOxRJ/z70xEk6AMKOrBvlQAPHsiQ/sD+VQjuy0RgfyaC+1chxPeBTIT47LfeWWityETrgUy0VWTCRja8ApxsrUJgzyoIM3vICtsZCO0lO9wsU95kyr83Ez7ZZBWCB1fh8uV/wx/+Ngk9w3dg359jUPn7OGx5/w78aCgWP70chx2/iMG263FY1z8Cm98egdevjED1RyNw5nfj0N6QgrYDBLtKwLVVEGQWWg8S5CrzZKLt4GpwrI39fA5lob0iC+0H+WTi8MHVaD+UhcMVq9HOuYf4zkL7odU4zHZlJmyhCrK3CmSr9UC6hD1YsQpBslKRiRCfg5kIHiJjWfK0ck1FFkIVWQgcykF7RQauXXwcH/7tKzh18w7s+MCG7Vdj8MaADaUnYrC2NwZrL8Xgp5dj8OP+L2LTjX/Ca51fwutX4+D75Ri0NqWjvSIb7RUKjOCOHMrGkarVOFy5GkeqsgTskYNZ5pv92dquzMbRymwcqc7B0crVOFqZgyNVXMv+1ThalY1j1exXezZu0nYwC22HMoUNaVeSlSwcIVuVfNPgahw+mC19ZOwIWavMRIczBUNn5+M/33sSXZ99GZ6PY7Gh34a1PTa82hmDHx+xobwzBo6uGLzQfQee647Fj3r+Bf/ROwKvDYzAoV99BcePL8HhagV5jGCrs3G8JhsnqnJwvCYHJ6v5zsbxKu0/VqPfJ6pzcKImBydqc3Bc2tk4UZsr3+xn3/HqXJysycWJmlycrMuF7YgwZBg4lIPDVTmQTatycNQ8wla19h817xM1q3GsKh3v9X4Hf7yZiGvDd+H4J1/A9ndi8Mo5G17ujMELnbFYd9qGl07HouBwLAqPxcJxKhbPn45F2dkYrOmPEdmfuvEATriycLwmD8dq8wXc8docnBTweQL0RF0eTtWyzbeCP1mbhxN1+dJ/nGO1+Thek4+TNezPlW/2napTG6fr82Ajg8eEiRwoc7kQ5upyZKOTZK8mG3xb7J0iq3XZONm4GgNvz8Gv/3YXjg9/Gbs/jEP5QCxePBeD54/bsOZMDF45FYs1p2JRfiQOdn8cikMxKGqPwZoOG17ssGHdYAy87/8rTnsz0NGUjzMNBejg05gHAuyoz8VptuXJx9mGPJyWJx+n6vPD7Y6GPJzifCElH/zuqKetPHQ05uNsY4HYsJ2qy0VHfR5O1itTp2rzlcWGfJwmm3UF6KjLFWP87qjLFyAn6wpwpmk1uvt/gOOf3YmDH8Vi77sxeKMnDo5TNhQds8F+0iZRfe5kjET1J0dj8NIpG148YsOaVhteaLOh8HAMtnZNRGdTLs40FeBsYx7O1hfiXANBFqJTHu7FsQKcaSzEWRLTVIizDYU6p0n7zxBzvTrGNsk7Y+bQ1tnGfNhONxQaVskoF+QLI6fDC7gZNyCbNJAvG3LxqYZ8dHY9hdrf3IW1fTaU9cXiR6djYD8ag8ITNuQejYW9PQaOk3FYezYGP+2IxdqjNrwYHIFSXxzKPF/Az458CS3eJ9HRkIOzznx0NhWhy1mITmc+zjkLca65AOddhdLmmPYVorO5CJ1NnGeNFeJck3maC3BW+gt0fXMRznPMVQQb2TpLhpxkqQCn2W5QNsVgYwE6nQU4TwBc5CzQd4s63ulNR+O5GdjU/o/4cehOvNweh+ePxKD8uA0l7XHI88WixBeLl07egZfa78RLR76A/3CPw073dOxtmYt6z+M41pSJruYidLmK0OnS93n5tkuftotkDtvnXXZ0Ndtx3sV2Ic47i3Deacf5ZhJkHvbJeBEu0GaLPjYySNbOOpUVOt/Jp5mG+BSooZYCnHPRcUagCBf4duWj02vH6VAGnK3fx65QIl71fxlF/hF4zmvDc95YFLTEoNR1B171j0SN91E0eJ7AmeAqdNU70NWSJ9G84C5El8uOCy0KrpttdzEuePht18fNcTu6WnRel6s47ATXsZ+E0Ul1UNexj98XuL65CLbzlAxZoYwoEUaRzlJawmYRLjTb0eUu1IUtfHPjQgFwzlWMzuYCcf5oYy62e2diTcudyK2PQb7LhrLWGJR4RqCm6Zs46y3ABU8+zouNIvS47OimA8YZabfY0eOxo9tVrE67i9HjLkEP+912dPPby3E6ZAjhes6P+hZiXEUyv9ttx0UhpBA29dw4aWQlTDOKwnohuluK0O0pEnA9niL0uIsEwEUPQRBAMS54C9HtykfAvQgHWuZhvedfUOSl43F4tWoMPO6n0Oe2K3Bvsdjr8ZSoE54SXPQWQ+zRJsfdxbjodph+jvEpkbGLXrt8Cwktdlx0FwkBdKynhbaLFZ/MUwKJkzZt3R4yXKjycGleqKN0SqXQTQd9ZItz6XyxROGi245ej25OwD0Cyo5Odw4CLQuxoWoWFuSOxPZN89HTkq9rxCFd0+ctRp+vGL3eEvT6+S5G2BmvHb1eh4z1+Rzo9dvR6yMxJbJPH+dzP64XFTD6xFiiZNFZYiJxEhhda+tuKRQ26HhPS4lIiSz1+CiDiGMX/co8o8IN+giSADiPm/oISAET3EWXA2+uT8P0+AnY8tJTQio3viBkFeGir0gA9XmK0eexHCtR530l6POXyB7cp99bgr4gyXFgwOtAf0sJ+v3cS5VBx0k2I0ipMwWUuBJRBXGRPNq0XTSS5LtbckCdlDwybJF5OkoGRXo+dVjAkGl/Cfqlj+1iDPjt6PYUYE3Gd/Cvd92FxfMfkksMwRBcrwAukuj2+ezo89vR73OIQ72Mps+Bfh+dZ18J+gPF6A2QXAf6Aw4MBEp0LYngOo65HRpxIYFrVUW9Jl1oh49NouRhrtCgFgRGl7Jl9EQ2XORR42S2XzakkwqMjl/0FqHPXyhGL1ENrjKUrpqH2TMn4N8fvB+lK+dh/cvPoGHLs3DvSkPrvnS496XLreqiuwR9VI7frlE1zkuU/SUY8BMb3w4MtNrF4X6SHFAskhJuJYdr6BMdpYMSLHHWIXZsKkOVEvMpLBPJL91IDPgpKUpJ56pMuKld+3wODLY60OlyyE+z3a8sxtPfeRD3z5iEhMnjMS1hPObOSMCT356Oh+fG4/7ZE/Do7Cn44Q/m4PXy+WjdvwpdzSSR5DpEslQNneWezNnBgDpNPH2MNPsDDkNSMQYZDL9DU8zglblUghDECDN/TM4wYmSLm/YF1EFK1JosG3tLVX5kO+BAP3PKV4JjzgIcWLcML+f9OxY/NRsPPpCAB2ZMwcNzJ2HeA5PxrXmJeOrxr2HxDx/CvIeS8PjXJyIpaSIemTUBD903BUt+8AC2v7IYZ2oLNNoeOkTH+abjDgwG6bxKeiDkwICvVCVOFbSWYFDma873horA+sC0UDUoWTaJWqAYAybsfX7NJYs5EsA8GZQ8tTZ0YDDE6DrQ5bTD92YaXil+DD98fAbmzLwHEyfejYRJo5Aw6auYe994PDFvKpKfnIWFz8zGM4/NxZOPTsPDs6dg5rRJmDRhlDwzEsdhwZPTsXVtMk405qPfX4oBfykGgw4MmmhKtCltqy9QKqSTeBIigRGCtM1Uoz9CkgmqTRnUQsFiwMV9/lLDjEaPVZKEWAzKPLIdKMN5Vz52v/YDfOexREybMhLx40di6sSRSJw0CkkTR2HGvWMxO3EC7ps1FrOmjsX0pAmYds84JMaPRuKEu3HvhFFImHgXps8Yg7mz7sHSZx5B7bYsXGjOR3+QMlVMVJ8ERaRZij5fKQZDDgy1OjBEpflKIVFn5EXmpUKM5L0UOu23aQHSqDL0WgHptDLDNzcaMoYsmVHKAzwq/Hbs+dkiPDlvBu6bMR5J8aOQeO9oJEweg6nxo5CUMAbT4scg3jyJCWNw75Qx2j95NOInjRJy4uO/iqTJX8XXpk5AQcq/obUyDd1ulW9foAwDwVKNOp2h8wFKnBjYr7msctexAQmI+kCFWEqxcbFonI6FND9V8yZHGFmzgBKmUSkegVIhoc/rQOOOVSjN+AYem5eEGUnjED9pNKZMGon4yWOQSMenjUbCvaMxPWEcZiVNwIykCZidNB4zkyZjZtI4JCWOQXzCSHF+atJIfOOReLyw+lsI7c9Cj69Q6kl/gI6VSf2QfGZ0KWniEeyUdZmSQkJIhp85rmkxwHegDDZGlMVg0FRgIYDfQTqnBsVRX6lGnYa4RuRfgh5fGY5W5WP3TxYj9elHcP+sCUiKZ+TGYtI9d2Pi5LvBqCZNGY34KaMxdQodH4+Z8eMwM3G89JGMRKph8t1Imjwac7+WgOSnZ2HHj76LMy5KW29ZTDVRHHOY+MQZOlSqTjMgQZUyg0Tckv+CtxRDwVLYBhkpOeuUFSuKAyxUskALg8glVCJ5o2zrcUGGu1wOtFYUYEPpfCz6/hx8/cEE3DdjEqZOHo+pCWMRP3k0EhLGYPqksRL9eyaORkL8GCRNmCDvROY+C93EMZgePxbfejgJ8793P7a+MB/Ha7PDt69+qdKa04JPHDf4iJfBYOoxUF4lgtJXx+mwgw6XSNKzAIgMrAk0ZpyWSi5Rpyx4s1EZ0YAlld6gA2fq7Njxk6VYnfJtfH1OAmYmjZd8np44CjOmjsa0+LGInzgaiVNGIX7KVyW68feOxdSEUZiZNBZzEu/BI/ffi+TvzsHa7MdRvylVfrHJ5YHHC7ExyiJPh0RsKEQV6okheSpSNnksRxnn8VRRadtoQCaGWIlL5Vwd8pSIMUZfZE3JWPLxlypBQYfkMAkYCpZgIMQbjgOhyiy8UbIAqc/ch68/lIDZ08Zh5vTxmHP/JMyaOgmJCZTv3Zg+lfIei+kJYzBz2jg8PPdefO9bM5Ey/368lPcEDq1fio66QvR6ysA6QdKlkLI6E0MrcRjspsYM+ssF5xDniMw1+iJr4vWXwkYJDLWZWwoLFBmSyJWFzzhG/5JPmRoSWZfiUqhMSQlycwcuhcrR4y3D+eYStFfm4sBPluP5vO9iydNz8PR3ZyP5sVl4/Jsz8e0H4/HQ3HvwjTnj8eCsCXhg1j14+IHJWPS9r2Ft1rdR+0Yy2g9k4bzL3NcpT0aI11k5d1mxy8Qx1pJ+tjnOo1NOmVIMtmqB0kqupEjaBkphY7iH5Hhh2O24FCzXHCBbJrJSDQNlElkmvjJbDjrPR85oHh28jHiY22W44CzEkYPZqHk9GW/+LBkbSp/Aa2u+jxfyHsfzBd/Ec5mPYvWSR/Hs9x5Abto38NPSJ9C8ayVO1xSAPygGgyS81Nhmbpbrt79MqjErrtQYwUMFaIDYLxcWX1n4jNZ5ZVJ/bEOBcj3LmKPMByn1bDPaRhohjeIgoxrSM5G5I7Ji7kseURm8EKhC5GbmL8F5tx2nG3NweHcODldkyP8YtFekIbgzE03b01C3KRVN25bgaHW+RPUij5aQOsN0kmJJ50V5rNKK8RJzkhgEo54c0g6Vm5zlpaQUl0QNppgFHLDJpSJIeZIhbmQcpbFAOYa8xbjEtxQ1lZI43kYGyzDkKxajXNvnL5cbjxQIySvKTc/CXk+B/iDw86dmIbqbC9DtKZQ/KPB3d1+Qv5bM9VBSirenMonwgJ/R1V9nEj2qjccPVei3Y4i4KetgOS5Jimk0h/xrcClQok6b4NkuhUwFE8bYNrcSwxwdpbyGQuWqABoW5vRqN8B7OCMsUaasy+RXkyghUIq+EPOdOagVfrC1zJz5euHpZYHhSdGqBYYq4S2JtSVcqORqWCZVWk4FA57YWD+EYFGfKa7sl6cUb/HqSRLkccAmC5jHBCQS4WQyZooDJcwxP53mwmJTpMxdVaTGY4EgSzHURhBkmDXARIJRptwJXC40alMuCUwB65eQdXMye4vzVJaohTc7lbqkkkiV+2iBIn5xyl8szr4VKsel1jJcosOCu0yU+j+cJcAeo/oS+gAAAABJRU5ErkJggg==;" vertex="1" parent="1">
          <mxGeometry x="280" y="340" width="60" height="60" as="geometry" />
        </mxCell>
      </root>
    </mxGraphModel>
  </diagram>
</mxfile>
